ISO-10303-21;
HEADER;
FILE_DESCRIPTION(('FreeCAD Model'),'2;1');
FILE_NAME('Open CASCADE Shape Model','2026-03-16T20:55:47',(''),(''),
  'Open CASCADE STEP processor 7.8','FreeCAD','Unknown');
FILE_SCHEMA(('AUTOMOTIVE_DESIGN { 1 0 10303 214 1 1 1 1 }'));
ENDSEC;
DATA;
#1 = APPLICATION_PROTOCOL_DEFINITION('international standard',
  'automotive_design',2000,#2);
#2 = APPLICATION_CONTEXT(
  'core data for automotive mechanical design processes');
#3 = SHAPE_DEFINITION_REPRESENTATION(#4,#10);
#4 = PRODUCT_DEFINITION_SHAPE('','',#5);
#5 = PRODUCT_DEFINITION('design','',#6,#9);
#6 = PRODUCT_DEFINITION_FORMATION('','',#7);
#7 = PRODUCT('endstop','endstop','',(#8));
#8 = PRODUCT_CONTEXT('',#2,'mechanical');
#9 = PRODUCT_DEFINITION_CONTEXT('part definition',#2,'design');
#10 = ADVANCED_BREP_SHAPE_REPRESENTATION('',(#11,#15),#1431);
#11 = AXIS2_PLACEMENT_3D('',#12,#13,#14);
#12 = CARTESIAN_POINT('',(0.,0.,0.));
#13 = DIRECTION('',(0.,0.,1.));
#14 = DIRECTION('',(1.,0.,-0.));
#15 = MANIFOLD_SOLID_BREP('',#16);
#16 = CLOSED_SHELL('',(#17,#98,#145,#170,#203,#227,#297,#330,#355,#425,
    #442,#467,#516,#575,#608,#652,#685,#733,#757,#782,#807,#831,#856,
    #907,#925,#942,#954,#979,#1005,#1029,#1051,#1092,#1117,#1143,#1160,
    #1178,#1202,#1245,#1262,#1273,#1293,#1327,#1347,#1364,#1376,#1388,
    #1412));
#17 = ADVANCED_FACE('',(#18),#93,.T.);
#18 = FACE_BOUND('',#19,.T.);
#19 = EDGE_LOOP('',(#20,#30,#39,#47,#55,#63,#71,#79,#87));
#20 = ORIENTED_EDGE('',*,*,#21,.F.);
#21 = EDGE_CURVE('',#22,#24,#26,.T.);
#22 = VERTEX_POINT('',#23);
#23 = CARTESIAN_POINT('',(10.,-13.,70.));
#24 = VERTEX_POINT('',#25);
#25 = CARTESIAN_POINT('',(10.,-4.,70.));
#26 = LINE('',#27,#28);
#27 = CARTESIAN_POINT('',(10.,-15.,70.));
#28 = VECTOR('',#29,1.);
#29 = DIRECTION('',(0.,1.,0.));
#30 = ORIENTED_EDGE('',*,*,#31,.T.);
#31 = EDGE_CURVE('',#22,#32,#34,.T.);
#32 = VERTEX_POINT('',#33);
#33 = CARTESIAN_POINT('',(10.,-15.,72.));
#34 = CIRCLE('',#35,2.);
#35 = AXIS2_PLACEMENT_3D('',#36,#37,#38);
#36 = CARTESIAN_POINT('',(10.,-13.,72.));
#37 = DIRECTION('',(-1.,0.,0.));
#38 = DIRECTION('',(0.,0.,1.));
#39 = ORIENTED_EDGE('',*,*,#40,.T.);
#40 = EDGE_CURVE('',#32,#41,#43,.T.);
#41 = VERTEX_POINT('',#42);
#42 = CARTESIAN_POINT('',(10.,-15.,76.));
#43 = LINE('',#44,#45);
#44 = CARTESIAN_POINT('',(10.,-15.,60.));
#45 = VECTOR('',#46,1.);
#46 = DIRECTION('',(0.,0.,1.));
#47 = ORIENTED_EDGE('',*,*,#48,.T.);
#48 = EDGE_CURVE('',#41,#49,#51,.T.);
#49 = VERTEX_POINT('',#50);
#50 = CARTESIAN_POINT('',(10.,-45.,76.));
#51 = LINE('',#52,#53);
#52 = CARTESIAN_POINT('',(10.,-15.,76.));
#53 = VECTOR('',#54,1.);
#54 = DIRECTION('',(0.,-1.,2.2E-16));
#55 = ORIENTED_EDGE('',*,*,#56,.F.);
#56 = EDGE_CURVE('',#57,#49,#59,.T.);
#57 = VERTEX_POINT('',#58);
#58 = CARTESIAN_POINT('',(10.,-45.,64.));
#59 = LINE('',#60,#61);
#60 = CARTESIAN_POINT('',(10.,-45.,60.));
#61 = VECTOR('',#62,1.);
#62 = DIRECTION('',(0.,0.,1.));
#63 = ORIENTED_EDGE('',*,*,#64,.F.);
#64 = EDGE_CURVE('',#65,#57,#67,.T.);
#65 = VERTEX_POINT('',#66);
#66 = CARTESIAN_POINT('',(10.,-11.,64.));
#67 = LINE('',#68,#69);
#68 = CARTESIAN_POINT('',(10.,-15.,64.));
#69 = VECTOR('',#70,1.);
#70 = DIRECTION('',(0.,-1.,2.2E-16));
#71 = ORIENTED_EDGE('',*,*,#72,.F.);
#72 = EDGE_CURVE('',#73,#65,#75,.T.);
#73 = VERTEX_POINT('',#74);
#74 = CARTESIAN_POINT('',(10.,-11.,0.));
#75 = LINE('',#76,#77);
#76 = CARTESIAN_POINT('',(10.,-11.,0.));
#77 = VECTOR('',#78,1.);
#78 = DIRECTION('',(0.,0.,1.));
#79 = ORIENTED_EDGE('',*,*,#80,.T.);
#80 = EDGE_CURVE('',#73,#81,#83,.T.);
#81 = VERTEX_POINT('',#82);
#82 = CARTESIAN_POINT('',(10.,-4.,0.));
#83 = LINE('',#84,#85);
#84 = CARTESIAN_POINT('',(10.,-15.,0.));
#85 = VECTOR('',#86,1.);
#86 = DIRECTION('',(0.,1.,0.));
#87 = ORIENTED_EDGE('',*,*,#88,.T.);
#88 = EDGE_CURVE('',#81,#24,#89,.T.);
#89 = LINE('',#90,#91);
#90 = CARTESIAN_POINT('',(10.,-4.,0.));
#91 = VECTOR('',#92,1.);
#92 = DIRECTION('',(0.,0.,1.));
#93 = PLANE('',#94);
#94 = AXIS2_PLACEMENT_3D('',#95,#96,#97);
#95 = CARTESIAN_POINT('',(10.,-15.9,46.6));
#96 = DIRECTION('',(1.,0.,0.));
#97 = DIRECTION('',(0.,0.,1.));
#98 = ADVANCED_FACE('',(#99),#140,.T.);
#99 = FACE_BOUND('',#100,.T.);
#100 = EDGE_LOOP('',(#101,#109,#117,#125,#133,#139));
#101 = ORIENTED_EDGE('',*,*,#102,.T.);
#102 = EDGE_CURVE('',#24,#103,#105,.T.);
#103 = VERTEX_POINT('',#104);
#104 = CARTESIAN_POINT('',(86.,-4.,70.));
#105 = LINE('',#106,#107);
#106 = CARTESIAN_POINT('',(10.,-4.,70.));
#107 = VECTOR('',#108,1.);
#108 = DIRECTION('',(1.,0.,0.));
#109 = ORIENTED_EDGE('',*,*,#110,.F.);
#110 = EDGE_CURVE('',#111,#103,#113,.T.);
#111 = VERTEX_POINT('',#112);
#112 = CARTESIAN_POINT('',(86.,-21.,70.));
#113 = LINE('',#114,#115);
#114 = CARTESIAN_POINT('',(86.,-21.,70.));
#115 = VECTOR('',#116,1.);
#116 = DIRECTION('',(0.,1.,0.));
#117 = ORIENTED_EDGE('',*,*,#118,.F.);
#118 = EDGE_CURVE('',#119,#111,#121,.T.);
#119 = VERTEX_POINT('',#120);
#120 = CARTESIAN_POINT('',(80.,-21.,70.));
#121 = LINE('',#122,#123);
#122 = CARTESIAN_POINT('',(78.,-21.,70.));
#123 = VECTOR('',#124,1.);
#124 = DIRECTION('',(1.,0.,0.));
#125 = ORIENTED_EDGE('',*,*,#126,.F.);
#126 = EDGE_CURVE('',#127,#119,#129,.T.);
#127 = VERTEX_POINT('',#128);
#128 = CARTESIAN_POINT('',(80.,-13.,70.));
#129 = LINE('',#130,#131);
#130 = CARTESIAN_POINT('',(80.,-15.,70.));
#131 = VECTOR('',#132,1.);
#132 = DIRECTION('',(0.,-1.,2.2E-16));
#133 = ORIENTED_EDGE('',*,*,#134,.F.);
#134 = EDGE_CURVE('',#22,#127,#135,.T.);
#135 = LINE('',#136,#137);
#136 = CARTESIAN_POINT('',(10.,-13.,70.));
#137 = VECTOR('',#138,1.);
#138 = DIRECTION('',(1.,0.,0.));
#139 = ORIENTED_EDGE('',*,*,#21,.T.);
#140 = PLANE('',#141);
#141 = AXIS2_PLACEMENT_3D('',#142,#143,#144);
#142 = CARTESIAN_POINT('',(50.961538461538,-6.038461538462,70.));
#143 = DIRECTION('',(-0.,-0.,-1.));
#144 = DIRECTION('',(-1.,0.,0.));
#145 = ADVANCED_FACE('',(#146),#165,.T.);
#146 = FACE_BOUND('',#147,.F.);
#147 = EDGE_LOOP('',(#148,#149,#157,#164));
#148 = ORIENTED_EDGE('',*,*,#31,.T.);
#149 = ORIENTED_EDGE('',*,*,#150,.T.);
#150 = EDGE_CURVE('',#32,#151,#153,.T.);
#151 = VERTEX_POINT('',#152);
#152 = CARTESIAN_POINT('',(78.,-15.,72.));
#153 = LINE('',#154,#155);
#154 = CARTESIAN_POINT('',(10.,-15.,72.));
#155 = VECTOR('',#156,1.);
#156 = DIRECTION('',(1.,0.,0.));
#157 = ORIENTED_EDGE('',*,*,#158,.F.);
#158 = EDGE_CURVE('',#127,#151,#159,.T.);
#159 = ELLIPSE('',#160,2.828427124746,2.);
#160 = AXIS2_PLACEMENT_3D('',#161,#162,#163);
#161 = CARTESIAN_POINT('',(80.,-13.,72.));
#162 = DIRECTION('',(-0.707106781187,0.707106781187,-1.6E-16));
#163 = DIRECTION('',(0.707106781187,0.707106781187,-1.6E-16));
#164 = ORIENTED_EDGE('',*,*,#134,.F.);
#165 = CYLINDRICAL_SURFACE('',#166,2.);
#166 = AXIS2_PLACEMENT_3D('',#167,#168,#169);
#167 = CARTESIAN_POINT('',(10.,-13.,72.));
#168 = DIRECTION('',(1.,0.,0.));
#169 = DIRECTION('',(0.,0.,-1.));
#170 = ADVANCED_FACE('',(#171),#198,.T.);
#171 = FACE_BOUND('',#172,.F.);
#172 = EDGE_LOOP('',(#173,#182,#183,#192));
#173 = ORIENTED_EDGE('',*,*,#174,.T.);
#174 = EDGE_CURVE('',#175,#81,#177,.T.);
#175 = VERTEX_POINT('',#176);
#176 = CARTESIAN_POINT('',(6.,1.E-15,0.));
#177 = CIRCLE('',#178,4.);
#178 = AXIS2_PLACEMENT_3D('',#179,#180,#181);
#179 = CARTESIAN_POINT('',(6.,-4.,0.));
#180 = DIRECTION('',(-0.,-0.,-1.));
#181 = DIRECTION('',(0.,-1.,0.));
#182 = ORIENTED_EDGE('',*,*,#88,.T.);
#183 = ORIENTED_EDGE('',*,*,#184,.F.);
#184 = EDGE_CURVE('',#185,#24,#187,.T.);
#185 = VERTEX_POINT('',#186);
#186 = CARTESIAN_POINT('',(6.,1.E-15,74.));
#187 = ELLIPSE('',#188,5.656854249492,4.);
#188 = AXIS2_PLACEMENT_3D('',#189,#190,#191);
#189 = CARTESIAN_POINT('',(6.,-4.,74.));
#190 = DIRECTION('',(-0.707106781187,0.,-0.707106781187));
#191 = DIRECTION('',(-0.707106781187,0.,0.707106781187));
#192 = ORIENTED_EDGE('',*,*,#193,.F.);
#193 = EDGE_CURVE('',#175,#185,#194,.T.);
#194 = LINE('',#195,#196);
#195 = CARTESIAN_POINT('',(6.,8.9E-16,0.));
#196 = VECTOR('',#197,1.);
#197 = DIRECTION('',(0.,0.,1.));
#198 = CYLINDRICAL_SURFACE('',#199,4.);
#199 = AXIS2_PLACEMENT_3D('',#200,#201,#202);
#200 = CARTESIAN_POINT('',(6.,-4.,0.));
#201 = DIRECTION('',(0.,0.,1.));
#202 = DIRECTION('',(0.,1.,0.));
#203 = ADVANCED_FACE('',(#204),#222,.T.);
#204 = FACE_BOUND('',#205,.T.);
#205 = EDGE_LOOP('',(#206,#214,#220,#221));
#206 = ORIENTED_EDGE('',*,*,#207,.F.);
#207 = EDGE_CURVE('',#208,#151,#210,.T.);
#208 = VERTEX_POINT('',#209);
#209 = CARTESIAN_POINT('',(78.,-15.,76.));
#210 = LINE('',#211,#212);
#211 = CARTESIAN_POINT('',(78.,-15.,80.));
#212 = VECTOR('',#213,1.);
#213 = DIRECTION('',(0.,0.,-1.));
#214 = ORIENTED_EDGE('',*,*,#215,.F.);
#215 = EDGE_CURVE('',#41,#208,#216,.T.);
#216 = LINE('',#217,#218);
#217 = CARTESIAN_POINT('',(10.,-15.,76.));
#218 = VECTOR('',#219,1.);
#219 = DIRECTION('',(1.,0.,0.));
#220 = ORIENTED_EDGE('',*,*,#40,.F.);
#221 = ORIENTED_EDGE('',*,*,#150,.T.);
#222 = PLANE('',#223);
#223 = AXIS2_PLACEMENT_3D('',#224,#225,#226);
#224 = CARTESIAN_POINT('',(23.662921348315,-15.,55.337078651685));
#225 = DIRECTION('',(-0.,-1.,-0.));
#226 = DIRECTION('',(0.,0.,-1.));
#227 = ADVANCED_FACE('',(#228,#281),#292,.F.);
#228 = FACE_BOUND('',#229,.F.);
#229 = EDGE_LOOP('',(#230,#231,#232,#240,#249,#257,#266,#274));
#230 = ORIENTED_EDGE('',*,*,#80,.T.);
#231 = ORIENTED_EDGE('',*,*,#174,.F.);
#232 = ORIENTED_EDGE('',*,*,#233,.T.);
#233 = EDGE_CURVE('',#175,#234,#236,.T.);
#234 = VERTEX_POINT('',#235);
#235 = CARTESIAN_POINT('',(-6.,1.E-15,0.));
#236 = LINE('',#237,#238);
#237 = CARTESIAN_POINT('',(10.,0.,0.));
#238 = VECTOR('',#239,1.);
#239 = DIRECTION('',(-1.,0.,0.));
#240 = ORIENTED_EDGE('',*,*,#241,.T.);
#241 = EDGE_CURVE('',#234,#242,#244,.T.);
#242 = VERTEX_POINT('',#243);
#243 = CARTESIAN_POINT('',(-10.,-4.,0.));
#244 = CIRCLE('',#245,4.);
#245 = AXIS2_PLACEMENT_3D('',#246,#247,#248);
#246 = CARTESIAN_POINT('',(-6.,-4.,0.));
#247 = DIRECTION('',(-0.,0.,1.));
#248 = DIRECTION('',(0.,-1.,0.));
#249 = ORIENTED_EDGE('',*,*,#250,.T.);
#250 = EDGE_CURVE('',#242,#251,#253,.T.);
#251 = VERTEX_POINT('',#252);
#252 = CARTESIAN_POINT('',(-10.,-11.,0.));
#253 = LINE('',#254,#255);
#254 = CARTESIAN_POINT('',(-10.,15.,0.));
#255 = VECTOR('',#256,1.);
#256 = DIRECTION('',(0.,-1.,0.));
#257 = ORIENTED_EDGE('',*,*,#258,.F.);
#258 = EDGE_CURVE('',#259,#251,#261,.T.);
#259 = VERTEX_POINT('',#260);
#260 = CARTESIAN_POINT('',(-6.,-15.,0.));
#261 = CIRCLE('',#262,4.);
#262 = AXIS2_PLACEMENT_3D('',#263,#264,#265);
#263 = CARTESIAN_POINT('',(-6.,-11.,0.));
#264 = DIRECTION('',(-0.,-0.,-1.));
#265 = DIRECTION('',(0.,-1.,0.));
#266 = ORIENTED_EDGE('',*,*,#267,.T.);
#267 = EDGE_CURVE('',#259,#268,#270,.T.);
#268 = VERTEX_POINT('',#269);
#269 = CARTESIAN_POINT('',(6.,-15.,0.));
#270 = LINE('',#271,#272);
#271 = CARTESIAN_POINT('',(-10.,-15.,0.));
#272 = VECTOR('',#273,1.);
#273 = DIRECTION('',(1.,0.,0.));
#274 = ORIENTED_EDGE('',*,*,#275,.T.);
#275 = EDGE_CURVE('',#268,#73,#276,.T.);
#276 = CIRCLE('',#277,4.);
#277 = AXIS2_PLACEMENT_3D('',#278,#279,#280);
#278 = CARTESIAN_POINT('',(6.,-11.,0.));
#279 = DIRECTION('',(-0.,0.,1.));
#280 = DIRECTION('',(0.,-1.,0.));
#281 = FACE_BOUND('',#282,.F.);
#282 = EDGE_LOOP('',(#283));
#283 = ORIENTED_EDGE('',*,*,#284,.F.);
#284 = EDGE_CURVE('',#285,#285,#287,.T.);
#285 = VERTEX_POINT('',#286);
#286 = CARTESIAN_POINT('',(2.,-7.5,0.));
#287 = CIRCLE('',#288,2.);
#288 = AXIS2_PLACEMENT_3D('',#289,#290,#291);
#289 = CARTESIAN_POINT('',(0.,-7.5,0.));
#290 = DIRECTION('',(0.,0.,1.));
#291 = DIRECTION('',(1.,0.,0.));
#292 = PLANE('',#293);
#293 = AXIS2_PLACEMENT_3D('',#294,#295,#296);
#294 = CARTESIAN_POINT('',(0.,1.14E-15,0.));
#295 = DIRECTION('',(0.,0.,1.));
#296 = DIRECTION('',(1.,0.,0.));
#297 = ADVANCED_FACE('',(#298),#325,.T.);
#298 = FACE_BOUND('',#299,.F.);
#299 = EDGE_LOOP('',(#300,#309,#310,#319));
#300 = ORIENTED_EDGE('',*,*,#301,.F.);
#301 = EDGE_CURVE('',#41,#302,#304,.T.);
#302 = VERTEX_POINT('',#303);
#303 = CARTESIAN_POINT('',(6.,-11.,80.));
#304 = ELLIPSE('',#305,5.656854249492,4.);
#305 = AXIS2_PLACEMENT_3D('',#306,#307,#308);
#306 = CARTESIAN_POINT('',(6.,-11.,76.));
#307 = DIRECTION('',(-0.707106781187,-0.707106781187,1.6E-16));
#308 = DIRECTION('',(0.707106781187,-0.707106781187,1.6E-16));
#309 = ORIENTED_EDGE('',*,*,#48,.T.);
#310 = ORIENTED_EDGE('',*,*,#311,.F.);
#311 = EDGE_CURVE('',#312,#49,#314,.T.);
#312 = VERTEX_POINT('',#313);
#313 = CARTESIAN_POINT('',(6.,-45.,80.));
#314 = CIRCLE('',#315,4.);
#315 = AXIS2_PLACEMENT_3D('',#316,#317,#318);
#316 = CARTESIAN_POINT('',(6.,-45.,76.));
#317 = DIRECTION('',(0.,1.,-2.2E-16));
#318 = DIRECTION('',(0.,-2.2E-16,-1.));
#319 = ORIENTED_EDGE('',*,*,#320,.F.);
#320 = EDGE_CURVE('',#302,#312,#321,.T.);
#321 = LINE('',#322,#323);
#322 = CARTESIAN_POINT('',(6.,-15.,80.));
#323 = VECTOR('',#324,1.);
#324 = DIRECTION('',(0.,-1.,2.2E-16));
#325 = CYLINDRICAL_SURFACE('',#326,4.);
#326 = AXIS2_PLACEMENT_3D('',#327,#328,#329);
#327 = CARTESIAN_POINT('',(6.,-15.,76.));
#328 = DIRECTION('',(0.,-1.,2.2E-16));
#329 = DIRECTION('',(0.,2.2E-16,1.));
#330 = ADVANCED_FACE('',(#331),#350,.T.);
#331 = FACE_BOUND('',#332,.T.);
#332 = EDGE_LOOP('',(#333,#334,#335,#344));
#333 = ORIENTED_EDGE('',*,*,#275,.T.);
#334 = ORIENTED_EDGE('',*,*,#72,.T.);
#335 = ORIENTED_EDGE('',*,*,#336,.F.);
#336 = EDGE_CURVE('',#337,#65,#339,.T.);
#337 = VERTEX_POINT('',#338);
#338 = CARTESIAN_POINT('',(6.,-15.,60.));
#339 = ELLIPSE('',#340,5.656854249492,4.);
#340 = AXIS2_PLACEMENT_3D('',#341,#342,#343);
#341 = CARTESIAN_POINT('',(6.,-11.,64.));
#342 = DIRECTION('',(0.,-0.707106781187,0.707106781187));
#343 = DIRECTION('',(0.,0.707106781187,0.707106781187));
#344 = ORIENTED_EDGE('',*,*,#345,.F.);
#345 = EDGE_CURVE('',#268,#337,#346,.T.);
#346 = LINE('',#347,#348);
#347 = CARTESIAN_POINT('',(6.,-15.,0.));
#348 = VECTOR('',#349,1.);
#349 = DIRECTION('',(0.,0.,1.));
#350 = CYLINDRICAL_SURFACE('',#351,4.);
#351 = AXIS2_PLACEMENT_3D('',#352,#353,#354);
#352 = CARTESIAN_POINT('',(6.,-11.,0.));
#353 = DIRECTION('',(0.,0.,1.));
#354 = DIRECTION('',(0.,-1.,0.));
#355 = ADVANCED_FACE('',(#356,#409),#420,.F.);
#356 = FACE_BOUND('',#357,.F.);
#357 = EDGE_LOOP('',(#358,#368,#377,#383,#384,#385,#394,#402));
#358 = ORIENTED_EDGE('',*,*,#359,.F.);
#359 = EDGE_CURVE('',#360,#362,#364,.T.);
#360 = VERTEX_POINT('',#361);
#361 = CARTESIAN_POINT('',(-10.,-45.,76.));
#362 = VERTEX_POINT('',#363);
#363 = CARTESIAN_POINT('',(-10.,-45.,64.));
#364 = LINE('',#365,#366);
#365 = CARTESIAN_POINT('',(-10.,-45.,80.));
#366 = VECTOR('',#367,1.);
#367 = DIRECTION('',(0.,0.,-1.));
#368 = ORIENTED_EDGE('',*,*,#369,.T.);
#369 = EDGE_CURVE('',#360,#370,#372,.T.);
#370 = VERTEX_POINT('',#371);
#371 = CARTESIAN_POINT('',(-6.,-45.,80.));
#372 = CIRCLE('',#373,4.);
#373 = AXIS2_PLACEMENT_3D('',#374,#375,#376);
#374 = CARTESIAN_POINT('',(-6.,-45.,76.));
#375 = DIRECTION('',(0.,1.,-2.2E-16));
#376 = DIRECTION('',(0.,-2.2E-16,-1.));
#377 = ORIENTED_EDGE('',*,*,#378,.F.);
#378 = EDGE_CURVE('',#312,#370,#379,.T.);
#379 = LINE('',#380,#381);
#380 = CARTESIAN_POINT('',(10.,-45.,80.));
#381 = VECTOR('',#382,1.);
#382 = DIRECTION('',(-1.,0.,0.));
#383 = ORIENTED_EDGE('',*,*,#311,.T.);
#384 = ORIENTED_EDGE('',*,*,#56,.F.);
#385 = ORIENTED_EDGE('',*,*,#386,.F.);
#386 = EDGE_CURVE('',#387,#57,#389,.T.);
#387 = VERTEX_POINT('',#388);
#388 = CARTESIAN_POINT('',(6.,-45.,60.));
#389 = CIRCLE('',#390,4.);
#390 = AXIS2_PLACEMENT_3D('',#391,#392,#393);
#391 = CARTESIAN_POINT('',(6.,-45.,64.));
#392 = DIRECTION('',(0.,-1.,2.2E-16));
#393 = DIRECTION('',(0.,-2.2E-16,-1.));
#394 = ORIENTED_EDGE('',*,*,#395,.F.);
#395 = EDGE_CURVE('',#396,#387,#398,.T.);
#396 = VERTEX_POINT('',#397);
#397 = CARTESIAN_POINT('',(-6.,-45.,60.));
#398 = LINE('',#399,#400);
#399 = CARTESIAN_POINT('',(-10.,-45.,60.));
#400 = VECTOR('',#401,1.);
#401 = DIRECTION('',(1.,0.,0.));
#402 = ORIENTED_EDGE('',*,*,#403,.T.);
#403 = EDGE_CURVE('',#396,#362,#404,.T.);
#404 = CIRCLE('',#405,4.);
#405 = AXIS2_PLACEMENT_3D('',#406,#407,#408);
#406 = CARTESIAN_POINT('',(-6.,-45.,64.));
#407 = DIRECTION('',(0.,1.,-2.2E-16));
#408 = DIRECTION('',(0.,-2.2E-16,-1.));
#409 = FACE_BOUND('',#410,.F.);
#410 = EDGE_LOOP('',(#411));
#411 = ORIENTED_EDGE('',*,*,#412,.F.);
#412 = EDGE_CURVE('',#413,#413,#415,.T.);
#413 = VERTEX_POINT('',#414);
#414 = CARTESIAN_POINT('',(-2.,-45.,70.));
#415 = CIRCLE('',#416,2.);
#416 = AXIS2_PLACEMENT_3D('',#417,#418,#419);
#417 = CARTESIAN_POINT('',(0.,-45.,70.));
#418 = DIRECTION('',(0.,1.,-2.2E-16));
#419 = DIRECTION('',(-1.,0.,0.));
#420 = PLANE('',#421);
#421 = AXIS2_PLACEMENT_3D('',#422,#423,#424);
#422 = CARTESIAN_POINT('',(0.,-45.,70.));
#423 = DIRECTION('',(0.,1.,0.));
#424 = DIRECTION('',(0.,0.,1.));
#425 = ADVANCED_FACE('',(#426),#437,.T.);
#426 = FACE_BOUND('',#427,.T.);
#427 = EDGE_LOOP('',(#428,#429,#430,#431));
#428 = ORIENTED_EDGE('',*,*,#336,.T.);
#429 = ORIENTED_EDGE('',*,*,#64,.T.);
#430 = ORIENTED_EDGE('',*,*,#386,.F.);
#431 = ORIENTED_EDGE('',*,*,#432,.F.);
#432 = EDGE_CURVE('',#337,#387,#433,.T.);
#433 = LINE('',#434,#435);
#434 = CARTESIAN_POINT('',(6.,-15.,60.));
#435 = VECTOR('',#436,1.);
#436 = DIRECTION('',(0.,-1.,2.2E-16));
#437 = CYLINDRICAL_SURFACE('',#438,4.);
#438 = AXIS2_PLACEMENT_3D('',#439,#440,#441);
#439 = CARTESIAN_POINT('',(6.,-15.,64.));
#440 = DIRECTION('',(0.,-1.,2.2E-16));
#441 = DIRECTION('',(0.,-2.2E-16,-1.));
#442 = ADVANCED_FACE('',(#443),#462,.T.);
#443 = FACE_BOUND('',#444,.F.);
#444 = EDGE_LOOP('',(#445,#453,#454,#455));
#445 = ORIENTED_EDGE('',*,*,#446,.F.);
#446 = EDGE_CURVE('',#185,#447,#449,.T.);
#447 = VERTEX_POINT('',#448);
#448 = CARTESIAN_POINT('',(86.,1.E-15,74.));
#449 = LINE('',#450,#451);
#450 = CARTESIAN_POINT('',(10.,8.9E-16,74.));
#451 = VECTOR('',#452,1.);
#452 = DIRECTION('',(1.,0.,0.));
#453 = ORIENTED_EDGE('',*,*,#184,.T.);
#454 = ORIENTED_EDGE('',*,*,#102,.T.);
#455 = ORIENTED_EDGE('',*,*,#456,.T.);
#456 = EDGE_CURVE('',#103,#447,#457,.T.);
#457 = CIRCLE('',#458,4.);
#458 = AXIS2_PLACEMENT_3D('',#459,#460,#461);
#459 = CARTESIAN_POINT('',(86.,-4.,74.));
#460 = DIRECTION('',(1.,-0.,0.));
#461 = DIRECTION('',(0.,1.1E-16,-1.));
#462 = CYLINDRICAL_SURFACE('',#463,4.);
#463 = AXIS2_PLACEMENT_3D('',#464,#465,#466);
#464 = CARTESIAN_POINT('',(10.,-4.,74.));
#465 = DIRECTION('',(1.,0.,0.));
#466 = DIRECTION('',(0.,1.,0.));
#467 = ADVANCED_FACE('',(#468),#511,.T.);
#468 = FACE_BOUND('',#469,.F.);
#469 = EDGE_LOOP('',(#470,#479,#487,#495,#503,#510));
#470 = ORIENTED_EDGE('',*,*,#471,.T.);
#471 = EDGE_CURVE('',#111,#472,#474,.T.);
#472 = VERTEX_POINT('',#473);
#473 = CARTESIAN_POINT('',(88.,-21.,72.));
#474 = CIRCLE('',#475,2.);
#475 = AXIS2_PLACEMENT_3D('',#476,#477,#478);
#476 = CARTESIAN_POINT('',(86.,-21.,72.));
#477 = DIRECTION('',(0.,-1.,0.));
#478 = DIRECTION('',(0.,0.,1.));
#479 = ORIENTED_EDGE('',*,*,#480,.T.);
#480 = EDGE_CURVE('',#472,#481,#483,.T.);
#481 = VERTEX_POINT('',#482);
#482 = CARTESIAN_POINT('',(88.,-18.5,72.));
#483 = LINE('',#484,#485);
#484 = CARTESIAN_POINT('',(88.,-21.,72.));
#485 = VECTOR('',#486,1.);
#486 = DIRECTION('',(0.,1.,0.));
#487 = ORIENTED_EDGE('',*,*,#488,.T.);
#488 = EDGE_CURVE('',#481,#489,#491,.T.);
#489 = VERTEX_POINT('',#490);
#490 = CARTESIAN_POINT('',(88.,-15.5,72.));
#491 = LINE('',#492,#493);
#492 = CARTESIAN_POINT('',(88.,-21.,72.));
#493 = VECTOR('',#494,1.);
#494 = DIRECTION('',(0.,1.,0.));
#495 = ORIENTED_EDGE('',*,*,#496,.T.);
#496 = EDGE_CURVE('',#489,#497,#499,.T.);
#497 = VERTEX_POINT('',#498);
#498 = CARTESIAN_POINT('',(88.,-4.,72.));
#499 = LINE('',#500,#501);
#500 = CARTESIAN_POINT('',(88.,-21.,72.));
#501 = VECTOR('',#502,1.);
#502 = DIRECTION('',(0.,1.,0.));
#503 = ORIENTED_EDGE('',*,*,#504,.F.);
#504 = EDGE_CURVE('',#103,#497,#505,.T.);
#505 = CIRCLE('',#506,2.);
#506 = AXIS2_PLACEMENT_3D('',#507,#508,#509);
#507 = CARTESIAN_POINT('',(86.,-4.,72.));
#508 = DIRECTION('',(0.,-1.,0.));
#509 = DIRECTION('',(0.,0.,-1.));
#510 = ORIENTED_EDGE('',*,*,#110,.F.);
#511 = CYLINDRICAL_SURFACE('',#512,2.);
#512 = AXIS2_PLACEMENT_3D('',#513,#514,#515);
#513 = CARTESIAN_POINT('',(86.,-21.,72.));
#514 = DIRECTION('',(0.,1.,0.));
#515 = DIRECTION('',(0.,0.,-1.));
#516 = ADVANCED_FACE('',(#517),#570,.F.);
#517 = FACE_BOUND('',#518,.F.);
#518 = EDGE_LOOP('',(#519,#527,#528,#529,#538,#546,#555,#563));
#519 = ORIENTED_EDGE('',*,*,#520,.F.);
#520 = EDGE_CURVE('',#472,#521,#523,.T.);
#521 = VERTEX_POINT('',#522);
#522 = CARTESIAN_POINT('',(88.,-21.,78.));
#523 = LINE('',#524,#525);
#524 = CARTESIAN_POINT('',(88.,-21.,70.));
#525 = VECTOR('',#526,1.);
#526 = DIRECTION('',(0.,0.,1.));
#527 = ORIENTED_EDGE('',*,*,#471,.F.);
#528 = ORIENTED_EDGE('',*,*,#118,.F.);
#529 = ORIENTED_EDGE('',*,*,#530,.T.);
#530 = EDGE_CURVE('',#119,#531,#533,.T.);
#531 = VERTEX_POINT('',#532);
#532 = CARTESIAN_POINT('',(78.,-21.,72.));
#533 = CIRCLE('',#534,2.);
#534 = AXIS2_PLACEMENT_3D('',#535,#536,#537);
#535 = CARTESIAN_POINT('',(80.,-21.,72.));
#536 = DIRECTION('',(0.,1.,-2.2E-16));
#537 = DIRECTION('',(0.,-2.2E-16,-1.));
#538 = ORIENTED_EDGE('',*,*,#539,.F.);
#539 = EDGE_CURVE('',#540,#531,#542,.T.);
#540 = VERTEX_POINT('',#541);
#541 = CARTESIAN_POINT('',(78.,-21.,78.));
#542 = LINE('',#543,#544);
#543 = CARTESIAN_POINT('',(78.,-21.,80.));
#544 = VECTOR('',#545,1.);
#545 = DIRECTION('',(0.,0.,-1.));
#546 = ORIENTED_EDGE('',*,*,#547,.T.);
#547 = EDGE_CURVE('',#540,#548,#550,.T.);
#548 = VERTEX_POINT('',#549);
#549 = CARTESIAN_POINT('',(80.,-21.,80.));
#550 = CIRCLE('',#551,2.);
#551 = AXIS2_PLACEMENT_3D('',#552,#553,#554);
#552 = CARTESIAN_POINT('',(80.,-21.,78.));
#553 = DIRECTION('',(0.,1.,-2.2E-16));
#554 = DIRECTION('',(0.,-2.2E-16,-1.));
#555 = ORIENTED_EDGE('',*,*,#556,.F.);
#556 = EDGE_CURVE('',#557,#548,#559,.T.);
#557 = VERTEX_POINT('',#558);
#558 = CARTESIAN_POINT('',(86.,-21.,80.));
#559 = LINE('',#560,#561);
#560 = CARTESIAN_POINT('',(88.,-21.,80.));
#561 = VECTOR('',#562,1.);
#562 = DIRECTION('',(-1.,0.,0.));
#563 = ORIENTED_EDGE('',*,*,#564,.T.);
#564 = EDGE_CURVE('',#557,#521,#565,.T.);
#565 = CIRCLE('',#566,2.);
#566 = AXIS2_PLACEMENT_3D('',#567,#568,#569);
#567 = CARTESIAN_POINT('',(86.,-21.,78.));
#568 = DIRECTION('',(0.,1.,-2.2E-16));
#569 = DIRECTION('',(0.,-2.2E-16,-1.));
#570 = PLANE('',#571);
#571 = AXIS2_PLACEMENT_3D('',#572,#573,#574);
#572 = CARTESIAN_POINT('',(83.,-21.,75.));
#573 = DIRECTION('',(0.,1.,0.));
#574 = DIRECTION('',(0.,0.,1.));
#575 = ADVANCED_FACE('',(#576),#603,.T.);
#576 = FACE_BOUND('',#577,.F.);
#577 = EDGE_LOOP('',(#578,#579,#587,#595,#601,#602));
#578 = ORIENTED_EDGE('',*,*,#158,.T.);
#579 = ORIENTED_EDGE('',*,*,#580,.T.);
#580 = EDGE_CURVE('',#151,#581,#583,.T.);
#581 = VERTEX_POINT('',#582);
#582 = CARTESIAN_POINT('',(78.,-15.5,72.));
#583 = LINE('',#584,#585);
#584 = CARTESIAN_POINT('',(78.,-15.,72.));
#585 = VECTOR('',#586,1.);
#586 = DIRECTION('',(0.,-1.,2.2E-16));
#587 = ORIENTED_EDGE('',*,*,#588,.T.);
#588 = EDGE_CURVE('',#581,#589,#591,.T.);
#589 = VERTEX_POINT('',#590);
#590 = CARTESIAN_POINT('',(78.,-18.5,72.));
#591 = LINE('',#592,#593);
#592 = CARTESIAN_POINT('',(78.,-15.,72.));
#593 = VECTOR('',#594,1.);
#594 = DIRECTION('',(0.,-1.,2.2E-16));
#595 = ORIENTED_EDGE('',*,*,#596,.T.);
#596 = EDGE_CURVE('',#589,#531,#597,.T.);
#597 = LINE('',#598,#599);
#598 = CARTESIAN_POINT('',(78.,-15.,72.));
#599 = VECTOR('',#600,1.);
#600 = DIRECTION('',(0.,-1.,2.2E-16));
#601 = ORIENTED_EDGE('',*,*,#530,.F.);
#602 = ORIENTED_EDGE('',*,*,#126,.F.);
#603 = CYLINDRICAL_SURFACE('',#604,2.);
#604 = AXIS2_PLACEMENT_3D('',#605,#606,#607);
#605 = CARTESIAN_POINT('',(80.,-15.,72.));
#606 = DIRECTION('',(0.,-1.,2.2E-16));
#607 = DIRECTION('',(0.,-2.2E-16,-1.));
#608 = ADVANCED_FACE('',(#609,#636),#647,.T.);
#609 = FACE_BOUND('',#610,.T.);
#610 = EDGE_LOOP('',(#611,#612,#613,#614,#622,#630));
#611 = ORIENTED_EDGE('',*,*,#446,.F.);
#612 = ORIENTED_EDGE('',*,*,#193,.F.);
#613 = ORIENTED_EDGE('',*,*,#233,.T.);
#614 = ORIENTED_EDGE('',*,*,#615,.T.);
#615 = EDGE_CURVE('',#234,#616,#618,.T.);
#616 = VERTEX_POINT('',#617);
#617 = CARTESIAN_POINT('',(-6.,1.E-15,76.));
#618 = LINE('',#619,#620);
#619 = CARTESIAN_POINT('',(-6.,8.9E-16,0.));
#620 = VECTOR('',#621,1.);
#621 = DIRECTION('',(0.,0.,1.));
#622 = ORIENTED_EDGE('',*,*,#623,.F.);
#623 = EDGE_CURVE('',#624,#616,#626,.T.);
#624 = VERTEX_POINT('',#625);
#625 = CARTESIAN_POINT('',(86.,0.,76.));
#626 = LINE('',#627,#628);
#627 = CARTESIAN_POINT('',(88.,8.9E-16,76.));
#628 = VECTOR('',#629,1.);
#629 = DIRECTION('',(-1.,0.,0.));
#630 = ORIENTED_EDGE('',*,*,#631,.F.);
#631 = EDGE_CURVE('',#447,#624,#632,.T.);
#632 = LINE('',#633,#634);
#633 = CARTESIAN_POINT('',(86.,4.4E-16,74.));
#634 = VECTOR('',#635,1.);
#635 = DIRECTION('',(0.,0.,1.));
#636 = FACE_BOUND('',#637,.T.);
#637 = EDGE_LOOP('',(#638));
#638 = ORIENTED_EDGE('',*,*,#639,.F.);
#639 = EDGE_CURVE('',#640,#640,#642,.T.);
#640 = VERTEX_POINT('',#641);
#641 = CARTESIAN_POINT('',(-3.,1.6E-14,70.));
#642 = CIRCLE('',#643,3.);
#643 = AXIS2_PLACEMENT_3D('',#644,#645,#646);
#644 = CARTESIAN_POINT('',(0.,0.,70.));
#645 = DIRECTION('',(0.,1.,-0.));
#646 = DIRECTION('',(-1.,0.,0.));
#647 = PLANE('',#648);
#648 = AXIS2_PLACEMENT_3D('',#649,#650,#651);
#649 = CARTESIAN_POINT('',(23.662921348315,0.,55.337078651685));
#650 = DIRECTION('',(0.,1.,0.));
#651 = DIRECTION('',(0.,0.,1.));
#652 = ADVANCED_FACE('',(#653),#680,.F.);
#653 = FACE_BOUND('',#654,.F.);
#654 = EDGE_LOOP('',(#655,#656,#657,#666,#674));
#655 = ORIENTED_EDGE('',*,*,#580,.F.);
#656 = ORIENTED_EDGE('',*,*,#207,.F.);
#657 = ORIENTED_EDGE('',*,*,#658,.T.);
#658 = EDGE_CURVE('',#208,#659,#661,.T.);
#659 = VERTEX_POINT('',#660);
#660 = CARTESIAN_POINT('',(78.,-14.46410161513,78.));
#661 = CIRCLE('',#662,4.);
#662 = AXIS2_PLACEMENT_3D('',#663,#664,#665);
#663 = CARTESIAN_POINT('',(78.,-11.,76.));
#664 = DIRECTION('',(-1.,0.,0.));
#665 = DIRECTION('',(0.,0.,1.));
#666 = ORIENTED_EDGE('',*,*,#667,.T.);
#667 = EDGE_CURVE('',#659,#668,#670,.T.);
#668 = VERTEX_POINT('',#669);
#669 = CARTESIAN_POINT('',(78.,-15.5,78.));
#670 = LINE('',#671,#672);
#671 = CARTESIAN_POINT('',(78.,-15.,78.));
#672 = VECTOR('',#673,1.);
#673 = DIRECTION('',(0.,-1.,2.2E-16));
#674 = ORIENTED_EDGE('',*,*,#675,.T.);
#675 = EDGE_CURVE('',#668,#581,#676,.T.);
#676 = LINE('',#677,#678);
#677 = CARTESIAN_POINT('',(78.,-15.5,78.));
#678 = VECTOR('',#679,1.);
#679 = DIRECTION('',(0.,0.,-1.));
#680 = PLANE('',#681);
#681 = AXIS2_PLACEMENT_3D('',#682,#683,#684);
#682 = CARTESIAN_POINT('',(78.,-15.,80.));
#683 = DIRECTION('',(1.,0.,0.));
#684 = DIRECTION('',(0.,-2.2E-16,-1.));
#685 = ADVANCED_FACE('',(#686),#728,.T.);
#686 = FACE_BOUND('',#687,.F.);
#687 = EDGE_LOOP('',(#688,#689,#690,#691,#699));
#688 = ORIENTED_EDGE('',*,*,#658,.F.);
#689 = ORIENTED_EDGE('',*,*,#215,.F.);
#690 = ORIENTED_EDGE('',*,*,#301,.T.);
#691 = ORIENTED_EDGE('',*,*,#692,.T.);
#692 = EDGE_CURVE('',#302,#693,#695,.T.);
#693 = VERTEX_POINT('',#694);
#694 = CARTESIAN_POINT('',(80.,-11.,80.));
#695 = LINE('',#696,#697);
#696 = CARTESIAN_POINT('',(10.,-11.,80.));
#697 = VECTOR('',#698,1.);
#698 = DIRECTION('',(1.,0.,0.));
#699 = ORIENTED_EDGE('',*,*,#700,.F.);
#700 = EDGE_CURVE('',#659,#693,#701,.T.);
#701 = B_SPLINE_CURVE_WITH_KNOTS('',7,(#702,#703,#704,#705,#706,#707,
    #708,#709,#710,#711,#712,#713,#714,#715,#716,#717,#718,#719,#720,
    #721,#722,#723,#724,#725,#726,#727),.UNSPECIFIED.,.F.,.F.,(8,6,6,6,8
    ),(0.,0.17283111626,0.323672501576,0.690538823697,1.),
  .UNSPECIFIED.);
#702 = CARTESIAN_POINT('',(78.,-14.46410161513,78.));
#703 = CARTESIAN_POINT('',(78.,-14.39842738391,78.113751105225));
#704 = CARTESIAN_POINT('',(78.007548598562,-14.32898156883,
    78.223970499583));
#705 = CARTESIAN_POINT('',(78.021798349482,-14.25636003025,
    78.329951677618));
#706 = CARTESIAN_POINT('',(78.041852725523,-14.18114736988,
    78.431334854232));
#707 = CARTESIAN_POINT('',(78.066890121567,-14.10385009181,
    78.528001716744));
#708 = CARTESIAN_POINT('',(78.096227180745,-14.0248515023,
    78.620000856312));
#709 = CARTESIAN_POINT('',(78.15820504133,-13.87416272098,
    78.783873674903));
#710 = CARTESIAN_POINT('',(78.189940573737,-13.80284590196,
    78.856792004744));
#711 = CARTESIAN_POINT('',(78.224160933731,-13.73061146873,
    78.926359790197));
#712 = CARTESIAN_POINT('',(78.260555282758,-13.65760800857,
    78.992686967745));
#713 = CARTESIAN_POINT('',(78.298863481412,-13.58395679625,
    79.05589029438));
#714 = CARTESIAN_POINT('',(78.338870520094,-13.50974947141,
    79.116091153559));
#715 = CARTESIAN_POINT('',(78.481408481,-13.25335624184,79.312828598145)
  );
#716 = CARTESIAN_POINT('',(78.591324716754,-13.06891644212,
    79.435073329766));
#717 = CARTESIAN_POINT('',(78.707667956558,-12.88250057232,
    79.542053806888));
#718 = CARTESIAN_POINT('',(78.828880141097,-12.69475227674,
    79.634932288468));
#719 = CARTESIAN_POINT('',(78.95375439513,-12.50611208703,
    79.714728866756));
#720 = CARTESIAN_POINT('',(79.081475057384,-12.31680454687,
    79.782226006189));
#721 = CARTESIAN_POINT('',(79.321177362,-11.96655227264,79.885057841817)
  );
#722 = CARTESIAN_POINT('',(79.432420313064,-11.80591357242,
    79.923740171529));
#723 = CARTESIAN_POINT('',(79.544834349579,-11.64498703938,
    79.954391027236));
#724 = CARTESIAN_POINT('',(79.658085476279,-11.48386112327,
    79.97723294595));
#725 = CARTESIAN_POINT('',(79.771876893918,-11.3226150743,
    79.992410106898));
#726 = CARTESIAN_POINT('',(79.88593448478,-11.16131291598,
    80.000000055694));
#727 = CARTESIAN_POINT('',(80.,-11.,80.));
#728 = CYLINDRICAL_SURFACE('',#729,4.);
#729 = AXIS2_PLACEMENT_3D('',#730,#731,#732);
#730 = CARTESIAN_POINT('',(10.,-11.,76.));
#731 = DIRECTION('',(1.,0.,0.));
#732 = DIRECTION('',(0.,-1.,0.));
#733 = ADVANCED_FACE('',(#734),#752,.T.);
#734 = FACE_BOUND('',#735,.T.);
#735 = EDGE_LOOP('',(#736,#744,#750,#751));
#736 = ORIENTED_EDGE('',*,*,#737,.F.);
#737 = EDGE_CURVE('',#738,#337,#740,.T.);
#738 = VERTEX_POINT('',#739);
#739 = CARTESIAN_POINT('',(-6.,-15.,60.));
#740 = LINE('',#741,#742);
#741 = CARTESIAN_POINT('',(-10.,-15.,60.));
#742 = VECTOR('',#743,1.);
#743 = DIRECTION('',(1.,0.,0.));
#744 = ORIENTED_EDGE('',*,*,#745,.F.);
#745 = EDGE_CURVE('',#259,#738,#746,.T.);
#746 = LINE('',#747,#748);
#747 = CARTESIAN_POINT('',(-6.,-15.,0.));
#748 = VECTOR('',#749,1.);
#749 = DIRECTION('',(0.,0.,1.));
#750 = ORIENTED_EDGE('',*,*,#267,.T.);
#751 = ORIENTED_EDGE('',*,*,#345,.T.);
#752 = PLANE('',#753);
#753 = AXIS2_PLACEMENT_3D('',#754,#755,#756);
#754 = CARTESIAN_POINT('',(23.662921348315,-15.,55.337078651685));
#755 = DIRECTION('',(-0.,-1.,-0.));
#756 = DIRECTION('',(0.,0.,-1.));
#757 = ADVANCED_FACE('',(#758),#777,.T.);
#758 = FACE_BOUND('',#759,.F.);
#759 = EDGE_LOOP('',(#760,#761,#769,#776));
#760 = ORIENTED_EDGE('',*,*,#258,.T.);
#761 = ORIENTED_EDGE('',*,*,#762,.T.);
#762 = EDGE_CURVE('',#251,#763,#765,.T.);
#763 = VERTEX_POINT('',#764);
#764 = CARTESIAN_POINT('',(-10.,-11.,64.));
#765 = LINE('',#766,#767);
#766 = CARTESIAN_POINT('',(-10.,-11.,0.));
#767 = VECTOR('',#768,1.);
#768 = DIRECTION('',(0.,0.,1.));
#769 = ORIENTED_EDGE('',*,*,#770,.F.);
#770 = EDGE_CURVE('',#738,#763,#771,.T.);
#771 = ELLIPSE('',#772,5.656854249492,4.);
#772 = AXIS2_PLACEMENT_3D('',#773,#774,#775);
#773 = CARTESIAN_POINT('',(-6.,-11.,64.));
#774 = DIRECTION('',(0.,0.707106781187,-0.707106781187));
#775 = DIRECTION('',(0.,0.707106781187,0.707106781187));
#776 = ORIENTED_EDGE('',*,*,#745,.F.);
#777 = CYLINDRICAL_SURFACE('',#778,4.);
#778 = AXIS2_PLACEMENT_3D('',#779,#780,#781);
#779 = CARTESIAN_POINT('',(-6.,-11.,0.));
#780 = DIRECTION('',(0.,0.,1.));
#781 = DIRECTION('',(0.,-1.,0.));
#782 = ADVANCED_FACE('',(#783),#802,.T.);
#783 = FACE_BOUND('',#784,.T.);
#784 = EDGE_LOOP('',(#785,#786,#794,#801));
#785 = ORIENTED_EDGE('',*,*,#241,.T.);
#786 = ORIENTED_EDGE('',*,*,#787,.T.);
#787 = EDGE_CURVE('',#242,#788,#790,.T.);
#788 = VERTEX_POINT('',#789);
#789 = CARTESIAN_POINT('',(-10.,-4.,76.));
#790 = LINE('',#791,#792);
#791 = CARTESIAN_POINT('',(-10.,-4.,0.));
#792 = VECTOR('',#793,1.);
#793 = DIRECTION('',(0.,0.,1.));
#794 = ORIENTED_EDGE('',*,*,#795,.F.);
#795 = EDGE_CURVE('',#616,#788,#796,.T.);
#796 = CIRCLE('',#797,4.);
#797 = AXIS2_PLACEMENT_3D('',#798,#799,#800);
#798 = CARTESIAN_POINT('',(-6.,-4.,76.));
#799 = DIRECTION('',(0.,0.,1.));
#800 = DIRECTION('',(-6.7E-16,1.,0.));
#801 = ORIENTED_EDGE('',*,*,#615,.F.);
#802 = CYLINDRICAL_SURFACE('',#803,4.);
#803 = AXIS2_PLACEMENT_3D('',#804,#805,#806);
#804 = CARTESIAN_POINT('',(-6.,-4.,0.));
#805 = DIRECTION('',(0.,0.,1.));
#806 = DIRECTION('',(0.,1.,0.));
#807 = ADVANCED_FACE('',(#808),#826,.T.);
#808 = FACE_BOUND('',#809,.T.);
#809 = EDGE_LOOP('',(#810,#811,#812,#818,#819,#825));
#810 = ORIENTED_EDGE('',*,*,#250,.T.);
#811 = ORIENTED_EDGE('',*,*,#762,.T.);
#812 = ORIENTED_EDGE('',*,*,#813,.T.);
#813 = EDGE_CURVE('',#763,#362,#814,.T.);
#814 = LINE('',#815,#816);
#815 = CARTESIAN_POINT('',(-10.,-15.,64.));
#816 = VECTOR('',#817,1.);
#817 = DIRECTION('',(0.,-1.,2.2E-16));
#818 = ORIENTED_EDGE('',*,*,#359,.F.);
#819 = ORIENTED_EDGE('',*,*,#820,.F.);
#820 = EDGE_CURVE('',#788,#360,#821,.T.);
#821 = LINE('',#822,#823);
#822 = CARTESIAN_POINT('',(-10.,0.,76.));
#823 = VECTOR('',#824,1.);
#824 = DIRECTION('',(0.,-1.,2.2E-16));
#825 = ORIENTED_EDGE('',*,*,#787,.F.);
#826 = PLANE('',#827);
#827 = AXIS2_PLACEMENT_3D('',#828,#829,#830);
#828 = CARTESIAN_POINT('',(-10.,-15.3,47.2));
#829 = DIRECTION('',(-1.,-0.,-0.));
#830 = DIRECTION('',(0.,0.,-1.));
#831 = ADVANCED_FACE('',(#832),#851,.F.);
#832 = FACE_BOUND('',#833,.F.);
#833 = EDGE_LOOP('',(#834,#843,#849,#850));
#834 = ORIENTED_EDGE('',*,*,#835,.F.);
#835 = EDGE_CURVE('',#836,#836,#838,.T.);
#836 = VERTEX_POINT('',#837);
#837 = CARTESIAN_POINT('',(2.,-7.5,7.));
#838 = CIRCLE('',#839,2.);
#839 = AXIS2_PLACEMENT_3D('',#840,#841,#842);
#840 = CARTESIAN_POINT('',(0.,-7.5,7.));
#841 = DIRECTION('',(0.,0.,1.));
#842 = DIRECTION('',(1.,0.,0.));
#843 = ORIENTED_EDGE('',*,*,#844,.T.);
#844 = EDGE_CURVE('',#836,#285,#845,.T.);
#845 = LINE('',#846,#847);
#846 = CARTESIAN_POINT('',(2.,-7.5,80.));
#847 = VECTOR('',#848,1.);
#848 = DIRECTION('',(-0.,-0.,-1.));
#849 = ORIENTED_EDGE('',*,*,#284,.T.);
#850 = ORIENTED_EDGE('',*,*,#844,.F.);
#851 = CYLINDRICAL_SURFACE('',#852,2.);
#852 = AXIS2_PLACEMENT_3D('',#853,#854,#855);
#853 = CARTESIAN_POINT('',(0.,-7.5,80.));
#854 = DIRECTION('',(0.,0.,1.));
#855 = DIRECTION('',(1.,0.,0.));
#856 = ADVANCED_FACE('',(#857,#891),#902,.T.);
#857 = FACE_BOUND('',#858,.T.);
#858 = EDGE_LOOP('',(#859,#869,#875,#876,#877,#878,#884,#885));
#859 = ORIENTED_EDGE('',*,*,#860,.T.);
#860 = EDGE_CURVE('',#861,#863,#865,.T.);
#861 = VERTEX_POINT('',#862);
#862 = CARTESIAN_POINT('',(86.,-4.,80.));
#863 = VERTEX_POINT('',#864);
#864 = CARTESIAN_POINT('',(-6.,-4.,80.));
#865 = LINE('',#866,#867);
#866 = CARTESIAN_POINT('',(88.,-4.,80.));
#867 = VECTOR('',#868,1.);
#868 = DIRECTION('',(-1.,0.,0.));
#869 = ORIENTED_EDGE('',*,*,#870,.T.);
#870 = EDGE_CURVE('',#863,#370,#871,.T.);
#871 = LINE('',#872,#873);
#872 = CARTESIAN_POINT('',(-6.,8.9E-16,80.));
#873 = VECTOR('',#874,1.);
#874 = DIRECTION('',(0.,-1.,2.2E-16));
#875 = ORIENTED_EDGE('',*,*,#378,.F.);
#876 = ORIENTED_EDGE('',*,*,#320,.F.);
#877 = ORIENTED_EDGE('',*,*,#692,.T.);
#878 = ORIENTED_EDGE('',*,*,#879,.T.);
#879 = EDGE_CURVE('',#693,#548,#880,.T.);
#880 = LINE('',#881,#882);
#881 = CARTESIAN_POINT('',(80.,-11.,80.));
#882 = VECTOR('',#883,1.);
#883 = DIRECTION('',(-0.,-1.,-0.));
#884 = ORIENTED_EDGE('',*,*,#556,.F.);
#885 = ORIENTED_EDGE('',*,*,#886,.F.);
#886 = EDGE_CURVE('',#861,#557,#887,.T.);
#887 = LINE('',#888,#889);
#888 = CARTESIAN_POINT('',(86.,-4.,80.));
#889 = VECTOR('',#890,1.);
#890 = DIRECTION('',(0.,-1.,2.2E-16));
#891 = FACE_BOUND('',#892,.T.);
#892 = EDGE_LOOP('',(#893));
#893 = ORIENTED_EDGE('',*,*,#894,.F.);
#894 = EDGE_CURVE('',#895,#895,#897,.T.);
#895 = VERTEX_POINT('',#896);
#896 = CARTESIAN_POINT('',(3.,-7.5,80.));
#897 = CIRCLE('',#898,3.);
#898 = AXIS2_PLACEMENT_3D('',#899,#900,#901);
#899 = CARTESIAN_POINT('',(0.,-7.5,80.));
#900 = DIRECTION('',(0.,0.,1.));
#901 = DIRECTION('',(1.,0.,0.));
#902 = PLANE('',#903);
#903 = AXIS2_PLACEMENT_3D('',#904,#905,#906);
#904 = CARTESIAN_POINT('',(32.919463087248,-14.66778523489,80.));
#905 = DIRECTION('',(0.,0.,1.));
#906 = DIRECTION('',(1.,0.,0.));
#907 = ADVANCED_FACE('',(#908),#920,.T.);
#908 = FACE_BOUND('',#909,.F.);
#909 = EDGE_LOOP('',(#910,#917,#918,#919));
#910 = ORIENTED_EDGE('',*,*,#911,.F.);
#911 = EDGE_CURVE('',#863,#788,#912,.T.);
#912 = CIRCLE('',#913,4.);
#913 = AXIS2_PLACEMENT_3D('',#914,#915,#916);
#914 = CARTESIAN_POINT('',(-6.,-4.,76.));
#915 = DIRECTION('',(-6.E-17,-1.,-0.));
#916 = DIRECTION('',(-1.,6.E-17,0.));
#917 = ORIENTED_EDGE('',*,*,#870,.T.);
#918 = ORIENTED_EDGE('',*,*,#369,.F.);
#919 = ORIENTED_EDGE('',*,*,#820,.F.);
#920 = CYLINDRICAL_SURFACE('',#921,4.);
#921 = AXIS2_PLACEMENT_3D('',#922,#923,#924);
#922 = CARTESIAN_POINT('',(-6.,0.,76.));
#923 = DIRECTION('',(0.,-1.,2.2E-16));
#924 = DIRECTION('',(-1.,0.,0.));
#925 = ADVANCED_FACE('',(#926),#937,.T.);
#926 = FACE_BOUND('',#927,.F.);
#927 = EDGE_LOOP('',(#928,#929,#930,#931));
#928 = ORIENTED_EDGE('',*,*,#770,.T.);
#929 = ORIENTED_EDGE('',*,*,#813,.T.);
#930 = ORIENTED_EDGE('',*,*,#403,.F.);
#931 = ORIENTED_EDGE('',*,*,#932,.F.);
#932 = EDGE_CURVE('',#738,#396,#933,.T.);
#933 = LINE('',#934,#935);
#934 = CARTESIAN_POINT('',(-6.,-15.,60.));
#935 = VECTOR('',#936,1.);
#936 = DIRECTION('',(0.,-1.,2.2E-16));
#937 = CYLINDRICAL_SURFACE('',#938,4.);
#938 = AXIS2_PLACEMENT_3D('',#939,#940,#941);
#939 = CARTESIAN_POINT('',(-6.,-15.,64.));
#940 = DIRECTION('',(0.,-1.,2.2E-16));
#941 = DIRECTION('',(0.,-2.2E-16,-1.));
#942 = ADVANCED_FACE('',(#943),#949,.F.);
#943 = FACE_BOUND('',#944,.F.);
#944 = EDGE_LOOP('',(#945,#946,#947,#948));
#945 = ORIENTED_EDGE('',*,*,#737,.F.);
#946 = ORIENTED_EDGE('',*,*,#932,.T.);
#947 = ORIENTED_EDGE('',*,*,#395,.T.);
#948 = ORIENTED_EDGE('',*,*,#432,.F.);
#949 = PLANE('',#950);
#950 = AXIS2_PLACEMENT_3D('',#951,#952,#953);
#951 = CARTESIAN_POINT('',(-10.,-15.,60.));
#952 = DIRECTION('',(0.,2.2E-16,1.));
#953 = DIRECTION('',(1.,0.,0.));
#954 = ADVANCED_FACE('',(#955),#974,.F.);
#955 = FACE_BOUND('',#956,.F.);
#956 = EDGE_LOOP('',(#957,#966,#972,#973));
#957 = ORIENTED_EDGE('',*,*,#958,.F.);
#958 = EDGE_CURVE('',#959,#959,#961,.T.);
#959 = VERTEX_POINT('',#960);
#960 = CARTESIAN_POINT('',(-2.,-38.,70.));
#961 = CIRCLE('',#962,2.);
#962 = AXIS2_PLACEMENT_3D('',#963,#964,#965);
#963 = CARTESIAN_POINT('',(0.,-38.,70.));
#964 = DIRECTION('',(0.,1.,-2.2E-16));
#965 = DIRECTION('',(-1.,0.,0.));
#966 = ORIENTED_EDGE('',*,*,#967,.T.);
#967 = EDGE_CURVE('',#959,#413,#968,.T.);
#968 = LINE('',#969,#970);
#969 = CARTESIAN_POINT('',(-2.,1.554E-14,70.));
#970 = VECTOR('',#971,1.);
#971 = DIRECTION('',(0.,-1.,2.2E-16));
#972 = ORIENTED_EDGE('',*,*,#412,.T.);
#973 = ORIENTED_EDGE('',*,*,#967,.F.);
#974 = CYLINDRICAL_SURFACE('',#975,2.);
#975 = AXIS2_PLACEMENT_3D('',#976,#977,#978);
#976 = CARTESIAN_POINT('',(0.,1.554E-14,70.));
#977 = DIRECTION('',(0.,1.,-2.2E-16));
#978 = DIRECTION('',(-1.,0.,0.));
#979 = ADVANCED_FACE('',(#980),#1000,.T.);
#980 = FACE_BOUND('',#981,.T.);
#981 = EDGE_LOOP('',(#982,#983,#984,#993));
#982 = ORIENTED_EDGE('',*,*,#504,.F.);
#983 = ORIENTED_EDGE('',*,*,#456,.T.);
#984 = ORIENTED_EDGE('',*,*,#985,.T.);
#985 = EDGE_CURVE('',#447,#986,#988,.T.);
#986 = VERTEX_POINT('',#987);
#987 = CARTESIAN_POINT('',(88.,-2.,74.));
#988 = CIRCLE('',#989,2.);
#989 = AXIS2_PLACEMENT_3D('',#990,#991,#992);
#990 = CARTESIAN_POINT('',(86.,-2.,74.));
#991 = DIRECTION('',(0.,5.E-17,-1.));
#992 = DIRECTION('',(0.,1.,5.E-17));
#993 = ORIENTED_EDGE('',*,*,#994,.F.);
#994 = EDGE_CURVE('',#497,#986,#995,.T.);
#995 = CIRCLE('',#996,2.);
#996 = AXIS2_PLACEMENT_3D('',#997,#998,#999);
#997 = CARTESIAN_POINT('',(88.,-4.,74.));
#998 = DIRECTION('',(1.,-0.,0.));
#999 = DIRECTION('',(0.,1.1E-16,-1.));
#1000 = TOROIDAL_SURFACE('',#1001,2.,2.);
#1001 = AXIS2_PLACEMENT_3D('',#1002,#1003,#1004);
#1002 = CARTESIAN_POINT('',(86.,-4.,74.));
#1003 = DIRECTION('',(1.,0.,0.));
#1004 = DIRECTION('',(0.,1.1E-16,-1.));
#1005 = ADVANCED_FACE('',(#1006),#1024,.T.);
#1006 = FACE_BOUND('',#1007,.T.);
#1007 = EDGE_LOOP('',(#1008,#1009,#1010,#1018));
#1008 = ORIENTED_EDGE('',*,*,#520,.F.);
#1009 = ORIENTED_EDGE('',*,*,#480,.T.);
#1010 = ORIENTED_EDGE('',*,*,#1011,.F.);
#1011 = EDGE_CURVE('',#1012,#481,#1014,.T.);
#1012 = VERTEX_POINT('',#1013);
#1013 = CARTESIAN_POINT('',(88.,-18.5,78.));
#1014 = LINE('',#1015,#1016);
#1015 = CARTESIAN_POINT('',(88.,-18.5,73.5));
#1016 = VECTOR('',#1017,1.);
#1017 = DIRECTION('',(0.,0.,-1.));
#1018 = ORIENTED_EDGE('',*,*,#1019,.T.);
#1019 = EDGE_CURVE('',#1012,#521,#1020,.T.);
#1020 = LINE('',#1021,#1022);
#1021 = CARTESIAN_POINT('',(88.,-4.,78.));
#1022 = VECTOR('',#1023,1.);
#1023 = DIRECTION('',(0.,-1.,2.2E-16));
#1024 = PLANE('',#1025);
#1025 = AXIS2_PLACEMENT_3D('',#1026,#1027,#1028);
#1026 = CARTESIAN_POINT('',(88.,-19.75,75.));
#1027 = DIRECTION('',(1.,0.,0.));
#1028 = DIRECTION('',(0.,0.,1.));
#1029 = ADVANCED_FACE('',(#1030),#1046,.T.);
#1030 = FACE_BOUND('',#1031,.T.);
#1031 = EDGE_LOOP('',(#1032,#1033,#1039,#1040));
#1032 = ORIENTED_EDGE('',*,*,#588,.T.);
#1033 = ORIENTED_EDGE('',*,*,#1034,.T.);
#1034 = EDGE_CURVE('',#589,#481,#1035,.T.);
#1035 = LINE('',#1036,#1037);
#1036 = CARTESIAN_POINT('',(78.,-18.5,72.));
#1037 = VECTOR('',#1038,1.);
#1038 = DIRECTION('',(1.,0.,0.));
#1039 = ORIENTED_EDGE('',*,*,#488,.T.);
#1040 = ORIENTED_EDGE('',*,*,#1041,.F.);
#1041 = EDGE_CURVE('',#581,#489,#1042,.T.);
#1042 = LINE('',#1043,#1044);
#1043 = CARTESIAN_POINT('',(78.,-15.5,72.));
#1044 = VECTOR('',#1045,1.);
#1045 = DIRECTION('',(1.,0.,0.));
#1046 = PLANE('',#1047);
#1047 = AXIS2_PLACEMENT_3D('',#1048,#1049,#1050);
#1048 = CARTESIAN_POINT('',(83.,-17.,72.));
#1049 = DIRECTION('',(0.,0.,1.));
#1050 = DIRECTION('',(1.,0.,0.));
#1051 = ADVANCED_FACE('',(#1052),#1087,.T.);
#1052 = FACE_BOUND('',#1053,.T.);
#1053 = EDGE_LOOP('',(#1054,#1062,#1063,#1064,#1072,#1081));
#1054 = ORIENTED_EDGE('',*,*,#1055,.F.);
#1055 = EDGE_CURVE('',#489,#1056,#1058,.T.);
#1056 = VERTEX_POINT('',#1057);
#1057 = CARTESIAN_POINT('',(88.,-15.5,78.));
#1058 = LINE('',#1059,#1060);
#1059 = CARTESIAN_POINT('',(88.,-15.5,76.5));
#1060 = VECTOR('',#1061,1.);
#1061 = DIRECTION('',(0.,0.,1.));
#1062 = ORIENTED_EDGE('',*,*,#496,.T.);
#1063 = ORIENTED_EDGE('',*,*,#994,.T.);
#1064 = ORIENTED_EDGE('',*,*,#1065,.T.);
#1065 = EDGE_CURVE('',#986,#1066,#1068,.T.);
#1066 = VERTEX_POINT('',#1067);
#1067 = CARTESIAN_POINT('',(88.,-2.,76.));
#1068 = LINE('',#1069,#1070);
#1069 = CARTESIAN_POINT('',(88.,-2.,74.));
#1070 = VECTOR('',#1071,1.);
#1071 = DIRECTION('',(0.,0.,1.));
#1072 = ORIENTED_EDGE('',*,*,#1073,.T.);
#1073 = EDGE_CURVE('',#1066,#1074,#1076,.T.);
#1074 = VERTEX_POINT('',#1075);
#1075 = CARTESIAN_POINT('',(88.,-4.,78.));
#1076 = CIRCLE('',#1077,2.);
#1077 = AXIS2_PLACEMENT_3D('',#1078,#1079,#1080);
#1078 = CARTESIAN_POINT('',(88.,-4.,76.));
#1079 = DIRECTION('',(1.,0.,0.));
#1080 = DIRECTION('',(0.,1.,0.));
#1081 = ORIENTED_EDGE('',*,*,#1082,.T.);
#1082 = EDGE_CURVE('',#1074,#1056,#1083,.T.);
#1083 = LINE('',#1084,#1085);
#1084 = CARTESIAN_POINT('',(88.,-4.,78.));
#1085 = VECTOR('',#1086,1.);
#1086 = DIRECTION('',(0.,-1.,2.2E-16));
#1087 = PLANE('',#1088);
#1088 = AXIS2_PLACEMENT_3D('',#1089,#1090,#1091);
#1089 = CARTESIAN_POINT('',(88.,-8.,75.));
#1090 = DIRECTION('',(1.,0.,0.));
#1091 = DIRECTION('',(0.,0.,1.));
#1092 = ADVANCED_FACE('',(#1093),#1112,.T.);
#1093 = FACE_BOUND('',#1094,.F.);
#1094 = EDGE_LOOP('',(#1095,#1102,#1103,#1109,#1110,#1111));
#1095 = ORIENTED_EDGE('',*,*,#1096,.T.);
#1096 = EDGE_CURVE('',#861,#1074,#1097,.T.);
#1097 = CIRCLE('',#1098,2.);
#1098 = AXIS2_PLACEMENT_3D('',#1099,#1100,#1101);
#1099 = CARTESIAN_POINT('',(86.,-4.,78.));
#1100 = DIRECTION('',(0.,1.,-6.E-17));
#1101 = DIRECTION('',(0.,6.E-17,1.));
#1102 = ORIENTED_EDGE('',*,*,#1082,.T.);
#1103 = ORIENTED_EDGE('',*,*,#1104,.T.);
#1104 = EDGE_CURVE('',#1056,#1012,#1105,.T.);
#1105 = LINE('',#1106,#1107);
#1106 = CARTESIAN_POINT('',(88.,-4.,78.));
#1107 = VECTOR('',#1108,1.);
#1108 = DIRECTION('',(0.,-1.,2.2E-16));
#1109 = ORIENTED_EDGE('',*,*,#1019,.T.);
#1110 = ORIENTED_EDGE('',*,*,#564,.F.);
#1111 = ORIENTED_EDGE('',*,*,#886,.F.);
#1112 = CYLINDRICAL_SURFACE('',#1113,2.);
#1113 = AXIS2_PLACEMENT_3D('',#1114,#1115,#1116);
#1114 = CARTESIAN_POINT('',(86.,-4.,78.));
#1115 = DIRECTION('',(0.,-1.,2.2E-16));
#1116 = DIRECTION('',(0.,2.2E-16,1.));
#1117 = ADVANCED_FACE('',(#1118),#1138,.T.);
#1118 = FACE_BOUND('',#1119,.F.);
#1119 = EDGE_LOOP('',(#1120,#1121,#1129,#1135,#1136,#1137));
#1120 = ORIENTED_EDGE('',*,*,#547,.F.);
#1121 = ORIENTED_EDGE('',*,*,#1122,.F.);
#1122 = EDGE_CURVE('',#1123,#540,#1125,.T.);
#1123 = VERTEX_POINT('',#1124);
#1124 = CARTESIAN_POINT('',(78.,-18.5,78.));
#1125 = LINE('',#1126,#1127);
#1126 = CARTESIAN_POINT('',(78.,-15.,78.));
#1127 = VECTOR('',#1128,1.);
#1128 = DIRECTION('',(0.,-1.,2.2E-16));
#1129 = ORIENTED_EDGE('',*,*,#1130,.F.);
#1130 = EDGE_CURVE('',#668,#1123,#1131,.T.);
#1131 = LINE('',#1132,#1133);
#1132 = CARTESIAN_POINT('',(78.,-15.,78.));
#1133 = VECTOR('',#1134,1.);
#1134 = DIRECTION('',(0.,-1.,2.2E-16));
#1135 = ORIENTED_EDGE('',*,*,#667,.F.);
#1136 = ORIENTED_EDGE('',*,*,#700,.T.);
#1137 = ORIENTED_EDGE('',*,*,#879,.T.);
#1138 = CYLINDRICAL_SURFACE('',#1139,2.);
#1139 = AXIS2_PLACEMENT_3D('',#1140,#1141,#1142);
#1140 = CARTESIAN_POINT('',(80.,-15.,78.));
#1141 = DIRECTION('',(0.,-1.,2.2E-16));
#1142 = DIRECTION('',(-1.,0.,0.));
#1143 = ADVANCED_FACE('',(#1144),#1155,.T.);
#1144 = FACE_BOUND('',#1145,.T.);
#1145 = EDGE_LOOP('',(#1146,#1147,#1148,#1149));
#1146 = ORIENTED_EDGE('',*,*,#596,.T.);
#1147 = ORIENTED_EDGE('',*,*,#539,.F.);
#1148 = ORIENTED_EDGE('',*,*,#1122,.F.);
#1149 = ORIENTED_EDGE('',*,*,#1150,.F.);
#1150 = EDGE_CURVE('',#589,#1123,#1151,.T.);
#1151 = LINE('',#1152,#1153);
#1152 = CARTESIAN_POINT('',(78.,-18.5,72.));
#1153 = VECTOR('',#1154,1.);
#1154 = DIRECTION('',(0.,0.,1.));
#1155 = PLANE('',#1156);
#1156 = AXIS2_PLACEMENT_3D('',#1157,#1158,#1159);
#1157 = CARTESIAN_POINT('',(78.,-19.75,75.));
#1158 = DIRECTION('',(-1.,-0.,-0.));
#1159 = DIRECTION('',(0.,0.,-1.));
#1160 = ADVANCED_FACE('',(#1161),#1173,.T.);
#1161 = FACE_BOUND('',#1162,.F.);
#1162 = EDGE_LOOP('',(#1163,#1164,#1165,#1172));
#1163 = ORIENTED_EDGE('',*,*,#985,.T.);
#1164 = ORIENTED_EDGE('',*,*,#1065,.T.);
#1165 = ORIENTED_EDGE('',*,*,#1166,.F.);
#1166 = EDGE_CURVE('',#624,#1066,#1167,.T.);
#1167 = CIRCLE('',#1168,2.);
#1168 = AXIS2_PLACEMENT_3D('',#1169,#1170,#1171);
#1169 = CARTESIAN_POINT('',(86.,-2.,76.));
#1170 = DIRECTION('',(0.,0.,-1.));
#1171 = DIRECTION('',(0.,1.,0.));
#1172 = ORIENTED_EDGE('',*,*,#631,.F.);
#1173 = CYLINDRICAL_SURFACE('',#1174,2.);
#1174 = AXIS2_PLACEMENT_3D('',#1175,#1176,#1177);
#1175 = CARTESIAN_POINT('',(86.,-2.,74.));
#1176 = DIRECTION('',(0.,0.,1.));
#1177 = DIRECTION('',(0.,1.,0.));
#1178 = ADVANCED_FACE('',(#1179),#1197,.T.);
#1179 = FACE_BOUND('',#1180,.F.);
#1180 = EDGE_LOOP('',(#1181,#1182,#1189,#1190));
#1181 = ORIENTED_EDGE('',*,*,#623,.F.);
#1182 = ORIENTED_EDGE('',*,*,#1183,.T.);
#1183 = EDGE_CURVE('',#624,#861,#1184,.T.);
#1184 = CIRCLE('',#1185,4.);
#1185 = AXIS2_PLACEMENT_3D('',#1186,#1187,#1188);
#1186 = CARTESIAN_POINT('',(86.,-4.,76.));
#1187 = DIRECTION('',(1.,0.,0.));
#1188 = DIRECTION('',(0.,1.,0.));
#1189 = ORIENTED_EDGE('',*,*,#860,.T.);
#1190 = ORIENTED_EDGE('',*,*,#1191,.T.);
#1191 = EDGE_CURVE('',#863,#616,#1192,.T.);
#1192 = CIRCLE('',#1193,4.);
#1193 = AXIS2_PLACEMENT_3D('',#1194,#1195,#1196);
#1194 = CARTESIAN_POINT('',(-6.,-4.,76.));
#1195 = DIRECTION('',(-1.,-6.7E-16,-0.));
#1196 = DIRECTION('',(-6.7E-16,1.,0.));
#1197 = CYLINDRICAL_SURFACE('',#1198,4.);
#1198 = AXIS2_PLACEMENT_3D('',#1199,#1200,#1201);
#1199 = CARTESIAN_POINT('',(88.,-4.,76.));
#1200 = DIRECTION('',(-1.,0.,0.));
#1201 = DIRECTION('',(0.,1.,0.));
#1202 = ADVANCED_FACE('',(#1203),#1240,.F.);
#1203 = FACE_BOUND('',#1204,.F.);
#1204 = EDGE_LOOP('',(#1205,#1206,#1214,#1223,#1232,#1239));
#1205 = ORIENTED_EDGE('',*,*,#639,.F.);
#1206 = ORIENTED_EDGE('',*,*,#1207,.T.);
#1207 = EDGE_CURVE('',#640,#1208,#1210,.T.);
#1208 = VERTEX_POINT('',#1209);
#1209 = CARTESIAN_POINT('',(-3.,-7.5,70.));
#1210 = LINE('',#1211,#1212);
#1211 = CARTESIAN_POINT('',(-3.,1.554E-14,70.));
#1212 = VECTOR('',#1213,1.);
#1213 = DIRECTION('',(0.,-1.,2.2E-16));
#1214 = ORIENTED_EDGE('',*,*,#1215,.F.);
#1215 = EDGE_CURVE('',#1216,#1208,#1218,.T.);
#1216 = VERTEX_POINT('',#1217);
#1217 = CARTESIAN_POINT('',(0.,-4.5,73.));
#1218 = ELLIPSE('',#1219,4.242640687119,3.);
#1219 = AXIS2_PLACEMENT_3D('',#1220,#1221,#1222);
#1220 = CARTESIAN_POINT('',(0.,-7.5,70.));
#1221 = DIRECTION('',(0.,-0.707106781187,0.707106781187));
#1222 = DIRECTION('',(0.,0.707106781187,0.707106781187));
#1223 = ORIENTED_EDGE('',*,*,#1224,.F.);
#1224 = EDGE_CURVE('',#1225,#1216,#1227,.T.);
#1225 = VERTEX_POINT('',#1226);
#1226 = CARTESIAN_POINT('',(3.,-7.5,70.));
#1227 = ELLIPSE('',#1228,4.242640687119,3.);
#1228 = AXIS2_PLACEMENT_3D('',#1229,#1230,#1231);
#1229 = CARTESIAN_POINT('',(0.,-7.5,70.));
#1230 = DIRECTION('',(0.,-0.707106781187,0.707106781187));
#1231 = DIRECTION('',(0.,0.707106781187,0.707106781187));
#1232 = ORIENTED_EDGE('',*,*,#1233,.T.);
#1233 = EDGE_CURVE('',#1225,#1208,#1234,.T.);
#1234 = ELLIPSE('',#1235,4.242640687119,3.);
#1235 = AXIS2_PLACEMENT_3D('',#1236,#1237,#1238);
#1236 = CARTESIAN_POINT('',(0.,-7.5,70.));
#1237 = DIRECTION('',(-0.,0.707106781187,0.707106781187));
#1238 = DIRECTION('',(0.,-0.707106781187,0.707106781187));
#1239 = ORIENTED_EDGE('',*,*,#1207,.F.);
#1240 = CYLINDRICAL_SURFACE('',#1241,3.);
#1241 = AXIS2_PLACEMENT_3D('',#1242,#1243,#1244);
#1242 = CARTESIAN_POINT('',(0.,1.554E-14,70.));
#1243 = DIRECTION('',(0.,1.,-2.2E-16));
#1244 = DIRECTION('',(-1.,0.,0.));
#1245 = ADVANCED_FACE('',(#1246),#1257,.F.);
#1246 = FACE_BOUND('',#1247,.F.);
#1247 = EDGE_LOOP('',(#1248,#1249,#1255,#1256));
#1248 = ORIENTED_EDGE('',*,*,#675,.F.);
#1249 = ORIENTED_EDGE('',*,*,#1250,.T.);
#1250 = EDGE_CURVE('',#668,#1056,#1251,.T.);
#1251 = LINE('',#1252,#1253);
#1252 = CARTESIAN_POINT('',(78.,-15.5,78.));
#1253 = VECTOR('',#1254,1.);
#1254 = DIRECTION('',(1.,0.,0.));
#1255 = ORIENTED_EDGE('',*,*,#1055,.F.);
#1256 = ORIENTED_EDGE('',*,*,#1041,.F.);
#1257 = PLANE('',#1258);
#1258 = AXIS2_PLACEMENT_3D('',#1259,#1260,#1261);
#1259 = CARTESIAN_POINT('',(78.,-15.5,78.));
#1260 = DIRECTION('',(0.,1.,0.));
#1261 = DIRECTION('',(0.,0.,-1.));
#1262 = ADVANCED_FACE('',(#1263),#1268,.T.);
#1263 = FACE_BOUND('',#1264,.F.);
#1264 = EDGE_LOOP('',(#1265,#1266,#1267));
#1265 = ORIENTED_EDGE('',*,*,#1191,.F.);
#1266 = ORIENTED_EDGE('',*,*,#911,.T.);
#1267 = ORIENTED_EDGE('',*,*,#795,.F.);
#1268 = SPHERICAL_SURFACE('',#1269,4.);
#1269 = AXIS2_PLACEMENT_3D('',#1270,#1271,#1272);
#1270 = CARTESIAN_POINT('',(-6.,-4.,76.));
#1271 = DIRECTION('',(-0.,-0.,-1.));
#1272 = DIRECTION('',(-6.7E-16,1.,0.));
#1273 = ADVANCED_FACE('',(#1274,#1285),#1288,.T.);
#1274 = FACE_BOUND('',#1275,.T.);
#1275 = EDGE_LOOP('',(#1276));
#1276 = ORIENTED_EDGE('',*,*,#1277,.T.);
#1277 = EDGE_CURVE('',#1278,#1278,#1280,.T.);
#1278 = VERTEX_POINT('',#1279);
#1279 = CARTESIAN_POINT('',(3.,-7.5,7.));
#1280 = CIRCLE('',#1281,3.);
#1281 = AXIS2_PLACEMENT_3D('',#1282,#1283,#1284);
#1282 = CARTESIAN_POINT('',(0.,-7.5,7.));
#1283 = DIRECTION('',(0.,0.,1.));
#1284 = DIRECTION('',(1.,0.,0.));
#1285 = FACE_BOUND('',#1286,.T.);
#1286 = EDGE_LOOP('',(#1287));
#1287 = ORIENTED_EDGE('',*,*,#835,.F.);
#1288 = PLANE('',#1289);
#1289 = AXIS2_PLACEMENT_3D('',#1290,#1291,#1292);
#1290 = CARTESIAN_POINT('',(-2.3E-16,-7.5,7.));
#1291 = DIRECTION('',(0.,0.,1.));
#1292 = DIRECTION('',(1.,0.,0.));
#1293 = ADVANCED_FACE('',(#1294),#1322,.F.);
#1294 = FACE_BOUND('',#1295,.F.);
#1295 = EDGE_LOOP('',(#1296,#1302,#1303,#1304,#1305,#1306,#1315));
#1296 = ORIENTED_EDGE('',*,*,#1297,.F.);
#1297 = EDGE_CURVE('',#895,#1225,#1298,.T.);
#1298 = LINE('',#1299,#1300);
#1299 = CARTESIAN_POINT('',(3.,-7.5,80.));
#1300 = VECTOR('',#1301,1.);
#1301 = DIRECTION('',(-0.,-0.,-1.));
#1302 = ORIENTED_EDGE('',*,*,#894,.F.);
#1303 = ORIENTED_EDGE('',*,*,#1297,.T.);
#1304 = ORIENTED_EDGE('',*,*,#1224,.T.);
#1305 = ORIENTED_EDGE('',*,*,#1215,.T.);
#1306 = ORIENTED_EDGE('',*,*,#1307,.T.);
#1307 = EDGE_CURVE('',#1208,#1308,#1310,.T.);
#1308 = VERTEX_POINT('',#1309);
#1309 = CARTESIAN_POINT('',(0.,-10.5,73.));
#1310 = ELLIPSE('',#1311,4.242640687119,3.);
#1311 = AXIS2_PLACEMENT_3D('',#1312,#1313,#1314);
#1312 = CARTESIAN_POINT('',(0.,-7.5,70.));
#1313 = DIRECTION('',(-0.,0.707106781187,0.707106781187));
#1314 = DIRECTION('',(0.,-0.707106781187,0.707106781187));
#1315 = ORIENTED_EDGE('',*,*,#1316,.T.);
#1316 = EDGE_CURVE('',#1308,#1225,#1317,.T.);
#1317 = ELLIPSE('',#1318,4.242640687119,3.);
#1318 = AXIS2_PLACEMENT_3D('',#1319,#1320,#1321);
#1319 = CARTESIAN_POINT('',(0.,-7.5,70.));
#1320 = DIRECTION('',(-0.,0.707106781187,0.707106781187));
#1321 = DIRECTION('',(0.,-0.707106781187,0.707106781187));
#1322 = CYLINDRICAL_SURFACE('',#1323,3.);
#1323 = AXIS2_PLACEMENT_3D('',#1324,#1325,#1326);
#1324 = CARTESIAN_POINT('',(0.,-7.5,80.));
#1325 = DIRECTION('',(0.,0.,1.));
#1326 = DIRECTION('',(1.,0.,0.));
#1327 = ADVANCED_FACE('',(#1328,#1339),#1342,.T.);
#1328 = FACE_BOUND('',#1329,.T.);
#1329 = EDGE_LOOP('',(#1330));
#1330 = ORIENTED_EDGE('',*,*,#1331,.T.);
#1331 = EDGE_CURVE('',#1332,#1332,#1334,.T.);
#1332 = VERTEX_POINT('',#1333);
#1333 = CARTESIAN_POINT('',(-3.,-38.,70.));
#1334 = CIRCLE('',#1335,3.);
#1335 = AXIS2_PLACEMENT_3D('',#1336,#1337,#1338);
#1336 = CARTESIAN_POINT('',(0.,-38.,70.));
#1337 = DIRECTION('',(0.,1.,-0.));
#1338 = DIRECTION('',(-1.,0.,0.));
#1339 = FACE_BOUND('',#1340,.T.);
#1340 = EDGE_LOOP('',(#1341));
#1341 = ORIENTED_EDGE('',*,*,#958,.F.);
#1342 = PLANE('',#1343);
#1343 = AXIS2_PLACEMENT_3D('',#1344,#1345,#1346);
#1344 = CARTESIAN_POINT('',(2.3E-16,-38.,70.));
#1345 = DIRECTION('',(0.,1.,0.));
#1346 = DIRECTION('',(0.,0.,1.));
#1347 = ADVANCED_FACE('',(#1348),#1359,.F.);
#1348 = FACE_BOUND('',#1349,.F.);
#1349 = EDGE_LOOP('',(#1350,#1351,#1352,#1353));
#1350 = ORIENTED_EDGE('',*,*,#1150,.F.);
#1351 = ORIENTED_EDGE('',*,*,#1034,.T.);
#1352 = ORIENTED_EDGE('',*,*,#1011,.F.);
#1353 = ORIENTED_EDGE('',*,*,#1354,.F.);
#1354 = EDGE_CURVE('',#1123,#1012,#1355,.T.);
#1355 = LINE('',#1356,#1357);
#1356 = CARTESIAN_POINT('',(78.,-18.5,78.));
#1357 = VECTOR('',#1358,1.);
#1358 = DIRECTION('',(1.,0.,0.));
#1359 = PLANE('',#1360);
#1360 = AXIS2_PLACEMENT_3D('',#1361,#1362,#1363);
#1361 = CARTESIAN_POINT('',(78.,-18.5,72.));
#1362 = DIRECTION('',(0.,-1.,0.));
#1363 = DIRECTION('',(0.,0.,1.));
#1364 = ADVANCED_FACE('',(#1365),#1371,.T.);
#1365 = FACE_BOUND('',#1366,.T.);
#1366 = EDGE_LOOP('',(#1367,#1368,#1369,#1370));
#1367 = ORIENTED_EDGE('',*,*,#1166,.F.);
#1368 = ORIENTED_EDGE('',*,*,#1183,.T.);
#1369 = ORIENTED_EDGE('',*,*,#1096,.T.);
#1370 = ORIENTED_EDGE('',*,*,#1073,.F.);
#1371 = TOROIDAL_SURFACE('',#1372,2.,2.);
#1372 = AXIS2_PLACEMENT_3D('',#1373,#1374,#1375);
#1373 = CARTESIAN_POINT('',(86.,-4.,76.));
#1374 = DIRECTION('',(1.,0.,0.));
#1375 = DIRECTION('',(0.,1.,0.));
#1376 = ADVANCED_FACE('',(#1377),#1383,.T.);
#1377 = FACE_BOUND('',#1378,.T.);
#1378 = EDGE_LOOP('',(#1379,#1380,#1381,#1382));
#1379 = ORIENTED_EDGE('',*,*,#1130,.F.);
#1380 = ORIENTED_EDGE('',*,*,#1250,.T.);
#1381 = ORIENTED_EDGE('',*,*,#1104,.T.);
#1382 = ORIENTED_EDGE('',*,*,#1354,.F.);
#1383 = PLANE('',#1384);
#1384 = AXIS2_PLACEMENT_3D('',#1385,#1386,#1387);
#1385 = CARTESIAN_POINT('',(83.,-17.,78.));
#1386 = DIRECTION('',(-0.,-0.,-1.));
#1387 = DIRECTION('',(-1.,0.,0.));
#1388 = ADVANCED_FACE('',(#1389),#1407,.F.);
#1389 = FACE_BOUND('',#1390,.F.);
#1390 = EDGE_LOOP('',(#1391,#1392,#1398,#1399,#1400));
#1391 = ORIENTED_EDGE('',*,*,#1233,.F.);
#1392 = ORIENTED_EDGE('',*,*,#1393,.T.);
#1393 = EDGE_CURVE('',#1225,#1278,#1394,.T.);
#1394 = LINE('',#1395,#1396);
#1395 = CARTESIAN_POINT('',(3.,-7.5,80.));
#1396 = VECTOR('',#1397,1.);
#1397 = DIRECTION('',(-0.,-0.,-1.));
#1398 = ORIENTED_EDGE('',*,*,#1277,.T.);
#1399 = ORIENTED_EDGE('',*,*,#1393,.F.);
#1400 = ORIENTED_EDGE('',*,*,#1401,.F.);
#1401 = EDGE_CURVE('',#1208,#1225,#1402,.T.);
#1402 = ELLIPSE('',#1403,4.242640687119,3.);
#1403 = AXIS2_PLACEMENT_3D('',#1404,#1405,#1406);
#1404 = CARTESIAN_POINT('',(0.,-7.5,70.));
#1405 = DIRECTION('',(0.,-0.707106781187,0.707106781187));
#1406 = DIRECTION('',(0.,0.707106781187,0.707106781187));
#1407 = CYLINDRICAL_SURFACE('',#1408,3.);
#1408 = AXIS2_PLACEMENT_3D('',#1409,#1410,#1411);
#1409 = CARTESIAN_POINT('',(0.,-7.5,80.));
#1410 = DIRECTION('',(0.,0.,1.));
#1411 = DIRECTION('',(1.,0.,0.));
#1412 = ADVANCED_FACE('',(#1413),#1426,.F.);
#1413 = FACE_BOUND('',#1414,.F.);
#1414 = EDGE_LOOP('',(#1415,#1416,#1422,#1423,#1424,#1425));
#1415 = ORIENTED_EDGE('',*,*,#1307,.F.);
#1416 = ORIENTED_EDGE('',*,*,#1417,.T.);
#1417 = EDGE_CURVE('',#1208,#1332,#1418,.T.);
#1418 = LINE('',#1419,#1420);
#1419 = CARTESIAN_POINT('',(-3.,1.554E-14,70.));
#1420 = VECTOR('',#1421,1.);
#1421 = DIRECTION('',(0.,-1.,2.2E-16));
#1422 = ORIENTED_EDGE('',*,*,#1331,.T.);
#1423 = ORIENTED_EDGE('',*,*,#1417,.F.);
#1424 = ORIENTED_EDGE('',*,*,#1401,.T.);
#1425 = ORIENTED_EDGE('',*,*,#1316,.F.);
#1426 = CYLINDRICAL_SURFACE('',#1427,3.);
#1427 = AXIS2_PLACEMENT_3D('',#1428,#1429,#1430);
#1428 = CARTESIAN_POINT('',(0.,1.554E-14,70.));
#1429 = DIRECTION('',(0.,1.,-2.2E-16));
#1430 = DIRECTION('',(-1.,0.,0.));
#1431 = ( GEOMETRIC_REPRESENTATION_CONTEXT(3) 
GLOBAL_UNCERTAINTY_ASSIGNED_CONTEXT((#1435)) 
GLOBAL_UNIT_ASSIGNED_CONTEXT((#1432,#1433,#1434)) REPRESENTATION_CONTEXT
('Context #1','3D Context with UNIT and UNCERTAINTY') );
#1432 = ( LENGTH_UNIT() NAMED_UNIT(*) SI_UNIT(.MILLI.,.METRE.) );
#1433 = ( NAMED_UNIT(*) PLANE_ANGLE_UNIT() SI_UNIT($,.RADIAN.) );
#1434 = ( NAMED_UNIT(*) SI_UNIT($,.STERADIAN.) SOLID_ANGLE_UNIT() );
#1435 = UNCERTAINTY_MEASURE_WITH_UNIT(LENGTH_MEASURE(2.E-05),#1432,
  'distance_accuracy_value','confusion accuracy');
#1436 = PRODUCT_RELATED_PRODUCT_CATEGORY('part',$,(#7));
#1437 = MECHANICAL_DESIGN_GEOMETRIC_PRESENTATION_REPRESENTATION('',(
    #1438),#1431);
#1438 = STYLED_ITEM('color',(#1439),#15);
#1439 = PRESENTATION_STYLE_ASSIGNMENT((#1440,#1446));
#1440 = SURFACE_STYLE_USAGE(.BOTH.,#1441);
#1441 = SURFACE_SIDE_STYLE('',(#1442));
#1442 = SURFACE_STYLE_FILL_AREA(#1443);
#1443 = FILL_AREA_STYLE('',(#1444));
#1444 = FILL_AREA_STYLE_COLOUR('',#1445);
#1445 = COLOUR_RGB('',0.447058818107,0.474509808674,0.501960817233);
#1446 = CURVE_STYLE('',#1447,POSITIVE_LENGTH_MEASURE(0.1),#1448);
#1447 = DRAUGHTING_PRE_DEFINED_CURVE_FONT('continuous');
#1448 = COLOUR_RGB('',9.803921802644E-02,9.803921802644E-02,
  9.803921802644E-02);
ENDSEC;
END-ISO-10303-21;
