ISO-10303-21;
HEADER;
FILE_DESCRIPTION(('FreeCAD Model'),'2;1');
FILE_NAME('Open CASCADE Shape Model','2025-12-06T10:00:10',(''),(''),
  'Open CASCADE STEP processor 7.8','FreeCAD','Unknown');
FILE_SCHEMA(('AUTOMOTIVE_DESIGN { 1 0 10303 214 1 1 1 1 }'));
ENDSEC;
DATA;
#1 = APPLICATION_PROTOCOL_DEFINITION('international standard',
  'automotive_design',2000,#2);
#2 = APPLICATION_CONTEXT(
  'core data for automotive mechanical design processes');
#3 = SHAPE_DEFINITION_REPRESENTATION(#4,#10);
#4 = PRODUCT_DEFINITION_SHAPE('','',#5);
#5 = PRODUCT_DEFINITION('design','',#6,#9);
#6 = PRODUCT_DEFINITION_FORMATION('','',#7);
#7 = PRODUCT('Z mouting back v2','Z mouting back v2','',(#8));
#8 = PRODUCT_CONTEXT('',#2,'mechanical');
#9 = PRODUCT_DEFINITION_CONTEXT('part definition',#2,'design');
#10 = ADVANCED_BREP_SHAPE_REPRESENTATION('',(#11,#15),#1320);
#11 = AXIS2_PLACEMENT_3D('',#12,#13,#14);
#12 = CARTESIAN_POINT('',(0.,0.,0.));
#13 = DIRECTION('',(0.,0.,1.));
#14 = DIRECTION('',(1.,0.,-0.));
#15 = MANIFOLD_SOLID_BREP('',#16);
#16 = CLOSED_SHELL('',(#17,#84,#115,#146,#177,#256,#302,#313,#337,#361,
    #450,#498,#515,#532,#570,#594,#671,#702,#726,#760,#778,#790,#807,
    #824,#848,#866,#891,#952,#964,#976,#1000,#1024,#1048,#1072,#1097,
    #1122,#1142,#1166,#1190,#1214,#1238,#1250,#1262,#1274,#1286,#1295,
    #1304));
#17 = ADVANCED_FACE('',(#18,#68),#79,.F.);
#18 = FACE_BOUND('',#19,.F.);
#19 = EDGE_LOOP('',(#20,#30,#38,#46,#54,#62));
#20 = ORIENTED_EDGE('',*,*,#21,.T.);
#21 = EDGE_CURVE('',#22,#24,#26,.T.);
#22 = VERTEX_POINT('',#23);
#23 = CARTESIAN_POINT('',(17.,-55.,40.));
#24 = VERTEX_POINT('',#25);
#25 = CARTESIAN_POINT('',(34.,-55.,40.));
#26 = LINE('',#27,#28);
#27 = CARTESIAN_POINT('',(12.,-55.,40.));
#28 = VECTOR('',#29,1.);
#29 = DIRECTION('',(1.,0.,0.));
#30 = ORIENTED_EDGE('',*,*,#31,.T.);
#31 = EDGE_CURVE('',#24,#32,#34,.T.);
#32 = VERTEX_POINT('',#33);
#33 = CARTESIAN_POINT('',(34.,-20.75,9.555555555556));
#34 = LINE('',#35,#36);
#35 = CARTESIAN_POINT('',(34.,-55.,40.));
#36 = VECTOR('',#37,1.);
#37 = DIRECTION('',(0.,0.747409318684,-0.66436383883));
#38 = ORIENTED_EDGE('',*,*,#39,.F.);
#39 = EDGE_CURVE('',#40,#32,#42,.T.);
#40 = VERTEX_POINT('',#41);
#41 = CARTESIAN_POINT('',(24.75,-20.75,9.555555555556));
#42 = LINE('',#43,#44);
#43 = CARTESIAN_POINT('',(25.,-20.75,9.555555555556));
#44 = VECTOR('',#45,1.);
#45 = DIRECTION('',(1.,0.,0.));
#46 = ORIENTED_EDGE('',*,*,#47,.T.);
#47 = EDGE_CURVE('',#40,#48,#50,.T.);
#48 = VERTEX_POINT('',#49);
#49 = CARTESIAN_POINT('',(24.75,-21.25,10.));
#50 = LINE('',#51,#52);
#51 = CARTESIAN_POINT('',(24.75,-32.5,20.));
#52 = VECTOR('',#53,1.);
#53 = DIRECTION('',(0.,-0.747409318684,0.66436383883));
#54 = ORIENTED_EDGE('',*,*,#55,.F.);
#55 = EDGE_CURVE('',#56,#48,#58,.T.);
#56 = VERTEX_POINT('',#57);
#57 = CARTESIAN_POINT('',(17.,-21.25,10.));
#58 = LINE('',#59,#60);
#59 = CARTESIAN_POINT('',(12.,-21.25,10.));
#60 = VECTOR('',#61,1.);
#61 = DIRECTION('',(1.,0.,0.));
#62 = ORIENTED_EDGE('',*,*,#63,.F.);
#63 = EDGE_CURVE('',#22,#56,#64,.T.);
#64 = LINE('',#65,#66);
#65 = CARTESIAN_POINT('',(17.,-55.,40.));
#66 = VECTOR('',#67,1.);
#67 = DIRECTION('',(0.,0.747409318684,-0.66436383883));
#68 = FACE_BOUND('',#69,.F.);
#69 = EDGE_LOOP('',(#70));
#70 = ORIENTED_EDGE('',*,*,#71,.F.);
#71 = EDGE_CURVE('',#72,#72,#74,.T.);
#72 = VERTEX_POINT('',#73);
#73 = CARTESIAN_POINT('',(29.5,-43.25,29.555555555556));
#74 = ELLIPSE('',#75,6.020797289396,4.5);
#75 = AXIS2_PLACEMENT_3D('',#76,#77,#78);
#76 = CARTESIAN_POINT('',(25.,-43.25,29.555555555556));
#77 = DIRECTION('',(0.,0.66436383883,0.747409318684));
#78 = DIRECTION('',(0.,0.747409318684,-0.66436383883));
#79 = PLANE('',#80);
#80 = AXIS2_PLACEMENT_3D('',#81,#82,#83);
#81 = CARTESIAN_POINT('',(12.,-55.,40.));
#82 = DIRECTION('',(0.,0.66436383883,0.747409318684));
#83 = DIRECTION('',(0.,0.747409318684,-0.66436383883));
#84 = ADVANCED_FACE('',(#85),#110,.T.);
#85 = FACE_BOUND('',#86,.T.);
#86 = EDGE_LOOP('',(#87,#88,#96,#104));
#87 = ORIENTED_EDGE('',*,*,#21,.T.);
#88 = ORIENTED_EDGE('',*,*,#89,.T.);
#89 = EDGE_CURVE('',#24,#90,#92,.T.);
#90 = VERTEX_POINT('',#91);
#91 = CARTESIAN_POINT('',(34.,-55.,60.));
#92 = LINE('',#93,#94);
#93 = CARTESIAN_POINT('',(34.,-55.,40.));
#94 = VECTOR('',#95,1.);
#95 = DIRECTION('',(0.,0.,1.));
#96 = ORIENTED_EDGE('',*,*,#97,.F.);
#97 = EDGE_CURVE('',#98,#90,#100,.T.);
#98 = VERTEX_POINT('',#99);
#99 = CARTESIAN_POINT('',(17.,-55.,60.));
#100 = LINE('',#101,#102);
#101 = CARTESIAN_POINT('',(-20.,-55.,60.));
#102 = VECTOR('',#103,1.);
#103 = DIRECTION('',(1.,0.,0.));
#104 = ORIENTED_EDGE('',*,*,#105,.F.);
#105 = EDGE_CURVE('',#22,#98,#106,.T.);
#106 = LINE('',#107,#108);
#107 = CARTESIAN_POINT('',(17.,-55.,40.));
#108 = VECTOR('',#109,1.);
#109 = DIRECTION('',(0.,0.,1.));
#110 = PLANE('',#111);
#111 = AXIS2_PLACEMENT_3D('',#112,#113,#114);
#112 = CARTESIAN_POINT('',(19.,-55.,30.));
#113 = DIRECTION('',(-0.,-1.,-0.));
#114 = DIRECTION('',(0.,0.,-1.));
#115 = ADVANCED_FACE('',(#116),#141,.T.);
#116 = FACE_BOUND('',#117,.F.);
#117 = EDGE_LOOP('',(#118,#126,#127,#135));
#118 = ORIENTED_EDGE('',*,*,#119,.F.);
#119 = EDGE_CURVE('',#22,#120,#122,.T.);
#120 = VERTEX_POINT('',#121);
#121 = CARTESIAN_POINT('',(13.,-51.,41.796264257241));
#122 = LINE('',#123,#124);
#123 = CARTESIAN_POINT('',(15.183189320675,-53.18318932067,
    40.815868021361));
#124 = VECTOR('',#125,1.);
#125 = DIRECTION('',(-0.67394559857,0.67394559857,0.302646097509));
#126 = ORIENTED_EDGE('',*,*,#63,.T.);
#127 = ORIENTED_EDGE('',*,*,#128,.T.);
#128 = EDGE_CURVE('',#56,#129,#131,.T.);
#129 = VERTEX_POINT('',#130);
#130 = CARTESIAN_POINT('',(13.,-19.7292027106,14.));
#131 = LINE('',#132,#133);
#132 = CARTESIAN_POINT('',(8.830308506083,-18.14388883021,
    18.169691493917));
#133 = VECTOR('',#134,1.);
#134 = DIRECTION('',(-0.68286013172,0.259622959339,0.68286013172));
#135 = ORIENTED_EDGE('',*,*,#136,.F.);
#136 = EDGE_CURVE('',#120,#129,#137,.T.);
#137 = LINE('',#138,#139);
#138 = CARTESIAN_POINT('',(13.,-52.34254464468,42.989637274735));
#139 = VECTOR('',#140,1.);
#140 = DIRECTION('',(0.,0.747409318684,-0.66436383883));
#141 = PLANE('',#142);
#142 = AXIS2_PLACEMENT_3D('',#143,#144,#145);
#143 = CARTESIAN_POINT('',(15.,-53.67127232234,41.494818637367));
#144 = DIRECTION('',(-0.707106781187,-0.469776175612,-0.528498197563));
#145 = DIRECTION('',(-1.110223024625E-16,-0.747409318684,0.66436383883)
  );
#146 = ADVANCED_FACE('',(#147),#172,.T.);
#147 = FACE_BOUND('',#148,.T.);
#148 = EDGE_LOOP('',(#149,#157,#158,#166));
#149 = ORIENTED_EDGE('',*,*,#150,.F.);
#150 = EDGE_CURVE('',#24,#151,#153,.T.);
#151 = VERTEX_POINT('',#152);
#152 = CARTESIAN_POINT('',(38.,-51.,41.796264257241));
#153 = LINE('',#154,#155);
#154 = CARTESIAN_POINT('',(35.816810679325,-53.18318932067,
    40.815868021361));
#155 = VECTOR('',#156,1.);
#156 = DIRECTION('',(0.67394559857,0.67394559857,0.302646097509));
#157 = ORIENTED_EDGE('',*,*,#31,.T.);
#158 = ORIENTED_EDGE('',*,*,#159,.T.);
#159 = EDGE_CURVE('',#32,#160,#162,.T.);
#160 = VERTEX_POINT('',#161);
#161 = CARTESIAN_POINT('',(38.,-20.75,14.907375368352));
#162 = LINE('',#163,#164);
#163 = CARTESIAN_POINT('',(54.828054985311,-20.75,37.422554888657));
#164 = VECTOR('',#165,1.);
#165 = DIRECTION('',(0.598671094714,0.,0.80099495651));
#166 = ORIENTED_EDGE('',*,*,#167,.F.);
#167 = EDGE_CURVE('',#151,#160,#168,.T.);
#168 = LINE('',#169,#170);
#169 = CARTESIAN_POINT('',(38.,-52.34254464468,42.989637274735));
#170 = VECTOR('',#171,1.);
#171 = DIRECTION('',(0.,0.747409318684,-0.66436383883));
#172 = PLANE('',#173);
#173 = AXIS2_PLACEMENT_3D('',#174,#175,#176);
#174 = CARTESIAN_POINT('',(36.,-53.67127232234,41.494818637367));
#175 = DIRECTION('',(0.707106781187,-0.469776175612,-0.528498197563));
#176 = DIRECTION('',(1.387778780781E-16,0.747409318684,-0.66436383883));
#177 = ADVANCED_FACE('',(#178),#251,.T.);
#178 = FACE_BOUND('',#179,.T.);
#179 = EDGE_LOOP('',(#180,#190,#198,#206,#214,#220,#221,#229,#237,#245)
  );
#180 = ORIENTED_EDGE('',*,*,#181,.T.);
#181 = EDGE_CURVE('',#182,#184,#186,.T.);
#182 = VERTEX_POINT('',#183);
#183 = CARTESIAN_POINT('',(18.,71.,10.));
#184 = VERTEX_POINT('',#185);
#185 = CARTESIAN_POINT('',(34.,55.,10.));
#186 = LINE('',#187,#188);
#187 = CARTESIAN_POINT('',(31.237120279146,57.762879720854,10.));
#188 = VECTOR('',#189,1.);
#189 = DIRECTION('',(0.707106781187,-0.707106781187,0.));
#190 = ORIENTED_EDGE('',*,*,#191,.F.);
#191 = EDGE_CURVE('',#192,#184,#194,.T.);
#192 = VERTEX_POINT('',#193);
#193 = CARTESIAN_POINT('',(34.,15.25,10.));
#194 = LINE('',#195,#196);
#195 = CARTESIAN_POINT('',(34.,15.25,10.));
#196 = VECTOR('',#197,1.);
#197 = DIRECTION('',(0.,1.,0.));
#198 = ORIENTED_EDGE('',*,*,#199,.T.);
#199 = EDGE_CURVE('',#192,#200,#202,.T.);
#200 = VERTEX_POINT('',#201);
#201 = CARTESIAN_POINT('',(24.75,15.25,10.));
#202 = LINE('',#203,#204);
#203 = CARTESIAN_POINT('',(38.,15.25,10.));
#204 = VECTOR('',#205,1.);
#205 = DIRECTION('',(-1.,-0.,-0.));
#206 = ORIENTED_EDGE('',*,*,#207,.T.);
#207 = EDGE_CURVE('',#200,#208,#210,.T.);
#208 = VERTEX_POINT('',#209);
#209 = CARTESIAN_POINT('',(24.75,-20.75,10.));
#210 = LINE('',#211,#212);
#211 = CARTESIAN_POINT('',(24.75,-10.,10.));
#212 = VECTOR('',#213,1.);
#213 = DIRECTION('',(0.,-1.,0.));
#214 = ORIENTED_EDGE('',*,*,#215,.T.);
#215 = EDGE_CURVE('',#208,#48,#216,.T.);
#216 = LINE('',#217,#218);
#217 = CARTESIAN_POINT('',(24.75,-10.,10.));
#218 = VECTOR('',#219,1.);
#219 = DIRECTION('',(0.,-1.,0.));
#220 = ORIENTED_EDGE('',*,*,#55,.F.);
#221 = ORIENTED_EDGE('',*,*,#222,.F.);
#222 = EDGE_CURVE('',#223,#56,#225,.T.);
#223 = VERTEX_POINT('',#224);
#224 = CARTESIAN_POINT('',(17.,35.,10.));
#225 = LINE('',#226,#227);
#226 = CARTESIAN_POINT('',(17.,30.,10.));
#227 = VECTOR('',#228,1.);
#228 = DIRECTION('',(0.,-1.,0.));
#229 = ORIENTED_EDGE('',*,*,#230,.F.);
#230 = EDGE_CURVE('',#231,#223,#233,.T.);
#231 = VERTEX_POINT('',#232);
#232 = CARTESIAN_POINT('',(-17.,35.,10.));
#233 = LINE('',#234,#235);
#234 = CARTESIAN_POINT('',(-4.848727422003,35.,10.));
#235 = VECTOR('',#236,1.);
#236 = DIRECTION('',(1.,0.,0.));
#237 = ORIENTED_EDGE('',*,*,#238,.T.);
#238 = EDGE_CURVE('',#231,#239,#241,.T.);
#239 = VERTEX_POINT('',#240);
#240 = CARTESIAN_POINT('',(-17.,71.,10.));
#241 = LINE('',#242,#243);
#242 = CARTESIAN_POINT('',(-17.,30.,10.));
#243 = VECTOR('',#244,1.);
#244 = DIRECTION('',(0.,1.,0.));
#245 = ORIENTED_EDGE('',*,*,#246,.F.);
#246 = EDGE_CURVE('',#182,#239,#247,.T.);
#247 = LINE('',#248,#249);
#248 = CARTESIAN_POINT('',(-20.,71.,10.));
#249 = VECTOR('',#250,1.);
#250 = DIRECTION('',(-1.,-0.,-0.));
#251 = PLANE('',#252);
#252 = AXIS2_PLACEMENT_3D('',#253,#254,#255);
#253 = CARTESIAN_POINT('',(12.302545155993,32.354064039409,10.));
#254 = DIRECTION('',(-0.,-0.,-1.));
#255 = DIRECTION('',(-1.,0.,0.));
#256 = ADVANCED_FACE('',(#257),#297,.F.);
#257 = FACE_BOUND('',#258,.F.);
#258 = EDGE_LOOP('',(#259,#267,#275,#283,#289,#295,#296));
#259 = ORIENTED_EDGE('',*,*,#260,.F.);
#260 = EDGE_CURVE('',#261,#160,#263,.T.);
#261 = VERTEX_POINT('',#262);
#262 = CARTESIAN_POINT('',(38.,-20.75,56.));
#263 = LINE('',#264,#265);
#264 = CARTESIAN_POINT('',(38.,-20.75,60.));
#265 = VECTOR('',#266,1.);
#266 = DIRECTION('',(0.,0.,-1.));
#267 = ORIENTED_EDGE('',*,*,#268,.F.);
#268 = EDGE_CURVE('',#269,#261,#271,.T.);
#269 = VERTEX_POINT('',#270);
#270 = CARTESIAN_POINT('',(34.,-20.75,60.));
#271 = LINE('',#272,#273);
#272 = CARTESIAN_POINT('',(36.,-20.75,58.));
#273 = VECTOR('',#274,1.);
#274 = DIRECTION('',(0.707106781187,0.,-0.707106781187));
#275 = ORIENTED_EDGE('',*,*,#276,.T.);
#276 = EDGE_CURVE('',#269,#277,#279,.T.);
#277 = VERTEX_POINT('',#278);
#278 = CARTESIAN_POINT('',(24.75,-20.75,60.));
#279 = LINE('',#280,#281);
#280 = CARTESIAN_POINT('',(38.,-20.75,60.));
#281 = VECTOR('',#282,1.);
#282 = DIRECTION('',(-1.,-0.,-0.));
#283 = ORIENTED_EDGE('',*,*,#284,.T.);
#284 = EDGE_CURVE('',#277,#208,#285,.T.);
#285 = LINE('',#286,#287);
#286 = CARTESIAN_POINT('',(24.75,-20.75,60.));
#287 = VECTOR('',#288,1.);
#288 = DIRECTION('',(0.,0.,-1.));
#289 = ORIENTED_EDGE('',*,*,#290,.T.);
#290 = EDGE_CURVE('',#208,#40,#291,.T.);
#291 = LINE('',#292,#293);
#292 = CARTESIAN_POINT('',(24.75,-20.75,60.));
#293 = VECTOR('',#294,1.);
#294 = DIRECTION('',(0.,0.,-1.));
#295 = ORIENTED_EDGE('',*,*,#39,.T.);
#296 = ORIENTED_EDGE('',*,*,#159,.T.);
#297 = PLANE('',#298);
#298 = AXIS2_PLACEMENT_3D('',#299,#300,#301);
#299 = CARTESIAN_POINT('',(38.,-20.75,60.));
#300 = DIRECTION('',(0.,-1.,0.));
#301 = DIRECTION('',(0.,0.,-1.));
#302 = ADVANCED_FACE('',(#303),#308,.T.);
#303 = FACE_BOUND('',#304,.T.);
#304 = EDGE_LOOP('',(#305,#306,#307));
#305 = ORIENTED_EDGE('',*,*,#290,.T.);
#306 = ORIENTED_EDGE('',*,*,#47,.T.);
#307 = ORIENTED_EDGE('',*,*,#215,.F.);
#308 = PLANE('',#309);
#309 = AXIS2_PLACEMENT_3D('',#310,#311,#312);
#310 = CARTESIAN_POINT('',(24.75,-10.,0.));
#311 = DIRECTION('',(-1.,0.,0.));
#312 = DIRECTION('',(0.,0.,1.));
#313 = ADVANCED_FACE('',(#314),#332,.F.);
#314 = FACE_BOUND('',#315,.F.);
#315 = EDGE_LOOP('',(#316,#317,#325,#331));
#316 = ORIENTED_EDGE('',*,*,#119,.T.);
#317 = ORIENTED_EDGE('',*,*,#318,.T.);
#318 = EDGE_CURVE('',#120,#319,#321,.T.);
#319 = VERTEX_POINT('',#320);
#320 = CARTESIAN_POINT('',(13.,-51.,56.));
#321 = LINE('',#322,#323);
#322 = CARTESIAN_POINT('',(13.,-51.,40.));
#323 = VECTOR('',#324,1.);
#324 = DIRECTION('',(0.,0.,1.));
#325 = ORIENTED_EDGE('',*,*,#326,.T.);
#326 = EDGE_CURVE('',#319,#98,#327,.T.);
#327 = LINE('',#328,#329);
#328 = CARTESIAN_POINT('',(4.961167517952,-42.96116751795,
    47.961167517952));
#329 = VECTOR('',#330,1.);
#330 = DIRECTION('',(0.57735026919,-0.57735026919,0.57735026919));
#331 = ORIENTED_EDGE('',*,*,#105,.F.);
#332 = PLANE('',#333);
#333 = AXIS2_PLACEMENT_3D('',#334,#335,#336);
#334 = CARTESIAN_POINT('',(15.,-53.,40.));
#335 = DIRECTION('',(0.707106781187,0.707106781187,0.));
#336 = DIRECTION('',(0.,0.,1.));
#337 = ADVANCED_FACE('',(#338),#356,.F.);
#338 = FACE_BOUND('',#339,.F.);
#339 = EDGE_LOOP('',(#340,#341,#342,#350));
#340 = ORIENTED_EDGE('',*,*,#150,.F.);
#341 = ORIENTED_EDGE('',*,*,#89,.T.);
#342 = ORIENTED_EDGE('',*,*,#343,.T.);
#343 = EDGE_CURVE('',#90,#344,#346,.T.);
#344 = VERTEX_POINT('',#345);
#345 = CARTESIAN_POINT('',(38.,-51.,56.));
#346 = LINE('',#347,#348);
#347 = CARTESIAN_POINT('',(38.666666666667,-50.33333333333,
    55.333333333333));
#348 = VECTOR('',#349,1.);
#349 = DIRECTION('',(0.57735026919,0.57735026919,-0.57735026919));
#350 = ORIENTED_EDGE('',*,*,#351,.F.);
#351 = EDGE_CURVE('',#151,#344,#352,.T.);
#352 = LINE('',#353,#354);
#353 = CARTESIAN_POINT('',(38.,-51.,40.));
#354 = VECTOR('',#355,1.);
#355 = DIRECTION('',(0.,0.,1.));
#356 = PLANE('',#357);
#357 = AXIS2_PLACEMENT_3D('',#358,#359,#360);
#358 = CARTESIAN_POINT('',(36.,-53.,40.));
#359 = DIRECTION('',(-0.707106781187,0.707106781187,0.));
#360 = DIRECTION('',(0.,0.,1.));
#361 = ADVANCED_FACE('',(#362,#434),#445,.T.);
#362 = FACE_BOUND('',#363,.T.);
#363 = EDGE_LOOP('',(#364,#374,#382,#390,#398,#404,#405,#411,#412,#420,
    #428));
#364 = ORIENTED_EDGE('',*,*,#365,.F.);
#365 = EDGE_CURVE('',#366,#368,#370,.T.);
#366 = VERTEX_POINT('',#367);
#367 = CARTESIAN_POINT('',(18.,71.,60.));
#368 = VERTEX_POINT('',#369);
#369 = CARTESIAN_POINT('',(34.,55.,60.));
#370 = LINE('',#371,#372);
#371 = CARTESIAN_POINT('',(36.518075595985,52.481924404015,60.));
#372 = VECTOR('',#373,1.);
#373 = DIRECTION('',(0.707106781187,-0.707106781187,0.));
#374 = ORIENTED_EDGE('',*,*,#375,.F.);
#375 = EDGE_CURVE('',#376,#366,#378,.T.);
#376 = VERTEX_POINT('',#377);
#377 = CARTESIAN_POINT('',(-17.,71.,60.));
#378 = LINE('',#379,#380);
#379 = CARTESIAN_POINT('',(20.,71.,60.));
#380 = VECTOR('',#381,1.);
#381 = DIRECTION('',(1.,0.,0.));
#382 = ORIENTED_EDGE('',*,*,#383,.T.);
#383 = EDGE_CURVE('',#376,#384,#386,.T.);
#384 = VERTEX_POINT('',#385);
#385 = CARTESIAN_POINT('',(-17.,35.,60.));
#386 = LINE('',#387,#388);
#387 = CARTESIAN_POINT('',(-17.,71.,60.));
#388 = VECTOR('',#389,1.);
#389 = DIRECTION('',(0.,-1.,0.));
#390 = ORIENTED_EDGE('',*,*,#391,.F.);
#391 = EDGE_CURVE('',#392,#384,#394,.T.);
#392 = VERTEX_POINT('',#393);
#393 = CARTESIAN_POINT('',(17.,35.,60.));
#394 = LINE('',#395,#396);
#395 = CARTESIAN_POINT('',(13.,35.,60.));
#396 = VECTOR('',#397,1.);
#397 = DIRECTION('',(-1.,-0.,-0.));
#398 = ORIENTED_EDGE('',*,*,#399,.F.);
#399 = EDGE_CURVE('',#98,#392,#400,.T.);
#400 = LINE('',#401,#402);
#401 = CARTESIAN_POINT('',(17.,30.,60.));
#402 = VECTOR('',#403,1.);
#403 = DIRECTION('',(0.,1.,0.));
#404 = ORIENTED_EDGE('',*,*,#97,.T.);
#405 = ORIENTED_EDGE('',*,*,#406,.T.);
#406 = EDGE_CURVE('',#90,#269,#407,.T.);
#407 = LINE('',#408,#409);
#408 = CARTESIAN_POINT('',(34.,-55.,60.));
#409 = VECTOR('',#410,1.);
#410 = DIRECTION('',(0.,1.,0.));
#411 = ORIENTED_EDGE('',*,*,#276,.T.);
#412 = ORIENTED_EDGE('',*,*,#413,.F.);
#413 = EDGE_CURVE('',#414,#277,#416,.T.);
#414 = VERTEX_POINT('',#415);
#415 = CARTESIAN_POINT('',(24.75,15.25,60.));
#416 = LINE('',#417,#418);
#417 = CARTESIAN_POINT('',(24.75,15.25,60.));
#418 = VECTOR('',#419,1.);
#419 = DIRECTION('',(0.,-1.,0.));
#420 = ORIENTED_EDGE('',*,*,#421,.F.);
#421 = EDGE_CURVE('',#422,#414,#424,.T.);
#422 = VERTEX_POINT('',#423);
#423 = CARTESIAN_POINT('',(34.,15.25,60.));
#424 = LINE('',#425,#426);
#425 = CARTESIAN_POINT('',(38.,15.25,60.));
#426 = VECTOR('',#427,1.);
#427 = DIRECTION('',(-1.,-0.,-0.));
#428 = ORIENTED_EDGE('',*,*,#429,.T.);
#429 = EDGE_CURVE('',#422,#368,#430,.T.);
#430 = LINE('',#431,#432);
#431 = CARTESIAN_POINT('',(34.,15.25,60.));
#432 = VECTOR('',#433,1.);
#433 = DIRECTION('',(0.,1.,0.));
#434 = FACE_BOUND('',#435,.T.);
#435 = EDGE_LOOP('',(#436));
#436 = ORIENTED_EDGE('',*,*,#437,.T.);
#437 = EDGE_CURVE('',#438,#438,#440,.T.);
#438 = VERTEX_POINT('',#439);
#439 = CARTESIAN_POINT('',(27.65,-43.25,60.));
#440 = CIRCLE('',#441,2.65);
#441 = AXIS2_PLACEMENT_3D('',#442,#443,#444);
#442 = CARTESIAN_POINT('',(25.,-43.25,60.));
#443 = DIRECTION('',(0.,0.,-1.));
#444 = DIRECTION('',(1.,0.,0.));
#445 = PLANE('',#446);
#446 = AXIS2_PLACEMENT_3D('',#447,#448,#449);
#447 = CARTESIAN_POINT('',(15.822929736512,14.750627352572,60.));
#448 = DIRECTION('',(0.,0.,1.));
#449 = DIRECTION('',(1.,0.,0.));
#450 = ADVANCED_FACE('',(#451),#493,.F.);
#451 = FACE_BOUND('',#452,.F.);
#452 = EDGE_LOOP('',(#453,#461,#469,#477,#485,#491,#492));
#453 = ORIENTED_EDGE('',*,*,#454,.F.);
#454 = EDGE_CURVE('',#455,#129,#457,.T.);
#455 = VERTEX_POINT('',#456);
#456 = CARTESIAN_POINT('',(13.,31.,14.));
#457 = LINE('',#458,#459);
#458 = CARTESIAN_POINT('',(13.,35.,14.));
#459 = VECTOR('',#460,1.);
#460 = DIRECTION('',(-0.,-1.,-0.));
#461 = ORIENTED_EDGE('',*,*,#462,.T.);
#462 = EDGE_CURVE('',#455,#463,#465,.T.);
#463 = VERTEX_POINT('',#464);
#464 = CARTESIAN_POINT('',(13.,30.,15.));
#465 = LINE('',#466,#467);
#466 = CARTESIAN_POINT('',(13.,35.,10.));
#467 = VECTOR('',#468,1.);
#468 = DIRECTION('',(0.,-0.707106781187,0.707106781187));
#469 = ORIENTED_EDGE('',*,*,#470,.T.);
#470 = EDGE_CURVE('',#463,#471,#473,.T.);
#471 = VERTEX_POINT('',#472);
#472 = CARTESIAN_POINT('',(13.,30.,55.));
#473 = LINE('',#474,#475);
#474 = CARTESIAN_POINT('',(13.,30.,0.));
#475 = VECTOR('',#476,1.);
#476 = DIRECTION('',(0.,0.,1.));
#477 = ORIENTED_EDGE('',*,*,#478,.F.);
#478 = EDGE_CURVE('',#479,#471,#481,.T.);
#479 = VERTEX_POINT('',#480);
#480 = CARTESIAN_POINT('',(13.,31.,56.));
#481 = LINE('',#482,#483);
#482 = CARTESIAN_POINT('',(13.,17.5,42.5));
#483 = VECTOR('',#484,1.);
#484 = DIRECTION('',(0.,-0.707106781187,-0.707106781187));
#485 = ORIENTED_EDGE('',*,*,#486,.F.);
#486 = EDGE_CURVE('',#319,#479,#487,.T.);
#487 = LINE('',#488,#489);
#488 = CARTESIAN_POINT('',(13.,-55.,56.));
#489 = VECTOR('',#490,1.);
#490 = DIRECTION('',(0.,1.,0.));
#491 = ORIENTED_EDGE('',*,*,#318,.F.);
#492 = ORIENTED_EDGE('',*,*,#136,.T.);
#493 = PLANE('',#494);
#494 = AXIS2_PLACEMENT_3D('',#495,#496,#497);
#495 = CARTESIAN_POINT('',(13.,30.,0.));
#496 = DIRECTION('',(1.,0.,0.));
#497 = DIRECTION('',(0.,-1.,0.));
#498 = ADVANCED_FACE('',(#499),#510,.T.);
#499 = FACE_BOUND('',#500,.T.);
#500 = EDGE_LOOP('',(#501,#502,#508,#509));
#501 = ORIENTED_EDGE('',*,*,#454,.F.);
#502 = ORIENTED_EDGE('',*,*,#503,.F.);
#503 = EDGE_CURVE('',#223,#455,#504,.T.);
#504 = LINE('',#505,#506);
#505 = CARTESIAN_POINT('',(9.,27.,18.));
#506 = VECTOR('',#507,1.);
#507 = DIRECTION('',(-0.57735026919,-0.57735026919,0.57735026919));
#508 = ORIENTED_EDGE('',*,*,#222,.T.);
#509 = ORIENTED_EDGE('',*,*,#128,.T.);
#510 = PLANE('',#511);
#511 = AXIS2_PLACEMENT_3D('',#512,#513,#514);
#512 = CARTESIAN_POINT('',(14.992135682712,4.674946770719,
    12.007864317288));
#513 = DIRECTION('',(-0.707106781187,-0.,-0.707106781187));
#514 = DIRECTION('',(0.707106781187,0.,-0.707106781187));
#515 = ADVANCED_FACE('',(#516),#527,.F.);
#516 = FACE_BOUND('',#517,.F.);
#517 = EDGE_LOOP('',(#518,#519,#520,#521));
#518 = ORIENTED_EDGE('',*,*,#260,.T.);
#519 = ORIENTED_EDGE('',*,*,#167,.F.);
#520 = ORIENTED_EDGE('',*,*,#351,.T.);
#521 = ORIENTED_EDGE('',*,*,#522,.T.);
#522 = EDGE_CURVE('',#344,#261,#523,.T.);
#523 = LINE('',#524,#525);
#524 = CARTESIAN_POINT('',(38.,-55.,56.));
#525 = VECTOR('',#526,1.);
#526 = DIRECTION('',(0.,1.,0.));
#527 = PLANE('',#528);
#528 = AXIS2_PLACEMENT_3D('',#529,#530,#531);
#529 = CARTESIAN_POINT('',(38.,-55.,0.));
#530 = DIRECTION('',(-1.,0.,0.));
#531 = DIRECTION('',(0.,1.,0.));
#532 = ADVANCED_FACE('',(#533),#565,.T.);
#533 = FACE_BOUND('',#534,.T.);
#534 = EDGE_LOOP('',(#535,#536,#542,#543,#551,#559));
#535 = ORIENTED_EDGE('',*,*,#181,.F.);
#536 = ORIENTED_EDGE('',*,*,#537,.T.);
#537 = EDGE_CURVE('',#182,#366,#538,.T.);
#538 = LINE('',#539,#540);
#539 = CARTESIAN_POINT('',(18.,71.,10.));
#540 = VECTOR('',#541,1.);
#541 = DIRECTION('',(0.,0.,1.));
#542 = ORIENTED_EDGE('',*,*,#365,.T.);
#543 = ORIENTED_EDGE('',*,*,#544,.T.);
#544 = EDGE_CURVE('',#368,#545,#547,.T.);
#545 = VERTEX_POINT('',#546);
#546 = CARTESIAN_POINT('',(38.,51.,56.));
#547 = LINE('',#548,#549);
#548 = CARTESIAN_POINT('',(47.625,41.375,46.375));
#549 = VECTOR('',#550,1.);
#550 = DIRECTION('',(0.57735026919,-0.57735026919,-0.57735026919));
#551 = ORIENTED_EDGE('',*,*,#552,.F.);
#552 = EDGE_CURVE('',#553,#545,#555,.T.);
#553 = VERTEX_POINT('',#554);
#554 = CARTESIAN_POINT('',(38.,51.,14.));
#555 = LINE('',#556,#557);
#556 = CARTESIAN_POINT('',(38.,51.,10.));
#557 = VECTOR('',#558,1.);
#558 = DIRECTION('',(0.,0.,1.));
#559 = ORIENTED_EDGE('',*,*,#560,.F.);
#560 = EDGE_CURVE('',#184,#553,#561,.T.);
#561 = LINE('',#562,#563);
#562 = CARTESIAN_POINT('',(39.291666666667,49.708333333333,
    15.291666666667));
#563 = VECTOR('',#564,1.);
#564 = DIRECTION('',(0.57735026919,-0.57735026919,0.57735026919));
#565 = PLANE('',#566);
#566 = AXIS2_PLACEMENT_3D('',#567,#568,#569);
#567 = CARTESIAN_POINT('',(28.,61.,10.));
#568 = DIRECTION('',(0.707106781187,0.707106781187,0.));
#569 = DIRECTION('',(0.,0.,1.));
#570 = ADVANCED_FACE('',(#571),#589,.T.);
#571 = FACE_BOUND('',#572,.T.);
#572 = EDGE_LOOP('',(#573,#581,#582,#583));
#573 = ORIENTED_EDGE('',*,*,#574,.F.);
#574 = EDGE_CURVE('',#192,#575,#577,.T.);
#575 = VERTEX_POINT('',#576);
#576 = CARTESIAN_POINT('',(38.,15.25,14.));
#577 = LINE('',#578,#579);
#578 = CARTESIAN_POINT('',(33.5,15.25,9.5));
#579 = VECTOR('',#580,1.);
#580 = DIRECTION('',(0.707106781187,0.,0.707106781187));
#581 = ORIENTED_EDGE('',*,*,#191,.T.);
#582 = ORIENTED_EDGE('',*,*,#560,.T.);
#583 = ORIENTED_EDGE('',*,*,#584,.F.);
#584 = EDGE_CURVE('',#575,#553,#585,.T.);
#585 = LINE('',#586,#587);
#586 = CARTESIAN_POINT('',(38.,15.25,14.));
#587 = VECTOR('',#588,1.);
#588 = DIRECTION('',(0.,1.,0.));
#589 = PLANE('',#590);
#590 = AXIS2_PLACEMENT_3D('',#591,#592,#593);
#591 = CARTESIAN_POINT('',(36.,15.25,12.));
#592 = DIRECTION('',(0.707106781187,0.,-0.707106781187));
#593 = DIRECTION('',(0.,1.,0.));
#594 = ADVANCED_FACE('',(#595,#622,#633,#644,#655),#666,.T.);
#595 = FACE_BOUND('',#596,.T.);
#596 = EDGE_LOOP('',(#597,#598,#606,#614,#620,#621));
#597 = ORIENTED_EDGE('',*,*,#246,.T.);
#598 = ORIENTED_EDGE('',*,*,#599,.T.);
#599 = EDGE_CURVE('',#239,#600,#602,.T.);
#600 = VERTEX_POINT('',#601);
#601 = CARTESIAN_POINT('',(-22.,71.,15.));
#602 = LINE('',#603,#604);
#603 = CARTESIAN_POINT('',(-18.25,71.,11.25));
#604 = VECTOR('',#605,1.);
#605 = DIRECTION('',(-0.707106781187,0.,0.707106781187));
#606 = ORIENTED_EDGE('',*,*,#607,.T.);
#607 = EDGE_CURVE('',#600,#608,#610,.T.);
#608 = VERTEX_POINT('',#609);
#609 = CARTESIAN_POINT('',(-22.,71.,55.));
#610 = LINE('',#611,#612);
#611 = CARTESIAN_POINT('',(-22.,71.,0.));
#612 = VECTOR('',#613,1.);
#613 = DIRECTION('',(0.,0.,1.));
#614 = ORIENTED_EDGE('',*,*,#615,.T.);
#615 = EDGE_CURVE('',#608,#376,#616,.T.);
#616 = LINE('',#617,#618);
#617 = CARTESIAN_POINT('',(-18.25,71.,58.75));
#618 = VECTOR('',#619,1.);
#619 = DIRECTION('',(0.707106781187,0.,0.707106781187));
#620 = ORIENTED_EDGE('',*,*,#375,.T.);
#621 = ORIENTED_EDGE('',*,*,#537,.F.);
#622 = FACE_BOUND('',#623,.T.);
#623 = EDGE_LOOP('',(#624));
#624 = ORIENTED_EDGE('',*,*,#625,.T.);
#625 = EDGE_CURVE('',#626,#626,#628,.T.);
#626 = VERTEX_POINT('',#627);
#627 = CARTESIAN_POINT('',(10.5,71.,22.85));
#628 = CIRCLE('',#629,2.15);
#629 = AXIS2_PLACEMENT_3D('',#630,#631,#632);
#630 = CARTESIAN_POINT('',(8.35,71.,22.85));
#631 = DIRECTION('',(0.,-1.,2.22044604925E-16));
#632 = DIRECTION('',(1.,0.,0.));
#633 = FACE_BOUND('',#634,.T.);
#634 = EDGE_LOOP('',(#635));
#635 = ORIENTED_EDGE('',*,*,#636,.T.);
#636 = EDGE_CURVE('',#637,#637,#639,.T.);
#637 = VERTEX_POINT('',#638);
#638 = CARTESIAN_POINT('',(10.5,71.,47.85));
#639 = CIRCLE('',#640,2.15);
#640 = AXIS2_PLACEMENT_3D('',#641,#642,#643);
#641 = CARTESIAN_POINT('',(8.35,71.,47.85));
#642 = DIRECTION('',(0.,-1.,2.22044604925E-16));
#643 = DIRECTION('',(1.,0.,0.));
#644 = FACE_BOUND('',#645,.T.);
#645 = EDGE_LOOP('',(#646));
#646 = ORIENTED_EDGE('',*,*,#647,.T.);
#647 = EDGE_CURVE('',#648,#648,#650,.T.);
#648 = VERTEX_POINT('',#649);
#649 = CARTESIAN_POINT('',(-14.5,71.,22.85));
#650 = CIRCLE('',#651,2.15);
#651 = AXIS2_PLACEMENT_3D('',#652,#653,#654);
#652 = CARTESIAN_POINT('',(-16.65,71.,22.85));
#653 = DIRECTION('',(0.,-1.,2.22044604925E-16));
#654 = DIRECTION('',(1.,0.,0.));
#655 = FACE_BOUND('',#656,.T.);
#656 = EDGE_LOOP('',(#657));
#657 = ORIENTED_EDGE('',*,*,#658,.T.);
#658 = EDGE_CURVE('',#659,#659,#661,.T.);
#659 = VERTEX_POINT('',#660);
#660 = CARTESIAN_POINT('',(-14.5,71.,47.85));
#661 = CIRCLE('',#662,2.15);
#662 = AXIS2_PLACEMENT_3D('',#663,#664,#665);
#663 = CARTESIAN_POINT('',(-16.65,71.,47.85));
#664 = DIRECTION('',(0.,-1.,2.22044604925E-16));
#665 = DIRECTION('',(1.,0.,0.));
#666 = PLANE('',#667);
#667 = AXIS2_PLACEMENT_3D('',#668,#669,#670);
#668 = CARTESIAN_POINT('',(8.,71.,35.));
#669 = DIRECTION('',(0.,1.,0.));
#670 = DIRECTION('',(0.,0.,1.));
#671 = ADVANCED_FACE('',(#672),#697,.F.);
#672 = FACE_BOUND('',#673,.F.);
#673 = EDGE_LOOP('',(#674,#682,#683,#684,#690,#691));
#674 = ORIENTED_EDGE('',*,*,#675,.F.);
#675 = EDGE_CURVE('',#575,#676,#678,.T.);
#676 = VERTEX_POINT('',#677);
#677 = CARTESIAN_POINT('',(38.,15.25,56.));
#678 = LINE('',#679,#680);
#679 = CARTESIAN_POINT('',(38.,15.25,0.));
#680 = VECTOR('',#681,1.);
#681 = DIRECTION('',(0.,0.,1.));
#682 = ORIENTED_EDGE('',*,*,#574,.F.);
#683 = ORIENTED_EDGE('',*,*,#199,.T.);
#684 = ORIENTED_EDGE('',*,*,#685,.T.);
#685 = EDGE_CURVE('',#200,#414,#686,.T.);
#686 = LINE('',#687,#688);
#687 = CARTESIAN_POINT('',(24.75,15.25,0.));
#688 = VECTOR('',#689,1.);
#689 = DIRECTION('',(0.,0.,1.));
#690 = ORIENTED_EDGE('',*,*,#421,.F.);
#691 = ORIENTED_EDGE('',*,*,#692,.T.);
#692 = EDGE_CURVE('',#422,#676,#693,.T.);
#693 = LINE('',#694,#695);
#694 = CARTESIAN_POINT('',(51.,15.25,43.));
#695 = VECTOR('',#696,1.);
#696 = DIRECTION('',(0.707106781187,0.,-0.707106781187));
#697 = PLANE('',#698);
#698 = AXIS2_PLACEMENT_3D('',#699,#700,#701);
#699 = CARTESIAN_POINT('',(38.,15.25,0.));
#700 = DIRECTION('',(0.,1.,0.));
#701 = DIRECTION('',(0.,0.,1.));
#702 = ADVANCED_FACE('',(#703),#721,.T.);
#703 = FACE_BOUND('',#704,.F.);
#704 = EDGE_LOOP('',(#705,#713,#714,#715));
#705 = ORIENTED_EDGE('',*,*,#706,.F.);
#706 = EDGE_CURVE('',#231,#707,#709,.T.);
#707 = VERTEX_POINT('',#708);
#708 = CARTESIAN_POINT('',(-22.,30.,15.));
#709 = LINE('',#710,#711);
#710 = CARTESIAN_POINT('',(-20.33333333333,31.666666666667,
    13.333333333333));
#711 = VECTOR('',#712,1.);
#712 = DIRECTION('',(-0.57735026919,-0.57735026919,0.57735026919));
#713 = ORIENTED_EDGE('',*,*,#238,.T.);
#714 = ORIENTED_EDGE('',*,*,#599,.T.);
#715 = ORIENTED_EDGE('',*,*,#716,.F.);
#716 = EDGE_CURVE('',#707,#600,#717,.T.);
#717 = LINE('',#718,#719);
#718 = CARTESIAN_POINT('',(-22.,30.,15.));
#719 = VECTOR('',#720,1.);
#720 = DIRECTION('',(0.,1.,0.));
#721 = PLANE('',#722);
#722 = AXIS2_PLACEMENT_3D('',#723,#724,#725);
#723 = CARTESIAN_POINT('',(-19.5,30.,12.5));
#724 = DIRECTION('',(-0.707106781187,0.,-0.707106781187));
#725 = DIRECTION('',(-0.,-1.,-0.));
#726 = ADVANCED_FACE('',(#727,#733,#744),#755,.T.);
#727 = FACE_BOUND('',#728,.T.);
#728 = EDGE_LOOP('',(#729,#730,#731,#732));
#729 = ORIENTED_EDGE('',*,*,#207,.F.);
#730 = ORIENTED_EDGE('',*,*,#685,.T.);
#731 = ORIENTED_EDGE('',*,*,#413,.T.);
#732 = ORIENTED_EDGE('',*,*,#284,.T.);
#733 = FACE_BOUND('',#734,.T.);
#734 = EDGE_LOOP('',(#735));
#735 = ORIENTED_EDGE('',*,*,#736,.F.);
#736 = EDGE_CURVE('',#737,#737,#739,.T.);
#737 = VERTEX_POINT('',#738);
#738 = CARTESIAN_POINT('',(24.75,10.6,21.3));
#739 = CIRCLE('',#740,3.3);
#740 = AXIS2_PLACEMENT_3D('',#741,#742,#743);
#741 = CARTESIAN_POINT('',(24.75,7.3,21.3));
#742 = DIRECTION('',(1.,0.,0.));
#743 = DIRECTION('',(0.,1.,0.));
#744 = FACE_BOUND('',#745,.T.);
#745 = EDGE_LOOP('',(#746));
#746 = ORIENTED_EDGE('',*,*,#747,.F.);
#747 = EDGE_CURVE('',#748,#748,#750,.T.);
#748 = VERTEX_POINT('',#749);
#749 = CARTESIAN_POINT('',(24.75,-9.4,21.3));
#750 = CIRCLE('',#751,3.3);
#751 = AXIS2_PLACEMENT_3D('',#752,#753,#754);
#752 = CARTESIAN_POINT('',(24.75,-12.7,21.3));
#753 = DIRECTION('',(1.,0.,0.));
#754 = DIRECTION('',(0.,1.,0.));
#755 = PLANE('',#756);
#756 = AXIS2_PLACEMENT_3D('',#757,#758,#759);
#757 = CARTESIAN_POINT('',(24.75,-2.75,30.));
#758 = DIRECTION('',(1.,0.,0.));
#759 = DIRECTION('',(0.,0.,1.));
#760 = ADVANCED_FACE('',(#761),#773,.T.);
#761 = FACE_BOUND('',#762,.T.);
#762 = EDGE_LOOP('',(#763,#764,#770,#771,#772));
#763 = ORIENTED_EDGE('',*,*,#462,.T.);
#764 = ORIENTED_EDGE('',*,*,#765,.F.);
#765 = EDGE_CURVE('',#707,#463,#766,.T.);
#766 = LINE('',#767,#768);
#767 = CARTESIAN_POINT('',(-22.,30.,15.));
#768 = VECTOR('',#769,1.);
#769 = DIRECTION('',(1.,0.,0.));
#770 = ORIENTED_EDGE('',*,*,#706,.F.);
#771 = ORIENTED_EDGE('',*,*,#230,.T.);
#772 = ORIENTED_EDGE('',*,*,#503,.T.);
#773 = PLANE('',#774);
#774 = AXIS2_PLACEMENT_3D('',#775,#776,#777);
#775 = CARTESIAN_POINT('',(-22.,32.5,12.5));
#776 = DIRECTION('',(0.,-0.707106781187,-0.707106781187));
#777 = DIRECTION('',(1.,0.,0.));
#778 = ADVANCED_FACE('',(#779),#785,.F.);
#779 = FACE_BOUND('',#780,.F.);
#780 = EDGE_LOOP('',(#781,#782,#783,#784));
#781 = ORIENTED_EDGE('',*,*,#522,.F.);
#782 = ORIENTED_EDGE('',*,*,#343,.F.);
#783 = ORIENTED_EDGE('',*,*,#406,.T.);
#784 = ORIENTED_EDGE('',*,*,#268,.T.);
#785 = PLANE('',#786);
#786 = AXIS2_PLACEMENT_3D('',#787,#788,#789);
#787 = CARTESIAN_POINT('',(36.,-55.,58.));
#788 = DIRECTION('',(-0.707106781187,0.,-0.707106781187));
#789 = DIRECTION('',(0.,1.,0.));
#790 = ADVANCED_FACE('',(#791),#802,.T.);
#791 = FACE_BOUND('',#792,.T.);
#792 = EDGE_LOOP('',(#793,#794,#795,#796));
#793 = ORIENTED_EDGE('',*,*,#486,.F.);
#794 = ORIENTED_EDGE('',*,*,#326,.T.);
#795 = ORIENTED_EDGE('',*,*,#399,.T.);
#796 = ORIENTED_EDGE('',*,*,#797,.T.);
#797 = EDGE_CURVE('',#392,#479,#798,.T.);
#798 = LINE('',#799,#800);
#799 = CARTESIAN_POINT('',(14.,32.,57.));
#800 = VECTOR('',#801,1.);
#801 = DIRECTION('',(-0.57735026919,-0.57735026919,-0.57735026919));
#802 = PLANE('',#803);
#803 = AXIS2_PLACEMENT_3D('',#804,#805,#806);
#804 = CARTESIAN_POINT('',(15.042421176454,-10.6821627548,
    58.042421176454));
#805 = DIRECTION('',(-0.707106781187,0.,0.707106781187));
#806 = DIRECTION('',(-0.707106781187,0.,-0.707106781187));
#807 = ADVANCED_FACE('',(#808),#819,.T.);
#808 = FACE_BOUND('',#809,.F.);
#809 = EDGE_LOOP('',(#810,#811,#812,#813));
#810 = ORIENTED_EDGE('',*,*,#692,.F.);
#811 = ORIENTED_EDGE('',*,*,#429,.T.);
#812 = ORIENTED_EDGE('',*,*,#544,.T.);
#813 = ORIENTED_EDGE('',*,*,#814,.F.);
#814 = EDGE_CURVE('',#676,#545,#815,.T.);
#815 = LINE('',#816,#817);
#816 = CARTESIAN_POINT('',(38.,15.25,56.));
#817 = VECTOR('',#818,1.);
#818 = DIRECTION('',(0.,1.,0.));
#819 = PLANE('',#820);
#820 = AXIS2_PLACEMENT_3D('',#821,#822,#823);
#821 = CARTESIAN_POINT('',(36.,15.25,58.));
#822 = DIRECTION('',(0.707106781187,0.,0.707106781187));
#823 = DIRECTION('',(-0.,-1.,-0.));
#824 = ADVANCED_FACE('',(#825),#843,.T.);
#825 = FACE_BOUND('',#826,.T.);
#826 = EDGE_LOOP('',(#827,#828,#836,#842));
#827 = ORIENTED_EDGE('',*,*,#615,.F.);
#828 = ORIENTED_EDGE('',*,*,#829,.T.);
#829 = EDGE_CURVE('',#608,#830,#832,.T.);
#830 = VERTEX_POINT('',#831);
#831 = CARTESIAN_POINT('',(-22.,30.,55.));
#832 = LINE('',#833,#834);
#833 = CARTESIAN_POINT('',(-22.,71.,55.));
#834 = VECTOR('',#835,1.);
#835 = DIRECTION('',(0.,-1.,0.));
#836 = ORIENTED_EDGE('',*,*,#837,.T.);
#837 = EDGE_CURVE('',#830,#384,#838,.T.);
#838 = LINE('',#839,#840);
#839 = CARTESIAN_POINT('',(-7.666666666667,44.333333333333,
    69.333333333333));
#840 = VECTOR('',#841,1.);
#841 = DIRECTION('',(0.57735026919,0.57735026919,0.57735026919));
#842 = ORIENTED_EDGE('',*,*,#383,.F.);
#843 = PLANE('',#844);
#844 = AXIS2_PLACEMENT_3D('',#845,#846,#847);
#845 = CARTESIAN_POINT('',(-19.5,71.,57.5));
#846 = DIRECTION('',(-0.707106781187,0.,0.707106781187));
#847 = DIRECTION('',(0.,-1.,0.));
#848 = ADVANCED_FACE('',(#849),#861,.T.);
#849 = FACE_BOUND('',#850,.T.);
#850 = EDGE_LOOP('',(#851,#852,#853,#854,#855));
#851 = ORIENTED_EDGE('',*,*,#478,.F.);
#852 = ORIENTED_EDGE('',*,*,#797,.F.);
#853 = ORIENTED_EDGE('',*,*,#391,.T.);
#854 = ORIENTED_EDGE('',*,*,#837,.F.);
#855 = ORIENTED_EDGE('',*,*,#856,.F.);
#856 = EDGE_CURVE('',#471,#830,#857,.T.);
#857 = LINE('',#858,#859);
#858 = CARTESIAN_POINT('',(13.,30.,55.));
#859 = VECTOR('',#860,1.);
#860 = DIRECTION('',(-1.,-0.,-0.));
#861 = PLANE('',#862);
#862 = AXIS2_PLACEMENT_3D('',#863,#864,#865);
#863 = CARTESIAN_POINT('',(13.,32.5,57.5));
#864 = DIRECTION('',(0.,-0.707106781187,0.707106781187));
#865 = DIRECTION('',(-1.,0.,0.));
#866 = ADVANCED_FACE('',(#867),#886,.F.);
#867 = FACE_BOUND('',#868,.F.);
#868 = EDGE_LOOP('',(#869,#878,#884,#885));
#869 = ORIENTED_EDGE('',*,*,#870,.F.);
#870 = EDGE_CURVE('',#871,#871,#873,.T.);
#871 = VERTEX_POINT('',#872);
#872 = CARTESIAN_POINT('',(27.65,-43.25,43.));
#873 = CIRCLE('',#874,2.65);
#874 = AXIS2_PLACEMENT_3D('',#875,#876,#877);
#875 = CARTESIAN_POINT('',(25.,-43.25,43.));
#876 = DIRECTION('',(0.,0.,-1.));
#877 = DIRECTION('',(1.,0.,0.));
#878 = ORIENTED_EDGE('',*,*,#879,.T.);
#879 = EDGE_CURVE('',#871,#438,#880,.T.);
#880 = LINE('',#881,#882);
#881 = CARTESIAN_POINT('',(27.65,-43.25,10.));
#882 = VECTOR('',#883,1.);
#883 = DIRECTION('',(0.,0.,1.));
#884 = ORIENTED_EDGE('',*,*,#437,.T.);
#885 = ORIENTED_EDGE('',*,*,#879,.F.);
#886 = CYLINDRICAL_SURFACE('',#887,2.65);
#887 = AXIS2_PLACEMENT_3D('',#888,#889,#890);
#888 = CARTESIAN_POINT('',(25.,-43.25,10.));
#889 = DIRECTION('',(0.,0.,-1.));
#890 = DIRECTION('',(1.,0.,0.));
#891 = ADVANCED_FACE('',(#892,#903,#914,#925,#936),#947,.T.);
#892 = FACE_BOUND('',#893,.T.);
#893 = EDGE_LOOP('',(#894,#900,#901,#902));
#894 = ORIENTED_EDGE('',*,*,#895,.F.);
#895 = EDGE_CURVE('',#707,#830,#896,.T.);
#896 = LINE('',#897,#898);
#897 = CARTESIAN_POINT('',(-22.,30.,0.));
#898 = VECTOR('',#899,1.);
#899 = DIRECTION('',(0.,0.,1.));
#900 = ORIENTED_EDGE('',*,*,#765,.T.);
#901 = ORIENTED_EDGE('',*,*,#470,.T.);
#902 = ORIENTED_EDGE('',*,*,#856,.T.);
#903 = FACE_BOUND('',#904,.T.);
#904 = EDGE_LOOP('',(#905));
#905 = ORIENTED_EDGE('',*,*,#906,.F.);
#906 = EDGE_CURVE('',#907,#907,#909,.T.);
#907 = VERTEX_POINT('',#908);
#908 = CARTESIAN_POINT('',(-13.7,30.,47.85));
#909 = CIRCLE('',#910,3.);
#910 = AXIS2_PLACEMENT_3D('',#911,#912,#913);
#911 = CARTESIAN_POINT('',(-16.7,30.,47.85));
#912 = DIRECTION('',(0.,-1.,2.22044604925E-16));
#913 = DIRECTION('',(1.,0.,0.));
#914 = FACE_BOUND('',#915,.T.);
#915 = EDGE_LOOP('',(#916));
#916 = ORIENTED_EDGE('',*,*,#917,.F.);
#917 = EDGE_CURVE('',#918,#918,#920,.T.);
#918 = VERTEX_POINT('',#919);
#919 = CARTESIAN_POINT('',(-13.7,30.,22.85));
#920 = CIRCLE('',#921,3.);
#921 = AXIS2_PLACEMENT_3D('',#922,#923,#924);
#922 = CARTESIAN_POINT('',(-16.7,30.,22.85));
#923 = DIRECTION('',(0.,-1.,2.22044604925E-16));
#924 = DIRECTION('',(1.,0.,0.));
#925 = FACE_BOUND('',#926,.T.);
#926 = EDGE_LOOP('',(#927));
#927 = ORIENTED_EDGE('',*,*,#928,.F.);
#928 = EDGE_CURVE('',#929,#929,#931,.T.);
#929 = VERTEX_POINT('',#930);
#930 = CARTESIAN_POINT('',(11.3,30.,47.85));
#931 = CIRCLE('',#932,3.);
#932 = AXIS2_PLACEMENT_3D('',#933,#934,#935);
#933 = CARTESIAN_POINT('',(8.3,30.,47.85));
#934 = DIRECTION('',(0.,-1.,2.22044604925E-16));
#935 = DIRECTION('',(1.,0.,0.));
#936 = FACE_BOUND('',#937,.T.);
#937 = EDGE_LOOP('',(#938));
#938 = ORIENTED_EDGE('',*,*,#939,.F.);
#939 = EDGE_CURVE('',#940,#940,#942,.T.);
#940 = VERTEX_POINT('',#941);
#941 = CARTESIAN_POINT('',(11.3,30.,22.85));
#942 = CIRCLE('',#943,3.);
#943 = AXIS2_PLACEMENT_3D('',#944,#945,#946);
#944 = CARTESIAN_POINT('',(8.3,30.,22.85));
#945 = DIRECTION('',(0.,-1.,2.22044604925E-16));
#946 = DIRECTION('',(1.,0.,0.));
#947 = PLANE('',#948);
#948 = AXIS2_PLACEMENT_3D('',#949,#950,#951);
#949 = CARTESIAN_POINT('',(-4.5,30.,35.));
#950 = DIRECTION('',(-0.,-1.,-0.));
#951 = DIRECTION('',(0.,0.,-1.));
#952 = ADVANCED_FACE('',(#953),#959,.T.);
#953 = FACE_BOUND('',#954,.T.);
#954 = EDGE_LOOP('',(#955,#956,#957,#958));
#955 = ORIENTED_EDGE('',*,*,#552,.T.);
#956 = ORIENTED_EDGE('',*,*,#814,.F.);
#957 = ORIENTED_EDGE('',*,*,#675,.F.);
#958 = ORIENTED_EDGE('',*,*,#584,.T.);
#959 = PLANE('',#960);
#960 = AXIS2_PLACEMENT_3D('',#961,#962,#963);
#961 = CARTESIAN_POINT('',(38.,43.125,35.));
#962 = DIRECTION('',(1.,0.,0.));
#963 = DIRECTION('',(0.,0.,1.));
#964 = ADVANCED_FACE('',(#965),#971,.T.);
#965 = FACE_BOUND('',#966,.T.);
#966 = EDGE_LOOP('',(#967,#968,#969,#970));
#967 = ORIENTED_EDGE('',*,*,#895,.T.);
#968 = ORIENTED_EDGE('',*,*,#829,.F.);
#969 = ORIENTED_EDGE('',*,*,#607,.F.);
#970 = ORIENTED_EDGE('',*,*,#716,.F.);
#971 = PLANE('',#972);
#972 = AXIS2_PLACEMENT_3D('',#973,#974,#975);
#973 = CARTESIAN_POINT('',(-22.,50.5,35.));
#974 = DIRECTION('',(-1.,-0.,-0.));
#975 = DIRECTION('',(0.,0.,-1.));
#976 = ADVANCED_FACE('',(#977),#995,.F.);
#977 = FACE_BOUND('',#978,.F.);
#978 = EDGE_LOOP('',(#979,#986,#987,#988));
#979 = ORIENTED_EDGE('',*,*,#980,.F.);
#980 = EDGE_CURVE('',#626,#981,#983,.T.);
#981 = VERTEX_POINT('',#982);
#982 = CARTESIAN_POINT('',(10.5,58.,22.85));
#983 = B_SPLINE_CURVE_WITH_KNOTS('',1,(#984,#985),.UNSPECIFIED.,.F.,.F.,
  (2,2),(-16.,5.),.PIECEWISE_BEZIER_KNOTS.);
#984 = CARTESIAN_POINT('',(10.5,71.,22.85));
#985 = CARTESIAN_POINT('',(10.5,50.,22.85));
#986 = ORIENTED_EDGE('',*,*,#625,.T.);
#987 = ORIENTED_EDGE('',*,*,#980,.T.);
#988 = ORIENTED_EDGE('',*,*,#989,.F.);
#989 = EDGE_CURVE('',#981,#981,#990,.T.);
#990 = CIRCLE('',#991,2.15);
#991 = AXIS2_PLACEMENT_3D('',#992,#993,#994);
#992 = CARTESIAN_POINT('',(8.35,58.,22.85));
#993 = DIRECTION('',(0.,-1.,2.22044604925E-16));
#994 = DIRECTION('',(1.,0.,0.));
#995 = CYLINDRICAL_SURFACE('',#996,2.15);
#996 = AXIS2_PLACEMENT_3D('',#997,#998,#999);
#997 = CARTESIAN_POINT('',(8.35,55.,22.85));
#998 = DIRECTION('',(0.,-1.,2.22044604925E-16));
#999 = DIRECTION('',(1.,0.,0.));
#1000 = ADVANCED_FACE('',(#1001),#1019,.F.);
#1001 = FACE_BOUND('',#1002,.F.);
#1002 = EDGE_LOOP('',(#1003,#1010,#1011,#1012));
#1003 = ORIENTED_EDGE('',*,*,#1004,.F.);
#1004 = EDGE_CURVE('',#637,#1005,#1007,.T.);
#1005 = VERTEX_POINT('',#1006);
#1006 = CARTESIAN_POINT('',(10.5,58.,47.85));
#1007 = B_SPLINE_CURVE_WITH_KNOTS('',1,(#1008,#1009),.UNSPECIFIED.,.F.,
  .F.,(2,2),(-16.,5.),.PIECEWISE_BEZIER_KNOTS.);
#1008 = CARTESIAN_POINT('',(10.5,71.,47.85));
#1009 = CARTESIAN_POINT('',(10.5,50.,47.85));
#1010 = ORIENTED_EDGE('',*,*,#636,.T.);
#1011 = ORIENTED_EDGE('',*,*,#1004,.T.);
#1012 = ORIENTED_EDGE('',*,*,#1013,.F.);
#1013 = EDGE_CURVE('',#1005,#1005,#1014,.T.);
#1014 = CIRCLE('',#1015,2.15);
#1015 = AXIS2_PLACEMENT_3D('',#1016,#1017,#1018);
#1016 = CARTESIAN_POINT('',(8.35,58.,47.85));
#1017 = DIRECTION('',(0.,-1.,2.22044604925E-16));
#1018 = DIRECTION('',(1.,0.,0.));
#1019 = CYLINDRICAL_SURFACE('',#1020,2.15);
#1020 = AXIS2_PLACEMENT_3D('',#1021,#1022,#1023);
#1021 = CARTESIAN_POINT('',(8.35,55.,47.85));
#1022 = DIRECTION('',(0.,-1.,2.22044604925E-16));
#1023 = DIRECTION('',(1.,0.,0.));
#1024 = ADVANCED_FACE('',(#1025),#1043,.F.);
#1025 = FACE_BOUND('',#1026,.F.);
#1026 = EDGE_LOOP('',(#1027,#1034,#1035,#1036));
#1027 = ORIENTED_EDGE('',*,*,#1028,.F.);
#1028 = EDGE_CURVE('',#648,#1029,#1031,.T.);
#1029 = VERTEX_POINT('',#1030);
#1030 = CARTESIAN_POINT('',(-14.5,58.,22.85));
#1031 = B_SPLINE_CURVE_WITH_KNOTS('',1,(#1032,#1033),.UNSPECIFIED.,.F.,
  .F.,(2,2),(-16.,5.),.PIECEWISE_BEZIER_KNOTS.);
#1032 = CARTESIAN_POINT('',(-14.5,71.,22.85));
#1033 = CARTESIAN_POINT('',(-14.5,50.,22.85));
#1034 = ORIENTED_EDGE('',*,*,#647,.T.);
#1035 = ORIENTED_EDGE('',*,*,#1028,.T.);
#1036 = ORIENTED_EDGE('',*,*,#1037,.F.);
#1037 = EDGE_CURVE('',#1029,#1029,#1038,.T.);
#1038 = CIRCLE('',#1039,2.15);
#1039 = AXIS2_PLACEMENT_3D('',#1040,#1041,#1042);
#1040 = CARTESIAN_POINT('',(-16.65,58.,22.85));
#1041 = DIRECTION('',(0.,-1.,2.22044604925E-16));
#1042 = DIRECTION('',(1.,0.,0.));
#1043 = CYLINDRICAL_SURFACE('',#1044,2.15);
#1044 = AXIS2_PLACEMENT_3D('',#1045,#1046,#1047);
#1045 = CARTESIAN_POINT('',(-16.65,55.,22.85));
#1046 = DIRECTION('',(0.,-1.,2.22044604925E-16));
#1047 = DIRECTION('',(1.,0.,0.));
#1048 = ADVANCED_FACE('',(#1049),#1067,.F.);
#1049 = FACE_BOUND('',#1050,.F.);
#1050 = EDGE_LOOP('',(#1051,#1058,#1059,#1060));
#1051 = ORIENTED_EDGE('',*,*,#1052,.F.);
#1052 = EDGE_CURVE('',#659,#1053,#1055,.T.);
#1053 = VERTEX_POINT('',#1054);
#1054 = CARTESIAN_POINT('',(-14.5,58.,47.85));
#1055 = B_SPLINE_CURVE_WITH_KNOTS('',1,(#1056,#1057),.UNSPECIFIED.,.F.,
  .F.,(2,2),(-16.,5.),.PIECEWISE_BEZIER_KNOTS.);
#1056 = CARTESIAN_POINT('',(-14.5,71.,47.85));
#1057 = CARTESIAN_POINT('',(-14.5,50.,47.85));
#1058 = ORIENTED_EDGE('',*,*,#658,.T.);
#1059 = ORIENTED_EDGE('',*,*,#1052,.T.);
#1060 = ORIENTED_EDGE('',*,*,#1061,.F.);
#1061 = EDGE_CURVE('',#1053,#1053,#1062,.T.);
#1062 = CIRCLE('',#1063,2.15);
#1063 = AXIS2_PLACEMENT_3D('',#1064,#1065,#1066);
#1064 = CARTESIAN_POINT('',(-16.65,58.,47.85));
#1065 = DIRECTION('',(0.,-1.,2.22044604925E-16));
#1066 = DIRECTION('',(1.,0.,0.));
#1067 = CYLINDRICAL_SURFACE('',#1068,2.15);
#1068 = AXIS2_PLACEMENT_3D('',#1069,#1070,#1071);
#1069 = CARTESIAN_POINT('',(-16.65,55.,47.85));
#1070 = DIRECTION('',(0.,-1.,2.22044604925E-16));
#1071 = DIRECTION('',(1.,0.,0.));
#1072 = ADVANCED_FACE('',(#1073),#1092,.F.);
#1073 = FACE_BOUND('',#1074,.F.);
#1074 = EDGE_LOOP('',(#1075,#1083,#1090,#1091));
#1075 = ORIENTED_EDGE('',*,*,#1076,.T.);
#1076 = EDGE_CURVE('',#737,#1077,#1079,.T.);
#1077 = VERTEX_POINT('',#1078);
#1078 = CARTESIAN_POINT('',(16.25,10.6,21.3));
#1079 = LINE('',#1080,#1081);
#1080 = CARTESIAN_POINT('',(24.75,10.6,21.3));
#1081 = VECTOR('',#1082,1.);
#1082 = DIRECTION('',(-1.,-0.,-0.));
#1083 = ORIENTED_EDGE('',*,*,#1084,.T.);
#1084 = EDGE_CURVE('',#1077,#1077,#1085,.T.);
#1085 = CIRCLE('',#1086,3.3);
#1086 = AXIS2_PLACEMENT_3D('',#1087,#1088,#1089);
#1087 = CARTESIAN_POINT('',(16.25,7.3,21.3));
#1088 = DIRECTION('',(1.,0.,0.));
#1089 = DIRECTION('',(0.,1.,0.));
#1090 = ORIENTED_EDGE('',*,*,#1076,.F.);
#1091 = ORIENTED_EDGE('',*,*,#736,.F.);
#1092 = CYLINDRICAL_SURFACE('',#1093,3.3);
#1093 = AXIS2_PLACEMENT_3D('',#1094,#1095,#1096);
#1094 = CARTESIAN_POINT('',(24.75,7.3,21.3));
#1095 = DIRECTION('',(1.,0.,0.));
#1096 = DIRECTION('',(0.,1.,0.));
#1097 = ADVANCED_FACE('',(#1098),#1117,.F.);
#1098 = FACE_BOUND('',#1099,.F.);
#1099 = EDGE_LOOP('',(#1100,#1108,#1115,#1116));
#1100 = ORIENTED_EDGE('',*,*,#1101,.T.);
#1101 = EDGE_CURVE('',#748,#1102,#1104,.T.);
#1102 = VERTEX_POINT('',#1103);
#1103 = CARTESIAN_POINT('',(16.25,-9.4,21.3));
#1104 = LINE('',#1105,#1106);
#1105 = CARTESIAN_POINT('',(24.75,-9.4,21.3));
#1106 = VECTOR('',#1107,1.);
#1107 = DIRECTION('',(-1.,-0.,-0.));
#1108 = ORIENTED_EDGE('',*,*,#1109,.T.);
#1109 = EDGE_CURVE('',#1102,#1102,#1110,.T.);
#1110 = CIRCLE('',#1111,3.3);
#1111 = AXIS2_PLACEMENT_3D('',#1112,#1113,#1114);
#1112 = CARTESIAN_POINT('',(16.25,-12.7,21.3));
#1113 = DIRECTION('',(1.,0.,0.));
#1114 = DIRECTION('',(0.,1.,0.));
#1115 = ORIENTED_EDGE('',*,*,#1101,.F.);
#1116 = ORIENTED_EDGE('',*,*,#747,.F.);
#1117 = CYLINDRICAL_SURFACE('',#1118,3.3);
#1118 = AXIS2_PLACEMENT_3D('',#1119,#1120,#1121);
#1119 = CARTESIAN_POINT('',(24.75,-12.7,21.3));
#1120 = DIRECTION('',(1.,0.,0.));
#1121 = DIRECTION('',(0.,1.,0.));
#1122 = ADVANCED_FACE('',(#1123,#1134),#1137,.F.);
#1123 = FACE_BOUND('',#1124,.F.);
#1124 = EDGE_LOOP('',(#1125));
#1125 = ORIENTED_EDGE('',*,*,#1126,.F.);
#1126 = EDGE_CURVE('',#1127,#1127,#1129,.T.);
#1127 = VERTEX_POINT('',#1128);
#1128 = CARTESIAN_POINT('',(29.5,-43.25,43.));
#1129 = CIRCLE('',#1130,4.5);
#1130 = AXIS2_PLACEMENT_3D('',#1131,#1132,#1133);
#1131 = CARTESIAN_POINT('',(25.,-43.25,43.));
#1132 = DIRECTION('',(0.,0.,-1.));
#1133 = DIRECTION('',(1.,0.,0.));
#1134 = FACE_BOUND('',#1135,.F.);
#1135 = EDGE_LOOP('',(#1136));
#1136 = ORIENTED_EDGE('',*,*,#870,.T.);
#1137 = PLANE('',#1138);
#1138 = AXIS2_PLACEMENT_3D('',#1139,#1140,#1141);
#1139 = CARTESIAN_POINT('',(25.,-43.25,43.));
#1140 = DIRECTION('',(0.,0.,1.));
#1141 = DIRECTION('',(1.,0.,0.));
#1142 = ADVANCED_FACE('',(#1143),#1161,.F.);
#1143 = FACE_BOUND('',#1144,.F.);
#1144 = EDGE_LOOP('',(#1145,#1154,#1159,#1160));
#1145 = ORIENTED_EDGE('',*,*,#1146,.T.);
#1146 = EDGE_CURVE('',#1147,#1147,#1149,.T.);
#1147 = VERTEX_POINT('',#1148);
#1148 = CARTESIAN_POINT('',(-13.7,58.,47.85));
#1149 = CIRCLE('',#1150,3.);
#1150 = AXIS2_PLACEMENT_3D('',#1151,#1152,#1153);
#1151 = CARTESIAN_POINT('',(-16.7,58.,47.85));
#1152 = DIRECTION('',(0.,-1.,2.22044604925E-16));
#1153 = DIRECTION('',(1.,0.,0.));
#1154 = ORIENTED_EDGE('',*,*,#1155,.T.);
#1155 = EDGE_CURVE('',#1147,#907,#1156,.T.);
#1156 = B_SPLINE_CURVE_WITH_KNOTS('',1,(#1157,#1158),.UNSPECIFIED.,.F.,
  .F.,(2,2),(-28.,0.),.PIECEWISE_BEZIER_KNOTS.);
#1157 = CARTESIAN_POINT('',(-13.7,58.,47.85));
#1158 = CARTESIAN_POINT('',(-13.7,30.,47.85));
#1159 = ORIENTED_EDGE('',*,*,#906,.F.);
#1160 = ORIENTED_EDGE('',*,*,#1155,.F.);
#1161 = CYLINDRICAL_SURFACE('',#1162,3.);
#1162 = AXIS2_PLACEMENT_3D('',#1163,#1164,#1165);
#1163 = CARTESIAN_POINT('',(-16.7,30.,47.85));
#1164 = DIRECTION('',(0.,-1.,2.22044604925E-16));
#1165 = DIRECTION('',(1.,0.,0.));
#1166 = ADVANCED_FACE('',(#1167),#1185,.F.);
#1167 = FACE_BOUND('',#1168,.F.);
#1168 = EDGE_LOOP('',(#1169,#1170,#1177,#1184));
#1169 = ORIENTED_EDGE('',*,*,#917,.F.);
#1170 = ORIENTED_EDGE('',*,*,#1171,.F.);
#1171 = EDGE_CURVE('',#1172,#918,#1174,.T.);
#1172 = VERTEX_POINT('',#1173);
#1173 = CARTESIAN_POINT('',(-13.7,58.,22.85));
#1174 = B_SPLINE_CURVE_WITH_KNOTS('',1,(#1175,#1176),.UNSPECIFIED.,.F.,
  .F.,(2,2),(-28.,0.),.PIECEWISE_BEZIER_KNOTS.);
#1175 = CARTESIAN_POINT('',(-13.7,58.,22.85));
#1176 = CARTESIAN_POINT('',(-13.7,30.,22.85));
#1177 = ORIENTED_EDGE('',*,*,#1178,.T.);
#1178 = EDGE_CURVE('',#1172,#1172,#1179,.T.);
#1179 = CIRCLE('',#1180,3.);
#1180 = AXIS2_PLACEMENT_3D('',#1181,#1182,#1183);
#1181 = CARTESIAN_POINT('',(-16.7,58.,22.85));
#1182 = DIRECTION('',(0.,-1.,2.22044604925E-16));
#1183 = DIRECTION('',(1.,0.,0.));
#1184 = ORIENTED_EDGE('',*,*,#1171,.T.);
#1185 = CYLINDRICAL_SURFACE('',#1186,3.);
#1186 = AXIS2_PLACEMENT_3D('',#1187,#1188,#1189);
#1187 = CARTESIAN_POINT('',(-16.7,30.,22.85));
#1188 = DIRECTION('',(0.,-1.,2.22044604925E-16));
#1189 = DIRECTION('',(1.,0.,0.));
#1190 = ADVANCED_FACE('',(#1191),#1209,.F.);
#1191 = FACE_BOUND('',#1192,.F.);
#1192 = EDGE_LOOP('',(#1193,#1194,#1201,#1208));
#1193 = ORIENTED_EDGE('',*,*,#928,.F.);
#1194 = ORIENTED_EDGE('',*,*,#1195,.F.);
#1195 = EDGE_CURVE('',#1196,#929,#1198,.T.);
#1196 = VERTEX_POINT('',#1197);
#1197 = CARTESIAN_POINT('',(11.3,58.,47.85));
#1198 = B_SPLINE_CURVE_WITH_KNOTS('',1,(#1199,#1200),.UNSPECIFIED.,.F.,
  .F.,(2,2),(-28.,0.),.PIECEWISE_BEZIER_KNOTS.);
#1199 = CARTESIAN_POINT('',(11.3,58.,47.85));
#1200 = CARTESIAN_POINT('',(11.3,30.,47.85));
#1201 = ORIENTED_EDGE('',*,*,#1202,.T.);
#1202 = EDGE_CURVE('',#1196,#1196,#1203,.T.);
#1203 = CIRCLE('',#1204,3.);
#1204 = AXIS2_PLACEMENT_3D('',#1205,#1206,#1207);
#1205 = CARTESIAN_POINT('',(8.3,58.,47.85));
#1206 = DIRECTION('',(0.,-1.,2.22044604925E-16));
#1207 = DIRECTION('',(1.,0.,0.));
#1208 = ORIENTED_EDGE('',*,*,#1195,.T.);
#1209 = CYLINDRICAL_SURFACE('',#1210,3.);
#1210 = AXIS2_PLACEMENT_3D('',#1211,#1212,#1213);
#1211 = CARTESIAN_POINT('',(8.3,30.,47.85));
#1212 = DIRECTION('',(0.,-1.,2.22044604925E-16));
#1213 = DIRECTION('',(1.,0.,0.));
#1214 = ADVANCED_FACE('',(#1215),#1233,.F.);
#1215 = FACE_BOUND('',#1216,.F.);
#1216 = EDGE_LOOP('',(#1217,#1218,#1225,#1232));
#1217 = ORIENTED_EDGE('',*,*,#939,.F.);
#1218 = ORIENTED_EDGE('',*,*,#1219,.F.);
#1219 = EDGE_CURVE('',#1220,#940,#1222,.T.);
#1220 = VERTEX_POINT('',#1221);
#1221 = CARTESIAN_POINT('',(11.3,58.,22.85));
#1222 = B_SPLINE_CURVE_WITH_KNOTS('',1,(#1223,#1224),.UNSPECIFIED.,.F.,
  .F.,(2,2),(-28.,0.),.PIECEWISE_BEZIER_KNOTS.);
#1223 = CARTESIAN_POINT('',(11.3,58.,22.85));
#1224 = CARTESIAN_POINT('',(11.3,30.,22.85));
#1225 = ORIENTED_EDGE('',*,*,#1226,.T.);
#1226 = EDGE_CURVE('',#1220,#1220,#1227,.T.);
#1227 = CIRCLE('',#1228,3.);
#1228 = AXIS2_PLACEMENT_3D('',#1229,#1230,#1231);
#1229 = CARTESIAN_POINT('',(8.3,58.,22.85));
#1230 = DIRECTION('',(0.,-1.,2.22044604925E-16));
#1231 = DIRECTION('',(1.,0.,0.));
#1232 = ORIENTED_EDGE('',*,*,#1219,.T.);
#1233 = CYLINDRICAL_SURFACE('',#1234,3.);
#1234 = AXIS2_PLACEMENT_3D('',#1235,#1236,#1237);
#1235 = CARTESIAN_POINT('',(8.3,30.,22.85));
#1236 = DIRECTION('',(0.,-1.,2.22044604925E-16));
#1237 = DIRECTION('',(1.,0.,0.));
#1238 = ADVANCED_FACE('',(#1239,#1242),#1245,.F.);
#1239 = FACE_BOUND('',#1240,.F.);
#1240 = EDGE_LOOP('',(#1241));
#1241 = ORIENTED_EDGE('',*,*,#1226,.F.);
#1242 = FACE_BOUND('',#1243,.F.);
#1243 = EDGE_LOOP('',(#1244));
#1244 = ORIENTED_EDGE('',*,*,#989,.T.);
#1245 = PLANE('',#1246);
#1246 = AXIS2_PLACEMENT_3D('',#1247,#1248,#1249);
#1247 = CARTESIAN_POINT('',(-4.2,58.,35.35));
#1248 = DIRECTION('',(0.,1.,-2.397872740484E-16));
#1249 = DIRECTION('',(0.,2.397872740484E-16,1.));
#1250 = ADVANCED_FACE('',(#1251,#1254),#1257,.F.);
#1251 = FACE_BOUND('',#1252,.F.);
#1252 = EDGE_LOOP('',(#1253));
#1253 = ORIENTED_EDGE('',*,*,#1202,.F.);
#1254 = FACE_BOUND('',#1255,.F.);
#1255 = EDGE_LOOP('',(#1256));
#1256 = ORIENTED_EDGE('',*,*,#1013,.T.);
#1257 = PLANE('',#1258);
#1258 = AXIS2_PLACEMENT_3D('',#1259,#1260,#1261);
#1259 = CARTESIAN_POINT('',(-4.2,58.,35.35));
#1260 = DIRECTION('',(0.,1.,-2.397872740484E-16));
#1261 = DIRECTION('',(0.,2.397872740484E-16,1.));
#1262 = ADVANCED_FACE('',(#1263,#1266),#1269,.F.);
#1263 = FACE_BOUND('',#1264,.F.);
#1264 = EDGE_LOOP('',(#1265));
#1265 = ORIENTED_EDGE('',*,*,#1178,.F.);
#1266 = FACE_BOUND('',#1267,.F.);
#1267 = EDGE_LOOP('',(#1268));
#1268 = ORIENTED_EDGE('',*,*,#1037,.T.);
#1269 = PLANE('',#1270);
#1270 = AXIS2_PLACEMENT_3D('',#1271,#1272,#1273);
#1271 = CARTESIAN_POINT('',(-4.2,58.,35.35));
#1272 = DIRECTION('',(0.,1.,-2.397872740484E-16));
#1273 = DIRECTION('',(0.,2.397872740484E-16,1.));
#1274 = ADVANCED_FACE('',(#1275,#1278),#1281,.F.);
#1275 = FACE_BOUND('',#1276,.F.);
#1276 = EDGE_LOOP('',(#1277));
#1277 = ORIENTED_EDGE('',*,*,#1146,.F.);
#1278 = FACE_BOUND('',#1279,.F.);
#1279 = EDGE_LOOP('',(#1280));
#1280 = ORIENTED_EDGE('',*,*,#1061,.T.);
#1281 = PLANE('',#1282);
#1282 = AXIS2_PLACEMENT_3D('',#1283,#1284,#1285);
#1283 = CARTESIAN_POINT('',(-4.2,58.,35.35));
#1284 = DIRECTION('',(0.,1.,-2.397872740484E-16));
#1285 = DIRECTION('',(0.,2.397872740484E-16,1.));
#1286 = ADVANCED_FACE('',(#1287),#1290,.T.);
#1287 = FACE_BOUND('',#1288,.T.);
#1288 = EDGE_LOOP('',(#1289));
#1289 = ORIENTED_EDGE('',*,*,#1084,.T.);
#1290 = PLANE('',#1291);
#1291 = AXIS2_PLACEMENT_3D('',#1292,#1293,#1294);
#1292 = CARTESIAN_POINT('',(16.25,-2.7,21.3));
#1293 = DIRECTION('',(1.,0.,0.));
#1294 = DIRECTION('',(0.,0.,1.));
#1295 = ADVANCED_FACE('',(#1296),#1299,.T.);
#1296 = FACE_BOUND('',#1297,.T.);
#1297 = EDGE_LOOP('',(#1298));
#1298 = ORIENTED_EDGE('',*,*,#1109,.T.);
#1299 = PLANE('',#1300);
#1300 = AXIS2_PLACEMENT_3D('',#1301,#1302,#1303);
#1301 = CARTESIAN_POINT('',(16.25,-2.7,21.3));
#1302 = DIRECTION('',(1.,0.,0.));
#1303 = DIRECTION('',(0.,0.,1.));
#1304 = ADVANCED_FACE('',(#1305),#1315,.F.);
#1305 = FACE_BOUND('',#1306,.F.);
#1306 = EDGE_LOOP('',(#1307,#1308,#1313,#1314));
#1307 = ORIENTED_EDGE('',*,*,#71,.T.);
#1308 = ORIENTED_EDGE('',*,*,#1309,.F.);
#1309 = EDGE_CURVE('',#1127,#72,#1310,.T.);
#1310 = B_SPLINE_CURVE_WITH_KNOTS('',1,(#1311,#1312),.UNSPECIFIED.,.F.,
  .F.,(2,2),(-33.,-19.55555555555),.PIECEWISE_BEZIER_KNOTS.);
#1311 = CARTESIAN_POINT('',(29.5,-43.25,43.));
#1312 = CARTESIAN_POINT('',(29.5,-43.25,29.555555555556));
#1313 = ORIENTED_EDGE('',*,*,#1126,.T.);
#1314 = ORIENTED_EDGE('',*,*,#1309,.T.);
#1315 = CYLINDRICAL_SURFACE('',#1316,4.5);
#1316 = AXIS2_PLACEMENT_3D('',#1317,#1318,#1319);
#1317 = CARTESIAN_POINT('',(25.,-43.25,10.));
#1318 = DIRECTION('',(0.,0.,-1.));
#1319 = DIRECTION('',(1.,0.,0.));
#1320 = ( GEOMETRIC_REPRESENTATION_CONTEXT(3) 
GLOBAL_UNCERTAINTY_ASSIGNED_CONTEXT((#1324)) 
GLOBAL_UNIT_ASSIGNED_CONTEXT((#1321,#1322,#1323)) REPRESENTATION_CONTEXT
('Context #1','3D Context with UNIT and UNCERTAINTY') );
#1321 = ( LENGTH_UNIT() NAMED_UNIT(*) SI_UNIT(.MILLI.,.METRE.) );
#1322 = ( NAMED_UNIT(*) PLANE_ANGLE_UNIT() SI_UNIT($,.RADIAN.) );
#1323 = ( NAMED_UNIT(*) SI_UNIT($,.STERADIAN.) SOLID_ANGLE_UNIT() );
#1324 = UNCERTAINTY_MEASURE_WITH_UNIT(LENGTH_MEASURE(1.E-04),#1321,
  'distance_accuracy_value','confusion accuracy');
#1325 = PRODUCT_RELATED_PRODUCT_CATEGORY('part',$,(#7));
#1326 = MECHANICAL_DESIGN_GEOMETRIC_PRESENTATION_REPRESENTATION('',(
    #1327),#1320);
#1327 = STYLED_ITEM('color',(#1328),#15);
#1328 = PRESENTATION_STYLE_ASSIGNMENT((#1329,#1335));
#1329 = SURFACE_STYLE_USAGE(.BOTH.,#1330);
#1330 = SURFACE_SIDE_STYLE('',(#1331));
#1331 = SURFACE_STYLE_FILL_AREA(#1332);
#1332 = FILL_AREA_STYLE('',(#1333));
#1333 = FILL_AREA_STYLE_COLOUR('',#1334);
#1334 = COLOUR_RGB('',0.447058818107,0.474509808674,0.501960817233);
#1335 = CURVE_STYLE('',#1336,POSITIVE_LENGTH_MEASURE(0.1),#1337);
#1336 = DRAUGHTING_PRE_DEFINED_CURVE_FONT('continuous');
#1337 = COLOUR_RGB('',9.803921802644E-02,9.803921802644E-02,
  9.803921802644E-02);
ENDSEC;
END-ISO-10303-21;
