ISO-10303-21;
HEADER;
FILE_DESCRIPTION(('FreeCAD Model'),'2;1');
FILE_NAME('Open CASCADE Shape Model','2025-12-06T11:43:02',(''),(''),
  'Open CASCADE STEP processor 7.8','FreeCAD','Unknown');
FILE_SCHEMA(('AUTOMOTIVE_DESIGN { 1 0 10303 214 1 1 1 1 }'));
ENDSEC;
DATA;
#1 = APPLICATION_PROTOCOL_DEFINITION('international standard',
  'automotive_design',2000,#2);
#2 = APPLICATION_CONTEXT(
  'core data for automotive mechanical design processes');
#3 = SHAPE_DEFINITION_REPRESENTATION(#4,#10);
#4 = PRODUCT_DEFINITION_SHAPE('','',#5);
#5 = PRODUCT_DEFINITION('design','',#6,#9);
#6 = PRODUCT_DEFINITION_FORMATION('','',#7);
#7 = PRODUCT('Z axis mounting left','Z axis mounting left','',(#8));
#8 = PRODUCT_CONTEXT('',#2,'mechanical');
#9 = PRODUCT_DEFINITION_CONTEXT('part definition',#2,'design');
#10 = ADVANCED_BREP_SHAPE_REPRESENTATION('',(#11,#15),#2117);
#11 = AXIS2_PLACEMENT_3D('',#12,#13,#14);
#12 = CARTESIAN_POINT('',(0.,0.,0.));
#13 = DIRECTION('',(0.,0.,1.));
#14 = DIRECTION('',(1.,0.,-0.));
#15 = MANIFOLD_SOLID_BREP('',#16);
#16 = CLOSED_SHELL('',(#17,#137,#176,#208,#240,#280,#335,#403,#427,#483,
    #523,#555,#586,#610,#659,#676,#716,#732,#749,#780,#797,#827,#839,
    #876,#910,#935,#983,#1008,#1033,#1058,#1083,#1129,#1154,#1166,#1251,
    #1291,#1308,#1334,#1368,#1447,#1472,#1489,#1501,#1533,#1558,#1583,
    #1608,#1625,#1643,#1663,#1683,#1703,#1723,#1739,#1755,#1787,#1811,
    #1835,#1858,#1876,#1900,#1917,#1956,#1969,#1985,#2001,#2010,#2019,
    #2039,#2056,#2081,#2101));
#17 = ADVANCED_FACE('',(#18),#132,.T.);
#18 = FACE_BOUND('',#19,.T.);
#19 = EDGE_LOOP('',(#20,#30,#38,#46,#54,#62,#70,#78,#86,#94,#102,#110,
    #118,#126));
#20 = ORIENTED_EDGE('',*,*,#21,.F.);
#21 = EDGE_CURVE('',#22,#24,#26,.T.);
#22 = VERTEX_POINT('',#23);
#23 = CARTESIAN_POINT('',(71.25,-5.957311179175,-41.));
#24 = VERTEX_POINT('',#25);
#25 = CARTESIAN_POINT('',(60.250013008944,5.042675811881,-41.));
#26 = LINE('',#27,#28);
#27 = CARTESIAN_POINT('',(74.12867965644,-8.835990835616,-41.));
#28 = VECTOR('',#29,1.);
#29 = DIRECTION('',(-0.707106781187,0.707106781187,0.));
#30 = ORIENTED_EDGE('',*,*,#31,.T.);
#31 = EDGE_CURVE('',#22,#32,#34,.T.);
#32 = VERTEX_POINT('',#33);
#33 = CARTESIAN_POINT('',(71.25,-21.25,-41.));
#34 = LINE('',#35,#36);
#35 = CARTESIAN_POINT('',(71.25,-10.95731117917,-41.));
#36 = VECTOR('',#37,1.);
#37 = DIRECTION('',(-0.,-1.,-0.));
#38 = ORIENTED_EDGE('',*,*,#39,.F.);
#39 = EDGE_CURVE('',#40,#32,#42,.T.);
#40 = VERTEX_POINT('',#41);
#41 = CARTESIAN_POINT('',(64.65,-21.25,-41.));
#42 = LINE('',#43,#44);
#43 = CARTESIAN_POINT('',(64.65,-21.25,-41.));
#44 = VECTOR('',#45,1.);
#45 = DIRECTION('',(1.,0.,0.));
#46 = ORIENTED_EDGE('',*,*,#47,.F.);
#47 = EDGE_CURVE('',#48,#40,#50,.T.);
#48 = VERTEX_POINT('',#49);
#49 = CARTESIAN_POINT('',(64.65,-54.16,-41.));
#50 = LINE('',#51,#52);
#51 = CARTESIAN_POINT('',(64.65,-54.25,-41.));
#52 = VECTOR('',#53,1.);
#53 = DIRECTION('',(0.,1.,0.));
#54 = ORIENTED_EDGE('',*,*,#55,.T.);
#55 = EDGE_CURVE('',#48,#56,#58,.T.);
#56 = VERTEX_POINT('',#57);
#57 = CARTESIAN_POINT('',(45.392640687119,-54.16,-41.));
#58 = LINE('',#59,#60);
#59 = CARTESIAN_POINT('',(50.,-54.16,-41.));
#60 = VECTOR('',#61,1.);
#61 = DIRECTION('',(-1.,-3.984991935131E-16,-0.));
#62 = ORIENTED_EDGE('',*,*,#63,.T.);
#63 = EDGE_CURVE('',#56,#64,#66,.T.);
#64 = VERTEX_POINT('',#65);
#65 = CARTESIAN_POINT('',(27.232640687119,-36.,-41.));
#66 = LINE('',#67,#68);
#67 = CARTESIAN_POINT('',(43.27132034356,-52.03867965644,-41.));
#68 = VECTOR('',#69,1.);
#69 = DIRECTION('',(-0.707106781187,0.707106781187,0.));
#70 = ORIENTED_EDGE('',*,*,#71,.F.);
#71 = EDGE_CURVE('',#72,#64,#74,.T.);
#72 = VERTEX_POINT('',#73);
#73 = CARTESIAN_POINT('',(27.344479113643,-36.,-41.));
#74 = LINE('',#75,#76);
#75 = CARTESIAN_POINT('',(50.,-36.,-41.));
#76 = VECTOR('',#77,1.);
#77 = DIRECTION('',(-1.,-3.984991935131E-16,-0.));
#78 = ORIENTED_EDGE('',*,*,#79,.T.);
#79 = EDGE_CURVE('',#72,#80,#82,.T.);
#80 = VERTEX_POINT('',#81);
#81 = CARTESIAN_POINT('',(-2.76,-2.235210268405,-41.));
#82 = LINE('',#83,#84);
#83 = CARTESIAN_POINT('',(28.239217782809,-37.00352717996,-41.));
#84 = VECTOR('',#85,1.);
#85 = DIRECTION('',(-0.665490940013,0.746405927603,0.));
#86 = ORIENTED_EDGE('',*,*,#87,.F.);
#87 = EDGE_CURVE('',#88,#80,#90,.T.);
#88 = VERTEX_POINT('',#89);
#89 = CARTESIAN_POINT('',(-2.76,55.828043675006,-41.));
#90 = LINE('',#91,#92);
#91 = CARTESIAN_POINT('',(-2.76,63.03,-41.));
#92 = VECTOR('',#93,1.);
#93 = DIRECTION('',(-0.,-1.,-0.));
#94 = ORIENTED_EDGE('',*,*,#95,.T.);
#95 = EDGE_CURVE('',#88,#96,#98,.T.);
#96 = VERTEX_POINT('',#97);
#97 = CARTESIAN_POINT('',(4.584358686826,49.908572470068,-41.));
#98 = LINE('',#99,#100);
#99 = CARTESIAN_POINT('',(-4.642602327912,57.345400158482,-41.));
#100 = VECTOR('',#101,1.);
#101 = DIRECTION('',(0.778589071115,-0.627534109304,0.));
#102 = ORIENTED_EDGE('',*,*,#103,.T.);
#103 = EDGE_CURVE('',#96,#104,#106,.T.);
#104 = VERTEX_POINT('',#105);
#105 = CARTESIAN_POINT('',(-2.475400042843,41.149445420022,-41.));
#106 = LINE('',#107,#108);
#107 = CARTESIAN_POINT('',(-1.771753833543,42.022467683465,-41.));
#108 = VECTOR('',#109,1.);
#109 = DIRECTION('',(-0.627534109304,-0.778589071115,-0.));
#110 = ORIENTED_EDGE('',*,*,#111,.T.);
#111 = EDGE_CURVE('',#104,#112,#114,.T.);
#112 = VERTEX_POINT('',#113);
#113 = CARTESIAN_POINT('',(25.553806517306,18.55821748508,-41.));
#114 = LINE('',#115,#116);
#115 = CARTESIAN_POINT('',(-2.475400042843,41.149445420022,-41.));
#116 = VECTOR('',#117,1.);
#117 = DIRECTION('',(0.778589071115,-0.627534109304,0.));
#118 = ORIENTED_EDGE('',*,*,#119,.T.);
#119 = EDGE_CURVE('',#112,#120,#122,.T.);
#120 = VERTEX_POINT('',#121);
#121 = CARTESIAN_POINT('',(32.613565246976,27.317344535126,-41.));
#122 = LINE('',#123,#124);
#123 = CARTESIAN_POINT('',(26.257452726606,19.431239748524,-41.));
#124 = VECTOR('',#125,1.);
#125 = DIRECTION('',(0.627534109304,0.778589071115,0.));
#126 = ORIENTED_EDGE('',*,*,#127,.T.);
#127 = EDGE_CURVE('',#120,#24,#128,.T.);
#128 = LINE('',#129,#130);
#129 = CARTESIAN_POINT('',(32.613565246976,27.317344535126,-41.));
#130 = VECTOR('',#131,1.);
#131 = DIRECTION('',(0.778589071115,-0.627534109304,0.));
#132 = PLANE('',#133);
#133 = AXIS2_PLACEMENT_3D('',#134,#135,#136);
#134 = CARTESIAN_POINT('',(32.537099405633,-3.928640707299,-41.));
#135 = DIRECTION('',(-0.,-0.,-1.));
#136 = DIRECTION('',(-1.,0.,0.));
#137 = ADVANCED_FACE('',(#138),#171,.T.);
#138 = FACE_BOUND('',#139,.T.);
#139 = EDGE_LOOP('',(#140,#141,#149,#157,#165));
#140 = ORIENTED_EDGE('',*,*,#21,.T.);
#141 = ORIENTED_EDGE('',*,*,#142,.T.);
#142 = EDGE_CURVE('',#24,#143,#145,.T.);
#143 = VERTEX_POINT('',#144);
#144 = CARTESIAN_POINT('',(62.,6.990726731584,-38.38509231621));
#145 = LINE('',#146,#147);
#146 = CARTESIAN_POINT('',(60.759182557047,5.60947328611,-40.23917642217
    ));
#147 = VECTOR('',#148,1.);
#148 = DIRECTION('',(0.472881399296,0.526402224426,0.706600226662));
#149 = ORIENTED_EDGE('',*,*,#150,.T.);
#150 = EDGE_CURVE('',#143,#151,#153,.T.);
#151 = VERTEX_POINT('',#152);
#152 = CARTESIAN_POINT('',(62.05,7.485329507944,-38.));
#153 = LINE('',#154,#155);
#154 = CARTESIAN_POINT('',(61.384127891643,0.898485638062,
    -43.12844465023));
#155 = VECTOR('',#156,1.);
#156 = DIRECTION('',(7.951266249581E-02,0.786543672525,0.612394307382));
#157 = ORIENTED_EDGE('',*,*,#158,.F.);
#158 = EDGE_CURVE('',#159,#151,#161,.T.);
#159 = VERTEX_POINT('',#160);
#160 = CARTESIAN_POINT('',(74.25,-4.714670492056,-38.));
#161 = LINE('',#162,#163);
#162 = CARTESIAN_POINT('',(76.25,-6.714670492056,-38.));
#163 = VECTOR('',#164,1.);
#164 = DIRECTION('',(-0.707106781187,0.707106781187,0.));
#165 = ORIENTED_EDGE('',*,*,#166,.F.);
#166 = EDGE_CURVE('',#22,#159,#167,.T.);
#167 = LINE('',#168,#169);
#168 = CARTESIAN_POINT('',(73.003388932034,-5.231033703412,
    -39.24661106796));
#169 = VECTOR('',#170,1.);
#170 = DIRECTION('',(0.678598344546,0.281084637715,0.678598344546));
#171 = PLANE('',#172);
#172 = AXIS2_PLACEMENT_3D('',#173,#174,#175);
#173 = CARTESIAN_POINT('',(75.18933982822,-7.775330663836,-39.5));
#174 = DIRECTION('',(0.5,0.5,-0.707106781187));
#175 = DIRECTION('',(-0.707106781187,0.707106781187,-2.775557561563E-17)
  );
#176 = ADVANCED_FACE('',(#177),#203,.T.);
#177 = FACE_BOUND('',#178,.F.);
#178 = EDGE_LOOP('',(#179,#180,#181,#189,#197));
#179 = ORIENTED_EDGE('',*,*,#166,.F.);
#180 = ORIENTED_EDGE('',*,*,#31,.T.);
#181 = ORIENTED_EDGE('',*,*,#182,.T.);
#182 = EDGE_CURVE('',#32,#183,#185,.T.);
#183 = VERTEX_POINT('',#184);
#184 = CARTESIAN_POINT('',(76.25,-21.25,-36.));
#185 = LINE('',#186,#187);
#186 = CARTESIAN_POINT('',(70.85,-21.25,-41.4));
#187 = VECTOR('',#188,1.);
#188 = DIRECTION('',(0.707106781187,0.,0.707106781187));
#189 = ORIENTED_EDGE('',*,*,#190,.F.);
#190 = EDGE_CURVE('',#191,#183,#193,.T.);
#191 = VERTEX_POINT('',#192);
#192 = CARTESIAN_POINT('',(76.25,-6.714670492056,-36.));
#193 = LINE('',#194,#195);
#194 = CARTESIAN_POINT('',(76.25,-10.95731117917,-36.));
#195 = VECTOR('',#196,1.);
#196 = DIRECTION('',(-0.,-1.,-0.));
#197 = ORIENTED_EDGE('',*,*,#198,.F.);
#198 = EDGE_CURVE('',#159,#191,#199,.T.);
#199 = LINE('',#200,#201);
#200 = CARTESIAN_POINT('',(78.923773447853,-9.388443939909,
    -33.32622655214));
#201 = VECTOR('',#202,1.);
#202 = DIRECTION('',(0.57735026919,-0.57735026919,0.57735026919));
#203 = PLANE('',#204);
#204 = AXIS2_PLACEMENT_3D('',#205,#206,#207);
#205 = CARTESIAN_POINT('',(73.75,-10.95731117917,-38.5));
#206 = DIRECTION('',(0.707106781187,0.,-0.707106781187));
#207 = DIRECTION('',(0.,1.,0.));
#208 = ADVANCED_FACE('',(#209),#235,.T.);
#209 = FACE_BOUND('',#210,.F.);
#210 = EDGE_LOOP('',(#211,#219,#227,#233,#234));
#211 = ORIENTED_EDGE('',*,*,#212,.T.);
#212 = EDGE_CURVE('',#143,#213,#215,.T.);
#213 = VERTEX_POINT('',#214);
#214 = CARTESIAN_POINT('',(62.,7.485329507944,-38.));
#215 = LINE('',#216,#217);
#216 = CARTESIAN_POINT('',(62.,14.326758421526,-32.67333821707));
#217 = VECTOR('',#218,1.);
#218 = DIRECTION('',(0.,0.789041892765,0.614339394359));
#219 = ORIENTED_EDGE('',*,*,#220,.F.);
#220 = EDGE_CURVE('',#221,#213,#223,.T.);
#221 = VERTEX_POINT('',#222);
#222 = CARTESIAN_POINT('',(36.831934788233,27.77050942056,-38.));
#223 = LINE('',#224,#225);
#224 = CARTESIAN_POINT('',(34.496167574887,29.653111748472,-38.));
#225 = VECTOR('',#226,1.);
#226 = DIRECTION('',(0.778589071115,-0.627534109304,0.));
#227 = ORIENTED_EDGE('',*,*,#228,.F.);
#228 = EDGE_CURVE('',#120,#221,#229,.T.);
#229 = LINE('',#230,#231);
#230 = CARTESIAN_POINT('',(34.722750017604,27.543926977843,-39.5));
#231 = VECTOR('',#232,1.);
#232 = DIRECTION('',(0.811825596729,8.721162286419E-02,0.57735026919));
#233 = ORIENTED_EDGE('',*,*,#127,.T.);
#234 = ORIENTED_EDGE('',*,*,#142,.T.);
#235 = PLANE('',#236);
#236 = AXIS2_PLACEMENT_3D('',#237,#238,#239);
#237 = CARTESIAN_POINT('',(33.554866410931,28.485228141799,-39.5));
#238 = DIRECTION('',(0.443733624115,0.550545611943,-0.707106781187));
#239 = DIRECTION('',(-0.778589071115,0.627534109304,-8.326672684689E-17)
  );
#240 = ADVANCED_FACE('',(#241),#275,.F.);
#241 = FACE_BOUND('',#242,.F.);
#242 = EDGE_LOOP('',(#243,#244,#252,#260,#268,#274));
#243 = ORIENTED_EDGE('',*,*,#39,.F.);
#244 = ORIENTED_EDGE('',*,*,#245,.T.);
#245 = EDGE_CURVE('',#40,#246,#248,.T.);
#246 = VERTEX_POINT('',#247);
#247 = CARTESIAN_POINT('',(64.65,-21.25,-5.));
#248 = LINE('',#249,#250);
#249 = CARTESIAN_POINT('',(64.65,-21.25,-41.));
#250 = VECTOR('',#251,1.);
#251 = DIRECTION('',(0.,0.,1.));
#252 = ORIENTED_EDGE('',*,*,#253,.F.);
#253 = EDGE_CURVE('',#254,#246,#256,.T.);
#254 = VERTEX_POINT('',#255);
#255 = CARTESIAN_POINT('',(71.25,-21.25,-5.));
#256 = LINE('',#257,#258);
#257 = CARTESIAN_POINT('',(66.8875,-21.25,-5.));
#258 = VECTOR('',#259,1.);
#259 = DIRECTION('',(-1.,0.,0.));
#260 = ORIENTED_EDGE('',*,*,#261,.F.);
#261 = EDGE_CURVE('',#262,#254,#264,.T.);
#262 = VERTEX_POINT('',#263);
#263 = CARTESIAN_POINT('',(76.25,-21.25,-10.));
#264 = LINE('',#265,#266);
#265 = CARTESIAN_POINT('',(79.85,-21.25,-13.6));
#266 = VECTOR('',#267,1.);
#267 = DIRECTION('',(-0.707106781187,0.,0.707106781187));
#268 = ORIENTED_EDGE('',*,*,#269,.F.);
#269 = EDGE_CURVE('',#183,#262,#270,.T.);
#270 = LINE('',#271,#272);
#271 = CARTESIAN_POINT('',(76.25,-21.25,-41.));
#272 = VECTOR('',#273,1.);
#273 = DIRECTION('',(0.,0.,1.));
#274 = ORIENTED_EDGE('',*,*,#182,.F.);
#275 = PLANE('',#276);
#276 = AXIS2_PLACEMENT_3D('',#277,#278,#279);
#277 = CARTESIAN_POINT('',(64.65,-21.25,-41.));
#278 = DIRECTION('',(0.,1.,0.));
#279 = DIRECTION('',(1.,0.,0.));
#280 = ADVANCED_FACE('',(#281),#330,.T.);
#281 = FACE_BOUND('',#282,.T.);
#282 = EDGE_LOOP('',(#283,#293,#301,#309,#315,#316,#324));
#283 = ORIENTED_EDGE('',*,*,#284,.F.);
#284 = EDGE_CURVE('',#285,#287,#289,.T.);
#285 = VERTEX_POINT('',#286);
#286 = CARTESIAN_POINT('',(23.671204189394,16.222450271734,
    -6.712370512387E-17));
#287 = VERTEX_POINT('',#288);
#288 = CARTESIAN_POINT('',(26.808874735914,20.11539562731,-5.));
#289 = LINE('',#290,#291);
#290 = CARTESIAN_POINT('',(30.279922778002,24.421966426917,-10.53125));
#291 = VECTOR('',#292,1.);
#292 = DIRECTION('',(0.443733624115,0.550545611943,-0.707106781187));
#293 = ORIENTED_EDGE('',*,*,#294,.F.);
#294 = EDGE_CURVE('',#295,#285,#297,.T.);
#295 = VERTEX_POINT('',#296);
#296 = CARTESIAN_POINT('',(31.358497028368,25.760166392896,0.));
#297 = LINE('',#298,#299);
#298 = CARTESIAN_POINT('',(19.823276167354,11.448279975681,0.));
#299 = VECTOR('',#300,1.);
#300 = DIRECTION('',(-0.627534109304,-0.778589071115,-0.));
#301 = ORIENTED_EDGE('',*,*,#302,.T.);
#302 = EDGE_CURVE('',#295,#303,#305,.T.);
#303 = VERTEX_POINT('',#304);
#304 = CARTESIAN_POINT('',(32.613565246976,27.317344535126,-2.));
#305 = LINE('',#306,#307);
#306 = CARTESIAN_POINT('',(36.045392407231,31.575253517788,-7.46875));
#307 = VECTOR('',#308,1.);
#308 = DIRECTION('',(0.443733624115,0.550545611943,-0.707106781187));
#309 = ORIENTED_EDGE('',*,*,#310,.F.);
#310 = EDGE_CURVE('',#120,#303,#311,.T.);
#311 = LINE('',#312,#313);
#312 = CARTESIAN_POINT('',(32.613565246976,27.317344535126,-38.));
#313 = VECTOR('',#314,1.);
#314 = DIRECTION('',(8.712890321722E-17,1.965610493926E-16,1.));
#315 = ORIENTED_EDGE('',*,*,#119,.F.);
#316 = ORIENTED_EDGE('',*,*,#317,.T.);
#317 = EDGE_CURVE('',#112,#318,#320,.T.);
#318 = VERTEX_POINT('',#319);
#319 = CARTESIAN_POINT('',(26.808874735914,20.11539562731,-39.));
#320 = LINE('',#321,#322);
#321 = CARTESIAN_POINT('',(29.495505141372,23.448730088022,-34.71875));
#322 = VECTOR('',#323,1.);
#323 = DIRECTION('',(0.443733624115,0.550545611943,0.707106781187));
#324 = ORIENTED_EDGE('',*,*,#325,.F.);
#325 = EDGE_CURVE('',#287,#318,#326,.T.);
#326 = LINE('',#327,#328);
#327 = CARTESIAN_POINT('',(26.808874735914,20.11539562731,-42.));
#328 = VECTOR('',#329,1.);
#329 = DIRECTION('',(-0.,-0.,-1.));
#330 = PLANE('',#331);
#331 = AXIS2_PLACEMENT_3D('',#332,#333,#334);
#332 = CARTESIAN_POINT('',(29.425444408982,23.361804899823,
    1.172296078376E-15));
#333 = DIRECTION('',(-0.778589071115,0.627534109304,0.));
#334 = DIRECTION('',(-0.627534109304,-0.778589071115,0.));
#335 = ADVANCED_FACE('',(#336,#354,#365,#376,#387),#398,.F.);
#336 = FACE_BOUND('',#337,.F.);
#337 = EDGE_LOOP('',(#338,#339,#347,#353));
#338 = ORIENTED_EDGE('',*,*,#47,.F.);
#339 = ORIENTED_EDGE('',*,*,#340,.F.);
#340 = EDGE_CURVE('',#341,#48,#343,.T.);
#341 = VERTEX_POINT('',#342);
#342 = CARTESIAN_POINT('',(64.65,-54.16,-5.));
#343 = LINE('',#344,#345);
#344 = CARTESIAN_POINT('',(64.65,-54.16,-31.12999100035));
#345 = VECTOR('',#346,1.);
#346 = DIRECTION('',(-0.,-0.,-1.));
#347 = ORIENTED_EDGE('',*,*,#348,.F.);
#348 = EDGE_CURVE('',#246,#341,#349,.T.);
#349 = LINE('',#350,#351);
#350 = CARTESIAN_POINT('',(64.65,-38.79366762301,-5.));
#351 = VECTOR('',#352,1.);
#352 = DIRECTION('',(0.,-1.,0.));
#353 = ORIENTED_EDGE('',*,*,#245,.F.);
#354 = FACE_BOUND('',#355,.F.);
#355 = EDGE_LOOP('',(#356));
#356 = ORIENTED_EDGE('',*,*,#357,.F.);
#357 = EDGE_CURVE('',#358,#358,#360,.T.);
#358 = VERTEX_POINT('',#359);
#359 = CARTESIAN_POINT('',(64.65,-51.75,-7.95));
#360 = CIRCLE('',#361,1.75);
#361 = AXIS2_PLACEMENT_3D('',#362,#363,#364);
#362 = CARTESIAN_POINT('',(64.65,-50.,-7.95));
#363 = DIRECTION('',(-1.,0.,0.));
#364 = DIRECTION('',(0.,-1.,0.));
#365 = FACE_BOUND('',#366,.F.);
#366 = EDGE_LOOP('',(#367));
#367 = ORIENTED_EDGE('',*,*,#368,.F.);
#368 = EDGE_CURVE('',#369,#369,#371,.T.);
#369 = VERTEX_POINT('',#370);
#370 = CARTESIAN_POINT('',(64.65,-26.75,-7.95));
#371 = CIRCLE('',#372,1.75);
#372 = AXIS2_PLACEMENT_3D('',#373,#374,#375);
#373 = CARTESIAN_POINT('',(64.65,-25.,-7.95));
#374 = DIRECTION('',(-1.,0.,0.));
#375 = DIRECTION('',(0.,-1.,0.));
#376 = FACE_BOUND('',#377,.F.);
#377 = EDGE_LOOP('',(#378));
#378 = ORIENTED_EDGE('',*,*,#379,.F.);
#379 = EDGE_CURVE('',#380,#380,#382,.T.);
#380 = VERTEX_POINT('',#381);
#381 = CARTESIAN_POINT('',(64.65,-51.75,-32.95));
#382 = CIRCLE('',#383,1.75);
#383 = AXIS2_PLACEMENT_3D('',#384,#385,#386);
#384 = CARTESIAN_POINT('',(64.65,-50.,-32.95));
#385 = DIRECTION('',(-1.,0.,0.));
#386 = DIRECTION('',(0.,-1.,0.));
#387 = FACE_BOUND('',#388,.F.);
#388 = EDGE_LOOP('',(#389));
#389 = ORIENTED_EDGE('',*,*,#390,.F.);
#390 = EDGE_CURVE('',#391,#391,#393,.T.);
#391 = VERTEX_POINT('',#392);
#392 = CARTESIAN_POINT('',(64.65,-26.75,-32.95));
#393 = CIRCLE('',#394,1.75);
#394 = AXIS2_PLACEMENT_3D('',#395,#396,#397);
#395 = CARTESIAN_POINT('',(64.65,-25.,-32.95));
#396 = DIRECTION('',(-1.,0.,0.));
#397 = DIRECTION('',(0.,-1.,0.));
#398 = PLANE('',#399);
#399 = AXIS2_PLACEMENT_3D('',#400,#401,#402);
#400 = CARTESIAN_POINT('',(64.65,-54.25,-41.));
#401 = DIRECTION('',(-1.,0.,0.));
#402 = DIRECTION('',(0.,1.,0.));
#403 = ADVANCED_FACE('',(#404),#422,.T.);
#404 = FACE_BOUND('',#405,.F.);
#405 = EDGE_LOOP('',(#406,#414,#415,#416));
#406 = ORIENTED_EDGE('',*,*,#407,.F.);
#407 = EDGE_CURVE('',#104,#408,#410,.T.);
#408 = VERTEX_POINT('',#409);
#409 = CARTESIAN_POINT('',(-1.220331824235,42.706623562252,-39.));
#410 = LINE('',#411,#412);
#411 = CARTESIAN_POINT('',(1.466298581222,46.039958022964,-34.71875));
#412 = VECTOR('',#413,1.);
#413 = DIRECTION('',(0.443733624115,0.550545611943,0.707106781187));
#414 = ORIENTED_EDGE('',*,*,#111,.T.);
#415 = ORIENTED_EDGE('',*,*,#317,.T.);
#416 = ORIENTED_EDGE('',*,*,#417,.F.);
#417 = EDGE_CURVE('',#408,#318,#418,.T.);
#418 = LINE('',#419,#420);
#419 = CARTESIAN_POINT('',(-1.220331824235,42.706623562252,-39.));
#420 = VECTOR('',#421,1.);
#421 = DIRECTION('',(0.778589071115,-0.627534109304,0.));
#422 = PLANE('',#423);
#423 = AXIS2_PLACEMENT_3D('',#424,#425,#426);
#424 = CARTESIAN_POINT('',(-1.847865933539,41.928034491137,-40.));
#425 = DIRECTION('',(0.443733624115,0.550545611943,-0.707106781187));
#426 = DIRECTION('',(-0.778589071115,0.627534109304,-1.110223024625E-16)
  );
#427 = ADVANCED_FACE('',(#428),#478,.T.);
#428 = FACE_BOUND('',#429,.T.);
#429 = EDGE_LOOP('',(#430,#440,#446,#447,#448,#456,#464,#472));
#430 = ORIENTED_EDGE('',*,*,#431,.T.);
#431 = EDGE_CURVE('',#432,#434,#436,.T.);
#432 = VERTEX_POINT('',#433);
#433 = CARTESIAN_POINT('',(41.15,-54.16,-4.));
#434 = VERTEX_POINT('',#435);
#435 = CARTESIAN_POINT('',(41.15,-54.16,-38.));
#436 = LINE('',#437,#438);
#437 = CARTESIAN_POINT('',(41.15,-54.16,0.));
#438 = VECTOR('',#439,1.);
#439 = DIRECTION('',(-0.,-0.,-1.));
#440 = ORIENTED_EDGE('',*,*,#441,.F.);
#441 = EDGE_CURVE('',#56,#434,#442,.T.);
#442 = LINE('',#443,#444);
#443 = CARTESIAN_POINT('',(41.035449571008,-54.16,-37.91900061487));
#444 = VECTOR('',#445,1.);
#445 = DIRECTION('',(-0.816496580928,-2.944391961508E-16,0.57735026919)
  );
#446 = ORIENTED_EDGE('',*,*,#55,.F.);
#447 = ORIENTED_EDGE('',*,*,#340,.F.);
#448 = ORIENTED_EDGE('',*,*,#449,.F.);
#449 = EDGE_CURVE('',#450,#341,#452,.T.);
#450 = VERTEX_POINT('',#451);
#451 = CARTESIAN_POINT('',(62.,-54.16,-5.));
#452 = LINE('',#453,#454);
#453 = CARTESIAN_POINT('',(62.,-54.16,-5.));
#454 = VECTOR('',#455,1.);
#455 = DIRECTION('',(1.,3.402359125165E-16,0.));
#456 = ORIENTED_EDGE('',*,*,#457,.F.);
#457 = EDGE_CURVE('',#458,#450,#460,.T.);
#458 = VERTEX_POINT('',#459);
#459 = CARTESIAN_POINT('',(57.,-54.16,0.));
#460 = LINE('',#461,#462);
#461 = CARTESIAN_POINT('',(64.5,-54.16,-7.5));
#462 = VECTOR('',#463,1.);
#463 = DIRECTION('',(0.707106781187,1.684578367129E-16,-0.707106781187)
  );
#464 = ORIENTED_EDGE('',*,*,#465,.T.);
#465 = EDGE_CURVE('',#458,#466,#468,.T.);
#466 = VERTEX_POINT('',#467);
#467 = CARTESIAN_POINT('',(46.806854249492,-54.16,1.33226762955E-15));
#468 = LINE('',#469,#470);
#469 = CARTESIAN_POINT('',(50.,-54.16,0.));
#470 = VECTOR('',#471,1.);
#471 = DIRECTION('',(-1.,-3.984991935131E-16,-0.));
#472 = ORIENTED_EDGE('',*,*,#473,.F.);
#473 = EDGE_CURVE('',#432,#466,#474,.T.);
#474 = LINE('',#475,#476);
#475 = CARTESIAN_POINT('',(41.148595140942,-54.16,-4.000993385367));
#476 = VECTOR('',#477,1.);
#477 = DIRECTION('',(0.816496580928,2.944391961508E-16,0.57735026919));
#478 = PLANE('',#479);
#479 = AXIS2_PLACEMENT_3D('',#480,#481,#482);
#480 = CARTESIAN_POINT('',(50.522008613943,-54.16,-21.25998200071));
#481 = DIRECTION('',(3.606128954224E-16,-1.,0.));
#482 = DIRECTION('',(-1.,-3.606128954224E-16,0.));
#483 = ADVANCED_FACE('',(#484),#518,.T.);
#484 = FACE_BOUND('',#485,.F.);
#485 = EDGE_LOOP('',(#486,#494,#502,#510,#516,#517));
#486 = ORIENTED_EDGE('',*,*,#487,.F.);
#487 = EDGE_CURVE('',#488,#408,#490,.T.);
#488 = VERTEX_POINT('',#489);
#489 = CARTESIAN_POINT('',(-1.220331824235,42.706623562252,-5.));
#490 = LINE('',#491,#492);
#491 = CARTESIAN_POINT('',(-1.220331824235,42.706623562252,-42.));
#492 = VECTOR('',#493,1.);
#493 = DIRECTION('',(-0.,-0.,-1.));
#494 = ORIENTED_EDGE('',*,*,#495,.F.);
#495 = EDGE_CURVE('',#496,#488,#498,.T.);
#496 = VERTEX_POINT('',#497);
#497 = CARTESIAN_POINT('',(3.956824577522,49.129983398953,-5.));
#498 = LINE('',#499,#500);
#499 = CARTESIAN_POINT('',(6.466961014738,52.244339683414,-5.));
#500 = VECTOR('',#501,1.);
#501 = DIRECTION('',(-0.627534109304,-0.778589071115,1.110223024625E-16)
  );
#502 = ORIENTED_EDGE('',*,*,#503,.T.);
#503 = EDGE_CURVE('',#496,#504,#506,.T.);
#504 = VERTEX_POINT('',#505);
#505 = CARTESIAN_POINT('',(4.584358686826,49.908572470068,
    -6.125034688475));
#506 = LINE('',#507,#508);
#507 = CARTESIAN_POINT('',(7.488306101007,53.511534741366,
    -11.33119245109));
#508 = VECTOR('',#509,1.);
#509 = DIRECTION('',(0.416903788795,0.517257514531,-0.747419490346));
#510 = ORIENTED_EDGE('',*,*,#511,.T.);
#511 = EDGE_CURVE('',#504,#96,#512,.T.);
#512 = LINE('',#513,#514);
#513 = CARTESIAN_POINT('',(4.584358686826,49.908572470068,
    -9.500138753898));
#514 = VECTOR('',#515,1.);
#515 = DIRECTION('',(-0.,-0.,-1.));
#516 = ORIENTED_EDGE('',*,*,#103,.T.);
#517 = ORIENTED_EDGE('',*,*,#407,.T.);
#518 = PLANE('',#519);
#519 = AXIS2_PLACEMENT_3D('',#520,#521,#522);
#520 = CARTESIAN_POINT('',(2.623314595252,47.475481622833,-26.));
#521 = DIRECTION('',(0.778589071115,-0.627534109304,0.));
#522 = DIRECTION('',(-0.627534109304,-0.778589071115,-0.));
#523 = ADVANCED_FACE('',(#524),#550,.F.);
#524 = FACE_BOUND('',#525,.F.);
#525 = EDGE_LOOP('',(#526,#534,#542,#548,#549));
#526 = ORIENTED_EDGE('',*,*,#527,.T.);
#527 = EDGE_CURVE('',#64,#528,#530,.T.);
#528 = VERTEX_POINT('',#529);
#529 = CARTESIAN_POINT('',(26.,-38.97585786437,-38.02414213562));
#530 = LINE('',#531,#532);
#531 = CARTESIAN_POINT('',(26.94989271808,-36.68261398158,
    -40.31738601841));
#532 = VECTOR('',#533,1.);
#533 = DIRECTION('',(-0.281084637715,-0.678598344546,0.678598344546));
#534 = ORIENTED_EDGE('',*,*,#535,.T.);
#535 = EDGE_CURVE('',#528,#536,#538,.T.);
#536 = VERTEX_POINT('',#537);
#537 = CARTESIAN_POINT('',(26.,-39.01,-38.));
#538 = LINE('',#539,#540);
#539 = CARTESIAN_POINT('',(26.,-46.35957911384,-32.80306276973));
#540 = VECTOR('',#541,1.);
#541 = DIRECTION('',(3.253732290059E-16,-0.816496580928,0.57735026919));
#542 = ORIENTED_EDGE('',*,*,#543,.F.);
#543 = EDGE_CURVE('',#434,#536,#544,.T.);
#544 = LINE('',#545,#546);
#545 = CARTESIAN_POINT('',(41.15,-54.16,-38.));
#546 = VECTOR('',#547,1.);
#547 = DIRECTION('',(-0.707106781187,0.707106781187,0.));
#548 = ORIENTED_EDGE('',*,*,#441,.F.);
#549 = ORIENTED_EDGE('',*,*,#63,.T.);
#550 = PLANE('',#551);
#551 = AXIS2_PLACEMENT_3D('',#552,#553,#554);
#552 = CARTESIAN_POINT('',(42.21066017178,-53.09933982822,-39.5));
#553 = DIRECTION('',(0.5,0.5,0.707106781187));
#554 = DIRECTION('',(-0.707106781187,0.707106781187,-8.326672684689E-17)
  );
#555 = ADVANCED_FACE('',(#556),#581,.T.);
#556 = FACE_BOUND('',#557,.F.);
#557 = EDGE_LOOP('',(#558,#568,#574,#575));
#558 = ORIENTED_EDGE('',*,*,#559,.F.);
#559 = EDGE_CURVE('',#560,#562,#564,.T.);
#560 = VERTEX_POINT('',#561);
#561 = CARTESIAN_POINT('',(-2.76,59.681167371827,-38.));
#562 = VERTEX_POINT('',#563);
#563 = CARTESIAN_POINT('',(4.131193801392,54.126942011326,-38.));
#564 = LINE('',#565,#566);
#565 = CARTESIAN_POINT('',(-2.76,59.681167371827,-38.));
#566 = VECTOR('',#567,1.);
#567 = DIRECTION('',(0.778589071115,-0.627534109304,0.));
#568 = ORIENTED_EDGE('',*,*,#569,.F.);
#569 = EDGE_CURVE('',#88,#560,#570,.T.);
#570 = LINE('',#571,#572);
#571 = CARTESIAN_POINT('',(-2.76,56.603351475839,-40.39635381952));
#572 = VECTOR('',#573,1.);
#573 = DIRECTION('',(0.,0.789041892765,0.614339394359));
#574 = ORIENTED_EDGE('',*,*,#95,.T.);
#575 = ORIENTED_EDGE('',*,*,#576,.F.);
#576 = EDGE_CURVE('',#562,#96,#577,.T.);
#577 = LINE('',#578,#579);
#578 = CARTESIAN_POINT('',(3.341913114362,61.474107947368,
    -32.77487745145));
#579 = VECTOR('',#580,1.);
#580 = DIRECTION('',(8.721162286419E-02,-0.811825596729,-0.57735026919)
  );
#581 = PLANE('',#582);
#582 = AXIS2_PLACEMENT_3D('',#583,#584,#585);
#583 = CARTESIAN_POINT('',(-3.701301163956,58.513283765154,-39.5));
#584 = DIRECTION('',(0.443733624115,0.550545611943,-0.707106781187));
#585 = DIRECTION('',(-0.778589071115,0.627534109304,1.665334536938E-16)
  );
#586 = ADVANCED_FACE('',(#587),#605,.T.);
#587 = FACE_BOUND('',#588,.T.);
#588 = EDGE_LOOP('',(#589,#597,#603,#604));
#589 = ORIENTED_EDGE('',*,*,#590,.T.);
#590 = EDGE_CURVE('',#528,#591,#593,.T.);
#591 = VERTEX_POINT('',#592);
#592 = CARTESIAN_POINT('',(26.,-39.,-38.));
#593 = LINE('',#594,#595);
#594 = CARTESIAN_POINT('',(26.,-37.23875,-39.76125));
#595 = VECTOR('',#596,1.);
#596 = DIRECTION('',(0.,-0.707106781187,0.707106781187));
#597 = ORIENTED_EDGE('',*,*,#598,.T.);
#598 = EDGE_CURVE('',#591,#72,#599,.T.);
#599 = LINE('',#600,#601);
#600 = CARTESIAN_POINT('',(27.705999715997,-35.19332193705,
    -41.80667806294));
#601 = VECTOR('',#602,1.);
#602 = DIRECTION('',(0.302091055945,0.674070097957,-0.674070097957));
#603 = ORIENTED_EDGE('',*,*,#71,.T.);
#604 = ORIENTED_EDGE('',*,*,#527,.T.);
#605 = PLANE('',#606);
#606 = AXIS2_PLACEMENT_3D('',#607,#608,#609);
#607 = CARTESIAN_POINT('',(50.,-36.,-41.));
#608 = DIRECTION('',(-2.817814820305E-16,0.707106781187,0.707106781187)
  );
#609 = DIRECTION('',(0.,-0.707106781187,0.707106781187));
#610 = ADVANCED_FACE('',(#611),#654,.F.);
#611 = FACE_BOUND('',#612,.T.);
#612 = EDGE_LOOP('',(#613,#623,#632,#640,#646,#647,#648));
#613 = ORIENTED_EDGE('',*,*,#614,.F.);
#614 = EDGE_CURVE('',#615,#617,#619,.T.);
#615 = VERTEX_POINT('',#616);
#616 = CARTESIAN_POINT('',(-2.76,-6.743160444168,-38.30922563753));
#617 = VERTEX_POINT('',#618);
#618 = CARTESIAN_POINT('',(-2.76,-6.743160444168,-38.));
#619 = LINE('',#620,#621);
#620 = CARTESIAN_POINT('',(-2.76,-6.743160444168,-39.));
#621 = VECTOR('',#622,1.);
#622 = DIRECTION('',(0.,0.,1.));
#623 = ORIENTED_EDGE('',*,*,#624,.T.);
#624 = EDGE_CURVE('',#615,#625,#627,.T.);
#625 = VERTEX_POINT('',#626);
#626 = CARTESIAN_POINT('',(-2.76,-3.873495733,-41.01));
#627 = ELLIPSE('',#628,2.25622652293,1.25);
#628 = AXIS2_PLACEMENT_3D('',#629,#630,#631);
#629 = CARTESIAN_POINT('',(-2.76,-4.864847870933,-39.24223304703));
#630 = DIRECTION('',(1.,0.,-0.));
#631 = DIRECTION('',(0.,-0.746405927603,0.665490940013));
#632 = ORIENTED_EDGE('',*,*,#633,.F.);
#633 = EDGE_CURVE('',#634,#625,#636,.T.);
#634 = VERTEX_POINT('',#635);
#635 = CARTESIAN_POINT('',(-2.76,59.681167371827,-41.01));
#636 = LINE('',#637,#638);
#637 = CARTESIAN_POINT('',(-2.76,59.681167371827,-41.01));
#638 = VECTOR('',#639,1.);
#639 = DIRECTION('',(-0.,-1.,-0.));
#640 = ORIENTED_EDGE('',*,*,#641,.T.);
#641 = EDGE_CURVE('',#634,#560,#642,.T.);
#642 = LINE('',#643,#644);
#643 = CARTESIAN_POINT('',(-2.76,59.681167371827,-39.));
#644 = VECTOR('',#645,1.);
#645 = DIRECTION('',(0.,0.,1.));
#646 = ORIENTED_EDGE('',*,*,#569,.F.);
#647 = ORIENTED_EDGE('',*,*,#87,.T.);
#648 = ORIENTED_EDGE('',*,*,#649,.F.);
#649 = EDGE_CURVE('',#617,#80,#650,.T.);
#650 = LINE('',#651,#652);
#651 = CARTESIAN_POINT('',(-2.76,10.177764400713,-49.2607221809));
#652 = VECTOR('',#653,1.);
#653 = DIRECTION('',(0.,0.832501769723,-0.554022385295));
#654 = PLANE('',#655);
#655 = AXIS2_PLACEMENT_3D('',#656,#657,#658);
#656 = CARTESIAN_POINT('',(-2.76,63.03,-52.));
#657 = DIRECTION('',(-1.,-0.,-0.));
#658 = DIRECTION('',(0.,1.,0.));
#659 = ADVANCED_FACE('',(#660),#671,.T.);
#660 = FACE_BOUND('',#661,.T.);
#661 = EDGE_LOOP('',(#662,#663,#669,#670));
#662 = ORIENTED_EDGE('',*,*,#598,.F.);
#663 = ORIENTED_EDGE('',*,*,#664,.T.);
#664 = EDGE_CURVE('',#591,#617,#665,.T.);
#665 = LINE('',#666,#667);
#666 = CARTESIAN_POINT('',(26.,-39.,-38.));
#667 = VECTOR('',#668,1.);
#668 = DIRECTION('',(-0.665490940013,0.746405927603,0.));
#669 = ORIENTED_EDGE('',*,*,#649,.T.);
#670 = ORIENTED_EDGE('',*,*,#79,.F.);
#671 = PLANE('',#672);
#672 = AXIS2_PLACEMENT_3D('',#673,#674,#675);
#673 = CARTESIAN_POINT('',(27.119608891404,-38.00176358998,-39.5));
#674 = DIRECTION('',(-0.527788692926,-0.470573156501,-0.707106781187));
#675 = DIRECTION('',(-0.665490940013,0.746405927603,-2.775557561563E-17)
  );
#676 = ADVANCED_FACE('',(#677),#711,.T.);
#677 = FACE_BOUND('',#678,.T.);
#678 = EDGE_LOOP('',(#679,#687,#688,#689,#697,#705));
#679 = ORIENTED_EDGE('',*,*,#680,.T.);
#680 = EDGE_CURVE('',#681,#191,#683,.T.);
#681 = VERTEX_POINT('',#682);
#682 = CARTESIAN_POINT('',(76.25,-6.714670492056,-10.));
#683 = LINE('',#684,#685);
#684 = CARTESIAN_POINT('',(76.25,-6.714670492056,-5.));
#685 = VECTOR('',#686,1.);
#686 = DIRECTION('',(-0.,-0.,-1.));
#687 = ORIENTED_EDGE('',*,*,#198,.F.);
#688 = ORIENTED_EDGE('',*,*,#158,.T.);
#689 = ORIENTED_EDGE('',*,*,#690,.F.);
#690 = EDGE_CURVE('',#691,#151,#693,.T.);
#691 = VERTEX_POINT('',#692);
#692 = CARTESIAN_POINT('',(62.05,7.485329507944,-5.));
#693 = LINE('',#694,#695);
#694 = CARTESIAN_POINT('',(62.05,7.485329507944,-5.));
#695 = VECTOR('',#696,1.);
#696 = DIRECTION('',(-0.,-0.,-1.));
#697 = ORIENTED_EDGE('',*,*,#698,.F.);
#698 = EDGE_CURVE('',#699,#691,#701,.T.);
#699 = VERTEX_POINT('',#700);
#700 = CARTESIAN_POINT('',(71.25,-1.714670492056,-5.));
#701 = LINE('',#702,#703);
#702 = CARTESIAN_POINT('',(75.074416188493,-5.539086680549,-5.));
#703 = VECTOR('',#704,1.);
#704 = DIRECTION('',(-0.707106781187,0.707106781187,0.));
#705 = ORIENTED_EDGE('',*,*,#706,.F.);
#706 = EDGE_CURVE('',#681,#699,#707,.T.);
#707 = LINE('',#708,#709);
#708 = CARTESIAN_POINT('',(72.216666666667,-2.681337158723,
    -5.966666666667));
#709 = VECTOR('',#710,1.);
#710 = DIRECTION('',(-0.57735026919,0.57735026919,0.57735026919));
#711 = PLANE('',#712);
#712 = AXIS2_PLACEMENT_3D('',#713,#714,#715);
#713 = CARTESIAN_POINT('',(69.15,0.385329507944,-5.));
#714 = DIRECTION('',(0.707106781187,0.707106781187,-1.245331777422E-16)
  );
#715 = DIRECTION('',(-8.805825446424E-17,-8.805825446424E-17,-1.));
#716 = ADVANCED_FACE('',(#717),#727,.F.);
#717 = FACE_BOUND('',#718,.F.);
#718 = EDGE_LOOP('',(#719,#720,#721));
#719 = ORIENTED_EDGE('',*,*,#212,.F.);
#720 = ORIENTED_EDGE('',*,*,#150,.T.);
#721 = ORIENTED_EDGE('',*,*,#722,.F.);
#722 = EDGE_CURVE('',#213,#151,#723,.T.);
#723 = LINE('',#724,#725);
#724 = CARTESIAN_POINT('',(62.,7.485329507944,-38.));
#725 = VECTOR('',#726,1.);
#726 = DIRECTION('',(1.,3.402359125165E-16,0.));
#727 = PLANE('',#728);
#728 = AXIS2_PLACEMENT_3D('',#729,#730,#731);
#729 = CARTESIAN_POINT('',(62.,3.632205811123,-41.));
#730 = DIRECTION('',(2.090203244346E-16,-0.614339394359,0.789041892765)
  );
#731 = DIRECTION('',(1.232595164408E-32,0.789041892765,0.614339394359));
#732 = ADVANCED_FACE('',(#733),#744,.T.);
#733 = FACE_BOUND('',#734,.T.);
#734 = EDGE_LOOP('',(#735,#736,#737,#738));
#735 = ORIENTED_EDGE('',*,*,#269,.F.);
#736 = ORIENTED_EDGE('',*,*,#190,.F.);
#737 = ORIENTED_EDGE('',*,*,#680,.F.);
#738 = ORIENTED_EDGE('',*,*,#739,.T.);
#739 = EDGE_CURVE('',#681,#262,#740,.T.);
#740 = LINE('',#741,#742);
#741 = CARTESIAN_POINT('',(76.25,-6.714670492056,-10.));
#742 = VECTOR('',#743,1.);
#743 = DIRECTION('',(3.984991935131E-16,-1.,0.));
#744 = PLANE('',#745);
#745 = AXIS2_PLACEMENT_3D('',#746,#747,#748);
#746 = CARTESIAN_POINT('',(76.25,-23.66166698829,-22.80197750871));
#747 = DIRECTION('',(1.,4.025764169638E-16,0.));
#748 = DIRECTION('',(-4.025764169638E-16,1.,0.));
#749 = ADVANCED_FACE('',(#750),#775,.T.);
#750 = FACE_BOUND('',#751,.F.);
#751 = EDGE_LOOP('',(#752,#753,#761,#769));
#752 = ORIENTED_EDGE('',*,*,#220,.T.);
#753 = ORIENTED_EDGE('',*,*,#754,.F.);
#754 = EDGE_CURVE('',#755,#213,#757,.T.);
#755 = VERTEX_POINT('',#756);
#756 = CARTESIAN_POINT('',(62.,7.485329507944,-5.));
#757 = LINE('',#758,#759);
#758 = CARTESIAN_POINT('',(62.,7.485329507944,-42.));
#759 = VECTOR('',#760,1.);
#760 = DIRECTION('',(-0.,-0.,-1.));
#761 = ORIENTED_EDGE('',*,*,#762,.T.);
#762 = EDGE_CURVE('',#755,#763,#765,.T.);
#763 = VERTEX_POINT('',#764);
#764 = CARTESIAN_POINT('',(36.831934788233,27.77050942056,-5.));
#765 = LINE('',#766,#767);
#766 = CARTESIAN_POINT('',(62.,7.485329507944,-5.));
#767 = VECTOR('',#768,1.);
#768 = DIRECTION('',(-0.778589071115,0.627534109304,0.));
#769 = ORIENTED_EDGE('',*,*,#770,.F.);
#770 = EDGE_CURVE('',#221,#763,#771,.T.);
#771 = LINE('',#772,#773);
#772 = CARTESIAN_POINT('',(36.831934788233,27.77050942056,-38.));
#773 = VECTOR('',#774,1.);
#774 = DIRECTION('',(8.712890321722E-17,1.965610493926E-16,1.));
#775 = PLANE('',#776);
#776 = AXIS2_PLACEMENT_3D('',#777,#778,#779);
#777 = CARTESIAN_POINT('',(48.248083787444,18.569220628208,-26.));
#778 = DIRECTION('',(0.627534109304,0.778589071115,0.));
#779 = DIRECTION('',(-0.778589071115,0.627534109304,0.));
#780 = ADVANCED_FACE('',(#781),#792,.T.);
#781 = FACE_BOUND('',#782,.T.);
#782 = EDGE_LOOP('',(#783,#784,#785,#791));
#783 = ORIENTED_EDGE('',*,*,#228,.F.);
#784 = ORIENTED_EDGE('',*,*,#310,.T.);
#785 = ORIENTED_EDGE('',*,*,#786,.T.);
#786 = EDGE_CURVE('',#303,#763,#787,.T.);
#787 = LINE('',#788,#789);
#788 = CARTESIAN_POINT('',(50.266322227377,29.213719311299,
    -14.55420380392));
#789 = VECTOR('',#790,1.);
#790 = DIRECTION('',(0.811825596729,8.721162286419E-02,-0.57735026919));
#791 = ORIENTED_EDGE('',*,*,#770,.F.);
#792 = PLANE('',#793);
#793 = AXIS2_PLACEMENT_3D('',#794,#795,#796);
#794 = CARTESIAN_POINT('',(34.722750017604,27.543926977843,-38.));
#795 = DIRECTION('',(-0.106811987829,0.994279236058,0.));
#796 = DIRECTION('',(1.070098354606E-16,1.149569741401E-17,1.));
#797 = ADVANCED_FACE('',(#798),#822,.T.);
#798 = FACE_BOUND('',#799,.T.);
#799 = EDGE_LOOP('',(#800,#801,#807,#813,#814,#815,#816));
#800 = ORIENTED_EDGE('',*,*,#698,.T.);
#801 = ORIENTED_EDGE('',*,*,#802,.F.);
#802 = EDGE_CURVE('',#755,#691,#803,.T.);
#803 = LINE('',#804,#805);
#804 = CARTESIAN_POINT('',(62.,7.485329507944,-5.));
#805 = VECTOR('',#806,1.);
#806 = DIRECTION('',(1.,3.402359125165E-16,0.));
#807 = ORIENTED_EDGE('',*,*,#808,.T.);
#808 = EDGE_CURVE('',#755,#450,#809,.T.);
#809 = LINE('',#810,#811);
#810 = CARTESIAN_POINT('',(62.,-21.16,-5.));
#811 = VECTOR('',#812,1.);
#812 = DIRECTION('',(3.984991935131E-16,-1.,0.));
#813 = ORIENTED_EDGE('',*,*,#449,.T.);
#814 = ORIENTED_EDGE('',*,*,#348,.F.);
#815 = ORIENTED_EDGE('',*,*,#253,.F.);
#816 = ORIENTED_EDGE('',*,*,#817,.F.);
#817 = EDGE_CURVE('',#699,#254,#818,.T.);
#818 = LINE('',#819,#820);
#819 = CARTESIAN_POINT('',(71.25,-6.714670492056,-5.));
#820 = VECTOR('',#821,1.);
#821 = DIRECTION('',(3.984991935131E-16,-1.,0.));
#822 = PLANE('',#823);
#823 = AXIS2_PLACEMENT_3D('',#824,#825,#826);
#824 = CARTESIAN_POINT('',(69.125,-23.33733524602,-5.));
#825 = DIRECTION('',(0.,0.,1.));
#826 = DIRECTION('',(1.,0.,0.));
#827 = ADVANCED_FACE('',(#828),#834,.T.);
#828 = FACE_BOUND('',#829,.F.);
#829 = EDGE_LOOP('',(#830,#831,#832,#833));
#830 = ORIENTED_EDGE('',*,*,#706,.F.);
#831 = ORIENTED_EDGE('',*,*,#739,.T.);
#832 = ORIENTED_EDGE('',*,*,#261,.T.);
#833 = ORIENTED_EDGE('',*,*,#817,.F.);
#834 = PLANE('',#835);
#835 = AXIS2_PLACEMENT_3D('',#836,#837,#838);
#836 = CARTESIAN_POINT('',(73.75,-6.714670492056,-7.5));
#837 = DIRECTION('',(0.707106781187,0.,0.707106781187));
#838 = DIRECTION('',(-1.992495967566E-16,1.,1.992495967566E-16));
#839 = ADVANCED_FACE('',(#840),#871,.T.);
#840 = FACE_BOUND('',#841,.F.);
#841 = EDGE_LOOP('',(#842,#852,#858,#864,#865));
#842 = ORIENTED_EDGE('',*,*,#843,.T.);
#843 = EDGE_CURVE('',#844,#846,#848,.T.);
#844 = VERTEX_POINT('',#845);
#845 = CARTESIAN_POINT('',(-0.581845375846,35.770137776552,0.));
#846 = VERTEX_POINT('',#847);
#847 = CARTESIAN_POINT('',(-1.314461940631,42.589835201585,-4.85));
#848 = LINE('',#849,#850);
#849 = CARTESIAN_POINT('',(-0.171479396258,31.95016980308,2.716666666667
    ));
#850 = VECTOR('',#851,1.);
#851 = DIRECTION('',(-8.721162286419E-02,0.811825596729,-0.57735026919)
  );
#852 = ORIENTED_EDGE('',*,*,#853,.T.);
#853 = EDGE_CURVE('',#846,#488,#854,.T.);
#854 = LINE('',#855,#856);
#855 = CARTESIAN_POINT('',(-8.292625112163E-02,44.117816253648,-6.8125)
  );
#856 = VECTOR('',#857,1.);
#857 = DIRECTION('',(0.443733624115,0.550545611943,-0.707106781187));
#858 = ORIENTED_EDGE('',*,*,#859,.F.);
#859 = EDGE_CURVE('',#287,#488,#860,.T.);
#860 = LINE('',#861,#862);
#861 = CARTESIAN_POINT('',(26.808874735914,20.11539562731,-5.));
#862 = VECTOR('',#863,1.);
#863 = DIRECTION('',(-0.778589071115,0.627534109304,-5.551115123126E-17)
  );
#864 = ORIENTED_EDGE('',*,*,#284,.F.);
#865 = ORIENTED_EDGE('',*,*,#866,.T.);
#866 = EDGE_CURVE('',#285,#844,#867,.T.);
#867 = LINE('',#868,#869);
#868 = CARTESIAN_POINT('',(23.671204189394,16.222450271734,
    -6.712370512387E-17));
#869 = VECTOR('',#870,1.);
#870 = DIRECTION('',(-0.778589071115,0.627534109304,5.551115123126E-17)
  );
#871 = PLANE('',#872);
#872 = AXIS2_PLACEMENT_3D('',#873,#874,#875);
#873 = CARTESIAN_POINT('',(25.240039462654,18.168922949522,-2.5));
#874 = DIRECTION('',(0.443733624115,0.550545611943,0.707106781187));
#875 = DIRECTION('',(0.778589071115,-0.627534109304,1.665334536938E-16)
  );
#876 = ADVANCED_FACE('',(#877,#883,#894),#905,.T.);
#877 = FACE_BOUND('',#878,.F.);
#878 = EDGE_LOOP('',(#879,#880,#881,#882));
#879 = ORIENTED_EDGE('',*,*,#325,.F.);
#880 = ORIENTED_EDGE('',*,*,#859,.T.);
#881 = ORIENTED_EDGE('',*,*,#487,.T.);
#882 = ORIENTED_EDGE('',*,*,#417,.T.);
#883 = FACE_BOUND('',#884,.F.);
#884 = EDGE_LOOP('',(#885));
#885 = ORIENTED_EDGE('',*,*,#886,.F.);
#886 = EDGE_CURVE('',#887,#887,#889,.T.);
#887 = VERTEX_POINT('',#888);
#888 = CARTESIAN_POINT('',(2.361177902895,39.819966659454,-14.));
#889 = CIRCLE('',#890,3.3);
#890 = AXIS2_PLACEMENT_3D('',#891,#892,#893);
#891 = CARTESIAN_POINT('',(4.930521837575,37.749104098751,-14.));
#892 = DIRECTION('',(-0.627534109304,-0.778589071115,2.077166435391E-16)
  );
#893 = DIRECTION('',(-0.778589071115,0.627534109304,-5.551115123126E-17)
  );
#894 = FACE_BOUND('',#895,.F.);
#895 = EDGE_LOOP('',(#896));
#896 = ORIENTED_EDGE('',*,*,#897,.F.);
#897 = EDGE_CURVE('',#898,#898,#900,.T.);
#898 = VERTEX_POINT('',#899);
#899 = CARTESIAN_POINT('',(18.010818232312,27.206531062445,-14.));
#900 = CIRCLE('',#901,3.3);
#901 = AXIS2_PLACEMENT_3D('',#902,#903,#904);
#902 = CARTESIAN_POINT('',(20.580162166992,25.135668501742,-14.));
#903 = DIRECTION('',(-0.627534109304,-0.778589071115,2.077166435391E-16)
  );
#904 = DIRECTION('',(-0.778589071115,0.627534109304,-5.551115123126E-17)
  );
#905 = PLANE('',#906);
#906 = AXIS2_PLACEMENT_3D('',#907,#908,#909);
#907 = CARTESIAN_POINT('',(12.79427145584,31.411009594781,-26.));
#908 = DIRECTION('',(0.627534109304,0.778589071115,-1.374890574612E-16)
  );
#909 = DIRECTION('',(-0.778589071115,0.627534109304,0.));
#910 = ADVANCED_FACE('',(#911),#930,.T.);
#911 = FACE_BOUND('',#912,.F.);
#912 = EDGE_LOOP('',(#913,#914,#922,#928,#929));
#913 = ORIENTED_EDGE('',*,*,#762,.F.);
#914 = ORIENTED_EDGE('',*,*,#915,.F.);
#915 = EDGE_CURVE('',#916,#755,#918,.T.);
#916 = VERTEX_POINT('',#917);
#917 = CARTESIAN_POINT('',(57.,5.093400925113,0.));
#918 = LINE('',#919,#920);
#919 = CARTESIAN_POINT('',(58.211836126842,5.673126019013,
    -1.211836126842));
#920 = VECTOR('',#921,1.);
#921 = DIRECTION('',(0.669821829644,0.320433195946,-0.669821829644));
#922 = ORIENTED_EDGE('',*,*,#923,.T.);
#923 = EDGE_CURVE('',#916,#295,#924,.T.);
#924 = LINE('',#925,#926);
#925 = CARTESIAN_POINT('',(58.86232945348,3.592384152368,
    -6.712370512387E-17));
#926 = VECTOR('',#927,1.);
#927 = DIRECTION('',(-0.778589071115,0.627534109304,0.));
#928 = ORIENTED_EDGE('',*,*,#302,.T.);
#929 = ORIENTED_EDGE('',*,*,#786,.T.);
#930 = PLANE('',#931);
#931 = AXIS2_PLACEMENT_3D('',#932,#933,#934);
#932 = CARTESIAN_POINT('',(60.43116472674,5.538856830156,-2.5));
#933 = DIRECTION('',(0.443733624115,0.550545611943,0.707106781187));
#934 = DIRECTION('',(0.778589071115,-0.627534109304,-8.326672684689E-17)
  );
#935 = ADVANCED_FACE('',(#936),#978,.T.);
#936 = FACE_BOUND('',#937,.T.);
#937 = EDGE_LOOP('',(#938,#948,#954,#955,#961,#962,#963,#964,#972));
#938 = ORIENTED_EDGE('',*,*,#939,.T.);
#939 = EDGE_CURVE('',#940,#942,#944,.T.);
#940 = VERTEX_POINT('',#941);
#941 = CARTESIAN_POINT('',(27.79263881819,-35.,0.));
#942 = VERTEX_POINT('',#943);
#943 = CARTESIAN_POINT('',(27.646854249492,-35.,9.769962616701E-15));
#944 = LINE('',#945,#946);
#945 = CARTESIAN_POINT('',(50.,-35.,0.));
#946 = VECTOR('',#947,1.);
#947 = DIRECTION('',(-1.,-3.984991935131E-16,-0.));
#948 = ORIENTED_EDGE('',*,*,#949,.F.);
#949 = EDGE_CURVE('',#466,#942,#950,.T.);
#950 = LINE('',#951,#952);
#951 = CARTESIAN_POINT('',(43.978427124746,-51.33157287525,
    -1.299879451441E-16));
#952 = VECTOR('',#953,1.);
#953 = DIRECTION('',(-0.707106781187,0.707106781187,0.));
#954 = ORIENTED_EDGE('',*,*,#465,.F.);
#955 = ORIENTED_EDGE('',*,*,#956,.F.);
#956 = EDGE_CURVE('',#916,#458,#957,.T.);
#957 = LINE('',#958,#959);
#958 = CARTESIAN_POINT('',(57.,-21.16,0.));
#959 = VECTOR('',#960,1.);
#960 = DIRECTION('',(3.984991935131E-16,-1.,0.));
#961 = ORIENTED_EDGE('',*,*,#923,.T.);
#962 = ORIENTED_EDGE('',*,*,#294,.T.);
#963 = ORIENTED_EDGE('',*,*,#866,.T.);
#964 = ORIENTED_EDGE('',*,*,#965,.T.);
#965 = EDGE_CURVE('',#844,#966,#968,.T.);
#966 = VERTEX_POINT('',#967);
#967 = CARTESIAN_POINT('',(-17.06819614121,15.315325299939,0.));
#968 = LINE('',#969,#970);
#969 = CARTESIAN_POINT('',(2.555825170674,39.663083132128,
    -6.712370512387E-17));
#970 = VECTOR('',#971,1.);
#971 = DIRECTION('',(-0.627534109304,-0.778589071115,-1.110223024625E-16
    ));
#972 = ORIENTED_EDGE('',*,*,#973,.T.);
#973 = EDGE_CURVE('',#966,#940,#974,.T.);
#974 = LINE('',#975,#976);
#975 = CARTESIAN_POINT('',(-16.6269584622,14.820438894593,
    -6.712370512387E-17));
#976 = VECTOR('',#977,1.);
#977 = DIRECTION('',(0.665490940013,-0.746405927603,0.));
#978 = PLANE('',#979);
#979 = AXIS2_PLACEMENT_3D('',#980,#981,#982);
#980 = CARTESIAN_POINT('',(26.639470192553,-8.772376733924,
    -1.299879451441E-16));
#981 = DIRECTION('',(0.,0.,1.));
#982 = DIRECTION('',(1.,0.,0.));
#983 = ADVANCED_FACE('',(#984),#1003,.F.);
#984 = FACE_BOUND('',#985,.F.);
#985 = EDGE_LOOP('',(#986,#995,#1001,#1002));
#986 = ORIENTED_EDGE('',*,*,#987,.F.);
#987 = EDGE_CURVE('',#988,#988,#990,.T.);
#988 = VERTEX_POINT('',#989);
#989 = CARTESIAN_POINT('',(52.,-51.75,-7.95));
#990 = CIRCLE('',#991,1.75);
#991 = AXIS2_PLACEMENT_3D('',#992,#993,#994);
#992 = CARTESIAN_POINT('',(52.,-50.,-7.95));
#993 = DIRECTION('',(-1.,0.,0.));
#994 = DIRECTION('',(0.,-1.,0.));
#995 = ORIENTED_EDGE('',*,*,#996,.T.);
#996 = EDGE_CURVE('',#988,#358,#997,.T.);
#997 = LINE('',#998,#999);
#998 = CARTESIAN_POINT('',(45.,-51.75,-7.95));
#999 = VECTOR('',#1000,1.);
#1000 = DIRECTION('',(1.,0.,0.));
#1001 = ORIENTED_EDGE('',*,*,#357,.T.);
#1002 = ORIENTED_EDGE('',*,*,#996,.F.);
#1003 = CYLINDRICAL_SURFACE('',#1004,1.75);
#1004 = AXIS2_PLACEMENT_3D('',#1005,#1006,#1007);
#1005 = CARTESIAN_POINT('',(45.,-50.,-7.95));
#1006 = DIRECTION('',(-1.,0.,0.));
#1007 = DIRECTION('',(0.,-1.,0.));
#1008 = ADVANCED_FACE('',(#1009),#1028,.F.);
#1009 = FACE_BOUND('',#1010,.F.);
#1010 = EDGE_LOOP('',(#1011,#1020,#1026,#1027));
#1011 = ORIENTED_EDGE('',*,*,#1012,.F.);
#1012 = EDGE_CURVE('',#1013,#1013,#1015,.T.);
#1013 = VERTEX_POINT('',#1014);
#1014 = CARTESIAN_POINT('',(52.,-26.75,-7.95));
#1015 = CIRCLE('',#1016,1.75);
#1016 = AXIS2_PLACEMENT_3D('',#1017,#1018,#1019);
#1017 = CARTESIAN_POINT('',(52.,-25.,-7.95));
#1018 = DIRECTION('',(-1.,0.,0.));
#1019 = DIRECTION('',(0.,-1.,0.));
#1020 = ORIENTED_EDGE('',*,*,#1021,.T.);
#1021 = EDGE_CURVE('',#1013,#369,#1022,.T.);
#1022 = LINE('',#1023,#1024);
#1023 = CARTESIAN_POINT('',(45.,-26.75,-7.95));
#1024 = VECTOR('',#1025,1.);
#1025 = DIRECTION('',(1.,0.,0.));
#1026 = ORIENTED_EDGE('',*,*,#368,.T.);
#1027 = ORIENTED_EDGE('',*,*,#1021,.F.);
#1028 = CYLINDRICAL_SURFACE('',#1029,1.75);
#1029 = AXIS2_PLACEMENT_3D('',#1030,#1031,#1032);
#1030 = CARTESIAN_POINT('',(45.,-25.,-7.95));
#1031 = DIRECTION('',(-1.,0.,0.));
#1032 = DIRECTION('',(0.,-1.,0.));
#1033 = ADVANCED_FACE('',(#1034),#1053,.F.);
#1034 = FACE_BOUND('',#1035,.F.);
#1035 = EDGE_LOOP('',(#1036,#1045,#1051,#1052));
#1036 = ORIENTED_EDGE('',*,*,#1037,.F.);
#1037 = EDGE_CURVE('',#1038,#1038,#1040,.T.);
#1038 = VERTEX_POINT('',#1039);
#1039 = CARTESIAN_POINT('',(52.,-51.75,-32.95));
#1040 = CIRCLE('',#1041,1.75);
#1041 = AXIS2_PLACEMENT_3D('',#1042,#1043,#1044);
#1042 = CARTESIAN_POINT('',(52.,-50.,-32.95));
#1043 = DIRECTION('',(-1.,0.,0.));
#1044 = DIRECTION('',(0.,-1.,0.));
#1045 = ORIENTED_EDGE('',*,*,#1046,.T.);
#1046 = EDGE_CURVE('',#1038,#380,#1047,.T.);
#1047 = LINE('',#1048,#1049);
#1048 = CARTESIAN_POINT('',(45.,-51.75,-32.95));
#1049 = VECTOR('',#1050,1.);
#1050 = DIRECTION('',(1.,0.,0.));
#1051 = ORIENTED_EDGE('',*,*,#379,.T.);
#1052 = ORIENTED_EDGE('',*,*,#1046,.F.);
#1053 = CYLINDRICAL_SURFACE('',#1054,1.75);
#1054 = AXIS2_PLACEMENT_3D('',#1055,#1056,#1057);
#1055 = CARTESIAN_POINT('',(45.,-50.,-32.95));
#1056 = DIRECTION('',(-1.,0.,0.));
#1057 = DIRECTION('',(0.,-1.,0.));
#1058 = ADVANCED_FACE('',(#1059),#1078,.F.);
#1059 = FACE_BOUND('',#1060,.F.);
#1060 = EDGE_LOOP('',(#1061,#1070,#1076,#1077));
#1061 = ORIENTED_EDGE('',*,*,#1062,.F.);
#1062 = EDGE_CURVE('',#1063,#1063,#1065,.T.);
#1063 = VERTEX_POINT('',#1064);
#1064 = CARTESIAN_POINT('',(52.,-26.75,-32.95));
#1065 = CIRCLE('',#1066,1.75);
#1066 = AXIS2_PLACEMENT_3D('',#1067,#1068,#1069);
#1067 = CARTESIAN_POINT('',(52.,-25.,-32.95));
#1068 = DIRECTION('',(-1.,0.,0.));
#1069 = DIRECTION('',(0.,-1.,0.));
#1070 = ORIENTED_EDGE('',*,*,#1071,.T.);
#1071 = EDGE_CURVE('',#1063,#391,#1072,.T.);
#1072 = LINE('',#1073,#1074);
#1073 = CARTESIAN_POINT('',(45.,-26.75,-32.95));
#1074 = VECTOR('',#1075,1.);
#1075 = DIRECTION('',(1.,0.,0.));
#1076 = ORIENTED_EDGE('',*,*,#390,.T.);
#1077 = ORIENTED_EDGE('',*,*,#1071,.F.);
#1078 = CYLINDRICAL_SURFACE('',#1079,1.75);
#1079 = AXIS2_PLACEMENT_3D('',#1080,#1081,#1082);
#1080 = CARTESIAN_POINT('',(45.,-25.,-32.95));
#1081 = DIRECTION('',(-1.,0.,0.));
#1082 = DIRECTION('',(0.,-1.,0.));
#1083 = ADVANCED_FACE('',(#1084,#1102,#1113),#1124,.F.);
#1084 = FACE_BOUND('',#1085,.F.);
#1085 = EDGE_LOOP('',(#1086,#1087,#1088,#1096));
#1086 = ORIENTED_EDGE('',*,*,#431,.T.);
#1087 = ORIENTED_EDGE('',*,*,#543,.T.);
#1088 = ORIENTED_EDGE('',*,*,#1089,.F.);
#1089 = EDGE_CURVE('',#1090,#536,#1092,.T.);
#1090 = VERTEX_POINT('',#1091);
#1091 = CARTESIAN_POINT('',(26.,-39.01,-4.));
#1092 = LINE('',#1093,#1094);
#1093 = CARTESIAN_POINT('',(26.,-39.01,0.));
#1094 = VECTOR('',#1095,1.);
#1095 = DIRECTION('',(-0.,-0.,-1.));
#1096 = ORIENTED_EDGE('',*,*,#1097,.F.);
#1097 = EDGE_CURVE('',#432,#1090,#1098,.T.);
#1098 = LINE('',#1099,#1100);
#1099 = CARTESIAN_POINT('',(41.15,-54.16,-4.));
#1100 = VECTOR('',#1101,1.);
#1101 = DIRECTION('',(-0.707106781187,0.707106781187,0.));
#1102 = FACE_BOUND('',#1103,.F.);
#1103 = EDGE_LOOP('',(#1104));
#1104 = ORIENTED_EDGE('',*,*,#1105,.F.);
#1105 = EDGE_CURVE('',#1106,#1106,#1108,.T.);
#1106 = VERTEX_POINT('',#1107);
#1107 = CARTESIAN_POINT('',(33.99,-47.,-7.95));
#1108 = ELLIPSE('',#1109,4.242640687119,3.);
#1109 = AXIS2_PLACEMENT_3D('',#1110,#1111,#1112);
#1110 = CARTESIAN_POINT('',(36.99,-50.,-7.95));
#1111 = DIRECTION('',(0.707106781187,0.707106781187,-1.31251301297E-16)
  );
#1112 = DIRECTION('',(-0.707106781187,0.707106781187,-1.31251301297E-16)
  );
#1113 = FACE_BOUND('',#1114,.F.);
#1114 = EDGE_LOOP('',(#1115));
#1115 = ORIENTED_EDGE('',*,*,#1116,.F.);
#1116 = EDGE_CURVE('',#1117,#1117,#1119,.T.);
#1117 = VERTEX_POINT('',#1118);
#1118 = CARTESIAN_POINT('',(33.99,-47.,-32.95));
#1119 = ELLIPSE('',#1120,4.242640687119,3.);
#1120 = AXIS2_PLACEMENT_3D('',#1121,#1122,#1123);
#1121 = CARTESIAN_POINT('',(36.99,-50.,-32.95));
#1122 = DIRECTION('',(0.707106781187,0.707106781187,-1.31251301297E-16)
  );
#1123 = DIRECTION('',(-0.707106781187,0.707106781187,-1.31251301297E-16)
  );
#1124 = PLANE('',#1125);
#1125 = AXIS2_PLACEMENT_3D('',#1126,#1127,#1128);
#1126 = CARTESIAN_POINT('',(33.575,-46.585,0.));
#1127 = DIRECTION('',(0.707106781187,0.707106781187,-1.31251301297E-16)
  );
#1128 = DIRECTION('',(-9.280868518668E-17,-9.280868518668E-17,-1.));
#1129 = ADVANCED_FACE('',(#1130),#1149,.F.);
#1130 = FACE_BOUND('',#1131,.F.);
#1131 = EDGE_LOOP('',(#1132,#1140,#1146,#1147,#1148));
#1132 = ORIENTED_EDGE('',*,*,#1133,.T.);
#1133 = EDGE_CURVE('',#1090,#1134,#1136,.T.);
#1134 = VERTEX_POINT('',#1135);
#1135 = CARTESIAN_POINT('',(26.,-38.97585786437,-3.975857864376));
#1136 = LINE('',#1137,#1138);
#1137 = CARTESIAN_POINT('',(26.,-36.22438191683,-2.030270563599));
#1138 = VECTOR('',#1139,1.);
#1139 = DIRECTION('',(-3.253732290059E-16,0.816496580928,0.57735026919)
  );
#1140 = ORIENTED_EDGE('',*,*,#1141,.T.);
#1141 = EDGE_CURVE('',#1134,#942,#1142,.T.);
#1142 = LINE('',#1143,#1144);
#1143 = CARTESIAN_POINT('',(27.236008072826,-35.99187041175,
    -0.991870411757));
#1144 = VECTOR('',#1145,1.);
#1145 = DIRECTION('',(0.281084637715,0.678598344546,0.678598344546));
#1146 = ORIENTED_EDGE('',*,*,#949,.F.);
#1147 = ORIENTED_EDGE('',*,*,#473,.F.);
#1148 = ORIENTED_EDGE('',*,*,#1097,.T.);
#1149 = PLANE('',#1150);
#1150 = AXIS2_PLACEMENT_3D('',#1151,#1152,#1153);
#1151 = CARTESIAN_POINT('',(42.564213562373,-52.74578643762,-2.));
#1152 = DIRECTION('',(0.5,0.5,-0.707106781187));
#1153 = DIRECTION('',(-0.707106781187,0.707106781187,3.053113317719E-16)
  );
#1154 = ADVANCED_FACE('',(#1155),#1161,.T.);
#1155 = FACE_BOUND('',#1156,.T.);
#1156 = EDGE_LOOP('',(#1157,#1158,#1159,#1160));
#1157 = ORIENTED_EDGE('',*,*,#956,.T.);
#1158 = ORIENTED_EDGE('',*,*,#457,.T.);
#1159 = ORIENTED_EDGE('',*,*,#808,.F.);
#1160 = ORIENTED_EDGE('',*,*,#915,.F.);
#1161 = PLANE('',#1162);
#1162 = AXIS2_PLACEMENT_3D('',#1163,#1164,#1165);
#1163 = CARTESIAN_POINT('',(59.544152876762,-23.83691644052,
    -2.544152876762));
#1164 = DIRECTION('',(0.707106781187,3.31715736353E-16,0.707106781187));
#1165 = DIRECTION('',(0.707106781187,0.,-0.707106781187));
#1166 = ADVANCED_FACE('',(#1167,#1224,#1235),#1246,.T.);
#1167 = FACE_BOUND('',#1168,.F.);
#1168 = EDGE_LOOP('',(#1169,#1177,#1178,#1186,#1194,#1202,#1210,#1218));
#1169 = ORIENTED_EDGE('',*,*,#1170,.F.);
#1170 = EDGE_CURVE('',#496,#1171,#1173,.T.);
#1171 = VERTEX_POINT('',#1172);
#1172 = CARTESIAN_POINT('',(-26.40152520281,73.598474797185,
    -25.09870737714));
#1173 = LINE('',#1174,#1175);
#1174 = CARTESIAN_POINT('',(3.956824577522,49.129983398953,-5.));
#1175 = VECTOR('',#1176,1.);
#1176 = DIRECTION('',(-0.692057835275,0.557790898123,-0.458176021421));
#1177 = ORIENTED_EDGE('',*,*,#495,.T.);
#1178 = ORIENTED_EDGE('',*,*,#1179,.T.);
#1179 = EDGE_CURVE('',#488,#1180,#1182,.T.);
#1180 = VERTEX_POINT('',#1181);
#1181 = CARTESIAN_POINT('',(-20.34701817538,18.975915161124,-5.));
#1182 = LINE('',#1183,#1184);
#1183 = CARTESIAN_POINT('',(6.466961014738,52.244339683414,-5.));
#1184 = VECTOR('',#1185,1.);
#1185 = DIRECTION('',(-0.627534109304,-0.778589071115,1.110223024625E-16
    ));
#1186 = ORIENTED_EDGE('',*,*,#1187,.F.);
#1187 = EDGE_CURVE('',#1188,#1180,#1190,.T.);
#1188 = VERTEX_POINT('',#1189);
#1189 = CARTESIAN_POINT('',(-37.99308234802,38.767509765041,
    -18.48398629097));
#1190 = LINE('',#1191,#1192);
#1191 = CARTESIAN_POINT('',(-42.2177822486,43.505877875774,
    -21.71222999368));
#1192 = VECTOR('',#1193,1.);
#1193 = DIRECTION('',(0.593196562577,-0.665321500143,0.453282626618));
#1194 = ORIENTED_EDGE('',*,*,#1195,.T.);
#1195 = EDGE_CURVE('',#1188,#1196,#1198,.T.);
#1196 = VERTEX_POINT('',#1197);
#1197 = CARTESIAN_POINT('',(-37.10461011005,40.75,-18.76869014114));
#1198 = LINE('',#1199,#1200);
#1199 = CARTESIAN_POINT('',(-32.23136622363,51.623900167658,
    -20.33028231924));
#1200 = VECTOR('',#1201,1.);
#1201 = DIRECTION('',(0.40550038773,0.904812243526,-0.129939368613));
#1202 = ORIENTED_EDGE('',*,*,#1203,.F.);
#1203 = EDGE_CURVE('',#1204,#1196,#1206,.T.);
#1204 = VERTEX_POINT('',#1205);
#1205 = CARTESIAN_POINT('',(-33.5,40.75,-17.32203548273));
#1206 = LINE('',#1207,#1208);
#1207 = CARTESIAN_POINT('',(-11.16535324439,40.75,-8.358369569774));
#1208 = VECTOR('',#1209,1.);
#1209 = DIRECTION('',(-0.928048991146,-0.,-0.372458145343));
#1210 = ORIENTED_EDGE('',*,*,#1211,.F.);
#1211 = EDGE_CURVE('',#1212,#1204,#1214,.T.);
#1212 = VERTEX_POINT('',#1213);
#1213 = CARTESIAN_POINT('',(-33.5,66.5,-25.65141863457));
#1214 = LINE('',#1215,#1216);
#1215 = CARTESIAN_POINT('',(-33.5,57.115307193784,-22.61574088135));
#1216 = VECTOR('',#1217,1.);
#1217 = DIRECTION('',(0.,-0.951460741095,0.307770138505));
#1218 = ORIENTED_EDGE('',*,*,#1219,.T.);
#1219 = EDGE_CURVE('',#1212,#1171,#1220,.T.);
#1220 = LINE('',#1221,#1222);
#1221 = CARTESIAN_POINT('',(-25.20821025852,74.791789741479,
    -25.00579183934));
#1222 = VECTOR('',#1223,1.);
#1223 = DIRECTION('',(0.706037466489,0.706037466489,5.497446522572E-02)
  );
#1224 = FACE_BOUND('',#1225,.F.);
#1225 = EDGE_LOOP('',(#1226));
#1226 = ORIENTED_EDGE('',*,*,#1227,.F.);
#1227 = EDGE_CURVE('',#1228,#1228,#1230,.T.);
#1228 = VERTEX_POINT('',#1229);
#1229 = CARTESIAN_POINT('',(-19.5,32.25,-8.953846346288));
#1230 = ELLIPSE('',#1231,5.062656098135,4.5);
#1231 = AXIS2_PLACEMENT_3D('',#1232,#1233,#1234);
#1232 = CARTESIAN_POINT('',(-24.,32.25,-10.75985192361));
#1233 = DIRECTION('',(0.356730842925,-0.287521081507,-0.888861481557));
#1234 = DIRECTION('',(0.692057835275,-0.557790898123,0.458176021421));
#1235 = FACE_BOUND('',#1236,.F.);
#1236 = EDGE_LOOP('',(#1237));
#1237 = ORIENTED_EDGE('',*,*,#1238,.F.);
#1238 = EDGE_CURVE('',#1239,#1239,#1241,.T.);
#1239 = VERTEX_POINT('',#1240);
#1240 = CARTESIAN_POINT('',(-19.,65.,-19.3468605443));
#1241 = ELLIPSE('',#1242,5.062656098135,4.5);
#1242 = AXIS2_PLACEMENT_3D('',#1243,#1244,#1245);
#1243 = CARTESIAN_POINT('',(-23.5,65.,-21.15286612163));
#1244 = DIRECTION('',(0.356730842925,-0.287521081507,-0.888861481557));
#1245 = DIRECTION('',(0.692057835275,-0.557790898123,0.458176021421));
#1246 = PLANE('',#1247);
#1247 = AXIS2_PLACEMENT_3D('',#1248,#1249,#1250);
#1248 = CARTESIAN_POINT('',(6.466961014738,52.244339683414,-5.));
#1249 = DIRECTION('',(-0.356730842925,0.287521081507,0.888861481557));
#1250 = DIRECTION('',(0.692057835275,-0.557790898123,0.458176021421));
#1251 = ADVANCED_FACE('',(#1252),#1286,.T.);
#1252 = FACE_BOUND('',#1253,.F.);
#1253 = EDGE_LOOP('',(#1254,#1255,#1256,#1264,#1272,#1280));
#1254 = ORIENTED_EDGE('',*,*,#503,.F.);
#1255 = ORIENTED_EDGE('',*,*,#1170,.T.);
#1256 = ORIENTED_EDGE('',*,*,#1257,.T.);
#1257 = EDGE_CURVE('',#1171,#1258,#1260,.T.);
#1258 = VERTEX_POINT('',#1259);
#1259 = CARTESIAN_POINT('',(-25.5,74.5,-26.45466796967));
#1260 = LINE('',#1261,#1262);
#1261 = CARTESIAN_POINT('',(-24.57748451714,75.422515482852,
    -27.84219949607));
#1262 = VECTOR('',#1263,1.);
#1263 = DIRECTION('',(0.484374337129,0.484374337129,-0.728534833114));
#1264 = ORIENTED_EDGE('',*,*,#1265,.T.);
#1265 = EDGE_CURVE('',#1258,#1266,#1268,.T.);
#1266 = VERTEX_POINT('',#1267);
#1267 = CARTESIAN_POINT('',(-21.14590278985,74.5,-27.78120058595));
#1268 = LINE('',#1269,#1270);
#1269 = CARTESIAN_POINT('',(-24.3007660433,74.5,-26.82003026668));
#1270 = VECTOR('',#1271,1.);
#1271 = DIRECTION('',(0.956589842734,0.,-0.291437596714));
#1272 = ORIENTED_EDGE('',*,*,#1273,.F.);
#1273 = EDGE_CURVE('',#1274,#1266,#1276,.T.);
#1274 = VERTEX_POINT('',#1275);
#1275 = CARTESIAN_POINT('',(4.131193801392,54.126942011326,
    -11.04653050647));
#1276 = LINE('',#1277,#1278);
#1277 = CARTESIAN_POINT('',(7.89388438644,51.094255357387,
    -8.555445926226));
#1278 = VECTOR('',#1279,1.);
#1279 = DIRECTION('',(-0.692057835275,0.557790898123,-0.458176021421));
#1280 = ORIENTED_EDGE('',*,*,#1281,.T.);
#1281 = EDGE_CURVE('',#1274,#504,#1282,.T.);
#1282 = LINE('',#1283,#1284);
#1283 = CARTESIAN_POINT('',(4.428332712435,51.360969244783,
    -7.819519864068));
#1284 = VECTOR('',#1285,1.);
#1285 = DIRECTION('',(6.974151377586E-02,-0.649201840058,0.757412101911)
  );
#1286 = PLANE('',#1287);
#1287 = AXIS2_PLACEMENT_3D('',#1288,#1289,#1290);
#1288 = CARTESIAN_POINT('',(5.925354481981,50.11211937817,
    -6.777722963113));
#1289 = DIRECTION('',(0.191486826024,0.753853718411,0.628519981144));
#1290 = DIRECTION('',(0.692057835275,-0.557790898123,0.458176021421));
#1291 = ADVANCED_FACE('',(#1292),#1303,.T.);
#1292 = FACE_BOUND('',#1293,.F.);
#1293 = EDGE_LOOP('',(#1294,#1295,#1301,#1302));
#1294 = ORIENTED_EDGE('',*,*,#1281,.F.);
#1295 = ORIENTED_EDGE('',*,*,#1296,.T.);
#1296 = EDGE_CURVE('',#1274,#562,#1297,.T.);
#1297 = LINE('',#1298,#1299);
#1298 = CARTESIAN_POINT('',(4.131193801392,54.126942011326,
    -9.500138753898));
#1299 = VECTOR('',#1300,1.);
#1300 = DIRECTION('',(-0.,-0.,-1.));
#1301 = ORIENTED_EDGE('',*,*,#576,.T.);
#1302 = ORIENTED_EDGE('',*,*,#511,.F.);
#1303 = PLANE('',#1304);
#1304 = AXIS2_PLACEMENT_3D('',#1305,#1306,#1307);
#1305 = CARTESIAN_POINT('',(4.357776244109,52.017757240697,
    -9.500138753898));
#1306 = DIRECTION('',(0.994279236058,0.106811987829,0.));
#1307 = DIRECTION('',(0.,0.,1.));
#1308 = ADVANCED_FACE('',(#1309),#1329,.F.);
#1309 = FACE_BOUND('',#1310,.F.);
#1310 = EDGE_LOOP('',(#1311,#1312,#1313,#1314,#1322,#1328));
#1311 = ORIENTED_EDGE('',*,*,#1089,.T.);
#1312 = ORIENTED_EDGE('',*,*,#535,.F.);
#1313 = ORIENTED_EDGE('',*,*,#590,.T.);
#1314 = ORIENTED_EDGE('',*,*,#1315,.F.);
#1315 = EDGE_CURVE('',#1316,#591,#1318,.T.);
#1316 = VERTEX_POINT('',#1317);
#1317 = CARTESIAN_POINT('',(26.,-39.,-4.));
#1318 = LINE('',#1319,#1320);
#1319 = CARTESIAN_POINT('',(26.,-39.,-42.));
#1320 = VECTOR('',#1321,1.);
#1321 = DIRECTION('',(-0.,-0.,-1.));
#1322 = ORIENTED_EDGE('',*,*,#1323,.F.);
#1323 = EDGE_CURVE('',#1134,#1316,#1324,.T.);
#1324 = LINE('',#1325,#1326);
#1325 = CARTESIAN_POINT('',(26.,-39.48875,-4.48875));
#1326 = VECTOR('',#1327,1.);
#1327 = DIRECTION('',(-0.,-0.707106781187,-0.707106781187));
#1328 = ORIENTED_EDGE('',*,*,#1133,.F.);
#1329 = PLANE('',#1330);
#1330 = AXIS2_PLACEMENT_3D('',#1331,#1332,#1333);
#1331 = CARTESIAN_POINT('',(26.,-21.16,0.));
#1332 = DIRECTION('',(1.,3.984991935131E-16,0.));
#1333 = DIRECTION('',(0.,0.,-1.));
#1334 = ADVANCED_FACE('',(#1335),#1363,.T.);
#1335 = FACE_BOUND('',#1336,.F.);
#1336 = EDGE_LOOP('',(#1337,#1338,#1339,#1340,#1348,#1356,#1362));
#1337 = ORIENTED_EDGE('',*,*,#559,.T.);
#1338 = ORIENTED_EDGE('',*,*,#1296,.F.);
#1339 = ORIENTED_EDGE('',*,*,#1273,.T.);
#1340 = ORIENTED_EDGE('',*,*,#1341,.T.);
#1341 = EDGE_CURVE('',#1266,#1342,#1344,.T.);
#1342 = VERTEX_POINT('',#1343);
#1343 = CARTESIAN_POINT('',(-21.14590278985,74.5,-52.));
#1344 = LINE('',#1345,#1346);
#1345 = CARTESIAN_POINT('',(-21.14590278985,74.5,-22.));
#1346 = VECTOR('',#1347,1.);
#1347 = DIRECTION('',(-0.,-0.,-1.));
#1348 = ORIENTED_EDGE('',*,*,#1349,.F.);
#1349 = EDGE_CURVE('',#1350,#1342,#1352,.T.);
#1350 = VERTEX_POINT('',#1351);
#1351 = CARTESIAN_POINT('',(-13.75,68.538984822786,-52.));
#1352 = LINE('',#1353,#1354);
#1353 = CARTESIAN_POINT('',(23.233226496855,38.73091666477,-52.));
#1354 = VECTOR('',#1355,1.);
#1355 = DIRECTION('',(-0.778589071115,0.627534109304,0.));
#1356 = ORIENTED_EDGE('',*,*,#1357,.T.);
#1357 = EDGE_CURVE('',#1350,#634,#1358,.T.);
#1358 = LINE('',#1359,#1360);
#1359 = CARTESIAN_POINT('',(-3.426959857423,60.218729579668,
    -41.67695985742));
#1360 = VECTOR('',#1361,1.);
#1361 = DIRECTION('',(0.614339394359,-0.49515070138,0.614339394359));
#1362 = ORIENTED_EDGE('',*,*,#641,.T.);
#1363 = PLANE('',#1364);
#1364 = AXIS2_PLACEMENT_3D('',#1365,#1366,#1367);
#1365 = CARTESIAN_POINT('',(-7.339470887559,63.372169841707,-26.));
#1366 = DIRECTION('',(0.627534109304,0.778589071115,0.));
#1367 = DIRECTION('',(-0.778589071115,0.627534109304,0.));
#1368 = ADVANCED_FACE('',(#1369,#1420,#1431),#1442,.T.);
#1369 = FACE_BOUND('',#1370,.F.);
#1370 = EDGE_LOOP('',(#1371,#1379,#1380,#1381,#1382,#1390,#1398,#1406,
    #1414));
#1371 = ORIENTED_EDGE('',*,*,#1372,.T.);
#1372 = EDGE_CURVE('',#1373,#1316,#1375,.T.);
#1373 = VERTEX_POINT('',#1374);
#1374 = CARTESIAN_POINT('',(-20.22228893192,12.84231425523,-4.));
#1375 = LINE('',#1376,#1377);
#1376 = CARTESIAN_POINT('',(-19.61258217262,12.158475134541,-4.));
#1377 = VECTOR('',#1378,1.);
#1378 = DIRECTION('',(0.665490940013,-0.746405927603,0.));
#1379 = ORIENTED_EDGE('',*,*,#1315,.T.);
#1380 = ORIENTED_EDGE('',*,*,#664,.T.);
#1381 = ORIENTED_EDGE('',*,*,#614,.F.);
#1382 = ORIENTED_EDGE('',*,*,#1383,.F.);
#1383 = EDGE_CURVE('',#1384,#615,#1386,.T.);
#1384 = VERTEX_POINT('',#1385);
#1385 = CARTESIAN_POINT('',(-16.45077436247,8.612232880078,-52.));
#1386 = LINE('',#1387,#1388);
#1387 = CARTESIAN_POINT('',(-14.57897785264,6.512850414893,
    -50.12820349017));
#1388 = VECTOR('',#1389,1.);
#1389 = DIRECTION('',(0.554022385295,-0.621384255661,0.554022385295));
#1390 = ORIENTED_EDGE('',*,*,#1391,.F.);
#1391 = EDGE_CURVE('',#1392,#1384,#1394,.T.);
#1392 = VERTEX_POINT('',#1393);
#1393 = CARTESIAN_POINT('',(-39.78068258995,34.778752579177,-52.));
#1394 = LINE('',#1395,#1396);
#1395 = CARTESIAN_POINT('',(-75.19590278985,74.5,-52.));
#1396 = VECTOR('',#1397,1.);
#1397 = DIRECTION('',(0.665490940013,-0.746405927603,0.));
#1398 = ORIENTED_EDGE('',*,*,#1399,.F.);
#1399 = EDGE_CURVE('',#1400,#1392,#1402,.T.);
#1400 = VERTEX_POINT('',#1401);
#1401 = CARTESIAN_POINT('',(-39.78068258995,34.778752579177,
    -22.39865423331));
#1402 = LINE('',#1403,#1404);
#1403 = CARTESIAN_POINT('',(-39.78068258995,34.778752579177,
    -26.46685692106));
#1404 = VECTOR('',#1405,1.);
#1405 = DIRECTION('',(-0.,-0.,-1.));
#1406 = ORIENTED_EDGE('',*,*,#1407,.T.);
#1407 = EDGE_CURVE('',#1400,#1408,#1410,.T.);
#1408 = VERTEX_POINT('',#1409);
#1409 = CARTESIAN_POINT('',(-20.22228893192,12.84231425523,
    -7.453388854128));
#1410 = LINE('',#1411,#1412);
#1411 = CARTESIAN_POINT('',(-43.89798818493,39.396668642452,
    -25.5448341211));
#1412 = VECTOR('',#1413,1.);
#1413 = DIRECTION('',(0.593196562577,-0.665321500143,0.453282626618));
#1414 = ORIENTED_EDGE('',*,*,#1415,.F.);
#1415 = EDGE_CURVE('',#1373,#1408,#1416,.T.);
#1416 = LINE('',#1417,#1418);
#1417 = CARTESIAN_POINT('',(-20.22228893192,12.84231425523,-5.));
#1418 = VECTOR('',#1419,1.);
#1419 = DIRECTION('',(-0.,-0.,-1.));
#1420 = FACE_BOUND('',#1421,.F.);
#1421 = EDGE_LOOP('',(#1422));
#1422 = ORIENTED_EDGE('',*,*,#1423,.T.);
#1423 = EDGE_CURVE('',#1424,#1424,#1426,.T.);
#1424 = VERTEX_POINT('',#1425);
#1425 = CARTESIAN_POINT('',(10.842904427951,-22.,-7.95));
#1426 = ELLIPSE('',#1427,4.019260685181,3.);
#1427 = AXIS2_PLACEMENT_3D('',#1428,#1429,#1430);
#1428 = CARTESIAN_POINT('',(13.517685999489,-25.,-7.95));
#1429 = DIRECTION('',(-0.746405927603,-0.665490940013,-0.));
#1430 = DIRECTION('',(-0.665490940013,0.746405927603,0.));
#1431 = FACE_BOUND('',#1432,.F.);
#1432 = EDGE_LOOP('',(#1433));
#1433 = ORIENTED_EDGE('',*,*,#1434,.T.);
#1434 = EDGE_CURVE('',#1435,#1435,#1437,.T.);
#1435 = VERTEX_POINT('',#1436);
#1436 = CARTESIAN_POINT('',(10.842904427951,-22.,-32.95));
#1437 = ELLIPSE('',#1438,4.019260685181,3.);
#1438 = AXIS2_PLACEMENT_3D('',#1439,#1440,#1441);
#1439 = CARTESIAN_POINT('',(13.517685999489,-25.,-32.95));
#1440 = DIRECTION('',(-0.746405927603,-0.665490940013,-0.));
#1441 = DIRECTION('',(-0.665490940013,0.746405927603,0.));
#1442 = PLANE('',#1443);
#1443 = AXIS2_PLACEMENT_3D('',#1444,#1445,#1446);
#1444 = CARTESIAN_POINT('',(-24.59795139492,17.75,-26.));
#1445 = DIRECTION('',(-0.746405927603,-0.665490940013,0.));
#1446 = DIRECTION('',(-0.665490940013,0.746405927603,0.));
#1447 = ADVANCED_FACE('',(#1448),#1467,.T.);
#1448 = FACE_BOUND('',#1449,.T.);
#1449 = EDGE_LOOP('',(#1450,#1459,#1465,#1466));
#1450 = ORIENTED_EDGE('',*,*,#1451,.T.);
#1451 = EDGE_CURVE('',#1384,#1452,#1454,.T.);
#1452 = VERTEX_POINT('',#1453);
#1453 = CARTESIAN_POINT('',(-13.75,8.45274441716,-52.));
#1454 = ELLIPSE('',#1455,2.25622652293,1.25);
#1455 = AXIS2_PLACEMENT_3D('',#1456,#1457,#1458);
#1456 = CARTESIAN_POINT('',(-15.51776695296,9.444096555094,-52.));
#1457 = DIRECTION('',(-0.,0.,1.));
#1458 = DIRECTION('',(0.665490940013,-0.746405927603,0.));
#1459 = ORIENTED_EDGE('',*,*,#1460,.T.);
#1460 = EDGE_CURVE('',#1452,#625,#1461,.T.);
#1461 = LINE('',#1462,#1463);
#1462 = CARTESIAN_POINT('',(-12.76208696665,7.344714089909,
    -51.01208696665));
#1463 = VECTOR('',#1464,1.);
#1464 = DIRECTION('',(0.554022385295,-0.621384255661,0.554022385295));
#1465 = ORIENTED_EDGE('',*,*,#624,.F.);
#1466 = ORIENTED_EDGE('',*,*,#1383,.F.);
#1467 = CYLINDRICAL_SURFACE('',#1468,1.25);
#1468 = AXIS2_PLACEMENT_3D('',#1469,#1470,#1471);
#1469 = CARTESIAN_POINT('',(-13.64597044313,7.344714089909,
    -50.12820349017));
#1470 = DIRECTION('',(0.554022385295,-0.621384255661,0.554022385295));
#1471 = DIRECTION('',(-0.746405927603,-0.665490940013,
    -2.775557561563E-17));
#1472 = ADVANCED_FACE('',(#1473),#1484,.F.);
#1473 = FACE_BOUND('',#1474,.F.);
#1474 = EDGE_LOOP('',(#1475,#1481,#1482,#1483));
#1475 = ORIENTED_EDGE('',*,*,#1476,.T.);
#1476 = EDGE_CURVE('',#1350,#1452,#1477,.T.);
#1477 = LINE('',#1478,#1479);
#1478 = CARTESIAN_POINT('',(-13.75,59.681167371827,-52.));
#1479 = VECTOR('',#1480,1.);
#1480 = DIRECTION('',(-0.,-1.,-0.));
#1481 = ORIENTED_EDGE('',*,*,#1460,.T.);
#1482 = ORIENTED_EDGE('',*,*,#633,.F.);
#1483 = ORIENTED_EDGE('',*,*,#1357,.F.);
#1484 = PLANE('',#1485);
#1485 = AXIS2_PLACEMENT_3D('',#1486,#1487,#1488);
#1486 = CARTESIAN_POINT('',(-8.255,59.681167371827,-46.505));
#1487 = DIRECTION('',(-0.707106781187,0.,0.707106781187));
#1488 = DIRECTION('',(0.,-1.,0.));
#1489 = ADVANCED_FACE('',(#1490),#1496,.T.);
#1490 = FACE_BOUND('',#1491,.T.);
#1491 = EDGE_LOOP('',(#1492,#1493,#1494,#1495));
#1492 = ORIENTED_EDGE('',*,*,#722,.F.);
#1493 = ORIENTED_EDGE('',*,*,#754,.F.);
#1494 = ORIENTED_EDGE('',*,*,#802,.T.);
#1495 = ORIENTED_EDGE('',*,*,#690,.T.);
#1496 = PLANE('',#1497);
#1497 = AXIS2_PLACEMENT_3D('',#1498,#1499,#1500);
#1498 = CARTESIAN_POINT('',(62.,7.485329507944,-5.));
#1499 = DIRECTION('',(-3.402359125165E-16,1.,0.));
#1500 = DIRECTION('',(0.,0.,-1.));
#1501 = ADVANCED_FACE('',(#1502),#1528,.F.);
#1502 = FACE_BOUND('',#1503,.F.);
#1503 = EDGE_LOOP('',(#1504,#1512,#1520,#1526,#1527));
#1504 = ORIENTED_EDGE('',*,*,#1505,.F.);
#1505 = EDGE_CURVE('',#1506,#966,#1508,.T.);
#1506 = VERTEX_POINT('',#1507);
#1507 = CARTESIAN_POINT('',(-20.28185083171,15.23533805595,
    -2.451921696445));
#1508 = LINE('',#1509,#1510);
#1509 = CARTESIAN_POINT('',(-12.67497715112,15.424671671314,
    3.351893714937));
#1510 = VECTOR('',#1511,1.);
#1511 = DIRECTION('',(0.794867727978,1.978410408708E-02,0.606460125849)
  );
#1512 = ORIENTED_EDGE('',*,*,#1513,.T.);
#1513 = EDGE_CURVE('',#1506,#1514,#1516,.T.);
#1514 = VERTEX_POINT('',#1515);
#1515 = CARTESIAN_POINT('',(-20.37411625476,18.942294250103,-4.85));
#1516 = LINE('',#1517,#1518);
#1517 = CARTESIAN_POINT('',(-20.52405839779,24.966533206658,
    -8.747158741703));
#1518 = VECTOR('',#1519,1.);
#1519 = DIRECTION('',(-2.089356639386E-02,0.839442694789,-0.543046426237
    ));
#1520 = ORIENTED_EDGE('',*,*,#1521,.F.);
#1521 = EDGE_CURVE('',#846,#1514,#1522,.T.);
#1522 = LINE('',#1523,#1524);
#1523 = CARTESIAN_POINT('',(-1.220331824235,42.706623562252,-4.85));
#1524 = VECTOR('',#1525,1.);
#1525 = DIRECTION('',(-0.627534109304,-0.778589071115,1.110223024625E-16
    ));
#1526 = ORIENTED_EDGE('',*,*,#843,.F.);
#1527 = ORIENTED_EDGE('',*,*,#965,.T.);
#1528 = PLANE('',#1529);
#1529 = AXIS2_PLACEMENT_3D('',#1530,#1531,#1532);
#1530 = CARTESIAN_POINT('',(0.667746673219,41.18485334719,-2.425));
#1531 = DIRECTION('',(0.550545611943,-0.443733624115,-0.707106781187));
#1532 = DIRECTION('',(-0.627534109304,-0.778589071115,2.775557561563E-17
    ));
#1533 = ADVANCED_FACE('',(#1534),#1553,.F.);
#1534 = FACE_BOUND('',#1535,.T.);
#1535 = EDGE_LOOP('',(#1536,#1544,#1550,#1551,#1552));
#1536 = ORIENTED_EDGE('',*,*,#1537,.F.);
#1537 = EDGE_CURVE('',#1538,#1180,#1540,.T.);
#1538 = VERTEX_POINT('',#1539);
#1539 = CARTESIAN_POINT('',(-20.37411625476,18.942294250103,
    -5.047927128847));
#1540 = LINE('',#1541,#1542);
#1541 = CARTESIAN_POINT('',(-16.79010279537,23.389022593372,
    1.290952924741));
#1542 = VECTOR('',#1543,1.);
#1543 = DIRECTION('',(0.420053012839,0.52116479445,0.742928478005));
#1544 = ORIENTED_EDGE('',*,*,#1545,.F.);
#1545 = EDGE_CURVE('',#1514,#1538,#1546,.T.);
#1546 = LINE('',#1547,#1548);
#1547 = CARTESIAN_POINT('',(-20.37411625476,18.942294250103,-4.85));
#1548 = VECTOR('',#1549,1.);
#1549 = DIRECTION('',(-0.,-0.,-1.));
#1550 = ORIENTED_EDGE('',*,*,#1521,.F.);
#1551 = ORIENTED_EDGE('',*,*,#853,.T.);
#1552 = ORIENTED_EDGE('',*,*,#1179,.T.);
#1553 = PLANE('',#1554);
#1554 = AXIS2_PLACEMENT_3D('',#1555,#1556,#1557);
#1555 = CARTESIAN_POINT('',(6.466961014738,52.244339683414,-5.));
#1556 = DIRECTION('',(0.778589071115,-0.627534109304,0.));
#1557 = DIRECTION('',(-1.084890398087E-16,-1.346036485961E-16,-1.));
#1558 = ADVANCED_FACE('',(#1559),#1578,.F.);
#1559 = FACE_BOUND('',#1560,.T.);
#1560 = EDGE_LOOP('',(#1561,#1562,#1570,#1577));
#1561 = ORIENTED_EDGE('',*,*,#886,.F.);
#1562 = ORIENTED_EDGE('',*,*,#1563,.T.);
#1563 = EDGE_CURVE('',#887,#1564,#1566,.T.);
#1564 = VERTEX_POINT('',#1565);
#1565 = CARTESIAN_POINT('',(-2.972862026188,33.201959554974,-14.));
#1566 = LINE('',#1567,#1568);
#1567 = CARTESIAN_POINT('',(10.048470741868,49.357682780616,-14.));
#1568 = VECTOR('',#1569,1.);
#1569 = DIRECTION('',(-0.627534109304,-0.778589071115,1.110223024625E-16
    ));
#1570 = ORIENTED_EDGE('',*,*,#1571,.T.);
#1571 = EDGE_CURVE('',#1564,#1564,#1572,.T.);
#1572 = CIRCLE('',#1573,3.3);
#1573 = AXIS2_PLACEMENT_3D('',#1574,#1575,#1576);
#1574 = CARTESIAN_POINT('',(-0.403518091508,31.131096994271,-14.));
#1575 = DIRECTION('',(-0.627534109304,-0.778589071115,2.077166435391E-16
    ));
#1576 = DIRECTION('',(-0.778589071115,0.627534109304,-5.551115123126E-17
    ));
#1577 = ORIENTED_EDGE('',*,*,#1563,.F.);
#1578 = CYLINDRICAL_SURFACE('',#1579,3.3);
#1579 = AXIS2_PLACEMENT_3D('',#1580,#1581,#1582);
#1580 = CARTESIAN_POINT('',(12.617814676549,47.286820219913,-14.));
#1581 = DIRECTION('',(0.627534109304,0.778589071115,-2.077166435391E-16)
  );
#1582 = DIRECTION('',(-0.778589071115,0.627534109304,-5.551115123126E-17
    ));
#1583 = ADVANCED_FACE('',(#1584),#1603,.F.);
#1584 = FACE_BOUND('',#1585,.T.);
#1585 = EDGE_LOOP('',(#1586,#1587,#1595,#1602));
#1586 = ORIENTED_EDGE('',*,*,#897,.F.);
#1587 = ORIENTED_EDGE('',*,*,#1588,.T.);
#1588 = EDGE_CURVE('',#898,#1589,#1591,.T.);
#1589 = VERTEX_POINT('',#1590);
#1590 = CARTESIAN_POINT('',(12.676778303228,20.588523957965,-14.));
#1591 = LINE('',#1592,#1593);
#1592 = CARTESIAN_POINT('',(25.698111071285,36.744247183607,-14.));
#1593 = VECTOR('',#1594,1.);
#1594 = DIRECTION('',(-0.627534109304,-0.778589071115,1.110223024625E-16
    ));
#1595 = ORIENTED_EDGE('',*,*,#1596,.T.);
#1596 = EDGE_CURVE('',#1589,#1589,#1597,.T.);
#1597 = CIRCLE('',#1598,3.3);
#1598 = AXIS2_PLACEMENT_3D('',#1599,#1600,#1601);
#1599 = CARTESIAN_POINT('',(15.246122237909,18.517661397262,-14.));
#1600 = DIRECTION('',(-0.627534109304,-0.778589071115,2.077166435391E-16
    ));
#1601 = DIRECTION('',(-0.778589071115,0.627534109304,-5.551115123126E-17
    ));
#1602 = ORIENTED_EDGE('',*,*,#1588,.F.);
#1603 = CYLINDRICAL_SURFACE('',#1604,3.3);
#1604 = AXIS2_PLACEMENT_3D('',#1605,#1606,#1607);
#1605 = CARTESIAN_POINT('',(28.267455005965,34.673384622904,-14.));
#1606 = DIRECTION('',(0.627534109304,0.778589071115,-2.077166435391E-16)
  );
#1607 = DIRECTION('',(-0.778589071115,0.627534109304,-5.551115123126E-17
    ));
#1608 = ADVANCED_FACE('',(#1609),#1620,.F.);
#1609 = FACE_BOUND('',#1610,.F.);
#1610 = EDGE_LOOP('',(#1611,#1612,#1618,#1619));
#1611 = ORIENTED_EDGE('',*,*,#1323,.T.);
#1612 = ORIENTED_EDGE('',*,*,#1613,.F.);
#1613 = EDGE_CURVE('',#940,#1316,#1614,.T.);
#1614 = LINE('',#1615,#1616);
#1615 = CARTESIAN_POINT('',(29.941956888607,-30.20412467116,
    4.795875328833));
#1616 = VECTOR('',#1617,1.);
#1617 = DIRECTION('',(-0.302091055945,-0.674070097957,-0.674070097957));
#1618 = ORIENTED_EDGE('',*,*,#939,.T.);
#1619 = ORIENTED_EDGE('',*,*,#1141,.F.);
#1620 = PLANE('',#1621);
#1621 = AXIS2_PLACEMENT_3D('',#1622,#1623,#1624);
#1622 = CARTESIAN_POINT('',(50.,-35.,2.6645352591E-15));
#1623 = DIRECTION('',(2.817814820305E-16,-0.707106781187,0.707106781187)
  );
#1624 = DIRECTION('',(0.,-0.707106781187,-0.707106781187));
#1625 = ADVANCED_FACE('',(#1626),#1638,.T.);
#1626 = FACE_BOUND('',#1627,.T.);
#1627 = EDGE_LOOP('',(#1628,#1629,#1635,#1636,#1637));
#1628 = ORIENTED_EDGE('',*,*,#1505,.F.);
#1629 = ORIENTED_EDGE('',*,*,#1630,.F.);
#1630 = EDGE_CURVE('',#1373,#1506,#1631,.T.);
#1631 = LINE('',#1632,#1633);
#1632 = CARTESIAN_POINT('',(-20.26079255163,14.389277644834,
    -2.999249209673));
#1633 = VECTOR('',#1634,1.);
#1634 = DIRECTION('',(-2.089356639386E-02,0.839442694789,0.543046426237)
  );
#1635 = ORIENTED_EDGE('',*,*,#1372,.T.);
#1636 = ORIENTED_EDGE('',*,*,#1613,.F.);
#1637 = ORIENTED_EDGE('',*,*,#973,.F.);
#1638 = PLANE('',#1639);
#1639 = AXIS2_PLACEMENT_3D('',#1640,#1641,#1642);
#1640 = CARTESIAN_POINT('',(-18.11977031741,13.489457014567,-2.));
#1641 = DIRECTION('',(-0.527788692926,-0.470573156501,0.707106781187));
#1642 = DIRECTION('',(0.665490940013,-0.746405927603,-5.551115123126E-17
    ));
#1643 = ADVANCED_FACE('',(#1644,#1655),#1658,.F.);
#1644 = FACE_BOUND('',#1645,.F.);
#1645 = EDGE_LOOP('',(#1646));
#1646 = ORIENTED_EDGE('',*,*,#1647,.T.);
#1647 = EDGE_CURVE('',#1648,#1648,#1650,.T.);
#1648 = VERTEX_POINT('',#1649);
#1649 = CARTESIAN_POINT('',(52.,-47.,-7.95));
#1650 = CIRCLE('',#1651,3.);
#1651 = AXIS2_PLACEMENT_3D('',#1652,#1653,#1654);
#1652 = CARTESIAN_POINT('',(52.,-50.,-7.95));
#1653 = DIRECTION('',(1.,0.,0.));
#1654 = DIRECTION('',(0.,1.,0.));
#1655 = FACE_BOUND('',#1656,.F.);
#1656 = EDGE_LOOP('',(#1657));
#1657 = ORIENTED_EDGE('',*,*,#987,.T.);
#1658 = PLANE('',#1659);
#1659 = AXIS2_PLACEMENT_3D('',#1660,#1661,#1662);
#1660 = CARTESIAN_POINT('',(52.,-37.5,-20.45));
#1661 = DIRECTION('',(1.,0.,0.));
#1662 = DIRECTION('',(0.,0.,1.));
#1663 = ADVANCED_FACE('',(#1664,#1675),#1678,.F.);
#1664 = FACE_BOUND('',#1665,.F.);
#1665 = EDGE_LOOP('',(#1666));
#1666 = ORIENTED_EDGE('',*,*,#1667,.T.);
#1667 = EDGE_CURVE('',#1668,#1668,#1670,.T.);
#1668 = VERTEX_POINT('',#1669);
#1669 = CARTESIAN_POINT('',(52.,-22.,-7.95));
#1670 = CIRCLE('',#1671,3.);
#1671 = AXIS2_PLACEMENT_3D('',#1672,#1673,#1674);
#1672 = CARTESIAN_POINT('',(52.,-25.,-7.95));
#1673 = DIRECTION('',(1.,0.,0.));
#1674 = DIRECTION('',(0.,1.,0.));
#1675 = FACE_BOUND('',#1676,.F.);
#1676 = EDGE_LOOP('',(#1677));
#1677 = ORIENTED_EDGE('',*,*,#1012,.T.);
#1678 = PLANE('',#1679);
#1679 = AXIS2_PLACEMENT_3D('',#1680,#1681,#1682);
#1680 = CARTESIAN_POINT('',(52.,-37.5,-20.45));
#1681 = DIRECTION('',(1.,0.,0.));
#1682 = DIRECTION('',(0.,0.,1.));
#1683 = ADVANCED_FACE('',(#1684,#1695),#1698,.F.);
#1684 = FACE_BOUND('',#1685,.F.);
#1685 = EDGE_LOOP('',(#1686));
#1686 = ORIENTED_EDGE('',*,*,#1687,.T.);
#1687 = EDGE_CURVE('',#1688,#1688,#1690,.T.);
#1688 = VERTEX_POINT('',#1689);
#1689 = CARTESIAN_POINT('',(52.,-47.,-32.95));
#1690 = CIRCLE('',#1691,3.);
#1691 = AXIS2_PLACEMENT_3D('',#1692,#1693,#1694);
#1692 = CARTESIAN_POINT('',(52.,-50.,-32.95));
#1693 = DIRECTION('',(1.,0.,0.));
#1694 = DIRECTION('',(0.,1.,0.));
#1695 = FACE_BOUND('',#1696,.F.);
#1696 = EDGE_LOOP('',(#1697));
#1697 = ORIENTED_EDGE('',*,*,#1037,.T.);
#1698 = PLANE('',#1699);
#1699 = AXIS2_PLACEMENT_3D('',#1700,#1701,#1702);
#1700 = CARTESIAN_POINT('',(52.,-37.5,-20.45));
#1701 = DIRECTION('',(1.,0.,0.));
#1702 = DIRECTION('',(0.,0.,1.));
#1703 = ADVANCED_FACE('',(#1704,#1715),#1718,.F.);
#1704 = FACE_BOUND('',#1705,.F.);
#1705 = EDGE_LOOP('',(#1706));
#1706 = ORIENTED_EDGE('',*,*,#1707,.T.);
#1707 = EDGE_CURVE('',#1708,#1708,#1710,.T.);
#1708 = VERTEX_POINT('',#1709);
#1709 = CARTESIAN_POINT('',(52.,-22.,-32.95));
#1710 = CIRCLE('',#1711,3.);
#1711 = AXIS2_PLACEMENT_3D('',#1712,#1713,#1714);
#1712 = CARTESIAN_POINT('',(52.,-25.,-32.95));
#1713 = DIRECTION('',(1.,0.,0.));
#1714 = DIRECTION('',(0.,1.,0.));
#1715 = FACE_BOUND('',#1716,.F.);
#1716 = EDGE_LOOP('',(#1717));
#1717 = ORIENTED_EDGE('',*,*,#1062,.T.);
#1718 = PLANE('',#1719);
#1719 = AXIS2_PLACEMENT_3D('',#1720,#1721,#1722);
#1720 = CARTESIAN_POINT('',(52.,-37.5,-20.45));
#1721 = DIRECTION('',(1.,0.,0.));
#1722 = DIRECTION('',(0.,0.,1.));
#1723 = ADVANCED_FACE('',(#1724),#1734,.F.);
#1724 = FACE_BOUND('',#1725,.T.);
#1725 = EDGE_LOOP('',(#1726,#1727,#1732,#1733));
#1726 = ORIENTED_EDGE('',*,*,#1105,.F.);
#1727 = ORIENTED_EDGE('',*,*,#1728,.F.);
#1728 = EDGE_CURVE('',#1648,#1106,#1729,.T.);
#1729 = B_SPLINE_CURVE_WITH_KNOTS('',1,(#1730,#1731),.UNSPECIFIED.,.F.,
  .F.,(2,2),(-52.,-33.99),.PIECEWISE_BEZIER_KNOTS.);
#1730 = CARTESIAN_POINT('',(52.,-47.,-7.95));
#1731 = CARTESIAN_POINT('',(33.99,-47.,-7.95));
#1732 = ORIENTED_EDGE('',*,*,#1647,.T.);
#1733 = ORIENTED_EDGE('',*,*,#1728,.T.);
#1734 = CYLINDRICAL_SURFACE('',#1735,3.);
#1735 = AXIS2_PLACEMENT_3D('',#1736,#1737,#1738);
#1736 = CARTESIAN_POINT('',(0.,-50.,-7.95));
#1737 = DIRECTION('',(-1.,-0.,-0.));
#1738 = DIRECTION('',(0.,1.,0.));
#1739 = ADVANCED_FACE('',(#1740),#1750,.F.);
#1740 = FACE_BOUND('',#1741,.T.);
#1741 = EDGE_LOOP('',(#1742,#1743,#1748,#1749));
#1742 = ORIENTED_EDGE('',*,*,#1116,.F.);
#1743 = ORIENTED_EDGE('',*,*,#1744,.F.);
#1744 = EDGE_CURVE('',#1688,#1117,#1745,.T.);
#1745 = B_SPLINE_CURVE_WITH_KNOTS('',1,(#1746,#1747),.UNSPECIFIED.,.F.,
  .F.,(2,2),(-52.,-33.99),.PIECEWISE_BEZIER_KNOTS.);
#1746 = CARTESIAN_POINT('',(52.,-47.,-32.95));
#1747 = CARTESIAN_POINT('',(33.99,-47.,-32.95));
#1748 = ORIENTED_EDGE('',*,*,#1687,.T.);
#1749 = ORIENTED_EDGE('',*,*,#1744,.T.);
#1750 = CYLINDRICAL_SURFACE('',#1751,3.);
#1751 = AXIS2_PLACEMENT_3D('',#1752,#1753,#1754);
#1752 = CARTESIAN_POINT('',(0.,-50.,-32.95));
#1753 = DIRECTION('',(-1.,-0.,-0.));
#1754 = DIRECTION('',(0.,1.,0.));
#1755 = ADVANCED_FACE('',(#1756),#1782,.F.);
#1756 = FACE_BOUND('',#1757,.T.);
#1757 = EDGE_LOOP('',(#1758,#1759,#1760,#1768,#1776));
#1758 = ORIENTED_EDGE('',*,*,#1219,.T.);
#1759 = ORIENTED_EDGE('',*,*,#1257,.T.);
#1760 = ORIENTED_EDGE('',*,*,#1761,.F.);
#1761 = EDGE_CURVE('',#1762,#1258,#1764,.T.);
#1762 = VERTEX_POINT('',#1763);
#1763 = CARTESIAN_POINT('',(-25.5,74.5,-52.));
#1764 = LINE('',#1765,#1766);
#1765 = CARTESIAN_POINT('',(-25.5,74.5,-52.));
#1766 = VECTOR('',#1767,1.);
#1767 = DIRECTION('',(0.,0.,1.));
#1768 = ORIENTED_EDGE('',*,*,#1769,.F.);
#1769 = EDGE_CURVE('',#1770,#1762,#1772,.T.);
#1770 = VERTEX_POINT('',#1771);
#1771 = CARTESIAN_POINT('',(-33.5,66.5,-52.));
#1772 = LINE('',#1773,#1774);
#1773 = CARTESIAN_POINT('',(-33.82915929682,66.17084070318,-52.));
#1774 = VECTOR('',#1775,1.);
#1775 = DIRECTION('',(0.707106781187,0.707106781187,0.));
#1776 = ORIENTED_EDGE('',*,*,#1777,.T.);
#1777 = EDGE_CURVE('',#1770,#1212,#1778,.T.);
#1778 = LINE('',#1779,#1780);
#1779 = CARTESIAN_POINT('',(-33.5,66.5,-52.));
#1780 = VECTOR('',#1781,1.);
#1781 = DIRECTION('',(0.,0.,1.));
#1782 = PLANE('',#1783);
#1783 = AXIS2_PLACEMENT_3D('',#1784,#1785,#1786);
#1784 = CARTESIAN_POINT('',(-29.5,70.5,-52.));
#1785 = DIRECTION('',(0.707106781187,-0.707106781187,0.));
#1786 = DIRECTION('',(-0.,-0.,-1.));
#1787 = ADVANCED_FACE('',(#1788),#1806,.F.);
#1788 = FACE_BOUND('',#1789,.T.);
#1789 = EDGE_LOOP('',(#1790,#1798,#1804,#1805));
#1790 = ORIENTED_EDGE('',*,*,#1791,.F.);
#1791 = EDGE_CURVE('',#1792,#1770,#1794,.T.);
#1792 = VERTEX_POINT('',#1793);
#1793 = CARTESIAN_POINT('',(-33.5,40.75,-52.));
#1794 = LINE('',#1795,#1796);
#1795 = CARTESIAN_POINT('',(-33.5,49.283023412277,-52.));
#1796 = VECTOR('',#1797,1.);
#1797 = DIRECTION('',(0.,1.,0.));
#1798 = ORIENTED_EDGE('',*,*,#1799,.F.);
#1799 = EDGE_CURVE('',#1204,#1792,#1800,.T.);
#1800 = LINE('',#1801,#1802);
#1801 = CARTESIAN_POINT('',(-33.5,40.75,1.342474102477E-16));
#1802 = VECTOR('',#1803,1.);
#1803 = DIRECTION('',(-0.,-0.,-1.));
#1804 = ORIENTED_EDGE('',*,*,#1211,.F.);
#1805 = ORIENTED_EDGE('',*,*,#1777,.F.);
#1806 = PLANE('',#1807);
#1807 = AXIS2_PLACEMENT_3D('',#1808,#1809,#1810);
#1808 = CARTESIAN_POINT('',(-33.5,75.,1.342474102477E-16));
#1809 = DIRECTION('',(1.,0.,0.));
#1810 = DIRECTION('',(0.,1.,0.));
#1811 = ADVANCED_FACE('',(#1812),#1830,.F.);
#1812 = FACE_BOUND('',#1813,.T.);
#1813 = EDGE_LOOP('',(#1814,#1815,#1816,#1824));
#1814 = ORIENTED_EDGE('',*,*,#1203,.F.);
#1815 = ORIENTED_EDGE('',*,*,#1799,.T.);
#1816 = ORIENTED_EDGE('',*,*,#1817,.F.);
#1817 = EDGE_CURVE('',#1818,#1792,#1820,.T.);
#1818 = VERTEX_POINT('',#1819);
#1819 = CARTESIAN_POINT('',(-37.10461011005,40.75,-52.));
#1820 = LINE('',#1821,#1822);
#1821 = CARTESIAN_POINT('',(-16.69134200591,40.75,-52.));
#1822 = VECTOR('',#1823,1.);
#1823 = DIRECTION('',(1.,0.,0.));
#1824 = ORIENTED_EDGE('',*,*,#1825,.F.);
#1825 = EDGE_CURVE('',#1196,#1818,#1826,.T.);
#1826 = LINE('',#1827,#1828);
#1827 = CARTESIAN_POINT('',(-37.10461011005,40.75,-26.46685692106));
#1828 = VECTOR('',#1829,1.);
#1829 = DIRECTION('',(-0.,-0.,-1.));
#1830 = PLANE('',#1831);
#1831 = AXIS2_PLACEMENT_3D('',#1832,#1833,#1834);
#1832 = CARTESIAN_POINT('',(-33.5,40.75,1.342474102477E-16));
#1833 = DIRECTION('',(-0.,-1.,-0.));
#1834 = DIRECTION('',(1.,0.,0.));
#1835 = ADVANCED_FACE('',(#1836),#1853,.T.);
#1836 = FACE_BOUND('',#1837,.T.);
#1837 = EDGE_LOOP('',(#1838,#1839,#1840,#1846,#1847));
#1838 = ORIENTED_EDGE('',*,*,#1537,.T.);
#1839 = ORIENTED_EDGE('',*,*,#1187,.F.);
#1840 = ORIENTED_EDGE('',*,*,#1841,.F.);
#1841 = EDGE_CURVE('',#1400,#1188,#1842,.T.);
#1842 = LINE('',#1843,#1844);
#1843 = CARTESIAN_POINT('',(-39.40900976226,35.608083783913,
    -21.58472745625));
#1844 = VECTOR('',#1845,1.);
#1845 = DIRECTION('',(0.304649067008,0.679777909341,0.667151362094));
#1846 = ORIENTED_EDGE('',*,*,#1407,.T.);
#1847 = ORIENTED_EDGE('',*,*,#1848,.T.);
#1848 = EDGE_CURVE('',#1408,#1538,#1849,.T.);
#1849 = LINE('',#1850,#1851);
#1850 = CARTESIAN_POINT('',(-20.51096905708,24.440641588464,
    -2.879712792759));
#1851 = VECTOR('',#1852,1.);
#1852 = DIRECTION('',(-2.31483216504E-02,0.930032199374,0.366748228806)
  );
#1853 = PLANE('',#1854);
#1854 = AXIS2_PLACEMENT_3D('',#1855,#1856,#1857);
#1855 = CARTESIAN_POINT('',(-43.05788521677,41.451273259113,
    -23.62853205739));
#1856 = DIRECTION('',(-0.752359859324,-0.257782495491,0.606220114395));
#1857 = DIRECTION('',(0.593196562577,-0.665321500143,0.453282626618));
#1858 = ADVANCED_FACE('',(#1859),#1871,.F.);
#1859 = FACE_BOUND('',#1860,.F.);
#1860 = EDGE_LOOP('',(#1861,#1862,#1863,#1869,#1870));
#1861 = ORIENTED_EDGE('',*,*,#1841,.F.);
#1862 = ORIENTED_EDGE('',*,*,#1399,.T.);
#1863 = ORIENTED_EDGE('',*,*,#1864,.T.);
#1864 = EDGE_CURVE('',#1392,#1818,#1865,.T.);
#1865 = LINE('',#1866,#1867);
#1866 = CARTESIAN_POINT('',(-37.86741147997,39.047925132093,-52.));
#1867 = VECTOR('',#1868,1.);
#1868 = DIRECTION('',(0.408967639299,0.912548886365,0.));
#1869 = ORIENTED_EDGE('',*,*,#1825,.F.);
#1870 = ORIENTED_EDGE('',*,*,#1195,.F.);
#1871 = PLANE('',#1872);
#1872 = AXIS2_PLACEMENT_3D('',#1873,#1874,#1875);
#1873 = CARTESIAN_POINT('',(-38.44264635,37.764376289589,-26.46685692106
    ));
#1874 = DIRECTION('',(0.912548886365,-0.408967639299,3.316961527645E-17)
  );
#1875 = DIRECTION('',(3.026889548168E-17,-1.356529925605E-17,-1.));
#1876 = ADVANCED_FACE('',(#1877),#1895,.F.);
#1877 = FACE_BOUND('',#1878,.T.);
#1878 = EDGE_LOOP('',(#1879,#1880,#1887,#1894));
#1879 = ORIENTED_EDGE('',*,*,#1227,.F.);
#1880 = ORIENTED_EDGE('',*,*,#1881,.F.);
#1881 = EDGE_CURVE('',#1882,#1228,#1884,.T.);
#1882 = VERTEX_POINT('',#1883);
#1883 = CARTESIAN_POINT('',(-19.5,32.25,-35.));
#1884 = B_SPLINE_CURVE_WITH_KNOTS('',1,(#1885,#1886),.UNSPECIFIED.,.F.,
  .F.,(2,2),(-35.,-8.953846346288),.PIECEWISE_BEZIER_KNOTS.);
#1885 = CARTESIAN_POINT('',(-19.5,32.25,-35.));
#1886 = CARTESIAN_POINT('',(-19.5,32.25,-8.953846346288));
#1887 = ORIENTED_EDGE('',*,*,#1888,.T.);
#1888 = EDGE_CURVE('',#1882,#1882,#1889,.T.);
#1889 = CIRCLE('',#1890,4.5);
#1890 = AXIS2_PLACEMENT_3D('',#1891,#1892,#1893);
#1891 = CARTESIAN_POINT('',(-24.,32.25,-35.));
#1892 = DIRECTION('',(0.,0.,-1.));
#1893 = DIRECTION('',(1.,0.,0.));
#1894 = ORIENTED_EDGE('',*,*,#1881,.T.);
#1895 = CYLINDRICAL_SURFACE('',#1896,4.5);
#1896 = AXIS2_PLACEMENT_3D('',#1897,#1898,#1899);
#1897 = CARTESIAN_POINT('',(-24.,32.25,1.342474102477E-16));
#1898 = DIRECTION('',(0.,0.,1.));
#1899 = DIRECTION('',(1.,0.,0.));
#1900 = ADVANCED_FACE('',(#1901),#1912,.T.);
#1901 = FACE_BOUND('',#1902,.F.);
#1902 = EDGE_LOOP('',(#1903,#1904,#1905,#1911));
#1903 = ORIENTED_EDGE('',*,*,#1265,.F.);
#1904 = ORIENTED_EDGE('',*,*,#1761,.F.);
#1905 = ORIENTED_EDGE('',*,*,#1906,.T.);
#1906 = EDGE_CURVE('',#1762,#1342,#1907,.T.);
#1907 = LINE('',#1908,#1909);
#1908 = CARTESIAN_POINT('',(-61.59795139492,74.5,-52.));
#1909 = VECTOR('',#1910,1.);
#1910 = DIRECTION('',(1.,0.,0.));
#1911 = ORIENTED_EDGE('',*,*,#1341,.F.);
#1912 = PLANE('',#1913);
#1913 = AXIS2_PLACEMENT_3D('',#1914,#1915,#1916);
#1914 = CARTESIAN_POINT('',(-48.17090278985,74.5,-26.));
#1915 = DIRECTION('',(0.,1.,0.));
#1916 = DIRECTION('',(0.,0.,1.));
#1917 = ADVANCED_FACE('',(#1918,#1929,#1940),#1951,.T.);
#1918 = FACE_BOUND('',#1919,.F.);
#1919 = EDGE_LOOP('',(#1920,#1921,#1922,#1923,#1924,#1925,#1926,#1927,
    #1928));
#1920 = ORIENTED_EDGE('',*,*,#1476,.F.);
#1921 = ORIENTED_EDGE('',*,*,#1349,.T.);
#1922 = ORIENTED_EDGE('',*,*,#1906,.F.);
#1923 = ORIENTED_EDGE('',*,*,#1769,.F.);
#1924 = ORIENTED_EDGE('',*,*,#1791,.F.);
#1925 = ORIENTED_EDGE('',*,*,#1817,.F.);
#1926 = ORIENTED_EDGE('',*,*,#1864,.F.);
#1927 = ORIENTED_EDGE('',*,*,#1391,.T.);
#1928 = ORIENTED_EDGE('',*,*,#1451,.T.);
#1929 = FACE_BOUND('',#1930,.F.);
#1930 = EDGE_LOOP('',(#1931));
#1931 = ORIENTED_EDGE('',*,*,#1932,.T.);
#1932 = EDGE_CURVE('',#1933,#1933,#1935,.T.);
#1933 = VERTEX_POINT('',#1934);
#1934 = CARTESIAN_POINT('',(-21.35,32.25,-52.));
#1935 = CIRCLE('',#1936,2.65);
#1936 = AXIS2_PLACEMENT_3D('',#1937,#1938,#1939);
#1937 = CARTESIAN_POINT('',(-24.,32.25,-52.));
#1938 = DIRECTION('',(0.,0.,-1.));
#1939 = DIRECTION('',(1.,0.,0.));
#1940 = FACE_BOUND('',#1941,.F.);
#1941 = EDGE_LOOP('',(#1942));
#1942 = ORIENTED_EDGE('',*,*,#1943,.T.);
#1943 = EDGE_CURVE('',#1944,#1944,#1946,.T.);
#1944 = VERTEX_POINT('',#1945);
#1945 = CARTESIAN_POINT('',(-20.85,65.,-52.));
#1946 = CIRCLE('',#1947,2.65);
#1947 = AXIS2_PLACEMENT_3D('',#1948,#1949,#1950);
#1948 = CARTESIAN_POINT('',(-23.5,65.,-52.));
#1949 = DIRECTION('',(0.,0.,-1.));
#1950 = DIRECTION('',(1.,0.,0.));
#1951 = PLANE('',#1952);
#1952 = AXIS2_PLACEMENT_3D('',#1953,#1954,#1955);
#1953 = CARTESIAN_POINT('',(0.117315988166,23.566046824554,-52.));
#1954 = DIRECTION('',(-0.,-0.,-1.));
#1955 = DIRECTION('',(-1.,-0.,-0.));
#1956 = ADVANCED_FACE('',(#1957),#1964,.T.);
#1957 = FACE_BOUND('',#1958,.F.);
#1958 = EDGE_LOOP('',(#1959,#1960,#1961,#1962,#1963));
#1959 = ORIENTED_EDGE('',*,*,#1630,.F.);
#1960 = ORIENTED_EDGE('',*,*,#1415,.T.);
#1961 = ORIENTED_EDGE('',*,*,#1848,.T.);
#1962 = ORIENTED_EDGE('',*,*,#1545,.F.);
#1963 = ORIENTED_EDGE('',*,*,#1513,.F.);
#1964 = PLANE('',#1965);
#1965 = AXIS2_PLACEMENT_3D('',#1966,#1967,#1968);
#1966 = CARTESIAN_POINT('',(-20.28406199128,15.324176012983,
    -4.98213420185));
#1967 = DIRECTION('',(-0.999690392606,-2.488210061376E-02,
    3.05085658425E-16));
#1968 = DIRECTION('',(-2.488210061376E-02,0.999690392606,0.));
#1969 = ADVANCED_FACE('',(#1970),#1980,.F.);
#1970 = FACE_BOUND('',#1971,.T.);
#1971 = EDGE_LOOP('',(#1972,#1973,#1978,#1979));
#1972 = ORIENTED_EDGE('',*,*,#1423,.T.);
#1973 = ORIENTED_EDGE('',*,*,#1974,.F.);
#1974 = EDGE_CURVE('',#1668,#1424,#1975,.T.);
#1975 = B_SPLINE_CURVE_WITH_KNOTS('',1,(#1976,#1977),.UNSPECIFIED.,.F.,
  .F.,(2,2),(-52.,-10.84290442795),.PIECEWISE_BEZIER_KNOTS.);
#1976 = CARTESIAN_POINT('',(52.,-22.,-7.95));
#1977 = CARTESIAN_POINT('',(10.842904427951,-22.,-7.95));
#1978 = ORIENTED_EDGE('',*,*,#1667,.T.);
#1979 = ORIENTED_EDGE('',*,*,#1974,.T.);
#1980 = CYLINDRICAL_SURFACE('',#1981,3.);
#1981 = AXIS2_PLACEMENT_3D('',#1982,#1983,#1984);
#1982 = CARTESIAN_POINT('',(0.,-25.,-7.95));
#1983 = DIRECTION('',(-1.,-0.,-0.));
#1984 = DIRECTION('',(0.,1.,0.));
#1985 = ADVANCED_FACE('',(#1986),#1996,.F.);
#1986 = FACE_BOUND('',#1987,.T.);
#1987 = EDGE_LOOP('',(#1988,#1989,#1994,#1995));
#1988 = ORIENTED_EDGE('',*,*,#1434,.T.);
#1989 = ORIENTED_EDGE('',*,*,#1990,.F.);
#1990 = EDGE_CURVE('',#1708,#1435,#1991,.T.);
#1991 = B_SPLINE_CURVE_WITH_KNOTS('',1,(#1992,#1993),.UNSPECIFIED.,.F.,
  .F.,(2,2),(-52.,-10.84290442795),.PIECEWISE_BEZIER_KNOTS.);
#1992 = CARTESIAN_POINT('',(52.,-22.,-32.95));
#1993 = CARTESIAN_POINT('',(10.842904427951,-22.,-32.95));
#1994 = ORIENTED_EDGE('',*,*,#1707,.T.);
#1995 = ORIENTED_EDGE('',*,*,#1990,.T.);
#1996 = CYLINDRICAL_SURFACE('',#1997,3.);
#1997 = AXIS2_PLACEMENT_3D('',#1998,#1999,#2000);
#1998 = CARTESIAN_POINT('',(0.,-25.,-32.95));
#1999 = DIRECTION('',(-1.,-0.,-0.));
#2000 = DIRECTION('',(0.,1.,0.));
#2001 = ADVANCED_FACE('',(#2002),#2005,.T.);
#2002 = FACE_BOUND('',#2003,.F.);
#2003 = EDGE_LOOP('',(#2004));
#2004 = ORIENTED_EDGE('',*,*,#1571,.T.);
#2005 = PLANE('',#2006);
#2006 = AXIS2_PLACEMENT_3D('',#2007,#2008,#2009);
#2007 = CARTESIAN_POINT('',(7.4213020732,24.824379195767,-14.));
#2008 = DIRECTION('',(0.627534109304,0.778589071115,3.266558099582E-16)
  );
#2009 = DIRECTION('',(-0.778589071115,0.627534109304,0.));
#2010 = ADVANCED_FACE('',(#2011),#2014,.T.);
#2011 = FACE_BOUND('',#2012,.F.);
#2012 = EDGE_LOOP('',(#2013));
#2013 = ORIENTED_EDGE('',*,*,#1596,.T.);
#2014 = PLANE('',#2015);
#2015 = AXIS2_PLACEMENT_3D('',#2016,#2017,#2018);
#2016 = CARTESIAN_POINT('',(7.4213020732,24.824379195767,-14.));
#2017 = DIRECTION('',(0.627534109304,0.778589071115,3.266558099582E-16)
  );
#2018 = DIRECTION('',(-0.778589071115,0.627534109304,0.));
#2019 = ADVANCED_FACE('',(#2020,#2023),#2034,.F.);
#2020 = FACE_BOUND('',#2021,.T.);
#2021 = EDGE_LOOP('',(#2022));
#2022 = ORIENTED_EDGE('',*,*,#1888,.F.);
#2023 = FACE_BOUND('',#2024,.T.);
#2024 = EDGE_LOOP('',(#2025));
#2025 = ORIENTED_EDGE('',*,*,#2026,.T.);
#2026 = EDGE_CURVE('',#2027,#2027,#2029,.T.);
#2027 = VERTEX_POINT('',#2028);
#2028 = CARTESIAN_POINT('',(-21.35,32.25,-35.));
#2029 = CIRCLE('',#2030,2.65);
#2030 = AXIS2_PLACEMENT_3D('',#2031,#2032,#2033);
#2031 = CARTESIAN_POINT('',(-24.,32.25,-35.));
#2032 = DIRECTION('',(0.,0.,-1.));
#2033 = DIRECTION('',(1.,0.,0.));
#2034 = PLANE('',#2035);
#2035 = AXIS2_PLACEMENT_3D('',#2036,#2037,#2038);
#2036 = CARTESIAN_POINT('',(-23.75,48.625,-35.));
#2037 = DIRECTION('',(-0.,-0.,-1.));
#2038 = DIRECTION('',(-1.,-0.,-0.));
#2039 = ADVANCED_FACE('',(#2040),#2051,.F.);
#2040 = FACE_BOUND('',#2041,.T.);
#2041 = EDGE_LOOP('',(#2042,#2043,#2049,#2050));
#2042 = ORIENTED_EDGE('',*,*,#2026,.F.);
#2043 = ORIENTED_EDGE('',*,*,#2044,.T.);
#2044 = EDGE_CURVE('',#2027,#1933,#2045,.T.);
#2045 = LINE('',#2046,#2047);
#2046 = CARTESIAN_POINT('',(-21.35,32.25,1.342474102477E-16));
#2047 = VECTOR('',#2048,1.);
#2048 = DIRECTION('',(-0.,-0.,-1.));
#2049 = ORIENTED_EDGE('',*,*,#1932,.T.);
#2050 = ORIENTED_EDGE('',*,*,#2044,.F.);
#2051 = CYLINDRICAL_SURFACE('',#2052,2.65);
#2052 = AXIS2_PLACEMENT_3D('',#2053,#2054,#2055);
#2053 = CARTESIAN_POINT('',(-24.,32.25,1.342474102477E-16));
#2054 = DIRECTION('',(0.,0.,1.));
#2055 = DIRECTION('',(1.,0.,0.));
#2056 = ADVANCED_FACE('',(#2057),#2076,.F.);
#2057 = FACE_BOUND('',#2058,.T.);
#2058 = EDGE_LOOP('',(#2059,#2068,#2074,#2075));
#2059 = ORIENTED_EDGE('',*,*,#2060,.F.);
#2060 = EDGE_CURVE('',#2061,#2061,#2063,.T.);
#2061 = VERTEX_POINT('',#2062);
#2062 = CARTESIAN_POINT('',(-20.85,65.,-35.));
#2063 = CIRCLE('',#2064,2.65);
#2064 = AXIS2_PLACEMENT_3D('',#2065,#2066,#2067);
#2065 = CARTESIAN_POINT('',(-23.5,65.,-35.));
#2066 = DIRECTION('',(0.,0.,-1.));
#2067 = DIRECTION('',(1.,0.,0.));
#2068 = ORIENTED_EDGE('',*,*,#2069,.T.);
#2069 = EDGE_CURVE('',#2061,#1944,#2070,.T.);
#2070 = LINE('',#2071,#2072);
#2071 = CARTESIAN_POINT('',(-20.85,65.,1.342474102477E-16));
#2072 = VECTOR('',#2073,1.);
#2073 = DIRECTION('',(-0.,-0.,-1.));
#2074 = ORIENTED_EDGE('',*,*,#1943,.T.);
#2075 = ORIENTED_EDGE('',*,*,#2069,.F.);
#2076 = CYLINDRICAL_SURFACE('',#2077,2.65);
#2077 = AXIS2_PLACEMENT_3D('',#2078,#2079,#2080);
#2078 = CARTESIAN_POINT('',(-23.5,65.,1.342474102477E-16));
#2079 = DIRECTION('',(0.,0.,1.));
#2080 = DIRECTION('',(1.,0.,0.));
#2081 = ADVANCED_FACE('',(#2082,#2093),#2096,.F.);
#2082 = FACE_BOUND('',#2083,.T.);
#2083 = EDGE_LOOP('',(#2084));
#2084 = ORIENTED_EDGE('',*,*,#2085,.F.);
#2085 = EDGE_CURVE('',#2086,#2086,#2088,.T.);
#2086 = VERTEX_POINT('',#2087);
#2087 = CARTESIAN_POINT('',(-19.,65.,-35.));
#2088 = CIRCLE('',#2089,4.5);
#2089 = AXIS2_PLACEMENT_3D('',#2090,#2091,#2092);
#2090 = CARTESIAN_POINT('',(-23.5,65.,-35.));
#2091 = DIRECTION('',(0.,0.,-1.));
#2092 = DIRECTION('',(1.,0.,0.));
#2093 = FACE_BOUND('',#2094,.T.);
#2094 = EDGE_LOOP('',(#2095));
#2095 = ORIENTED_EDGE('',*,*,#2060,.T.);
#2096 = PLANE('',#2097);
#2097 = AXIS2_PLACEMENT_3D('',#2098,#2099,#2100);
#2098 = CARTESIAN_POINT('',(-23.75,48.625,-35.));
#2099 = DIRECTION('',(-0.,-0.,-1.));
#2100 = DIRECTION('',(-1.,-0.,-0.));
#2101 = ADVANCED_FACE('',(#2102),#2112,.F.);
#2102 = FACE_BOUND('',#2103,.T.);
#2103 = EDGE_LOOP('',(#2104,#2105,#2110,#2111));
#2104 = ORIENTED_EDGE('',*,*,#1238,.F.);
#2105 = ORIENTED_EDGE('',*,*,#2106,.F.);
#2106 = EDGE_CURVE('',#2086,#1239,#2107,.T.);
#2107 = B_SPLINE_CURVE_WITH_KNOTS('',1,(#2108,#2109),.UNSPECIFIED.,.F.,
  .F.,(2,2),(-35.,-19.3468605443),.PIECEWISE_BEZIER_KNOTS.);
#2108 = CARTESIAN_POINT('',(-19.,65.,-35.));
#2109 = CARTESIAN_POINT('',(-19.,65.,-19.3468605443));
#2110 = ORIENTED_EDGE('',*,*,#2085,.T.);
#2111 = ORIENTED_EDGE('',*,*,#2106,.T.);
#2112 = CYLINDRICAL_SURFACE('',#2113,4.5);
#2113 = AXIS2_PLACEMENT_3D('',#2114,#2115,#2116);
#2114 = CARTESIAN_POINT('',(-23.5,65.,1.342474102477E-16));
#2115 = DIRECTION('',(0.,0.,1.));
#2116 = DIRECTION('',(1.,0.,0.));
#2117 = ( GEOMETRIC_REPRESENTATION_CONTEXT(3) 
GLOBAL_UNCERTAINTY_ASSIGNED_CONTEXT((#2121)) 
GLOBAL_UNIT_ASSIGNED_CONTEXT((#2118,#2119,#2120)) REPRESENTATION_CONTEXT
('Context #1','3D Context with UNIT and UNCERTAINTY') );
#2118 = ( LENGTH_UNIT() NAMED_UNIT(*) SI_UNIT(.MILLI.,.METRE.) );
#2119 = ( NAMED_UNIT(*) PLANE_ANGLE_UNIT() SI_UNIT($,.RADIAN.) );
#2120 = ( NAMED_UNIT(*) SI_UNIT($,.STERADIAN.) SOLID_ANGLE_UNIT() );
#2121 = UNCERTAINTY_MEASURE_WITH_UNIT(LENGTH_MEASURE(2.E-04),#2118,
  'distance_accuracy_value','confusion accuracy');
#2122 = PRODUCT_RELATED_PRODUCT_CATEGORY('part',$,(#7));
#2123 = MECHANICAL_DESIGN_GEOMETRIC_PRESENTATION_REPRESENTATION('',(
    #2124),#2117);
#2124 = STYLED_ITEM('color',(#2125),#15);
#2125 = PRESENTATION_STYLE_ASSIGNMENT((#2126,#2132));
#2126 = SURFACE_STYLE_USAGE(.BOTH.,#2127);
#2127 = SURFACE_SIDE_STYLE('',(#2128));
#2128 = SURFACE_STYLE_FILL_AREA(#2129);
#2129 = FILL_AREA_STYLE('',(#2130));
#2130 = FILL_AREA_STYLE_COLOUR('',#2131);
#2131 = COLOUR_RGB('',0.447058818107,0.474509808674,0.501960817233);
#2132 = CURVE_STYLE('',#2133,POSITIVE_LENGTH_MEASURE(0.1),#2134);
#2133 = DRAUGHTING_PRE_DEFINED_CURVE_FONT('continuous');
#2134 = COLOUR_RGB('',9.803921802644E-02,9.803921802644E-02,
  9.803921802644E-02);
ENDSEC;
END-ISO-10303-21;
