ISO-10303-21;
HEADER;
FILE_DESCRIPTION(('FreeCAD Model'),'2;1');
FILE_NAME('Open CASCADE Shape Model','2025-12-30T13:35:18',(''),(''),
  'Open CASCADE STEP processor 7.8','FreeCAD','Unknown');
FILE_SCHEMA(('AUTOMOTIVE_DESIGN { 1 0 10303 214 1 1 1 1 }'));
ENDSEC;
DATA;
#1 = APPLICATION_PROTOCOL_DEFINITION('international standard',
  'automotive_design',2000,#2);
#2 = APPLICATION_CONTEXT(
  'core data for automotive mechanical design processes');
#3 = SHAPE_DEFINITION_REPRESENTATION(#4,#10);
#4 = PRODUCT_DEFINITION_SHAPE('','',#5);
#5 = PRODUCT_DEFINITION('design','',#6,#9);
#6 = PRODUCT_DEFINITION_FORMATION('','',#7);
#7 = PRODUCT('Mocowanie klicky dock','Mocowanie klicky dock','',(#8));
#8 = PRODUCT_CONTEXT('',#2,'mechanical');
#9 = PRODUCT_DEFINITION_CONTEXT('part definition',#2,'design');
#10 = ADVANCED_BREP_SHAPE_REPRESENTATION('',(#11,#15),#977);
#11 = AXIS2_PLACEMENT_3D('',#12,#13,#14);
#12 = CARTESIAN_POINT('',(0.,0.,0.));
#13 = DIRECTION('',(0.,0.,1.));
#14 = DIRECTION('',(1.,0.,-0.));
#15 = MANIFOLD_SOLID_BREP('',#16);
#16 = CLOSED_SHELL('',(#17,#97,#182,#206,#230,#261,#285,#325,#356,#398,
    #422,#446,#470,#494,#528,#553,#578,#594,#662,#679,#703,#720,#744,
    #761,#778,#789,#806,#826,#846,#863,#888,#905,#930,#948,#959,#968));
#17 = ADVANCED_FACE('',(#18),#92,.T.);
#18 = FACE_BOUND('',#19,.T.);
#19 = EDGE_LOOP('',(#20,#30,#38,#46,#54,#62,#70,#78,#86));
#20 = ORIENTED_EDGE('',*,*,#21,.F.);
#21 = EDGE_CURVE('',#22,#24,#26,.T.);
#22 = VERTEX_POINT('',#23);
#23 = CARTESIAN_POINT('',(-6.25,-20.,-34.));
#24 = VERTEX_POINT('',#25);
#25 = CARTESIAN_POINT('',(-6.25,-20.,-16.));
#26 = LINE('',#27,#28);
#27 = CARTESIAN_POINT('',(-6.25,-20.,-35.));
#28 = VECTOR('',#29,1.);
#29 = DIRECTION('',(-2.E-15,-1.22E-15,1.));
#30 = ORIENTED_EDGE('',*,*,#31,.F.);
#31 = EDGE_CURVE('',#32,#22,#34,.T.);
#32 = VERTEX_POINT('',#33);
#33 = CARTESIAN_POINT('',(6.,-20.,-34.));
#34 = LINE('',#35,#36);
#35 = CARTESIAN_POINT('',(7.,-20.,-34.));
#36 = VECTOR('',#37,1.);
#37 = DIRECTION('',(-1.,1.33E-15,-6.7E-16));
#38 = ORIENTED_EDGE('',*,*,#39,.F.);
#39 = EDGE_CURVE('',#40,#32,#42,.T.);
#40 = VERTEX_POINT('',#41);
#41 = CARTESIAN_POINT('',(6.,-20.,15.));
#42 = LINE('',#43,#44);
#43 = CARTESIAN_POINT('',(6.,-20.,15.));
#44 = VECTOR('',#45,1.);
#45 = DIRECTION('',(2.33E-15,-7.8E-16,-1.));
#46 = ORIENTED_EDGE('',*,*,#47,.F.);
#47 = EDGE_CURVE('',#48,#40,#50,.T.);
#48 = VERTEX_POINT('',#49);
#49 = CARTESIAN_POINT('',(2.,-20.,15.));
#50 = LINE('',#51,#52);
#51 = CARTESIAN_POINT('',(5.E-15,-20.,15.));
#52 = VECTOR('',#53,1.);
#53 = DIRECTION('',(1.,-8.9E-16,-5.6E-16));
#54 = ORIENTED_EDGE('',*,*,#55,.F.);
#55 = EDGE_CURVE('',#56,#48,#58,.T.);
#56 = VERTEX_POINT('',#57);
#57 = CARTESIAN_POINT('',(2.,-20.,12.));
#58 = LINE('',#59,#60);
#59 = CARTESIAN_POINT('',(2.,-20.,1.551724137931));
#60 = VECTOR('',#61,1.);
#61 = DIRECTION('',(-3.3E-16,1.78E-15,1.));
#62 = ORIENTED_EDGE('',*,*,#63,.T.);
#63 = EDGE_CURVE('',#56,#64,#66,.T.);
#64 = VERTEX_POINT('',#65);
#65 = CARTESIAN_POINT('',(2.,-20.,11.));
#66 = LINE('',#67,#68);
#67 = CARTESIAN_POINT('',(2.,-20.,1.551724137931));
#68 = VECTOR('',#69,1.);
#69 = DIRECTION('',(3.3E-16,-1.78E-15,-1.));
#70 = ORIENTED_EDGE('',*,*,#71,.T.);
#71 = EDGE_CURVE('',#64,#72,#74,.T.);
#72 = VERTEX_POINT('',#73);
#73 = CARTESIAN_POINT('',(1.,-20.,11.));
#74 = LINE('',#75,#76);
#75 = CARTESIAN_POINT('',(2.,-20.,11.));
#76 = VECTOR('',#77,1.);
#77 = DIRECTION('',(-1.,8.2E-16,-1.1E-16));
#78 = ORIENTED_EDGE('',*,*,#79,.T.);
#79 = EDGE_CURVE('',#72,#80,#82,.T.);
#80 = VERTEX_POINT('',#81);
#81 = CARTESIAN_POINT('',(1.,-20.,-16.));
#82 = LINE('',#83,#84);
#83 = CARTESIAN_POINT('',(1.,-20.,11.));
#84 = VECTOR('',#85,1.);
#85 = DIRECTION('',(2.33E-15,-7.8E-16,-1.));
#86 = ORIENTED_EDGE('',*,*,#87,.T.);
#87 = EDGE_CURVE('',#80,#24,#88,.T.);
#88 = LINE('',#89,#90);
#89 = CARTESIAN_POINT('',(3.286E-14,-20.,-16.));
#90 = VECTOR('',#91,1.);
#91 = DIRECTION('',(-1.,1.33E-15,-6.7E-16));
#92 = PLANE('',#93);
#93 = AXIS2_PLACEMENT_3D('',#94,#95,#96);
#94 = CARTESIAN_POINT('',(1.271551724138,-20.,-11.89655172413));
#95 = DIRECTION('',(8.5E-16,-1.,1.22E-15));
#96 = DIRECTION('',(-1.,-8.5E-16,4.4E-16));
#97 = ADVANCED_FACE('',(#98,#155,#166),#177,.F.);
#98 = FACE_BOUND('',#99,.F.);
#99 = EDGE_LOOP('',(#100,#101,#109,#117,#125,#133,#141,#149));
#100 = ORIENTED_EDGE('',*,*,#21,.F.);
#101 = ORIENTED_EDGE('',*,*,#102,.T.);
#102 = EDGE_CURVE('',#22,#103,#105,.T.);
#103 = VERTEX_POINT('',#104);
#104 = CARTESIAN_POINT('',(-6.25,-19.,-35.));
#105 = LINE('',#106,#107);
#106 = CARTESIAN_POINT('',(-6.25,-17.,-37.));
#107 = VECTOR('',#108,1.);
#108 = DIRECTION('',(1.41E-15,0.707106781187,-0.707106781187));
#109 = ORIENTED_EDGE('',*,*,#110,.F.);
#110 = EDGE_CURVE('',#111,#103,#113,.T.);
#111 = VERTEX_POINT('',#112);
#112 = CARTESIAN_POINT('',(-6.25,19.,-35.));
#113 = LINE('',#114,#115);
#114 = CARTESIAN_POINT('',(-6.25,20.,-35.));
#115 = VECTOR('',#116,1.);
#116 = DIRECTION('',(1.89E-15,-1.,1.44E-15));
#117 = ORIENTED_EDGE('',*,*,#118,.T.);
#118 = EDGE_CURVE('',#111,#119,#121,.T.);
#119 = VERTEX_POINT('',#120);
#120 = CARTESIAN_POINT('',(-6.25,20.,-34.));
#121 = LINE('',#122,#123);
#122 = CARTESIAN_POINT('',(-6.25,17.,-37.));
#123 = VECTOR('',#124,1.);
#124 = DIRECTION('',(4.7E-16,0.707106781187,0.707106781187));
#125 = ORIENTED_EDGE('',*,*,#126,.F.);
#126 = EDGE_CURVE('',#127,#119,#129,.T.);
#127 = VERTEX_POINT('',#128);
#128 = CARTESIAN_POINT('',(-6.25,20.,-16.));
#129 = LINE('',#130,#131);
#130 = CARTESIAN_POINT('',(-6.25,20.,-15.));
#131 = VECTOR('',#132,1.);
#132 = DIRECTION('',(2.E-15,1.22E-15,-1.));
#133 = ORIENTED_EDGE('',*,*,#134,.F.);
#134 = EDGE_CURVE('',#135,#127,#137,.T.);
#135 = VERTEX_POINT('',#136);
#136 = CARTESIAN_POINT('',(-6.25,19.,-15.));
#137 = LINE('',#138,#139);
#138 = CARTESIAN_POINT('',(-6.25,17.,-13.));
#139 = VECTOR('',#140,1.);
#140 = DIRECTION('',(1.41E-15,0.707106781187,-0.707106781187));
#141 = ORIENTED_EDGE('',*,*,#142,.F.);
#142 = EDGE_CURVE('',#143,#135,#145,.T.);
#143 = VERTEX_POINT('',#144);
#144 = CARTESIAN_POINT('',(-6.25,-19.,-15.));
#145 = LINE('',#146,#147);
#146 = CARTESIAN_POINT('',(-6.25,-20.,-15.));
#147 = VECTOR('',#148,1.);
#148 = DIRECTION('',(-1.89E-15,1.,-1.44E-15));
#149 = ORIENTED_EDGE('',*,*,#150,.F.);
#150 = EDGE_CURVE('',#24,#143,#151,.T.);
#151 = LINE('',#152,#153);
#152 = CARTESIAN_POINT('',(-6.25,-17.,-13.));
#153 = VECTOR('',#154,1.);
#154 = DIRECTION('',(4.7E-16,0.707106781187,0.707106781187));
#155 = FACE_BOUND('',#156,.F.);
#156 = EDGE_LOOP('',(#157));
#157 = ORIENTED_EDGE('',*,*,#158,.F.);
#158 = EDGE_CURVE('',#159,#159,#161,.T.);
#159 = VERTEX_POINT('',#160);
#160 = CARTESIAN_POINT('',(-6.25,12.65,-25.));
#161 = CIRCLE('',#162,2.65);
#162 = AXIS2_PLACEMENT_3D('',#163,#164,#165);
#163 = CARTESIAN_POINT('',(-6.25,10.,-25.));
#164 = DIRECTION('',(1.,6.7E-16,1.E-15));
#165 = DIRECTION('',(-6.7E-16,1.,-7.8E-16));
#166 = FACE_BOUND('',#167,.F.);
#167 = EDGE_LOOP('',(#168));
#168 = ORIENTED_EDGE('',*,*,#169,.F.);
#169 = EDGE_CURVE('',#170,#170,#172,.T.);
#170 = VERTEX_POINT('',#171);
#171 = CARTESIAN_POINT('',(-6.25,-7.35,-25.));
#172 = CIRCLE('',#173,2.65);
#173 = AXIS2_PLACEMENT_3D('',#174,#175,#176);
#174 = CARTESIAN_POINT('',(-6.25,-10.,-25.));
#175 = DIRECTION('',(1.,6.7E-16,1.E-15));
#176 = DIRECTION('',(-6.7E-16,1.,-7.8E-16));
#177 = PLANE('',#178);
#178 = AXIS2_PLACEMENT_3D('',#179,#180,#181);
#179 = CARTESIAN_POINT('',(-6.25,2.806E-14,-25.));
#180 = DIRECTION('',(1.,-7.8E-16,-6.7E-16));
#181 = DIRECTION('',(6.7E-16,-1.22E-15,1.));
#182 = ADVANCED_FACE('',(#183),#201,.T.);
#183 = FACE_BOUND('',#184,.T.);
#184 = EDGE_LOOP('',(#185,#186,#187,#195));
#185 = ORIENTED_EDGE('',*,*,#31,.T.);
#186 = ORIENTED_EDGE('',*,*,#102,.T.);
#187 = ORIENTED_EDGE('',*,*,#188,.F.);
#188 = EDGE_CURVE('',#189,#103,#191,.T.);
#189 = VERTEX_POINT('',#190);
#190 = CARTESIAN_POINT('',(6.,-19.,-35.));
#191 = LINE('',#192,#193);
#192 = CARTESIAN_POINT('',(7.,-19.,-35.));
#193 = VECTOR('',#194,1.);
#194 = DIRECTION('',(-1.,1.33E-15,-6.7E-16));
#195 = ORIENTED_EDGE('',*,*,#196,.F.);
#196 = EDGE_CURVE('',#32,#189,#197,.T.);
#197 = LINE('',#198,#199);
#198 = CARTESIAN_POINT('',(6.,-19.5,-34.5));
#199 = VECTOR('',#200,1.);
#200 = DIRECTION('',(-3.328E-14,0.707106781187,-0.707106781187));
#201 = PLANE('',#202);
#202 = AXIS2_PLACEMENT_3D('',#203,#204,#205);
#203 = CARTESIAN_POINT('',(7.,-19.5,-34.5));
#204 = DIRECTION('',(6.E-16,-0.707106781187,-0.707106781187));
#205 = DIRECTION('',(-1.,5.757359312881E-16,-1.424264068712E-15));
#206 = ADVANCED_FACE('',(#207),#225,.F.);
#207 = FACE_BOUND('',#208,.F.);
#208 = EDGE_LOOP('',(#209,#217,#218,#219));
#209 = ORIENTED_EDGE('',*,*,#210,.F.);
#210 = EDGE_CURVE('',#80,#211,#213,.T.);
#211 = VERTEX_POINT('',#212);
#212 = CARTESIAN_POINT('',(3.1E-14,-19.,-15.));
#213 = LINE('',#214,#215);
#214 = CARTESIAN_POINT('',(-4.,-15.,-11.));
#215 = VECTOR('',#216,1.);
#216 = DIRECTION('',(-0.57735026919,0.57735026919,0.57735026919));
#217 = ORIENTED_EDGE('',*,*,#87,.T.);
#218 = ORIENTED_EDGE('',*,*,#150,.T.);
#219 = ORIENTED_EDGE('',*,*,#220,.F.);
#220 = EDGE_CURVE('',#211,#143,#221,.T.);
#221 = LINE('',#222,#223);
#222 = CARTESIAN_POINT('',(3.353E-14,-19.,-15.));
#223 = VECTOR('',#224,1.);
#224 = DIRECTION('',(-1.,1.33E-15,-6.7E-16));
#225 = PLANE('',#226);
#226 = AXIS2_PLACEMENT_3D('',#227,#228,#229);
#227 = CARTESIAN_POINT('',(3.32E-14,-19.5,-15.5));
#228 = DIRECTION('',(1.83E-15,0.707106781187,-0.707106781187));
#229 = DIRECTION('',(-1.,1.629005409571E-15,-9.590054095714E-16));
#230 = ADVANCED_FACE('',(#231),#256,.T.);
#231 = FACE_BOUND('',#232,.T.);
#232 = EDGE_LOOP('',(#233,#241,#242,#250));
#233 = ORIENTED_EDGE('',*,*,#234,.F.);
#234 = EDGE_CURVE('',#40,#235,#237,.T.);
#235 = VERTEX_POINT('',#236);
#236 = CARTESIAN_POINT('',(7.,-19.,15.));
#237 = LINE('',#238,#239);
#238 = CARTESIAN_POINT('',(14.75,-11.25,15.));
#239 = VECTOR('',#240,1.);
#240 = DIRECTION('',(0.707106781187,0.707106781187,7.9E-16));
#241 = ORIENTED_EDGE('',*,*,#39,.T.);
#242 = ORIENTED_EDGE('',*,*,#243,.F.);
#243 = EDGE_CURVE('',#244,#32,#246,.T.);
#244 = VERTEX_POINT('',#245);
#245 = CARTESIAN_POINT('',(7.,-19.,-34.));
#246 = LINE('',#247,#248);
#247 = CARTESIAN_POINT('',(6.750000000001,-19.24999999999,-34.));
#248 = VECTOR('',#249,1.);
#249 = DIRECTION('',(-0.707106781187,-0.707106781187,-5.779E-14));
#250 = ORIENTED_EDGE('',*,*,#251,.F.);
#251 = EDGE_CURVE('',#235,#244,#252,.T.);
#252 = LINE('',#253,#254);
#253 = CARTESIAN_POINT('',(7.,-19.,15.));
#254 = VECTOR('',#255,1.);
#255 = DIRECTION('',(2.33E-15,-7.8E-16,-1.));
#256 = PLANE('',#257);
#257 = AXIS2_PLACEMENT_3D('',#258,#259,#260);
#258 = CARTESIAN_POINT('',(6.5,-19.5,15.));
#259 = DIRECTION('',(0.707106781187,-0.707106781187,1.91E-15));
#260 = DIRECTION('',(2.130573952066E-15,-5.705739520663E-16,-1.));
#261 = ADVANCED_FACE('',(#262),#280,.F.);
#262 = FACE_BOUND('',#263,.F.);
#263 = EDGE_LOOP('',(#264,#272,#273,#274));
#264 = ORIENTED_EDGE('',*,*,#265,.F.);
#265 = EDGE_CURVE('',#72,#266,#268,.T.);
#266 = VERTEX_POINT('',#267);
#267 = CARTESIAN_POINT('',(-6.3E-14,-19.,11.));
#268 = LINE('',#269,#270);
#269 = CARTESIAN_POINT('',(-6.106E-14,-19.,11.));
#270 = VECTOR('',#271,1.);
#271 = DIRECTION('',(-0.707106781187,0.707106781187,7.03E-14));
#272 = ORIENTED_EDGE('',*,*,#79,.T.);
#273 = ORIENTED_EDGE('',*,*,#210,.T.);
#274 = ORIENTED_EDGE('',*,*,#275,.F.);
#275 = EDGE_CURVE('',#266,#211,#276,.T.);
#276 = LINE('',#277,#278);
#277 = CARTESIAN_POINT('',(-2.406E-14,-19.,11.));
#278 = VECTOR('',#279,1.);
#279 = DIRECTION('',(2.33E-15,-7.8E-16,-1.));
#280 = PLANE('',#281);
#281 = AXIS2_PLACEMENT_3D('',#282,#283,#284);
#282 = CARTESIAN_POINT('',(0.5,-19.5,11.));
#283 = DIRECTION('',(0.707106781187,0.707106781187,-7.7E-16));
#284 = DIRECTION('',(1.010527778486E-15,-2.099472221514E-15,-1.));
#285 = ADVANCED_FACE('',(#286),#320,.F.);
#286 = FACE_BOUND('',#287,.F.);
#287 = EDGE_LOOP('',(#288,#289,#297,#305,#313,#319));
#288 = ORIENTED_EDGE('',*,*,#47,.F.);
#289 = ORIENTED_EDGE('',*,*,#290,.F.);
#290 = EDGE_CURVE('',#291,#48,#293,.T.);
#291 = VERTEX_POINT('',#292);
#292 = CARTESIAN_POINT('',(2.,20.,15.));
#293 = LINE('',#294,#295);
#294 = CARTESIAN_POINT('',(2.,20.,15.));
#295 = VECTOR('',#296,1.);
#296 = DIRECTION('',(0.,-1.,1.67E-15));
#297 = ORIENTED_EDGE('',*,*,#298,.T.);
#298 = EDGE_CURVE('',#291,#299,#301,.T.);
#299 = VERTEX_POINT('',#300);
#300 = CARTESIAN_POINT('',(6.,20.,15.));
#301 = LINE('',#302,#303);
#302 = CARTESIAN_POINT('',(-7.494E-14,20.,15.));
#303 = VECTOR('',#304,1.);
#304 = DIRECTION('',(1.,-8.9E-16,-5.6E-16));
#305 = ORIENTED_EDGE('',*,*,#306,.F.);
#306 = EDGE_CURVE('',#307,#299,#309,.T.);
#307 = VERTEX_POINT('',#308);
#308 = CARTESIAN_POINT('',(7.,19.,15.));
#309 = LINE('',#310,#311);
#310 = CARTESIAN_POINT('',(4.75,21.25,15.));
#311 = VECTOR('',#312,1.);
#312 = DIRECTION('',(-0.707106781187,0.707106781187,-2.2E-15));
#313 = ORIENTED_EDGE('',*,*,#314,.T.);
#314 = EDGE_CURVE('',#307,#235,#315,.T.);
#315 = LINE('',#316,#317);
#316 = CARTESIAN_POINT('',(7.,20.,15.));
#317 = VECTOR('',#318,1.);
#318 = DIRECTION('',(2.22E-15,-1.,1.67E-15));
#319 = ORIENTED_EDGE('',*,*,#234,.F.);
#320 = PLANE('',#321);
#321 = AXIS2_PLACEMENT_3D('',#322,#323,#324);
#322 = CARTESIAN_POINT('',(-7.494E-14,20.,15.));
#323 = DIRECTION('',(2.11E-15,1.E-15,-1.));
#324 = DIRECTION('',(2.E-15,-1.,-1.E-15));
#325 = ADVANCED_FACE('',(#326),#351,.F.);
#326 = FACE_BOUND('',#327,.F.);
#327 = EDGE_LOOP('',(#328,#336,#337,#345));
#328 = ORIENTED_EDGE('',*,*,#329,.F.);
#329 = EDGE_CURVE('',#64,#330,#332,.T.);
#330 = VERTEX_POINT('',#331);
#331 = CARTESIAN_POINT('',(2.,-19.,12.));
#332 = LINE('',#333,#334);
#333 = CARTESIAN_POINT('',(2.,-8.75,22.25));
#334 = VECTOR('',#335,1.);
#335 = DIRECTION('',(-2.4E-16,0.707106781187,0.707106781187));
#336 = ORIENTED_EDGE('',*,*,#71,.T.);
#337 = ORIENTED_EDGE('',*,*,#338,.T.);
#338 = EDGE_CURVE('',#72,#339,#341,.T.);
#339 = VERTEX_POINT('',#340);
#340 = CARTESIAN_POINT('',(1.,-19.,12.));
#341 = LINE('',#342,#343);
#342 = CARTESIAN_POINT('',(1.,-19.5,11.5));
#343 = VECTOR('',#344,1.);
#344 = DIRECTION('',(5.E-16,0.707106781187,0.707106781187));
#345 = ORIENTED_EDGE('',*,*,#346,.F.);
#346 = EDGE_CURVE('',#330,#339,#347,.T.);
#347 = LINE('',#348,#349);
#348 = CARTESIAN_POINT('',(2.,-19.,12.));
#349 = VECTOR('',#350,1.);
#350 = DIRECTION('',(-1.,8.2E-16,-1.1E-16));
#351 = PLANE('',#352);
#352 = AXIS2_PLACEMENT_3D('',#353,#354,#355);
#353 = CARTESIAN_POINT('',(2.,-19.5,11.5));
#354 = DIRECTION('',(5.7E-16,0.707106781187,-0.707106781187));
#355 = DIRECTION('',(-1.,7.580508652763E-16,-4.805086527633E-17));
#356 = ADVANCED_FACE('',(#357),#393,.F.);
#357 = FACE_BOUND('',#358,.F.);
#358 = EDGE_LOOP('',(#359,#367,#375,#383,#389,#390,#391,#392));
#359 = ORIENTED_EDGE('',*,*,#360,.F.);
#360 = EDGE_CURVE('',#361,#330,#363,.T.);
#361 = VERTEX_POINT('',#362);
#362 = CARTESIAN_POINT('',(2.,19.,12.));
#363 = LINE('',#364,#365);
#364 = CARTESIAN_POINT('',(2.,20.,12.));
#365 = VECTOR('',#366,1.);
#366 = DIRECTION('',(0.,-1.,1.67E-15));
#367 = ORIENTED_EDGE('',*,*,#368,.T.);
#368 = EDGE_CURVE('',#361,#369,#371,.T.);
#369 = VERTEX_POINT('',#370);
#370 = CARTESIAN_POINT('',(2.,20.,11.));
#371 = LINE('',#372,#373);
#372 = CARTESIAN_POINT('',(2.,18.75,12.25));
#373 = VECTOR('',#374,1.);
#374 = DIRECTION('',(2.4E-16,0.707106781187,-0.707106781187));
#375 = ORIENTED_EDGE('',*,*,#376,.F.);
#376 = EDGE_CURVE('',#377,#369,#379,.T.);
#377 = VERTEX_POINT('',#378);
#378 = CARTESIAN_POINT('',(2.,20.,12.));
#379 = LINE('',#380,#381);
#380 = CARTESIAN_POINT('',(2.,20.,1.551724137931));
#381 = VECTOR('',#382,1.);
#382 = DIRECTION('',(3.3E-16,-1.78E-15,-1.));
#383 = ORIENTED_EDGE('',*,*,#384,.F.);
#384 = EDGE_CURVE('',#291,#377,#385,.T.);
#385 = LINE('',#386,#387);
#386 = CARTESIAN_POINT('',(2.,20.,15.));
#387 = VECTOR('',#388,1.);
#388 = DIRECTION('',(3.3E-16,-1.22E-15,-1.));
#389 = ORIENTED_EDGE('',*,*,#290,.T.);
#390 = ORIENTED_EDGE('',*,*,#55,.F.);
#391 = ORIENTED_EDGE('',*,*,#63,.T.);
#392 = ORIENTED_EDGE('',*,*,#329,.T.);
#393 = PLANE('',#394);
#394 = AXIS2_PLACEMENT_3D('',#395,#396,#397);
#395 = CARTESIAN_POINT('',(2.,20.,15.));
#396 = DIRECTION('',(1.,0.,3.3E-16));
#397 = DIRECTION('',(3.3E-16,-1.44E-15,-1.));
#398 = ADVANCED_FACE('',(#399),#417,.T.);
#399 = FACE_BOUND('',#400,.T.);
#400 = EDGE_LOOP('',(#401,#402,#410,#416));
#401 = ORIENTED_EDGE('',*,*,#110,.F.);
#402 = ORIENTED_EDGE('',*,*,#403,.F.);
#403 = EDGE_CURVE('',#404,#111,#406,.T.);
#404 = VERTEX_POINT('',#405);
#405 = CARTESIAN_POINT('',(6.,19.,-35.));
#406 = LINE('',#407,#408);
#407 = CARTESIAN_POINT('',(7.,19.,-35.));
#408 = VECTOR('',#409,1.);
#409 = DIRECTION('',(-1.,1.33E-15,-6.7E-16));
#410 = ORIENTED_EDGE('',*,*,#411,.F.);
#411 = EDGE_CURVE('',#189,#404,#412,.T.);
#412 = LINE('',#413,#414);
#413 = CARTESIAN_POINT('',(6.,-20.,-35.));
#414 = VECTOR('',#415,1.);
#415 = DIRECTION('',(0.,1.,-2.33E-15));
#416 = ORIENTED_EDGE('',*,*,#188,.T.);
#417 = PLANE('',#418);
#418 = AXIS2_PLACEMENT_3D('',#419,#420,#421);
#419 = CARTESIAN_POINT('',(-0.625,3.326E-14,-35.));
#420 = DIRECTION('',(1.31E-15,4.7E-16,-1.));
#421 = DIRECTION('',(1.67E-15,-1.,-4.7E-16));
#422 = ADVANCED_FACE('',(#423),#441,.F.);
#423 = FACE_BOUND('',#424,.F.);
#424 = EDGE_LOOP('',(#425,#433,#434,#435));
#425 = ORIENTED_EDGE('',*,*,#426,.F.);
#426 = EDGE_CURVE('',#211,#427,#429,.T.);
#427 = VERTEX_POINT('',#428);
#428 = CARTESIAN_POINT('',(7.8E-14,19.,-15.));
#429 = LINE('',#430,#431);
#430 = CARTESIAN_POINT('',(6.994E-14,-20.,-15.));
#431 = VECTOR('',#432,1.);
#432 = DIRECTION('',(-1.89E-15,1.,-1.44E-15));
#433 = ORIENTED_EDGE('',*,*,#220,.T.);
#434 = ORIENTED_EDGE('',*,*,#142,.T.);
#435 = ORIENTED_EDGE('',*,*,#436,.F.);
#436 = EDGE_CURVE('',#427,#135,#437,.T.);
#437 = LINE('',#438,#439);
#438 = CARTESIAN_POINT('',(3.086E-14,19.,-15.));
#439 = VECTOR('',#440,1.);
#440 = DIRECTION('',(-1.,1.33E-15,-6.7E-16));
#441 = PLANE('',#442);
#442 = AXIS2_PLACEMENT_3D('',#443,#444,#445);
#443 = CARTESIAN_POINT('',(6.55E-14,-20.,-15.));
#444 = DIRECTION('',(1.78E-15,7.8E-16,-1.));
#445 = DIRECTION('',(-1.67E-15,1.,7.8E-16));
#446 = ADVANCED_FACE('',(#447),#465,.T.);
#447 = FACE_BOUND('',#448,.T.);
#448 = EDGE_LOOP('',(#449,#457,#458,#459));
#449 = ORIENTED_EDGE('',*,*,#450,.F.);
#450 = EDGE_CURVE('',#404,#451,#453,.T.);
#451 = VERTEX_POINT('',#452);
#452 = CARTESIAN_POINT('',(6.,20.,-34.));
#453 = LINE('',#454,#455);
#454 = CARTESIAN_POINT('',(6.,19.25,-34.75));
#455 = VECTOR('',#456,1.);
#456 = DIRECTION('',(1.636E-14,0.707106781187,0.707106781187));
#457 = ORIENTED_EDGE('',*,*,#403,.T.);
#458 = ORIENTED_EDGE('',*,*,#118,.T.);
#459 = ORIENTED_EDGE('',*,*,#460,.F.);
#460 = EDGE_CURVE('',#451,#119,#461,.T.);
#461 = LINE('',#462,#463);
#462 = CARTESIAN_POINT('',(7.,20.,-34.));
#463 = VECTOR('',#464,1.);
#464 = DIRECTION('',(-1.,1.33E-15,-6.7E-16));
#465 = PLANE('',#466);
#466 = AXIS2_PLACEMENT_3D('',#467,#468,#469);
#467 = CARTESIAN_POINT('',(7.,19.5,-34.5));
#468 = DIRECTION('',(1.34E-15,0.707106781187,-0.707106781187));
#469 = DIRECTION('',(-1.,1.28252308679E-15,-6.1252308679E-16));
#470 = ADVANCED_FACE('',(#471),#489,.F.);
#471 = FACE_BOUND('',#472,.F.);
#472 = EDGE_LOOP('',(#473,#481,#482,#483));
#473 = ORIENTED_EDGE('',*,*,#474,.F.);
#474 = EDGE_CURVE('',#427,#475,#477,.T.);
#475 = VERTEX_POINT('',#476);
#476 = CARTESIAN_POINT('',(1.,20.,-16.));
#477 = LINE('',#478,#479);
#478 = CARTESIAN_POINT('',(0.333333333333,19.333333333333,
    -15.33333333333));
#479 = VECTOR('',#480,1.);
#480 = DIRECTION('',(0.57735026919,0.57735026919,-0.57735026919));
#481 = ORIENTED_EDGE('',*,*,#436,.T.);
#482 = ORIENTED_EDGE('',*,*,#134,.T.);
#483 = ORIENTED_EDGE('',*,*,#484,.F.);
#484 = EDGE_CURVE('',#475,#127,#485,.T.);
#485 = LINE('',#486,#487);
#486 = CARTESIAN_POINT('',(3.286E-14,20.,-16.));
#487 = VECTOR('',#488,1.);
#488 = DIRECTION('',(-1.,1.33E-15,-6.7E-16));
#489 = PLANE('',#490);
#490 = AXIS2_PLACEMENT_3D('',#491,#492,#493);
#491 = CARTESIAN_POINT('',(3.186E-14,19.5,-15.5));
#492 = DIRECTION('',(9.6E-16,-0.707106781187,-0.707106781187));
#493 = DIRECTION('',(-1.,3.211774900609E-16,-1.678822509939E-15));
#494 = ADVANCED_FACE('',(#495),#523,.T.);
#495 = FACE_BOUND('',#496,.T.);
#496 = EDGE_LOOP('',(#497,#498,#504,#505,#506,#507,#515,#521,#522));
#497 = ORIENTED_EDGE('',*,*,#298,.T.);
#498 = ORIENTED_EDGE('',*,*,#499,.F.);
#499 = EDGE_CURVE('',#451,#299,#500,.T.);
#500 = LINE('',#501,#502);
#501 = CARTESIAN_POINT('',(6.,20.,-35.));
#502 = VECTOR('',#503,1.);
#503 = DIRECTION('',(-2.33E-15,7.8E-16,1.));
#504 = ORIENTED_EDGE('',*,*,#460,.T.);
#505 = ORIENTED_EDGE('',*,*,#126,.F.);
#506 = ORIENTED_EDGE('',*,*,#484,.F.);
#507 = ORIENTED_EDGE('',*,*,#508,.T.);
#508 = EDGE_CURVE('',#475,#509,#511,.T.);
#509 = VERTEX_POINT('',#510);
#510 = CARTESIAN_POINT('',(1.,20.,11.));
#511 = LINE('',#512,#513);
#512 = CARTESIAN_POINT('',(1.,20.,-15.));
#513 = VECTOR('',#514,1.);
#514 = DIRECTION('',(-2.33E-15,7.8E-16,1.));
#515 = ORIENTED_EDGE('',*,*,#516,.T.);
#516 = EDGE_CURVE('',#509,#369,#517,.T.);
#517 = LINE('',#518,#519);
#518 = CARTESIAN_POINT('',(1.,20.,11.));
#519 = VECTOR('',#520,1.);
#520 = DIRECTION('',(1.,-2.2E-16,1.1E-16));
#521 = ORIENTED_EDGE('',*,*,#376,.F.);
#522 = ORIENTED_EDGE('',*,*,#384,.F.);
#523 = PLANE('',#524);
#524 = AXIS2_PLACEMENT_3D('',#525,#526,#527);
#525 = CARTESIAN_POINT('',(1.271551724138,20.,-11.89655172413));
#526 = DIRECTION('',(-1.26E-15,1.,-1.22E-15));
#527 = DIRECTION('',(1.,1.26E-15,-4.4E-16));
#528 = ADVANCED_FACE('',(#529),#548,.F.);
#529 = FACE_BOUND('',#530,.F.);
#530 = EDGE_LOOP('',(#531,#540,#546,#547));
#531 = ORIENTED_EDGE('',*,*,#532,.F.);
#532 = EDGE_CURVE('',#533,#533,#535,.T.);
#533 = VERTEX_POINT('',#534);
#534 = CARTESIAN_POINT('',(-1.,12.65,-25.));
#535 = CIRCLE('',#536,2.65);
#536 = AXIS2_PLACEMENT_3D('',#537,#538,#539);
#537 = CARTESIAN_POINT('',(-1.,10.,-25.));
#538 = DIRECTION('',(1.,1.1E-16,7.8E-16));
#539 = DIRECTION('',(-1.1E-16,1.,-8.9E-16));
#540 = ORIENTED_EDGE('',*,*,#541,.T.);
#541 = EDGE_CURVE('',#533,#159,#542,.T.);
#542 = LINE('',#543,#544);
#543 = CARTESIAN_POINT('',(7.,12.65,-25.));
#544 = VECTOR('',#545,1.);
#545 = DIRECTION('',(-1.,4.4E-16,1.1E-16));
#546 = ORIENTED_EDGE('',*,*,#158,.T.);
#547 = ORIENTED_EDGE('',*,*,#541,.F.);
#548 = CYLINDRICAL_SURFACE('',#549,2.65);
#549 = AXIS2_PLACEMENT_3D('',#550,#551,#552);
#550 = CARTESIAN_POINT('',(7.,10.,-25.));
#551 = DIRECTION('',(1.,-2.2E-16,1.1E-16));
#552 = DIRECTION('',(2.2E-16,1.,-7.8E-16));
#553 = ADVANCED_FACE('',(#554),#573,.F.);
#554 = FACE_BOUND('',#555,.F.);
#555 = EDGE_LOOP('',(#556,#565,#571,#572));
#556 = ORIENTED_EDGE('',*,*,#557,.F.);
#557 = EDGE_CURVE('',#558,#558,#560,.T.);
#558 = VERTEX_POINT('',#559);
#559 = CARTESIAN_POINT('',(-1.,-7.35,-25.));
#560 = CIRCLE('',#561,2.65);
#561 = AXIS2_PLACEMENT_3D('',#562,#563,#564);
#562 = CARTESIAN_POINT('',(-1.,-10.,-25.));
#563 = DIRECTION('',(1.,1.1E-16,7.8E-16));
#564 = DIRECTION('',(-1.1E-16,1.,-8.9E-16));
#565 = ORIENTED_EDGE('',*,*,#566,.T.);
#566 = EDGE_CURVE('',#558,#170,#567,.T.);
#567 = LINE('',#568,#569);
#568 = CARTESIAN_POINT('',(7.,-7.35,-25.));
#569 = VECTOR('',#570,1.);
#570 = DIRECTION('',(-1.,4.4E-16,1.1E-16));
#571 = ORIENTED_EDGE('',*,*,#169,.T.);
#572 = ORIENTED_EDGE('',*,*,#566,.F.);
#573 = CYLINDRICAL_SURFACE('',#574,2.65);
#574 = AXIS2_PLACEMENT_3D('',#575,#576,#577);
#575 = CARTESIAN_POINT('',(7.,-10.,-25.));
#576 = DIRECTION('',(1.,-2.2E-16,1.1E-16));
#577 = DIRECTION('',(2.2E-16,1.,-7.8E-16));
#578 = ADVANCED_FACE('',(#579),#589,.F.);
#579 = FACE_BOUND('',#580,.F.);
#580 = EDGE_LOOP('',(#581,#582,#588));
#581 = ORIENTED_EDGE('',*,*,#243,.F.);
#582 = ORIENTED_EDGE('',*,*,#583,.T.);
#583 = EDGE_CURVE('',#244,#189,#584,.T.);
#584 = LINE('',#585,#586);
#585 = CARTESIAN_POINT('',(6.75,-19.,-34.25));
#586 = VECTOR('',#587,1.);
#587 = DIRECTION('',(-0.707106781187,-2.094E-14,-0.707106781187));
#588 = ORIENTED_EDGE('',*,*,#196,.F.);
#589 = PLANE('',#590);
#590 = AXIS2_PLACEMENT_3D('',#591,#592,#593);
#591 = CARTESIAN_POINT('',(7.,-19.,-34.));
#592 = DIRECTION('',(-0.57735026919,0.57735026919,0.57735026919));
#593 = DIRECTION('',(-4.823919041996E-14,0.707106781187,-0.707106781187)
  );
#594 = ADVANCED_FACE('',(#595,#613,#624,#635,#646),#657,.T.);
#595 = FACE_BOUND('',#596,.T.);
#596 = EDGE_LOOP('',(#597,#598,#599,#607));
#597 = ORIENTED_EDGE('',*,*,#314,.T.);
#598 = ORIENTED_EDGE('',*,*,#251,.T.);
#599 = ORIENTED_EDGE('',*,*,#600,.T.);
#600 = EDGE_CURVE('',#244,#601,#603,.T.);
#601 = VERTEX_POINT('',#602);
#602 = CARTESIAN_POINT('',(7.,19.,-34.));
#603 = LINE('',#604,#605);
#604 = CARTESIAN_POINT('',(7.,-20.,-34.));
#605 = VECTOR('',#606,1.);
#606 = DIRECTION('',(0.,1.,-2.33E-15));
#607 = ORIENTED_EDGE('',*,*,#608,.T.);
#608 = EDGE_CURVE('',#601,#307,#609,.T.);
#609 = LINE('',#610,#611);
#610 = CARTESIAN_POINT('',(7.,19.,-35.));
#611 = VECTOR('',#612,1.);
#612 = DIRECTION('',(-2.33E-15,7.8E-16,1.));
#613 = FACE_BOUND('',#614,.T.);
#614 = EDGE_LOOP('',(#615));
#615 = ORIENTED_EDGE('',*,*,#616,.F.);
#616 = EDGE_CURVE('',#617,#617,#619,.T.);
#617 = VERTEX_POINT('',#618);
#618 = CARTESIAN_POINT('',(7.,14.5,-25.));
#619 = CIRCLE('',#620,4.5);
#620 = AXIS2_PLACEMENT_3D('',#621,#622,#623);
#621 = CARTESIAN_POINT('',(7.,10.,-25.));
#622 = DIRECTION('',(1.,-4.4E-16,6.7E-16));
#623 = DIRECTION('',(4.4E-16,1.,-5.6E-16));
#624 = FACE_BOUND('',#625,.T.);
#625 = EDGE_LOOP('',(#626));
#626 = ORIENTED_EDGE('',*,*,#627,.F.);
#627 = EDGE_CURVE('',#628,#628,#630,.T.);
#628 = VERTEX_POINT('',#629);
#629 = CARTESIAN_POINT('',(7.,16.225,8.75));
#630 = CIRCLE('',#631,2.6);
#631 = AXIS2_PLACEMENT_3D('',#632,#633,#634);
#632 = CARTESIAN_POINT('',(7.,13.625,8.75));
#633 = DIRECTION('',(1.,1.55E-15,1.67E-15));
#634 = DIRECTION('',(-1.55E-15,1.,-1.22E-15));
#635 = FACE_BOUND('',#636,.T.);
#636 = EDGE_LOOP('',(#637));
#637 = ORIENTED_EDGE('',*,*,#638,.F.);
#638 = EDGE_CURVE('',#639,#639,#641,.T.);
#639 = VERTEX_POINT('',#640);
#640 = CARTESIAN_POINT('',(7.,-5.5,-25.));
#641 = CIRCLE('',#642,4.5);
#642 = AXIS2_PLACEMENT_3D('',#643,#644,#645);
#643 = CARTESIAN_POINT('',(7.,-10.,-25.));
#644 = DIRECTION('',(1.,-4.4E-16,6.7E-16));
#645 = DIRECTION('',(4.4E-16,1.,-5.6E-16));
#646 = FACE_BOUND('',#647,.T.);
#647 = EDGE_LOOP('',(#648));
#648 = ORIENTED_EDGE('',*,*,#649,.F.);
#649 = EDGE_CURVE('',#650,#650,#652,.T.);
#650 = VERTEX_POINT('',#651);
#651 = CARTESIAN_POINT('',(7.,-11.025,8.75));
#652 = CIRCLE('',#653,2.6);
#653 = AXIS2_PLACEMENT_3D('',#654,#655,#656);
#654 = CARTESIAN_POINT('',(7.,-13.625,8.75));
#655 = DIRECTION('',(1.,1.55E-15,1.67E-15));
#656 = DIRECTION('',(-1.55E-15,1.,-1.22E-15));
#657 = PLANE('',#658);
#658 = AXIS2_PLACEMENT_3D('',#659,#660,#661);
#659 = CARTESIAN_POINT('',(7.,1.91E-14,-10.));
#660 = DIRECTION('',(1.,-8.9E-16,-7.8E-16));
#661 = DIRECTION('',(7.8E-16,-1.44E-15,1.));
#662 = ADVANCED_FACE('',(#663),#674,.T.);
#663 = FACE_BOUND('',#664,.F.);
#664 = EDGE_LOOP('',(#665,#666,#667));
#665 = ORIENTED_EDGE('',*,*,#338,.F.);
#666 = ORIENTED_EDGE('',*,*,#265,.T.);
#667 = ORIENTED_EDGE('',*,*,#668,.F.);
#668 = EDGE_CURVE('',#339,#266,#669,.T.);
#669 = CIRCLE('',#670,1.);
#670 = AXIS2_PLACEMENT_3D('',#671,#672,#673);
#671 = CARTESIAN_POINT('',(1.,-19.,11.));
#672 = DIRECTION('',(-1.93E-15,-1.,6.7E-16));
#673 = DIRECTION('',(1.0225E-13,6.699999999998E-16,1.));
#674 = CONICAL_SURFACE('',#675,1.,0.785398163397);
#675 = AXIS2_PLACEMENT_3D('',#676,#677,#678);
#676 = CARTESIAN_POINT('',(1.,-19.,11.));
#677 = DIRECTION('',(1.93E-15,1.,-6.7E-16));
#678 = DIRECTION('',(1.0225E-13,6.699999999998E-16,1.));
#679 = ADVANCED_FACE('',(#680),#698,.F.);
#680 = FACE_BOUND('',#681,.F.);
#681 = EDGE_LOOP('',(#682,#690,#691,#692));
#682 = ORIENTED_EDGE('',*,*,#683,.T.);
#683 = EDGE_CURVE('',#684,#266,#686,.T.);
#684 = VERTEX_POINT('',#685);
#685 = CARTESIAN_POINT('',(5.E-15,19.,11.));
#686 = LINE('',#687,#688);
#687 = CARTESIAN_POINT('',(3.963E-14,20.,11.));
#688 = VECTOR('',#689,1.);
#689 = DIRECTION('',(0.,-1.,1.67E-15));
#690 = ORIENTED_EDGE('',*,*,#275,.T.);
#691 = ORIENTED_EDGE('',*,*,#426,.T.);
#692 = ORIENTED_EDGE('',*,*,#693,.T.);
#693 = EDGE_CURVE('',#427,#684,#694,.T.);
#694 = LINE('',#695,#696);
#695 = CARTESIAN_POINT('',(5.832E-14,19.,-15.));
#696 = VECTOR('',#697,1.);
#697 = DIRECTION('',(-2.33E-15,7.8E-16,1.));
#698 = PLANE('',#699);
#699 = AXIS2_PLACEMENT_3D('',#700,#701,#702);
#700 = CARTESIAN_POINT('',(2.331E-14,1.443E-14,-10.));
#701 = DIRECTION('',(1.,-8.9E-16,-7.8E-16));
#702 = DIRECTION('',(7.8E-16,-1.44E-15,1.));
#703 = ADVANCED_FACE('',(#704),#715,.T.);
#704 = FACE_BOUND('',#705,.F.);
#705 = EDGE_LOOP('',(#706,#707,#708,#709));
#706 = ORIENTED_EDGE('',*,*,#608,.T.);
#707 = ORIENTED_EDGE('',*,*,#306,.T.);
#708 = ORIENTED_EDGE('',*,*,#499,.F.);
#709 = ORIENTED_EDGE('',*,*,#710,.F.);
#710 = EDGE_CURVE('',#601,#451,#711,.T.);
#711 = LINE('',#712,#713);
#712 = CARTESIAN_POINT('',(6.5,19.5,-34.));
#713 = VECTOR('',#714,1.);
#714 = DIRECTION('',(-0.707106781187,0.707106781187,2.176E-14));
#715 = PLANE('',#716);
#716 = AXIS2_PLACEMENT_3D('',#717,#718,#719);
#717 = CARTESIAN_POINT('',(6.5,19.5,-35.));
#718 = DIRECTION('',(0.707106781187,0.707106781187,-5.6E-16));
#719 = DIRECTION('',(1.159020202536E-15,-1.950979797464E-15,-1.));
#720 = ADVANCED_FACE('',(#721),#739,.F.);
#721 = FACE_BOUND('',#722,.F.);
#722 = EDGE_LOOP('',(#723,#731,#737,#738));
#723 = ORIENTED_EDGE('',*,*,#724,.F.);
#724 = EDGE_CURVE('',#725,#339,#727,.T.);
#725 = VERTEX_POINT('',#726);
#726 = CARTESIAN_POINT('',(1.,19.,12.));
#727 = LINE('',#728,#729);
#728 = CARTESIAN_POINT('',(1.,20.,12.));
#729 = VECTOR('',#730,1.);
#730 = DIRECTION('',(0.,-1.,1.67E-15));
#731 = ORIENTED_EDGE('',*,*,#732,.T.);
#732 = EDGE_CURVE('',#725,#361,#733,.T.);
#733 = LINE('',#734,#735);
#734 = CARTESIAN_POINT('',(1.,19.,12.));
#735 = VECTOR('',#736,1.);
#736 = DIRECTION('',(1.,-2.2E-16,1.1E-16));
#737 = ORIENTED_EDGE('',*,*,#360,.T.);
#738 = ORIENTED_EDGE('',*,*,#346,.T.);
#739 = PLANE('',#740);
#740 = AXIS2_PLACEMENT_3D('',#741,#742,#743);
#741 = CARTESIAN_POINT('',(2.,20.,12.));
#742 = DIRECTION('',(1.1E-16,-1.67E-15,-1.));
#743 = DIRECTION('',(-1.,2.2E-16,-1.1E-16));
#744 = ADVANCED_FACE('',(#745),#756,.F.);
#745 = FACE_BOUND('',#746,.T.);
#746 = EDGE_LOOP('',(#747,#753,#754,#755));
#747 = ORIENTED_EDGE('',*,*,#748,.F.);
#748 = EDGE_CURVE('',#725,#509,#749,.T.);
#749 = LINE('',#750,#751);
#750 = CARTESIAN_POINT('',(1.,19.,12.));
#751 = VECTOR('',#752,1.);
#752 = DIRECTION('',(-1.32E-15,0.707106781187,-0.707106781187));
#753 = ORIENTED_EDGE('',*,*,#732,.T.);
#754 = ORIENTED_EDGE('',*,*,#368,.T.);
#755 = ORIENTED_EDGE('',*,*,#516,.F.);
#756 = PLANE('',#757);
#757 = AXIS2_PLACEMENT_3D('',#758,#759,#760);
#758 = CARTESIAN_POINT('',(1.,19.5,11.5));
#759 = DIRECTION('',(-1.7E-16,-0.707106781187,-0.707106781187));
#760 = DIRECTION('',(-1.,2.852081528017E-16,-4.479184719829E-17));
#761 = ADVANCED_FACE('',(#762),#773,.T.);
#762 = FACE_BOUND('',#763,.T.);
#763 = EDGE_LOOP('',(#764,#765,#766,#772));
#764 = ORIENTED_EDGE('',*,*,#583,.T.);
#765 = ORIENTED_EDGE('',*,*,#411,.T.);
#766 = ORIENTED_EDGE('',*,*,#767,.T.);
#767 = EDGE_CURVE('',#404,#601,#768,.T.);
#768 = LINE('',#769,#770);
#769 = CARTESIAN_POINT('',(6.25,19.,-34.75));
#770 = VECTOR('',#771,1.);
#771 = DIRECTION('',(0.707106781187,3.969E-14,0.707106781187));
#772 = ORIENTED_EDGE('',*,*,#600,.F.);
#773 = PLANE('',#774);
#774 = AXIS2_PLACEMENT_3D('',#775,#776,#777);
#775 = CARTESIAN_POINT('',(6.5,-20.,-34.5));
#776 = DIRECTION('',(0.707106781187,-2.21E-15,-0.707106781187));
#777 = DIRECTION('',(3.977059864223E-16,1.,-2.727705986422E-15));
#778 = ADVANCED_FACE('',(#779),#784,.T.);
#779 = FACE_BOUND('',#780,.T.);
#780 = EDGE_LOOP('',(#781,#782,#783));
#781 = ORIENTED_EDGE('',*,*,#767,.F.);
#782 = ORIENTED_EDGE('',*,*,#450,.T.);
#783 = ORIENTED_EDGE('',*,*,#710,.F.);
#784 = PLANE('',#785);
#785 = AXIS2_PLACEMENT_3D('',#786,#787,#788);
#786 = CARTESIAN_POINT('',(6.,19.,-35.));
#787 = DIRECTION('',(0.57735026919,0.57735026919,-0.57735026919));
#788 = DIRECTION('',(-0.707106781187,0.707106781187,3.999578446212E-14)
  );
#789 = ADVANCED_FACE('',(#790),#801,.F.);
#790 = FACE_BOUND('',#791,.T.);
#791 = EDGE_LOOP('',(#792,#793,#794,#800));
#792 = ORIENTED_EDGE('',*,*,#474,.F.);
#793 = ORIENTED_EDGE('',*,*,#693,.T.);
#794 = ORIENTED_EDGE('',*,*,#795,.T.);
#795 = EDGE_CURVE('',#684,#509,#796,.T.);
#796 = LINE('',#797,#798);
#797 = CARTESIAN_POINT('',(0.5,19.5,11.));
#798 = VECTOR('',#799,1.);
#799 = DIRECTION('',(0.707106781187,0.707106781187,1.1E-15));
#800 = ORIENTED_EDGE('',*,*,#508,.F.);
#801 = PLANE('',#802);
#802 = AXIS2_PLACEMENT_3D('',#803,#804,#805);
#803 = CARTESIAN_POINT('',(0.5,19.5,-15.));
#804 = DIRECTION('',(0.707106781187,-0.707106781187,1.89E-15));
#805 = DIRECTION('',(2.116431816443E-15,-5.564318164426E-16,-1.));
#806 = ADVANCED_FACE('',(#807,#818),#821,.T.);
#807 = FACE_BOUND('',#808,.T.);
#808 = EDGE_LOOP('',(#809));
#809 = ORIENTED_EDGE('',*,*,#810,.T.);
#810 = EDGE_CURVE('',#811,#811,#813,.T.);
#811 = VERTEX_POINT('',#812);
#812 = CARTESIAN_POINT('',(-1.,14.5,-25.));
#813 = CIRCLE('',#814,4.5);
#814 = AXIS2_PLACEMENT_3D('',#815,#816,#817);
#815 = CARTESIAN_POINT('',(-1.,10.,-25.));
#816 = DIRECTION('',(1.,-4.4E-16,6.7E-16));
#817 = DIRECTION('',(4.4E-16,1.,-5.6E-16));
#818 = FACE_BOUND('',#819,.T.);
#819 = EDGE_LOOP('',(#820));
#820 = ORIENTED_EDGE('',*,*,#532,.F.);
#821 = PLANE('',#822);
#822 = AXIS2_PLACEMENT_3D('',#823,#824,#825);
#823 = CARTESIAN_POINT('',(-1.,8.65E-15,-25.));
#824 = DIRECTION('',(1.,-1.22E-15,-2.2E-16));
#825 = DIRECTION('',(1.22E-15,1.,-5.6E-16));
#826 = ADVANCED_FACE('',(#827,#838),#841,.T.);
#827 = FACE_BOUND('',#828,.T.);
#828 = EDGE_LOOP('',(#829));
#829 = ORIENTED_EDGE('',*,*,#830,.T.);
#830 = EDGE_CURVE('',#831,#831,#833,.T.);
#831 = VERTEX_POINT('',#832);
#832 = CARTESIAN_POINT('',(-1.,-5.5,-25.));
#833 = CIRCLE('',#834,4.5);
#834 = AXIS2_PLACEMENT_3D('',#835,#836,#837);
#835 = CARTESIAN_POINT('',(-1.,-10.,-25.));
#836 = DIRECTION('',(1.,-4.4E-16,6.7E-16));
#837 = DIRECTION('',(4.4E-16,1.,-5.6E-16));
#838 = FACE_BOUND('',#839,.T.);
#839 = EDGE_LOOP('',(#840));
#840 = ORIENTED_EDGE('',*,*,#557,.F.);
#841 = PLANE('',#842);
#842 = AXIS2_PLACEMENT_3D('',#843,#844,#845);
#843 = CARTESIAN_POINT('',(-1.,8.65E-15,-25.));
#844 = DIRECTION('',(1.,-1.22E-15,-2.2E-16));
#845 = DIRECTION('',(1.22E-15,1.,-5.6E-16));
#846 = ADVANCED_FACE('',(#847),#858,.F.);
#847 = FACE_BOUND('',#848,.F.);
#848 = EDGE_LOOP('',(#849,#855,#856,#857));
#849 = ORIENTED_EDGE('',*,*,#850,.T.);
#850 = EDGE_CURVE('',#617,#811,#851,.T.);
#851 = LINE('',#852,#853);
#852 = CARTESIAN_POINT('',(7.,14.5,-25.));
#853 = VECTOR('',#854,1.);
#854 = DIRECTION('',(-1.,1.33E-15,1.1E-16));
#855 = ORIENTED_EDGE('',*,*,#810,.T.);
#856 = ORIENTED_EDGE('',*,*,#850,.F.);
#857 = ORIENTED_EDGE('',*,*,#616,.F.);
#858 = CYLINDRICAL_SURFACE('',#859,4.5);
#859 = AXIS2_PLACEMENT_3D('',#860,#861,#862);
#860 = CARTESIAN_POINT('',(7.,10.,-25.));
#861 = DIRECTION('',(1.,-1.E-15,1.1E-16));
#862 = DIRECTION('',(1.E-15,1.,-4.4E-16));
#863 = ADVANCED_FACE('',(#864),#883,.F.);
#864 = FACE_BOUND('',#865,.F.);
#865 = EDGE_LOOP('',(#866,#874,#881,#882));
#866 = ORIENTED_EDGE('',*,*,#867,.T.);
#867 = EDGE_CURVE('',#628,#868,#870,.T.);
#868 = VERTEX_POINT('',#869);
#869 = CARTESIAN_POINT('',(0.5,16.225,8.75));
#870 = LINE('',#871,#872);
#871 = CARTESIAN_POINT('',(7.,16.225,8.75));
#872 = VECTOR('',#873,1.);
#873 = DIRECTION('',(-1.,6.7E-16,3.3E-16));
#874 = ORIENTED_EDGE('',*,*,#875,.T.);
#875 = EDGE_CURVE('',#868,#868,#876,.T.);
#876 = CIRCLE('',#877,2.6);
#877 = AXIS2_PLACEMENT_3D('',#878,#879,#880);
#878 = CARTESIAN_POINT('',(0.5,13.625,8.75));
#879 = DIRECTION('',(1.,1.55E-15,1.67E-15));
#880 = DIRECTION('',(-1.55E-15,1.,-1.22E-15));
#881 = ORIENTED_EDGE('',*,*,#867,.F.);
#882 = ORIENTED_EDGE('',*,*,#627,.F.);
#883 = CYLINDRICAL_SURFACE('',#884,2.6);
#884 = AXIS2_PLACEMENT_3D('',#885,#886,#887);
#885 = CARTESIAN_POINT('',(7.,13.625,8.75));
#886 = DIRECTION('',(1.,-4.4E-16,-1.1E-16));
#887 = DIRECTION('',(4.4E-16,1.,-1.22E-15));
#888 = ADVANCED_FACE('',(#889),#900,.F.);
#889 = FACE_BOUND('',#890,.F.);
#890 = EDGE_LOOP('',(#891,#897,#898,#899));
#891 = ORIENTED_EDGE('',*,*,#892,.T.);
#892 = EDGE_CURVE('',#639,#831,#893,.T.);
#893 = LINE('',#894,#895);
#894 = CARTESIAN_POINT('',(7.,-5.5,-25.));
#895 = VECTOR('',#896,1.);
#896 = DIRECTION('',(-1.,1.33E-15,1.1E-16));
#897 = ORIENTED_EDGE('',*,*,#830,.T.);
#898 = ORIENTED_EDGE('',*,*,#892,.F.);
#899 = ORIENTED_EDGE('',*,*,#638,.F.);
#900 = CYLINDRICAL_SURFACE('',#901,4.5);
#901 = AXIS2_PLACEMENT_3D('',#902,#903,#904);
#902 = CARTESIAN_POINT('',(7.,-10.,-25.));
#903 = DIRECTION('',(1.,-1.E-15,1.1E-16));
#904 = DIRECTION('',(1.E-15,1.,-4.4E-16));
#905 = ADVANCED_FACE('',(#906),#925,.F.);
#906 = FACE_BOUND('',#907,.F.);
#907 = EDGE_LOOP('',(#908,#916,#923,#924));
#908 = ORIENTED_EDGE('',*,*,#909,.T.);
#909 = EDGE_CURVE('',#650,#910,#912,.T.);
#910 = VERTEX_POINT('',#911);
#911 = CARTESIAN_POINT('',(0.5,-11.025,8.75));
#912 = LINE('',#913,#914);
#913 = CARTESIAN_POINT('',(7.,-11.025,8.75));
#914 = VECTOR('',#915,1.);
#915 = DIRECTION('',(-1.,6.7E-16,3.3E-16));
#916 = ORIENTED_EDGE('',*,*,#917,.T.);
#917 = EDGE_CURVE('',#910,#910,#918,.T.);
#918 = CIRCLE('',#919,2.6);
#919 = AXIS2_PLACEMENT_3D('',#920,#921,#922);
#920 = CARTESIAN_POINT('',(0.5,-13.625,8.75));
#921 = DIRECTION('',(1.,1.55E-15,1.67E-15));
#922 = DIRECTION('',(-1.55E-15,1.,-1.22E-15));
#923 = ORIENTED_EDGE('',*,*,#909,.F.);
#924 = ORIENTED_EDGE('',*,*,#649,.F.);
#925 = CYLINDRICAL_SURFACE('',#926,2.6);
#926 = AXIS2_PLACEMENT_3D('',#927,#928,#929);
#927 = CARTESIAN_POINT('',(7.,-13.625,8.75));
#928 = DIRECTION('',(1.,-4.4E-16,-1.1E-16));
#929 = DIRECTION('',(4.4E-16,1.,-1.22E-15));
#930 = ADVANCED_FACE('',(#931),#943,.T.);
#931 = FACE_BOUND('',#932,.T.);
#932 = EDGE_LOOP('',(#933,#934,#941,#942));
#933 = ORIENTED_EDGE('',*,*,#724,.F.);
#934 = ORIENTED_EDGE('',*,*,#935,.F.);
#935 = EDGE_CURVE('',#684,#725,#936,.T.);
#936 = CIRCLE('',#937,1.);
#937 = AXIS2_PLACEMENT_3D('',#938,#939,#940);
#938 = CARTESIAN_POINT('',(1.,19.,11.));
#939 = DIRECTION('',(1.51E-15,1.,-6.7E-16));
#940 = DIRECTION('',(-1.,1.51E-15,2.298E-14));
#941 = ORIENTED_EDGE('',*,*,#683,.T.);
#942 = ORIENTED_EDGE('',*,*,#668,.F.);
#943 = CYLINDRICAL_SURFACE('',#944,1.);
#944 = AXIS2_PLACEMENT_3D('',#945,#946,#947);
#945 = CARTESIAN_POINT('',(1.,20.,11.));
#946 = DIRECTION('',(0.,-1.,1.67E-15));
#947 = DIRECTION('',(-1.1E-16,1.67E-15,1.));
#948 = ADVANCED_FACE('',(#949),#954,.T.);
#949 = FACE_BOUND('',#950,.T.);
#950 = EDGE_LOOP('',(#951,#952,#953));
#951 = ORIENTED_EDGE('',*,*,#795,.F.);
#952 = ORIENTED_EDGE('',*,*,#935,.T.);
#953 = ORIENTED_EDGE('',*,*,#748,.T.);
#954 = CONICAL_SURFACE('',#955,1.,0.785398163397);
#955 = AXIS2_PLACEMENT_3D('',#956,#957,#958);
#956 = CARTESIAN_POINT('',(1.,19.,11.));
#957 = DIRECTION('',(-1.51E-15,-1.,6.7E-16));
#958 = DIRECTION('',(-1.,1.51E-15,2.298E-14));
#959 = ADVANCED_FACE('',(#960),#963,.T.);
#960 = FACE_BOUND('',#961,.T.);
#961 = EDGE_LOOP('',(#962));
#962 = ORIENTED_EDGE('',*,*,#875,.T.);
#963 = PLANE('',#964);
#964 = AXIS2_PLACEMENT_3D('',#965,#966,#967);
#965 = CARTESIAN_POINT('',(0.5,-1.787E-14,8.75));
#966 = DIRECTION('',(1.,-6.7E-16,-5.6E-16));
#967 = DIRECTION('',(5.6E-16,-1.E-15,1.));
#968 = ADVANCED_FACE('',(#969),#972,.T.);
#969 = FACE_BOUND('',#970,.T.);
#970 = EDGE_LOOP('',(#971));
#971 = ORIENTED_EDGE('',*,*,#917,.T.);
#972 = PLANE('',#973);
#973 = AXIS2_PLACEMENT_3D('',#974,#975,#976);
#974 = CARTESIAN_POINT('',(0.5,-1.787E-14,8.75));
#975 = DIRECTION('',(1.,-6.7E-16,-5.6E-16));
#976 = DIRECTION('',(5.6E-16,-1.E-15,1.));
#977 = ( GEOMETRIC_REPRESENTATION_CONTEXT(3) 
GLOBAL_UNCERTAINTY_ASSIGNED_CONTEXT((#981)) GLOBAL_UNIT_ASSIGNED_CONTEXT
((#978,#979,#980)) REPRESENTATION_CONTEXT('Context #1',
  '3D Context with UNIT and UNCERTAINTY') );
#978 = ( LENGTH_UNIT() NAMED_UNIT(*) SI_UNIT(.MILLI.,.METRE.) );
#979 = ( NAMED_UNIT(*) PLANE_ANGLE_UNIT() SI_UNIT($,.RADIAN.) );
#980 = ( NAMED_UNIT(*) SI_UNIT($,.STERADIAN.) SOLID_ANGLE_UNIT() );
#981 = UNCERTAINTY_MEASURE_WITH_UNIT(LENGTH_MEASURE(2.E-06),#978,
  'distance_accuracy_value','confusion accuracy');
#982 = PRODUCT_RELATED_PRODUCT_CATEGORY('part',$,(#7));
#983 = MECHANICAL_DESIGN_GEOMETRIC_PRESENTATION_REPRESENTATION('',(#984)
  ,#977);
#984 = STYLED_ITEM('color',(#985),#15);
#985 = PRESENTATION_STYLE_ASSIGNMENT((#986,#992));
#986 = SURFACE_STYLE_USAGE(.BOTH.,#987);
#987 = SURFACE_SIDE_STYLE('',(#988));
#988 = SURFACE_STYLE_FILL_AREA(#989);
#989 = FILL_AREA_STYLE('',(#990));
#990 = FILL_AREA_STYLE_COLOUR('',#991);
#991 = COLOUR_RGB('',0.447058818107,0.474509808674,0.501960817233);
#992 = CURVE_STYLE('',#993,POSITIVE_LENGTH_MEASURE(0.1),#994);
#993 = DRAUGHTING_PRE_DEFINED_CURVE_FONT('continuous');
#994 = COLOUR_RGB('',9.803921802644E-02,9.803921802644E-02,
  9.803921802644E-02);
ENDSEC;
END-ISO-10303-21;
