ISO-10303-21;
HEADER;
FILE_DESCRIPTION(('FreeCAD Model'),'2;1');
FILE_NAME('Open CASCADE Shape Model','2025-12-09T17:36:47',(''),(''),
  'Open CASCADE STEP processor 7.8','FreeCAD','Unknown');
FILE_SCHEMA(('AUTOMOTIVE_DESIGN { 1 0 10303 214 1 1 1 1 }'));
ENDSEC;
DATA;
#1 = APPLICATION_PROTOCOL_DEFINITION('international standard',
  'automotive_design',2000,#2);
#2 = APPLICATION_CONTEXT(
  'core data for automotive mechanical design processes');
#3 = SHAPE_DEFINITION_REPRESENTATION(#4,#10);
#4 = PRODUCT_DEFINITION_SHAPE('','',#5);
#5 = PRODUCT_DEFINITION('design','',#6,#9);
#6 = PRODUCT_DEFINITION_FORMATION('','',#7);
#7 = PRODUCT('Mocowanie prawy przod silnik i rolka',
  'Mocowanie prawy przod silnik i rolka','',(#8));
#8 = PRODUCT_CONTEXT('',#2,'mechanical');
#9 = PRODUCT_DEFINITION_CONTEXT('part definition',#2,'design');
#10 = ADVANCED_BREP_SHAPE_REPRESENTATION('',(#11,#15),#2074);
#11 = AXIS2_PLACEMENT_3D('',#12,#13,#14);
#12 = CARTESIAN_POINT('',(0.,0.,0.));
#13 = DIRECTION('',(0.,0.,1.));
#14 = DIRECTION('',(1.,0.,-0.));
#15 = MANIFOLD_SOLID_BREP('',#16);
#16 = CLOSED_SHELL('',(#17,#228,#267,#291,#315,#339,#364,#420,#444,#484,
    #516,#572,#596,#621,#645,#701,#741,#781,#808,#833,#858,#883,#908,
    #948,#994,#1019,#1051,#1075,#1105,#1138,#1182,#1194,#1251,#1296,
    #1320,#1344,#1388,#1405,#1417,#1457,#1474,#1597,#1614,#1637,#1654,
    #1666,#1691,#1708,#1733,#1764,#1776,#1801,#1818,#1843,#1868,#1880,
    #1905,#1930,#1942,#1966,#1990,#2014,#2026,#2038,#2050,#2062));
#17 = ADVANCED_FACE('',(#18,#150,#179,#190,#201,#212),#223,.T.);
#18 = FACE_BOUND('',#19,.T.);
#19 = EDGE_LOOP('',(#20,#30,#38,#46,#54,#62,#70,#79,#87,#95,#103,#111,
    #119,#127,#135,#144));
#20 = ORIENTED_EDGE('',*,*,#21,.F.);
#21 = EDGE_CURVE('',#22,#24,#26,.T.);
#22 = VERTEX_POINT('',#23);
#23 = CARTESIAN_POINT('',(-28.,-20.,29.));
#24 = VERTEX_POINT('',#25);
#25 = CARTESIAN_POINT('',(-31.,-23.,29.));
#26 = LINE('',#27,#28);
#27 = CARTESIAN_POINT('',(-14.30652866242,-6.30652866242,29.));
#28 = VECTOR('',#29,1.);
#29 = DIRECTION('',(-0.707106781187,-0.707106781187,0.));
#30 = ORIENTED_EDGE('',*,*,#31,.F.);
#31 = EDGE_CURVE('',#32,#22,#34,.T.);
#32 = VERTEX_POINT('',#33);
#33 = CARTESIAN_POINT('',(-15.,-20.,29.));
#34 = LINE('',#35,#36);
#35 = CARTESIAN_POINT('',(40.,-20.,29.));
#36 = VECTOR('',#37,1.);
#37 = DIRECTION('',(-1.,0.,0.));
#38 = ORIENTED_EDGE('',*,*,#39,.F.);
#39 = EDGE_CURVE('',#40,#32,#42,.T.);
#40 = VERTEX_POINT('',#41);
#41 = CARTESIAN_POINT('',(-10.,-25.,29.));
#42 = LINE('',#43,#44);
#43 = CARTESIAN_POINT('',(-22.84952229299,-12.150477707,29.));
#44 = VECTOR('',#45,1.);
#45 = DIRECTION('',(-0.707106781187,0.707106781187,0.));
#46 = ORIENTED_EDGE('',*,*,#47,.F.);
#47 = EDGE_CURVE('',#48,#40,#50,.T.);
#48 = VERTEX_POINT('',#49);
#49 = CARTESIAN_POINT('',(-10.,-10.,29.));
#50 = LINE('',#51,#52);
#51 = CARTESIAN_POINT('',(-10.,5.721518745947E-02,29.));
#52 = VECTOR('',#53,1.);
#53 = DIRECTION('',(0.,-1.,0.));
#54 = ORIENTED_EDGE('',*,*,#55,.F.);
#55 = EDGE_CURVE('',#56,#48,#58,.T.);
#56 = VERTEX_POINT('',#57);
#57 = CARTESIAN_POINT('',(-20.,-10.,29.));
#58 = LINE('',#59,#60);
#59 = CARTESIAN_POINT('',(-20.,-10.,29.));
#60 = VECTOR('',#61,1.);
#61 = DIRECTION('',(1.,0.,0.));
#62 = ORIENTED_EDGE('',*,*,#63,.F.);
#63 = EDGE_CURVE('',#64,#56,#66,.T.);
#64 = VERTEX_POINT('',#65);
#65 = CARTESIAN_POINT('',(-20.,6.,29.));
#66 = LINE('',#67,#68);
#67 = CARTESIAN_POINT('',(-20.,15.,29.));
#68 = VECTOR('',#69,1.);
#69 = DIRECTION('',(0.,-1.,0.));
#70 = ORIENTED_EDGE('',*,*,#71,.T.);
#71 = EDGE_CURVE('',#64,#72,#74,.T.);
#72 = VERTEX_POINT('',#73);
#73 = CARTESIAN_POINT('',(-16.,10.,29.));
#74 = CIRCLE('',#75,4.);
#75 = AXIS2_PLACEMENT_3D('',#76,#77,#78);
#76 = CARTESIAN_POINT('',(-16.,6.,29.));
#77 = DIRECTION('',(0.,0.,-1.));
#78 = DIRECTION('',(0.,1.,0.));
#79 = ORIENTED_EDGE('',*,*,#80,.F.);
#80 = EDGE_CURVE('',#81,#72,#83,.T.);
#81 = VERTEX_POINT('',#82);
#82 = CARTESIAN_POINT('',(5.,10.,29.));
#83 = LINE('',#84,#85);
#84 = CARTESIAN_POINT('',(5.,10.,29.));
#85 = VECTOR('',#86,1.);
#86 = DIRECTION('',(-1.,0.,0.));
#87 = ORIENTED_EDGE('',*,*,#88,.F.);
#88 = EDGE_CURVE('',#89,#81,#91,.T.);
#89 = VERTEX_POINT('',#90);
#90 = CARTESIAN_POINT('',(5.,5.5,29.));
#91 = LINE('',#92,#93);
#92 = CARTESIAN_POINT('',(5.,-10.,29.));
#93 = VECTOR('',#94,1.);
#94 = DIRECTION('',(0.,1.,0.));
#95 = ORIENTED_EDGE('',*,*,#96,.F.);
#96 = EDGE_CURVE('',#97,#89,#99,.T.);
#97 = VERTEX_POINT('',#98);
#98 = CARTESIAN_POINT('',(25.,5.5,29.));
#99 = LINE('',#100,#101);
#100 = CARTESIAN_POINT('',(-2.5,5.5,29.));
#101 = VECTOR('',#102,1.);
#102 = DIRECTION('',(-1.,0.,0.));
#103 = ORIENTED_EDGE('',*,*,#104,.T.);
#104 = EDGE_CURVE('',#97,#105,#107,.T.);
#105 = VERTEX_POINT('',#106);
#106 = CARTESIAN_POINT('',(20.,10.5,29.));
#107 = LINE('',#108,#109);
#108 = CARTESIAN_POINT('',(11.025477707006,19.474522292994,29.));
#109 = VECTOR('',#110,1.);
#110 = DIRECTION('',(-0.707106781187,0.707106781187,0.));
#111 = ORIENTED_EDGE('',*,*,#112,.F.);
#112 = EDGE_CURVE('',#113,#105,#115,.T.);
#113 = VERTEX_POINT('',#114);
#114 = CARTESIAN_POINT('',(20.,48.,29.));
#115 = LINE('',#116,#117);
#116 = CARTESIAN_POINT('',(20.,40.,29.));
#117 = VECTOR('',#118,1.);
#118 = DIRECTION('',(0.,-1.,0.));
#119 = ORIENTED_EDGE('',*,*,#120,.T.);
#120 = EDGE_CURVE('',#113,#121,#123,.T.);
#121 = VERTEX_POINT('',#122);
#122 = CARTESIAN_POINT('',(23.,51.,29.));
#123 = LINE('',#124,#125);
#124 = CARTESIAN_POINT('',(7.19347133758,35.19347133758,29.));
#125 = VECTOR('',#126,1.);
#126 = DIRECTION('',(0.707106781187,0.707106781187,0.));
#127 = ORIENTED_EDGE('',*,*,#128,.T.);
#128 = EDGE_CURVE('',#121,#129,#131,.T.);
#129 = VERTEX_POINT('',#130);
#130 = CARTESIAN_POINT('',(-23.,51.,29.));
#131 = LINE('',#132,#133);
#132 = CARTESIAN_POINT('',(25.,51.,29.));
#133 = VECTOR('',#134,1.);
#134 = DIRECTION('',(-1.,-0.,-0.));
#135 = ORIENTED_EDGE('',*,*,#136,.T.);
#136 = EDGE_CURVE('',#129,#137,#139,.T.);
#137 = VERTEX_POINT('',#138);
#138 = CARTESIAN_POINT('',(-31.,43.,29.));
#139 = CIRCLE('',#140,8.);
#140 = AXIS2_PLACEMENT_3D('',#141,#142,#143);
#141 = CARTESIAN_POINT('',(-23.,43.,29.));
#142 = DIRECTION('',(0.,-0.,1.));
#143 = DIRECTION('',(0.,1.,0.));
#144 = ORIENTED_EDGE('',*,*,#145,.T.);
#145 = EDGE_CURVE('',#137,#24,#146,.T.);
#146 = LINE('',#147,#148);
#147 = CARTESIAN_POINT('',(-31.,43.,29.));
#148 = VECTOR('',#149,1.);
#149 = DIRECTION('',(0.,-1.,0.));
#150 = FACE_BOUND('',#151,.T.);
#151 = EDGE_LOOP('',(#152,#163,#172));
#152 = ORIENTED_EDGE('',*,*,#153,.F.);
#153 = EDGE_CURVE('',#154,#156,#158,.T.);
#154 = VERTEX_POINT('',#155);
#155 = CARTESIAN_POINT('',(-15.59861218113,15.,29.));
#156 = VERTEX_POINT('',#157);
#157 = CARTESIAN_POINT('',(-14.75,16.5,29.));
#158 = CIRCLE('',#159,1.75);
#159 = AXIS2_PLACEMENT_3D('',#160,#161,#162);
#160 = CARTESIAN_POINT('',(-16.5,16.5,29.));
#161 = DIRECTION('',(0.,0.,1.));
#162 = DIRECTION('',(1.,0.,0.));
#163 = ORIENTED_EDGE('',*,*,#164,.F.);
#164 = EDGE_CURVE('',#165,#154,#167,.T.);
#165 = VERTEX_POINT('',#166);
#166 = CARTESIAN_POINT('',(-17.40138781886,15.,29.));
#167 = CIRCLE('',#168,1.75);
#168 = AXIS2_PLACEMENT_3D('',#169,#170,#171);
#169 = CARTESIAN_POINT('',(-16.5,16.5,29.));
#170 = DIRECTION('',(0.,0.,1.));
#171 = DIRECTION('',(1.,0.,0.));
#172 = ORIENTED_EDGE('',*,*,#173,.F.);
#173 = EDGE_CURVE('',#156,#165,#174,.T.);
#174 = CIRCLE('',#175,1.75);
#175 = AXIS2_PLACEMENT_3D('',#176,#177,#178);
#176 = CARTESIAN_POINT('',(-16.5,16.5,29.));
#177 = DIRECTION('',(0.,0.,1.));
#178 = DIRECTION('',(1.,0.,0.));
#179 = FACE_BOUND('',#180,.T.);
#180 = EDGE_LOOP('',(#181));
#181 = ORIENTED_EDGE('',*,*,#182,.F.);
#182 = EDGE_CURVE('',#183,#183,#185,.T.);
#183 = VERTEX_POINT('',#184);
#184 = CARTESIAN_POINT('',(16.25,16.5,29.));
#185 = CIRCLE('',#186,1.75);
#186 = AXIS2_PLACEMENT_3D('',#187,#188,#189);
#187 = CARTESIAN_POINT('',(14.5,16.5,29.));
#188 = DIRECTION('',(0.,0.,1.));
#189 = DIRECTION('',(1.,0.,0.));
#190 = FACE_BOUND('',#191,.T.);
#191 = EDGE_LOOP('',(#192));
#192 = ORIENTED_EDGE('',*,*,#193,.F.);
#193 = EDGE_CURVE('',#194,#194,#196,.T.);
#194 = VERTEX_POINT('',#195);
#195 = CARTESIAN_POINT('',(-14.75,47.5,29.));
#196 = CIRCLE('',#197,1.75);
#197 = AXIS2_PLACEMENT_3D('',#198,#199,#200);
#198 = CARTESIAN_POINT('',(-16.5,47.5,29.));
#199 = DIRECTION('',(0.,0.,1.));
#200 = DIRECTION('',(1.,0.,0.));
#201 = FACE_BOUND('',#202,.T.);
#202 = EDGE_LOOP('',(#203));
#203 = ORIENTED_EDGE('',*,*,#204,.F.);
#204 = EDGE_CURVE('',#205,#205,#207,.T.);
#205 = VERTEX_POINT('',#206);
#206 = CARTESIAN_POINT('',(14.5,32.,29.));
#207 = CIRCLE('',#208,15.5);
#208 = AXIS2_PLACEMENT_3D('',#209,#210,#211);
#209 = CARTESIAN_POINT('',(-1.,32.,29.));
#210 = DIRECTION('',(0.,0.,1.));
#211 = DIRECTION('',(1.,0.,0.));
#212 = FACE_BOUND('',#213,.T.);
#213 = EDGE_LOOP('',(#214));
#214 = ORIENTED_EDGE('',*,*,#215,.F.);
#215 = EDGE_CURVE('',#216,#216,#218,.T.);
#216 = VERTEX_POINT('',#217);
#217 = CARTESIAN_POINT('',(16.25,47.5,29.));
#218 = CIRCLE('',#219,1.75);
#219 = AXIS2_PLACEMENT_3D('',#220,#221,#222);
#220 = CARTESIAN_POINT('',(14.5,47.5,29.));
#221 = DIRECTION('',(0.,0.,1.));
#222 = DIRECTION('',(1.,0.,0.));
#223 = PLANE('',#224);
#224 = AXIS2_PLACEMENT_3D('',#225,#226,#227);
#225 = CARTESIAN_POINT('',(-9.812101910828,21.585987261146,29.));
#226 = DIRECTION('',(0.,0.,1.));
#227 = DIRECTION('',(1.,0.,0.));
#228 = ADVANCED_FACE('',(#229),#262,.T.);
#229 = FACE_BOUND('',#230,.T.);
#230 = EDGE_LOOP('',(#231,#232,#240,#248,#256));
#231 = ORIENTED_EDGE('',*,*,#21,.T.);
#232 = ORIENTED_EDGE('',*,*,#233,.T.);
#233 = EDGE_CURVE('',#24,#234,#236,.T.);
#234 = VERTEX_POINT('',#235);
#235 = CARTESIAN_POINT('',(-33.,-25.,27.));
#236 = LINE('',#237,#238);
#237 = CARTESIAN_POINT('',(-25.66666666666,-17.66666666666,
    34.333333333333));
#238 = VECTOR('',#239,1.);
#239 = DIRECTION('',(-0.57735026919,-0.57735026919,-0.57735026919));
#240 = ORIENTED_EDGE('',*,*,#241,.F.);
#241 = EDGE_CURVE('',#242,#234,#244,.T.);
#242 = VERTEX_POINT('',#243);
#243 = CARTESIAN_POINT('',(-33.,-25.,59.));
#244 = LINE('',#245,#246);
#245 = CARTESIAN_POINT('',(-33.,-25.,54.597826086957));
#246 = VECTOR('',#247,1.);
#247 = DIRECTION('',(0.,0.,-1.));
#248 = ORIENTED_EDGE('',*,*,#249,.F.);
#249 = EDGE_CURVE('',#250,#242,#252,.T.);
#250 = VERTEX_POINT('',#251);
#251 = CARTESIAN_POINT('',(-28.,-20.,59.));
#252 = LINE('',#253,#254);
#253 = CARTESIAN_POINT('',(-16.97222222222,-8.972222222222,59.));
#254 = VECTOR('',#255,1.);
#255 = DIRECTION('',(-0.707106781187,-0.707106781187,0.));
#256 = ORIENTED_EDGE('',*,*,#257,.T.);
#257 = EDGE_CURVE('',#250,#22,#258,.T.);
#258 = LINE('',#259,#260);
#259 = CARTESIAN_POINT('',(-28.,-20.,59.));
#260 = VECTOR('',#261,1.);
#261 = DIRECTION('',(-0.,-0.,-1.));
#262 = PLANE('',#263);
#263 = AXIS2_PLACEMENT_3D('',#264,#265,#266);
#264 = CARTESIAN_POINT('',(-30.5,-22.5,59.));
#265 = DIRECTION('',(-0.707106781187,0.707106781187,0.));
#266 = DIRECTION('',(0.,0.,-1.));
#267 = ADVANCED_FACE('',(#268),#286,.T.);
#268 = FACE_BOUND('',#269,.T.);
#269 = EDGE_LOOP('',(#270,#278,#284,#285));
#270 = ORIENTED_EDGE('',*,*,#271,.F.);
#271 = EDGE_CURVE('',#272,#250,#274,.T.);
#272 = VERTEX_POINT('',#273);
#273 = CARTESIAN_POINT('',(-15.,-20.,59.));
#274 = LINE('',#275,#276);
#275 = CARTESIAN_POINT('',(40.,-20.,59.));
#276 = VECTOR('',#277,1.);
#277 = DIRECTION('',(-1.,0.,0.));
#278 = ORIENTED_EDGE('',*,*,#279,.F.);
#279 = EDGE_CURVE('',#32,#272,#280,.T.);
#280 = LINE('',#281,#282);
#281 = CARTESIAN_POINT('',(-15.,-20.,29.));
#282 = VECTOR('',#283,1.);
#283 = DIRECTION('',(0.,0.,1.));
#284 = ORIENTED_EDGE('',*,*,#31,.T.);
#285 = ORIENTED_EDGE('',*,*,#257,.F.);
#286 = PLANE('',#287);
#287 = AXIS2_PLACEMENT_3D('',#288,#289,#290);
#288 = CARTESIAN_POINT('',(-19.,-20.,44.));
#289 = DIRECTION('',(0.,1.,0.));
#290 = DIRECTION('',(0.,0.,1.));
#291 = ADVANCED_FACE('',(#292),#310,.T.);
#292 = FACE_BOUND('',#293,.T.);
#293 = EDGE_LOOP('',(#294,#295,#303,#309));
#294 = ORIENTED_EDGE('',*,*,#145,.F.);
#295 = ORIENTED_EDGE('',*,*,#296,.T.);
#296 = EDGE_CURVE('',#137,#297,#299,.T.);
#297 = VERTEX_POINT('',#298);
#298 = CARTESIAN_POINT('',(-33.,43.,27.));
#299 = LINE('',#300,#301);
#300 = CARTESIAN_POINT('',(-33.,43.,27.));
#301 = VECTOR('',#302,1.);
#302 = DIRECTION('',(-0.707106781187,4.329780281177E-17,-0.707106781187)
  );
#303 = ORIENTED_EDGE('',*,*,#304,.T.);
#304 = EDGE_CURVE('',#297,#234,#305,.T.);
#305 = LINE('',#306,#307);
#306 = CARTESIAN_POINT('',(-33.,-20.,27.));
#307 = VECTOR('',#308,1.);
#308 = DIRECTION('',(-0.,-1.,-0.));
#309 = ORIENTED_EDGE('',*,*,#233,.F.);
#310 = PLANE('',#311);
#311 = AXIS2_PLACEMENT_3D('',#312,#313,#314);
#312 = CARTESIAN_POINT('',(-32.01425592665,9.341081377402,
    27.985744073345));
#313 = DIRECTION('',(-0.707106781187,0.,0.707106781187));
#314 = DIRECTION('',(0.707106781187,0.,0.707106781187));
#315 = ADVANCED_FACE('',(#316),#334,.T.);
#316 = FACE_BOUND('',#317,.F.);
#317 = EDGE_LOOP('',(#318,#319,#327,#333));
#318 = ORIENTED_EDGE('',*,*,#39,.F.);
#319 = ORIENTED_EDGE('',*,*,#320,.T.);
#320 = EDGE_CURVE('',#40,#321,#323,.T.);
#321 = VERTEX_POINT('',#322);
#322 = CARTESIAN_POINT('',(-10.,-25.,59.));
#323 = LINE('',#324,#325);
#324 = CARTESIAN_POINT('',(-10.,-25.,29.));
#325 = VECTOR('',#326,1.);
#326 = DIRECTION('',(0.,0.,1.));
#327 = ORIENTED_EDGE('',*,*,#328,.T.);
#328 = EDGE_CURVE('',#321,#272,#329,.T.);
#329 = LINE('',#330,#331);
#330 = CARTESIAN_POINT('',(-8.611111111111,-26.38888888888,59.));
#331 = VECTOR('',#332,1.);
#332 = DIRECTION('',(-0.707106781187,0.707106781187,0.));
#333 = ORIENTED_EDGE('',*,*,#279,.F.);
#334 = PLANE('',#335);
#335 = AXIS2_PLACEMENT_3D('',#336,#337,#338);
#336 = CARTESIAN_POINT('',(-12.5,-22.5,29.));
#337 = DIRECTION('',(0.707106781187,0.707106781187,0.));
#338 = DIRECTION('',(-0.,-0.,-1.));
#339 = ADVANCED_FACE('',(#340),#359,.T.);
#340 = FACE_BOUND('',#341,.F.);
#341 = EDGE_LOOP('',(#342,#350,#351,#352));
#342 = ORIENTED_EDGE('',*,*,#343,.F.);
#343 = EDGE_CURVE('',#129,#344,#346,.T.);
#344 = VERTEX_POINT('',#345);
#345 = CARTESIAN_POINT('',(-23.,53.,27.));
#346 = LINE('',#347,#348);
#347 = CARTESIAN_POINT('',(-23.,52.,28.));
#348 = VECTOR('',#349,1.);
#349 = DIRECTION('',(0.,0.707106781187,-0.707106781187));
#350 = ORIENTED_EDGE('',*,*,#136,.T.);
#351 = ORIENTED_EDGE('',*,*,#296,.T.);
#352 = ORIENTED_EDGE('',*,*,#353,.F.);
#353 = EDGE_CURVE('',#344,#297,#354,.T.);
#354 = CIRCLE('',#355,10.);
#355 = AXIS2_PLACEMENT_3D('',#356,#357,#358);
#356 = CARTESIAN_POINT('',(-23.,43.,27.));
#357 = DIRECTION('',(0.,-0.,1.));
#358 = DIRECTION('',(0.,1.,0.));
#359 = CONICAL_SURFACE('',#360,10.,0.785398163397);
#360 = AXIS2_PLACEMENT_3D('',#361,#362,#363);
#361 = CARTESIAN_POINT('',(-23.,43.,27.));
#362 = DIRECTION('',(-0.,-0.,-1.));
#363 = DIRECTION('',(0.,1.,0.));
#364 = ADVANCED_FACE('',(#365),#415,.T.);
#365 = FACE_BOUND('',#366,.T.);
#366 = EDGE_LOOP('',(#367,#377,#385,#393,#401,#407,#408,#409));
#367 = ORIENTED_EDGE('',*,*,#368,.F.);
#368 = EDGE_CURVE('',#369,#371,#373,.T.);
#369 = VERTEX_POINT('',#370);
#370 = CARTESIAN_POINT('',(-10.,-35.,25.));
#371 = VERTEX_POINT('',#372);
#372 = CARTESIAN_POINT('',(-10.,-35.,59.));
#373 = LINE('',#374,#375);
#374 = CARTESIAN_POINT('',(-10.,-35.,23.));
#375 = VECTOR('',#376,1.);
#376 = DIRECTION('',(0.,0.,1.));
#377 = ORIENTED_EDGE('',*,*,#378,.T.);
#378 = EDGE_CURVE('',#369,#379,#381,.T.);
#379 = VERTEX_POINT('',#380);
#380 = CARTESIAN_POINT('',(-10.,5.5,25.));
#381 = LINE('',#382,#383);
#382 = CARTESIAN_POINT('',(-10.,-35.,25.));
#383 = VECTOR('',#384,1.);
#384 = DIRECTION('',(0.,1.,0.));
#385 = ORIENTED_EDGE('',*,*,#386,.T.);
#386 = EDGE_CURVE('',#379,#387,#389,.T.);
#387 = VERTEX_POINT('',#388);
#388 = CARTESIAN_POINT('',(-10.,5.5,31.));
#389 = LINE('',#390,#391);
#390 = CARTESIAN_POINT('',(-10.,5.5,23.));
#391 = VECTOR('',#392,1.);
#392 = DIRECTION('',(0.,0.,1.));
#393 = ORIENTED_EDGE('',*,*,#394,.F.);
#394 = EDGE_CURVE('',#395,#387,#397,.T.);
#395 = VERTEX_POINT('',#396);
#396 = CARTESIAN_POINT('',(-10.,-10.,31.));
#397 = LINE('',#398,#399);
#398 = CARTESIAN_POINT('',(-10.,5.,31.));
#399 = VECTOR('',#400,1.);
#400 = DIRECTION('',(0.,1.,0.));
#401 = ORIENTED_EDGE('',*,*,#402,.T.);
#402 = EDGE_CURVE('',#395,#48,#403,.T.);
#403 = LINE('',#404,#405);
#404 = CARTESIAN_POINT('',(-10.,-10.,33.97335589942));
#405 = VECTOR('',#406,1.);
#406 = DIRECTION('',(0.,0.,-1.));
#407 = ORIENTED_EDGE('',*,*,#47,.T.);
#408 = ORIENTED_EDGE('',*,*,#320,.T.);
#409 = ORIENTED_EDGE('',*,*,#410,.T.);
#410 = EDGE_CURVE('',#321,#371,#411,.T.);
#411 = LINE('',#412,#413);
#412 = CARTESIAN_POINT('',(-10.,-26.11111111111,59.));
#413 = VECTOR('',#414,1.);
#414 = DIRECTION('',(0.,-1.,0.));
#415 = PLANE('',#416);
#416 = AXIS2_PLACEMENT_3D('',#417,#418,#419);
#417 = CARTESIAN_POINT('',(-10.,-21.47155688622,36.341317365269));
#418 = DIRECTION('',(1.,0.,0.));
#419 = DIRECTION('',(0.,0.,1.));
#420 = ADVANCED_FACE('',(#421),#439,.T.);
#421 = FACE_BOUND('',#422,.T.);
#422 = EDGE_LOOP('',(#423,#424,#432,#438));
#423 = ORIENTED_EDGE('',*,*,#128,.F.);
#424 = ORIENTED_EDGE('',*,*,#425,.T.);
#425 = EDGE_CURVE('',#121,#426,#428,.T.);
#426 = VERTEX_POINT('',#427);
#427 = CARTESIAN_POINT('',(25.,53.,27.));
#428 = LINE('',#429,#430);
#429 = CARTESIAN_POINT('',(18.5,46.5,33.5));
#430 = VECTOR('',#431,1.);
#431 = DIRECTION('',(0.57735026919,0.57735026919,-0.57735026919));
#432 = ORIENTED_EDGE('',*,*,#433,.T.);
#433 = EDGE_CURVE('',#426,#344,#434,.T.);
#434 = LINE('',#435,#436);
#435 = CARTESIAN_POINT('',(20.,53.,27.));
#436 = VECTOR('',#437,1.);
#437 = DIRECTION('',(-1.,0.,0.));
#438 = ORIENTED_EDGE('',*,*,#343,.F.);
#439 = PLANE('',#440);
#440 = AXIS2_PLACEMENT_3D('',#441,#442,#443);
#441 = CARTESIAN_POINT('',(0.658918622598,52.019941664899,
    27.980058335101));
#442 = DIRECTION('',(0.,0.707106781187,0.707106781187));
#443 = DIRECTION('',(0.,0.707106781187,-0.707106781187));
#444 = ADVANCED_FACE('',(#445),#479,.T.);
#445 = FACE_BOUND('',#446,.T.);
#446 = EDGE_LOOP('',(#447,#455,#463,#471,#477,#478));
#447 = ORIENTED_EDGE('',*,*,#448,.F.);
#448 = EDGE_CURVE('',#449,#395,#451,.T.);
#449 = VERTEX_POINT('',#450);
#450 = CARTESIAN_POINT('',(2.E-15,-10.,31.));
#451 = LINE('',#452,#453);
#452 = CARTESIAN_POINT('',(-8.79835589942,-10.,31.));
#453 = VECTOR('',#454,1.);
#454 = DIRECTION('',(-1.,0.,0.));
#455 = ORIENTED_EDGE('',*,*,#456,.T.);
#456 = EDGE_CURVE('',#449,#457,#459,.T.);
#457 = VERTEX_POINT('',#458);
#458 = CARTESIAN_POINT('',(2.E-15,-10.,60.7));
#459 = LINE('',#460,#461);
#460 = CARTESIAN_POINT('',(2.08E-15,-10.,31.));
#461 = VECTOR('',#462,1.);
#462 = DIRECTION('',(0.,0.,1.));
#463 = ORIENTED_EDGE('',*,*,#464,.T.);
#464 = EDGE_CURVE('',#457,#465,#467,.T.);
#465 = VERTEX_POINT('',#466);
#466 = CARTESIAN_POINT('',(-20.,-10.,60.7));
#467 = LINE('',#468,#469);
#468 = CARTESIAN_POINT('',(-7.5,-10.,60.7));
#469 = VECTOR('',#470,1.);
#470 = DIRECTION('',(-1.,0.,0.));
#471 = ORIENTED_EDGE('',*,*,#472,.F.);
#472 = EDGE_CURVE('',#56,#465,#473,.T.);
#473 = LINE('',#474,#475);
#474 = CARTESIAN_POINT('',(-20.,-10.,59.5));
#475 = VECTOR('',#476,1.);
#476 = DIRECTION('',(0.,0.,1.));
#477 = ORIENTED_EDGE('',*,*,#55,.T.);
#478 = ORIENTED_EDGE('',*,*,#402,.F.);
#479 = PLANE('',#480);
#480 = AXIS2_PLACEMENT_3D('',#481,#482,#483);
#481 = CARTESIAN_POINT('',(-10.09671179883,-10.,44.946711798839));
#482 = DIRECTION('',(-0.,-1.,-0.));
#483 = DIRECTION('',(0.,0.,-1.));
#484 = ADVANCED_FACE('',(#485),#511,.F.);
#485 = FACE_BOUND('',#486,.F.);
#486 = EDGE_LOOP('',(#487,#488,#489,#497,#505));
#487 = ORIENTED_EDGE('',*,*,#120,.T.);
#488 = ORIENTED_EDGE('',*,*,#425,.T.);
#489 = ORIENTED_EDGE('',*,*,#490,.F.);
#490 = EDGE_CURVE('',#491,#426,#493,.T.);
#491 = VERTEX_POINT('',#492);
#492 = CARTESIAN_POINT('',(25.,53.,59.));
#493 = LINE('',#494,#495);
#494 = CARTESIAN_POINT('',(25.,53.,59.));
#495 = VECTOR('',#496,1.);
#496 = DIRECTION('',(-0.,-0.,-1.));
#497 = ORIENTED_EDGE('',*,*,#498,.F.);
#498 = EDGE_CURVE('',#499,#491,#501,.T.);
#499 = VERTEX_POINT('',#500);
#500 = CARTESIAN_POINT('',(20.,48.,59.));
#501 = LINE('',#502,#503);
#502 = CARTESIAN_POINT('',(20.375,48.375,59.));
#503 = VECTOR('',#504,1.);
#504 = DIRECTION('',(0.707106781187,0.707106781187,0.));
#505 = ORIENTED_EDGE('',*,*,#506,.T.);
#506 = EDGE_CURVE('',#499,#113,#507,.T.);
#507 = LINE('',#508,#509);
#508 = CARTESIAN_POINT('',(20.,48.,59.));
#509 = VECTOR('',#510,1.);
#510 = DIRECTION('',(-0.,-0.,-1.));
#511 = PLANE('',#512);
#512 = AXIS2_PLACEMENT_3D('',#513,#514,#515);
#513 = CARTESIAN_POINT('',(22.5,50.5,59.));
#514 = DIRECTION('',(0.707106781187,-0.707106781187,0.));
#515 = DIRECTION('',(0.,0.,-1.));
#516 = ADVANCED_FACE('',(#517),#567,.T.);
#517 = FACE_BOUND('',#518,.T.);
#518 = EDGE_LOOP('',(#519,#520,#521,#529,#537,#545,#553,#561));
#519 = ORIENTED_EDGE('',*,*,#63,.T.);
#520 = ORIENTED_EDGE('',*,*,#472,.T.);
#521 = ORIENTED_EDGE('',*,*,#522,.F.);
#522 = EDGE_CURVE('',#523,#465,#525,.T.);
#523 = VERTEX_POINT('',#524);
#524 = CARTESIAN_POINT('',(-20.,1.,60.7));
#525 = LINE('',#526,#527);
#526 = CARTESIAN_POINT('',(-20.,1.,60.7));
#527 = VECTOR('',#528,1.);
#528 = DIRECTION('',(0.,-1.,0.));
#529 = ORIENTED_EDGE('',*,*,#530,.F.);
#530 = EDGE_CURVE('',#531,#523,#533,.T.);
#531 = VERTEX_POINT('',#532);
#532 = CARTESIAN_POINT('',(-20.,1.,76.1));
#533 = LINE('',#534,#535);
#534 = CARTESIAN_POINT('',(-20.,1.,75.5));
#535 = VECTOR('',#536,1.);
#536 = DIRECTION('',(0.,0.,-1.));
#537 = ORIENTED_EDGE('',*,*,#538,.F.);
#538 = EDGE_CURVE('',#539,#531,#541,.T.);
#539 = VERTEX_POINT('',#540);
#540 = CARTESIAN_POINT('',(-20.,-10.,76.1));
#541 = LINE('',#542,#543);
#542 = CARTESIAN_POINT('',(-20.,-10.,76.1));
#543 = VECTOR('',#544,1.);
#544 = DIRECTION('',(0.,1.,0.));
#545 = ORIENTED_EDGE('',*,*,#546,.T.);
#546 = EDGE_CURVE('',#539,#547,#549,.T.);
#547 = VERTEX_POINT('',#548);
#548 = CARTESIAN_POINT('',(-20.,-10.,82.));
#549 = LINE('',#550,#551);
#550 = CARTESIAN_POINT('',(-20.,-10.,31.));
#551 = VECTOR('',#552,1.);
#552 = DIRECTION('',(0.,0.,1.));
#553 = ORIENTED_EDGE('',*,*,#554,.F.);
#554 = EDGE_CURVE('',#555,#547,#557,.T.);
#555 = VERTEX_POINT('',#556);
#556 = CARTESIAN_POINT('',(-20.,6.,82.));
#557 = LINE('',#558,#559);
#558 = CARTESIAN_POINT('',(-20.,15.,82.));
#559 = VECTOR('',#560,1.);
#560 = DIRECTION('',(0.,-1.,0.));
#561 = ORIENTED_EDGE('',*,*,#562,.T.);
#562 = EDGE_CURVE('',#555,#64,#563,.T.);
#563 = LINE('',#564,#565);
#564 = CARTESIAN_POINT('',(-20.,6.,82.));
#565 = VECTOR('',#566,1.);
#566 = DIRECTION('',(-0.,-0.,-1.));
#567 = PLANE('',#568);
#568 = AXIS2_PLACEMENT_3D('',#569,#570,#571);
#569 = CARTESIAN_POINT('',(-20.,0.419047619048,57.189285714286));
#570 = DIRECTION('',(-1.,-0.,-0.));
#571 = DIRECTION('',(0.,0.,-1.));
#572 = ADVANCED_FACE('',(#573),#591,.T.);
#573 = FACE_BOUND('',#574,.T.);
#574 = EDGE_LOOP('',(#575,#576,#584,#590));
#575 = ORIENTED_EDGE('',*,*,#112,.T.);
#576 = ORIENTED_EDGE('',*,*,#577,.F.);
#577 = EDGE_CURVE('',#578,#105,#580,.T.);
#578 = VERTEX_POINT('',#579);
#579 = CARTESIAN_POINT('',(20.,10.5,59.));
#580 = LINE('',#581,#582);
#581 = CARTESIAN_POINT('',(20.,10.5,59.));
#582 = VECTOR('',#583,1.);
#583 = DIRECTION('',(-0.,-0.,-1.));
#584 = ORIENTED_EDGE('',*,*,#585,.T.);
#585 = EDGE_CURVE('',#578,#499,#586,.T.);
#586 = LINE('',#587,#588);
#587 = CARTESIAN_POINT('',(20.,40.,59.));
#588 = VECTOR('',#589,1.);
#589 = DIRECTION('',(0.,1.,0.));
#590 = ORIENTED_EDGE('',*,*,#506,.T.);
#591 = PLANE('',#592);
#592 = AXIS2_PLACEMENT_3D('',#593,#594,#595);
#593 = CARTESIAN_POINT('',(20.,29.,44.));
#594 = DIRECTION('',(-1.,-0.,-0.));
#595 = DIRECTION('',(0.,0.,-1.));
#596 = ADVANCED_FACE('',(#597),#616,.T.);
#597 = FACE_BOUND('',#598,.T.);
#598 = EDGE_LOOP('',(#599,#608,#614,#615));
#599 = ORIENTED_EDGE('',*,*,#600,.T.);
#600 = EDGE_CURVE('',#555,#601,#603,.T.);
#601 = VERTEX_POINT('',#602);
#602 = CARTESIAN_POINT('',(-16.,10.,82.));
#603 = CIRCLE('',#604,4.);
#604 = AXIS2_PLACEMENT_3D('',#605,#606,#607);
#605 = CARTESIAN_POINT('',(-16.,6.,82.));
#606 = DIRECTION('',(0.,0.,-1.));
#607 = DIRECTION('',(0.,1.,0.));
#608 = ORIENTED_EDGE('',*,*,#609,.T.);
#609 = EDGE_CURVE('',#601,#72,#610,.T.);
#610 = LINE('',#611,#612);
#611 = CARTESIAN_POINT('',(-16.,10.,82.));
#612 = VECTOR('',#613,1.);
#613 = DIRECTION('',(-0.,-0.,-1.));
#614 = ORIENTED_EDGE('',*,*,#71,.F.);
#615 = ORIENTED_EDGE('',*,*,#562,.F.);
#616 = CYLINDRICAL_SURFACE('',#617,4.);
#617 = AXIS2_PLACEMENT_3D('',#618,#619,#620);
#618 = CARTESIAN_POINT('',(-16.,6.,82.));
#619 = DIRECTION('',(-0.,-0.,-1.));
#620 = DIRECTION('',(-1.,0.,0.));
#621 = ADVANCED_FACE('',(#622),#640,.T.);
#622 = FACE_BOUND('',#623,.F.);
#623 = EDGE_LOOP('',(#624,#632,#638,#639));
#624 = ORIENTED_EDGE('',*,*,#625,.F.);
#625 = EDGE_CURVE('',#626,#578,#628,.T.);
#626 = VERTEX_POINT('',#627);
#627 = CARTESIAN_POINT('',(25.,5.5,59.));
#628 = LINE('',#629,#630);
#629 = CARTESIAN_POINT('',(17.75,12.75,59.));
#630 = VECTOR('',#631,1.);
#631 = DIRECTION('',(-0.707106781187,0.707106781187,0.));
#632 = ORIENTED_EDGE('',*,*,#633,.T.);
#633 = EDGE_CURVE('',#626,#97,#634,.T.);
#634 = LINE('',#635,#636);
#635 = CARTESIAN_POINT('',(25.,5.5,59.));
#636 = VECTOR('',#637,1.);
#637 = DIRECTION('',(-0.,-0.,-1.));
#638 = ORIENTED_EDGE('',*,*,#104,.T.);
#639 = ORIENTED_EDGE('',*,*,#577,.F.);
#640 = PLANE('',#641);
#641 = AXIS2_PLACEMENT_3D('',#642,#643,#644);
#642 = CARTESIAN_POINT('',(22.5,8.,59.));
#643 = DIRECTION('',(-0.707106781187,-0.707106781187,0.));
#644 = DIRECTION('',(0.,0.,1.));
#645 = ADVANCED_FACE('',(#646),#696,.T.);
#646 = FACE_BOUND('',#647,.T.);
#647 = EDGE_LOOP('',(#648,#649,#650,#658,#666,#674,#682,#690));
#648 = ORIENTED_EDGE('',*,*,#80,.T.);
#649 = ORIENTED_EDGE('',*,*,#609,.F.);
#650 = ORIENTED_EDGE('',*,*,#651,.F.);
#651 = EDGE_CURVE('',#652,#601,#654,.T.);
#652 = VERTEX_POINT('',#653);
#653 = CARTESIAN_POINT('',(5.,10.,82.));
#654 = LINE('',#655,#656);
#655 = CARTESIAN_POINT('',(5.,10.,82.));
#656 = VECTOR('',#657,1.);
#657 = DIRECTION('',(-1.,0.,0.));
#658 = ORIENTED_EDGE('',*,*,#659,.F.);
#659 = EDGE_CURVE('',#660,#652,#662,.T.);
#660 = VERTEX_POINT('',#661);
#661 = CARTESIAN_POINT('',(5.,10.,76.1));
#662 = LINE('',#663,#664);
#663 = CARTESIAN_POINT('',(5.,10.,31.));
#664 = VECTOR('',#665,1.);
#665 = DIRECTION('',(0.,0.,1.));
#666 = ORIENTED_EDGE('',*,*,#667,.F.);
#667 = EDGE_CURVE('',#668,#660,#670,.T.);
#668 = VERTEX_POINT('',#669);
#669 = CARTESIAN_POINT('',(-15.,10.,76.1));
#670 = LINE('',#671,#672);
#671 = CARTESIAN_POINT('',(-15.,10.,76.1));
#672 = VECTOR('',#673,1.);
#673 = DIRECTION('',(1.,0.,0.));
#674 = ORIENTED_EDGE('',*,*,#675,.F.);
#675 = EDGE_CURVE('',#676,#668,#678,.T.);
#676 = VERTEX_POINT('',#677);
#677 = CARTESIAN_POINT('',(-15.,10.,60.7));
#678 = LINE('',#679,#680);
#679 = CARTESIAN_POINT('',(-15.,10.,75.5));
#680 = VECTOR('',#681,1.);
#681 = DIRECTION('',(0.,0.,1.));
#682 = ORIENTED_EDGE('',*,*,#683,.F.);
#683 = EDGE_CURVE('',#684,#676,#686,.T.);
#684 = VERTEX_POINT('',#685);
#685 = CARTESIAN_POINT('',(5.,10.,60.7));
#686 = LINE('',#687,#688);
#687 = CARTESIAN_POINT('',(5.,10.,60.7));
#688 = VECTOR('',#689,1.);
#689 = DIRECTION('',(-1.,0.,0.));
#690 = ORIENTED_EDGE('',*,*,#691,.T.);
#691 = EDGE_CURVE('',#684,#81,#692,.T.);
#692 = LINE('',#693,#694);
#693 = CARTESIAN_POINT('',(5.,10.,31.));
#694 = VECTOR('',#695,1.);
#695 = DIRECTION('',(-0.,-0.,-1.));
#696 = PLANE('',#697);
#697 = AXIS2_PLACEMENT_3D('',#698,#699,#700);
#698 = CARTESIAN_POINT('',(-8.561224489796,10.,58.132653061224));
#699 = DIRECTION('',(0.,1.,0.));
#700 = DIRECTION('',(0.,0.,1.));
#701 = ADVANCED_FACE('',(#702),#736,.T.);
#702 = FACE_BOUND('',#703,.T.);
#703 = EDGE_LOOP('',(#704,#714,#722,#728,#729,#730));
#704 = ORIENTED_EDGE('',*,*,#705,.F.);
#705 = EDGE_CURVE('',#706,#708,#710,.T.);
#706 = VERTEX_POINT('',#707);
#707 = CARTESIAN_POINT('',(5.,-5.,31.));
#708 = VERTEX_POINT('',#709);
#709 = CARTESIAN_POINT('',(5.,-5.,60.7));
#710 = LINE('',#711,#712);
#711 = CARTESIAN_POINT('',(5.,-5.,59.5));
#712 = VECTOR('',#713,1.);
#713 = DIRECTION('',(0.,0.,1.));
#714 = ORIENTED_EDGE('',*,*,#715,.T.);
#715 = EDGE_CURVE('',#706,#716,#718,.T.);
#716 = VERTEX_POINT('',#717);
#717 = CARTESIAN_POINT('',(5.,5.5,31.));
#718 = LINE('',#719,#720);
#719 = CARTESIAN_POINT('',(5.,-10.,31.));
#720 = VECTOR('',#721,1.);
#721 = DIRECTION('',(0.,1.,0.));
#722 = ORIENTED_EDGE('',*,*,#723,.T.);
#723 = EDGE_CURVE('',#716,#89,#724,.T.);
#724 = LINE('',#725,#726);
#725 = CARTESIAN_POINT('',(5.,5.5,31.));
#726 = VECTOR('',#727,1.);
#727 = DIRECTION('',(-0.,-0.,-1.));
#728 = ORIENTED_EDGE('',*,*,#88,.T.);
#729 = ORIENTED_EDGE('',*,*,#691,.F.);
#730 = ORIENTED_EDGE('',*,*,#731,.T.);
#731 = EDGE_CURVE('',#684,#708,#732,.T.);
#732 = LINE('',#733,#734);
#733 = CARTESIAN_POINT('',(5.,15.,60.7));
#734 = VECTOR('',#735,1.);
#735 = DIRECTION('',(0.,-1.,2.2E-16));
#736 = PLANE('',#737);
#737 = AXIS2_PLACEMENT_3D('',#738,#739,#740);
#738 = CARTESIAN_POINT('',(5.,2.714132762313,45.064132762313));
#739 = DIRECTION('',(1.,0.,0.));
#740 = DIRECTION('',(0.,0.,1.));
#741 = ADVANCED_FACE('',(#742),#776,.T.);
#742 = FACE_BOUND('',#743,.T.);
#743 = EDGE_LOOP('',(#744,#754,#760,#761,#762,#763,#769,#770));
#744 = ORIENTED_EDGE('',*,*,#745,.T.);
#745 = EDGE_CURVE('',#746,#748,#750,.T.);
#746 = VERTEX_POINT('',#747);
#747 = CARTESIAN_POINT('',(35.,5.5,25.));
#748 = VERTEX_POINT('',#749);
#749 = CARTESIAN_POINT('',(35.,5.5,59.));
#750 = LINE('',#751,#752);
#751 = CARTESIAN_POINT('',(35.,5.5,23.));
#752 = VECTOR('',#753,1.);
#753 = DIRECTION('',(0.,0.,1.));
#754 = ORIENTED_EDGE('',*,*,#755,.T.);
#755 = EDGE_CURVE('',#748,#626,#756,.T.);
#756 = LINE('',#757,#758);
#757 = CARTESIAN_POINT('',(4.166666666667,5.5,59.));
#758 = VECTOR('',#759,1.);
#759 = DIRECTION('',(-1.,0.,0.));
#760 = ORIENTED_EDGE('',*,*,#633,.T.);
#761 = ORIENTED_EDGE('',*,*,#96,.T.);
#762 = ORIENTED_EDGE('',*,*,#723,.F.);
#763 = ORIENTED_EDGE('',*,*,#764,.T.);
#764 = EDGE_CURVE('',#716,#387,#765,.T.);
#765 = LINE('',#766,#767);
#766 = CARTESIAN_POINT('',(-2.5,5.5,31.));
#767 = VECTOR('',#768,1.);
#768 = DIRECTION('',(-1.,0.,0.));
#769 = ORIENTED_EDGE('',*,*,#386,.F.);
#770 = ORIENTED_EDGE('',*,*,#771,.T.);
#771 = EDGE_CURVE('',#379,#746,#772,.T.);
#772 = LINE('',#773,#774);
#773 = CARTESIAN_POINT('',(-10.,5.5,25.));
#774 = VECTOR('',#775,1.);
#775 = DIRECTION('',(1.,0.,0.));
#776 = PLANE('',#777);
#777 = AXIS2_PLACEMENT_3D('',#778,#779,#780);
#778 = CARTESIAN_POINT('',(19.715909090909,5.5,35.806818181818));
#779 = DIRECTION('',(-0.,-1.,-0.));
#780 = DIRECTION('',(0.,0.,-1.));
#781 = ADVANCED_FACE('',(#782),#803,.F.);
#782 = FACE_BOUND('',#783,.F.);
#783 = EDGE_LOOP('',(#784,#785,#793,#800,#801,#802));
#784 = ORIENTED_EDGE('',*,*,#173,.F.);
#785 = ORIENTED_EDGE('',*,*,#786,.T.);
#786 = EDGE_CURVE('',#156,#787,#789,.T.);
#787 = VERTEX_POINT('',#788);
#788 = CARTESIAN_POINT('',(-14.75,16.5,23.));
#789 = LINE('',#790,#791);
#790 = CARTESIAN_POINT('',(-14.75,16.5,31.));
#791 = VECTOR('',#792,1.);
#792 = DIRECTION('',(-0.,-0.,-1.));
#793 = ORIENTED_EDGE('',*,*,#794,.T.);
#794 = EDGE_CURVE('',#787,#787,#795,.T.);
#795 = CIRCLE('',#796,1.75);
#796 = AXIS2_PLACEMENT_3D('',#797,#798,#799);
#797 = CARTESIAN_POINT('',(-16.5,16.5,23.));
#798 = DIRECTION('',(0.,0.,1.));
#799 = DIRECTION('',(1.,0.,0.));
#800 = ORIENTED_EDGE('',*,*,#786,.F.);
#801 = ORIENTED_EDGE('',*,*,#153,.F.);
#802 = ORIENTED_EDGE('',*,*,#164,.F.);
#803 = CYLINDRICAL_SURFACE('',#804,1.75);
#804 = AXIS2_PLACEMENT_3D('',#805,#806,#807);
#805 = CARTESIAN_POINT('',(-16.5,16.5,31.));
#806 = DIRECTION('',(0.,0.,1.));
#807 = DIRECTION('',(1.,0.,0.));
#808 = ADVANCED_FACE('',(#809),#828,.F.);
#809 = FACE_BOUND('',#810,.F.);
#810 = EDGE_LOOP('',(#811,#812,#820,#827));
#811 = ORIENTED_EDGE('',*,*,#182,.F.);
#812 = ORIENTED_EDGE('',*,*,#813,.T.);
#813 = EDGE_CURVE('',#183,#814,#816,.T.);
#814 = VERTEX_POINT('',#815);
#815 = CARTESIAN_POINT('',(16.25,16.5,23.));
#816 = LINE('',#817,#818);
#817 = CARTESIAN_POINT('',(16.25,16.5,31.));
#818 = VECTOR('',#819,1.);
#819 = DIRECTION('',(-0.,-0.,-1.));
#820 = ORIENTED_EDGE('',*,*,#821,.T.);
#821 = EDGE_CURVE('',#814,#814,#822,.T.);
#822 = CIRCLE('',#823,1.75);
#823 = AXIS2_PLACEMENT_3D('',#824,#825,#826);
#824 = CARTESIAN_POINT('',(14.5,16.5,23.));
#825 = DIRECTION('',(0.,0.,1.));
#826 = DIRECTION('',(1.,0.,0.));
#827 = ORIENTED_EDGE('',*,*,#813,.F.);
#828 = CYLINDRICAL_SURFACE('',#829,1.75);
#829 = AXIS2_PLACEMENT_3D('',#830,#831,#832);
#830 = CARTESIAN_POINT('',(14.5,16.5,31.));
#831 = DIRECTION('',(0.,0.,1.));
#832 = DIRECTION('',(1.,0.,0.));
#833 = ADVANCED_FACE('',(#834),#853,.F.);
#834 = FACE_BOUND('',#835,.F.);
#835 = EDGE_LOOP('',(#836,#837,#845,#852));
#836 = ORIENTED_EDGE('',*,*,#193,.F.);
#837 = ORIENTED_EDGE('',*,*,#838,.T.);
#838 = EDGE_CURVE('',#194,#839,#841,.T.);
#839 = VERTEX_POINT('',#840);
#840 = CARTESIAN_POINT('',(-14.75,47.5,23.));
#841 = LINE('',#842,#843);
#842 = CARTESIAN_POINT('',(-14.75,47.5,31.));
#843 = VECTOR('',#844,1.);
#844 = DIRECTION('',(-0.,-0.,-1.));
#845 = ORIENTED_EDGE('',*,*,#846,.T.);
#846 = EDGE_CURVE('',#839,#839,#847,.T.);
#847 = CIRCLE('',#848,1.75);
#848 = AXIS2_PLACEMENT_3D('',#849,#850,#851);
#849 = CARTESIAN_POINT('',(-16.5,47.5,23.));
#850 = DIRECTION('',(0.,0.,1.));
#851 = DIRECTION('',(1.,0.,0.));
#852 = ORIENTED_EDGE('',*,*,#838,.F.);
#853 = CYLINDRICAL_SURFACE('',#854,1.75);
#854 = AXIS2_PLACEMENT_3D('',#855,#856,#857);
#855 = CARTESIAN_POINT('',(-16.5,47.5,31.));
#856 = DIRECTION('',(0.,0.,1.));
#857 = DIRECTION('',(1.,0.,0.));
#858 = ADVANCED_FACE('',(#859),#878,.F.);
#859 = FACE_BOUND('',#860,.T.);
#860 = EDGE_LOOP('',(#861,#869,#870,#871));
#861 = ORIENTED_EDGE('',*,*,#862,.F.);
#862 = EDGE_CURVE('',#205,#863,#865,.T.);
#863 = VERTEX_POINT('',#864);
#864 = CARTESIAN_POINT('',(10.5,32.,25.));
#865 = LINE('',#866,#867);
#866 = CARTESIAN_POINT('',(10.5,32.,25.));
#867 = VECTOR('',#868,1.);
#868 = DIRECTION('',(-0.707106781187,-0.,-0.707106781187));
#869 = ORIENTED_EDGE('',*,*,#204,.T.);
#870 = ORIENTED_EDGE('',*,*,#862,.T.);
#871 = ORIENTED_EDGE('',*,*,#872,.F.);
#872 = EDGE_CURVE('',#863,#863,#873,.T.);
#873 = CIRCLE('',#874,11.5);
#874 = AXIS2_PLACEMENT_3D('',#875,#876,#877);
#875 = CARTESIAN_POINT('',(-1.,32.,25.));
#876 = DIRECTION('',(0.,0.,1.));
#877 = DIRECTION('',(1.,0.,0.));
#878 = CONICAL_SURFACE('',#879,11.5,0.785398163397);
#879 = AXIS2_PLACEMENT_3D('',#880,#881,#882);
#880 = CARTESIAN_POINT('',(-1.,32.,25.));
#881 = DIRECTION('',(0.,0.,1.));
#882 = DIRECTION('',(1.,0.,0.));
#883 = ADVANCED_FACE('',(#884),#903,.F.);
#884 = FACE_BOUND('',#885,.F.);
#885 = EDGE_LOOP('',(#886,#887,#895,#902));
#886 = ORIENTED_EDGE('',*,*,#215,.F.);
#887 = ORIENTED_EDGE('',*,*,#888,.T.);
#888 = EDGE_CURVE('',#216,#889,#891,.T.);
#889 = VERTEX_POINT('',#890);
#890 = CARTESIAN_POINT('',(16.25,47.5,23.));
#891 = LINE('',#892,#893);
#892 = CARTESIAN_POINT('',(16.25,47.5,31.));
#893 = VECTOR('',#894,1.);
#894 = DIRECTION('',(-0.,-0.,-1.));
#895 = ORIENTED_EDGE('',*,*,#896,.T.);
#896 = EDGE_CURVE('',#889,#889,#897,.T.);
#897 = CIRCLE('',#898,1.75);
#898 = AXIS2_PLACEMENT_3D('',#899,#900,#901);
#899 = CARTESIAN_POINT('',(14.5,47.5,23.));
#900 = DIRECTION('',(0.,0.,1.));
#901 = DIRECTION('',(1.,0.,0.));
#902 = ORIENTED_EDGE('',*,*,#888,.F.);
#903 = CYLINDRICAL_SURFACE('',#904,1.75);
#904 = AXIS2_PLACEMENT_3D('',#905,#906,#907);
#905 = CARTESIAN_POINT('',(14.5,47.5,31.));
#906 = DIRECTION('',(0.,0.,1.));
#907 = DIRECTION('',(1.,0.,0.));
#908 = ADVANCED_FACE('',(#909),#943,.T.);
#909 = FACE_BOUND('',#910,.T.);
#910 = EDGE_LOOP('',(#911,#921,#927,#928,#929,#937));
#911 = ORIENTED_EDGE('',*,*,#912,.T.);
#912 = EDGE_CURVE('',#913,#915,#917,.T.);
#913 = VERTEX_POINT('',#914);
#914 = CARTESIAN_POINT('',(-33.,-35.,25.));
#915 = VERTEX_POINT('',#916);
#916 = CARTESIAN_POINT('',(-33.,-35.,59.));
#917 = LINE('',#918,#919);
#918 = CARTESIAN_POINT('',(-33.,-35.,23.));
#919 = VECTOR('',#920,1.);
#920 = DIRECTION('',(0.,0.,1.));
#921 = ORIENTED_EDGE('',*,*,#922,.F.);
#922 = EDGE_CURVE('',#242,#915,#923,.T.);
#923 = LINE('',#924,#925);
#924 = CARTESIAN_POINT('',(-33.,-20.,59.));
#925 = VECTOR('',#926,1.);
#926 = DIRECTION('',(0.,-1.,0.));
#927 = ORIENTED_EDGE('',*,*,#241,.T.);
#928 = ORIENTED_EDGE('',*,*,#304,.F.);
#929 = ORIENTED_EDGE('',*,*,#930,.F.);
#930 = EDGE_CURVE('',#931,#297,#933,.T.);
#931 = VERTEX_POINT('',#932);
#932 = CARTESIAN_POINT('',(-33.,43.,25.));
#933 = LINE('',#934,#935);
#934 = CARTESIAN_POINT('',(-33.,43.,23.));
#935 = VECTOR('',#936,1.);
#936 = DIRECTION('',(0.,0.,1.));
#937 = ORIENTED_EDGE('',*,*,#938,.F.);
#938 = EDGE_CURVE('',#913,#931,#939,.T.);
#939 = LINE('',#940,#941);
#940 = CARTESIAN_POINT('',(-33.,-35.,25.));
#941 = VECTOR('',#942,1.);
#942 = DIRECTION('',(0.,1.,0.));
#943 = PLANE('',#944);
#944 = AXIS2_PLACEMENT_3D('',#945,#946,#947);
#945 = CARTESIAN_POINT('',(-33.,13.304347826087,50.195652173913));
#946 = DIRECTION('',(-1.,-0.,-0.));
#947 = DIRECTION('',(0.,0.,-1.));
#948 = ADVANCED_FACE('',(#949,#978),#989,.T.);
#949 = FACE_BOUND('',#950,.T.);
#950 = EDGE_LOOP('',(#951,#952,#953,#954,#955,#956,#964,#972));
#951 = ORIENTED_EDGE('',*,*,#410,.F.);
#952 = ORIENTED_EDGE('',*,*,#328,.T.);
#953 = ORIENTED_EDGE('',*,*,#271,.T.);
#954 = ORIENTED_EDGE('',*,*,#249,.T.);
#955 = ORIENTED_EDGE('',*,*,#922,.T.);
#956 = ORIENTED_EDGE('',*,*,#957,.T.);
#957 = EDGE_CURVE('',#915,#958,#960,.T.);
#958 = VERTEX_POINT('',#959);
#959 = CARTESIAN_POINT('',(-28.,-40.,59.));
#960 = LINE('',#961,#962);
#961 = CARTESIAN_POINT('',(-25.86111111111,-42.13888888888,59.));
#962 = VECTOR('',#963,1.);
#963 = DIRECTION('',(0.707106781187,-0.707106781187,0.));
#964 = ORIENTED_EDGE('',*,*,#965,.T.);
#965 = EDGE_CURVE('',#958,#966,#968,.T.);
#966 = VERTEX_POINT('',#967);
#967 = CARTESIAN_POINT('',(-15.,-40.,59.));
#968 = LINE('',#969,#970);
#969 = CARTESIAN_POINT('',(-40.,-40.,59.));
#970 = VECTOR('',#971,1.);
#971 = DIRECTION('',(1.,0.,0.));
#972 = ORIENTED_EDGE('',*,*,#973,.F.);
#973 = EDGE_CURVE('',#371,#966,#974,.T.);
#974 = LINE('',#975,#976);
#975 = CARTESIAN_POINT('',(0.277777777778,-24.72222222222,59.));
#976 = VECTOR('',#977,1.);
#977 = DIRECTION('',(-0.707106781187,-0.707106781187,0.));
#978 = FACE_BOUND('',#979,.T.);
#979 = EDGE_LOOP('',(#980));
#980 = ORIENTED_EDGE('',*,*,#981,.T.);
#981 = EDGE_CURVE('',#982,#982,#984,.T.);
#982 = VERTEX_POINT('',#983);
#983 = CARTESIAN_POINT('',(-17.35,-30.,59.));
#984 = CIRCLE('',#985,2.65);
#985 = AXIS2_PLACEMENT_3D('',#986,#987,#988);
#986 = CARTESIAN_POINT('',(-20.,-30.,59.));
#987 = DIRECTION('',(0.,-1.2E-16,-1.));
#988 = DIRECTION('',(1.,0.,0.));
#989 = PLANE('',#990);
#990 = AXIS2_PLACEMENT_3D('',#991,#992,#993);
#991 = CARTESIAN_POINT('',(13.333333333333,-12.22222222222,59.));
#992 = DIRECTION('',(0.,0.,1.));
#993 = DIRECTION('',(1.,0.,0.));
#994 = ADVANCED_FACE('',(#995),#1014,.T.);
#995 = FACE_BOUND('',#996,.F.);
#996 = EDGE_LOOP('',(#997,#998,#1007,#1013));
#997 = ORIENTED_EDGE('',*,*,#930,.F.);
#998 = ORIENTED_EDGE('',*,*,#999,.T.);
#999 = EDGE_CURVE('',#931,#1000,#1002,.T.);
#1000 = VERTEX_POINT('',#1001);
#1001 = CARTESIAN_POINT('',(-23.,53.,25.));
#1002 = CIRCLE('',#1003,10.);
#1003 = AXIS2_PLACEMENT_3D('',#1004,#1005,#1006);
#1004 = CARTESIAN_POINT('',(-23.,43.,25.));
#1005 = DIRECTION('',(0.,0.,-1.));
#1006 = DIRECTION('',(-1.,0.,0.));
#1007 = ORIENTED_EDGE('',*,*,#1008,.T.);
#1008 = EDGE_CURVE('',#1000,#344,#1009,.T.);
#1009 = LINE('',#1010,#1011);
#1010 = CARTESIAN_POINT('',(-23.,53.,23.));
#1011 = VECTOR('',#1012,1.);
#1012 = DIRECTION('',(0.,0.,1.));
#1013 = ORIENTED_EDGE('',*,*,#353,.T.);
#1014 = CYLINDRICAL_SURFACE('',#1015,10.);
#1015 = AXIS2_PLACEMENT_3D('',#1016,#1017,#1018);
#1016 = CARTESIAN_POINT('',(-23.,43.,23.));
#1017 = DIRECTION('',(0.,0.,1.));
#1018 = DIRECTION('',(-1.,0.,0.));
#1019 = ADVANCED_FACE('',(#1020),#1046,.F.);
#1020 = FACE_BOUND('',#1021,.T.);
#1021 = EDGE_LOOP('',(#1022,#1032,#1038,#1039,#1040));
#1022 = ORIENTED_EDGE('',*,*,#1023,.F.);
#1023 = EDGE_CURVE('',#1024,#1026,#1028,.T.);
#1024 = VERTEX_POINT('',#1025);
#1025 = CARTESIAN_POINT('',(-12.,-37.,23.));
#1026 = VERTEX_POINT('',#1027);
#1027 = CARTESIAN_POINT('',(-15.,-40.,23.));
#1028 = LINE('',#1029,#1030);
#1029 = CARTESIAN_POINT('',(3.,-22.,23.));
#1030 = VECTOR('',#1031,1.);
#1031 = DIRECTION('',(-0.707106781187,-0.707106781187,0.));
#1032 = ORIENTED_EDGE('',*,*,#1033,.F.);
#1033 = EDGE_CURVE('',#369,#1024,#1034,.T.);
#1034 = LINE('',#1035,#1036);
#1035 = CARTESIAN_POINT('',(-11.5,-36.5,23.5));
#1036 = VECTOR('',#1037,1.);
#1037 = DIRECTION('',(-0.57735026919,-0.57735026919,-0.57735026919));
#1038 = ORIENTED_EDGE('',*,*,#368,.T.);
#1039 = ORIENTED_EDGE('',*,*,#973,.T.);
#1040 = ORIENTED_EDGE('',*,*,#1041,.F.);
#1041 = EDGE_CURVE('',#1026,#966,#1042,.T.);
#1042 = LINE('',#1043,#1044);
#1043 = CARTESIAN_POINT('',(-15.,-40.,23.));
#1044 = VECTOR('',#1045,1.);
#1045 = DIRECTION('',(0.,0.,1.));
#1046 = PLANE('',#1047);
#1047 = AXIS2_PLACEMENT_3D('',#1048,#1049,#1050);
#1048 = CARTESIAN_POINT('',(-12.5,-37.5,23.));
#1049 = DIRECTION('',(-0.707106781187,0.707106781187,0.));
#1050 = DIRECTION('',(-0.,-0.,-1.));
#1051 = ADVANCED_FACE('',(#1052),#1070,.T.);
#1052 = FACE_BOUND('',#1053,.F.);
#1053 = EDGE_LOOP('',(#1054,#1055,#1056,#1064));
#1054 = ORIENTED_EDGE('',*,*,#1033,.F.);
#1055 = ORIENTED_EDGE('',*,*,#378,.T.);
#1056 = ORIENTED_EDGE('',*,*,#1057,.T.);
#1057 = EDGE_CURVE('',#379,#1058,#1060,.T.);
#1058 = VERTEX_POINT('',#1059);
#1059 = CARTESIAN_POINT('',(-12.,7.5,23.));
#1060 = LINE('',#1061,#1062);
#1061 = CARTESIAN_POINT('',(-3.916666666667,-0.583333333333,
    31.083333333333));
#1062 = VECTOR('',#1063,1.);
#1063 = DIRECTION('',(-0.57735026919,0.57735026919,-0.57735026919));
#1064 = ORIENTED_EDGE('',*,*,#1065,.F.);
#1065 = EDGE_CURVE('',#1024,#1058,#1066,.T.);
#1066 = LINE('',#1067,#1068);
#1067 = CARTESIAN_POINT('',(-12.,-35.,23.));
#1068 = VECTOR('',#1069,1.);
#1069 = DIRECTION('',(0.,1.,0.));
#1070 = PLANE('',#1071);
#1071 = AXIS2_PLACEMENT_3D('',#1072,#1073,#1074);
#1072 = CARTESIAN_POINT('',(-11.,-35.,24.));
#1073 = DIRECTION('',(0.707106781187,0.,-0.707106781187));
#1074 = DIRECTION('',(-0.,-1.,-0.));
#1075 = ADVANCED_FACE('',(#1076,#1089),#1100,.T.);
#1076 = FACE_BOUND('',#1077,.T.);
#1077 = EDGE_LOOP('',(#1078,#1079,#1086,#1087,#1088));
#1078 = ORIENTED_EDGE('',*,*,#715,.F.);
#1079 = ORIENTED_EDGE('',*,*,#1080,.T.);
#1080 = EDGE_CURVE('',#706,#449,#1081,.T.);
#1081 = CIRCLE('',#1082,5.);
#1082 = AXIS2_PLACEMENT_3D('',#1083,#1084,#1085);
#1083 = CARTESIAN_POINT('',(1.78E-15,-5.,31.));
#1084 = DIRECTION('',(-0.,-0.,-1.));
#1085 = DIRECTION('',(0.,-1.,0.));
#1086 = ORIENTED_EDGE('',*,*,#448,.T.);
#1087 = ORIENTED_EDGE('',*,*,#394,.T.);
#1088 = ORIENTED_EDGE('',*,*,#764,.F.);
#1089 = FACE_BOUND('',#1090,.T.);
#1090 = EDGE_LOOP('',(#1091));
#1091 = ORIENTED_EDGE('',*,*,#1092,.F.);
#1092 = EDGE_CURVE('',#1093,#1093,#1095,.T.);
#1093 = VERTEX_POINT('',#1094);
#1094 = CARTESIAN_POINT('',(-0.25,0.,31.));
#1095 = CIRCLE('',#1096,4.5);
#1096 = AXIS2_PLACEMENT_3D('',#1097,#1098,#1099);
#1097 = CARTESIAN_POINT('',(-4.75,0.,31.));
#1098 = DIRECTION('',(0.,0.,-1.));
#1099 = DIRECTION('',(1.,0.,0.));
#1100 = PLANE('',#1101);
#1101 = AXIS2_PLACEMENT_3D('',#1102,#1103,#1104);
#1102 = CARTESIAN_POINT('',(-2.822310288733,-1.918179607664,31.));
#1103 = DIRECTION('',(-0.,-0.,-1.));
#1104 = DIRECTION('',(-1.,0.,0.));
#1105 = ADVANCED_FACE('',(#1106),#1133,.F.);
#1106 = FACE_BOUND('',#1107,.F.);
#1107 = EDGE_LOOP('',(#1108,#1118,#1124,#1125,#1126,#1127));
#1108 = ORIENTED_EDGE('',*,*,#1109,.T.);
#1109 = EDGE_CURVE('',#1110,#1112,#1114,.T.);
#1110 = VERTEX_POINT('',#1111);
#1111 = CARTESIAN_POINT('',(35.,53.,25.));
#1112 = VERTEX_POINT('',#1113);
#1113 = CARTESIAN_POINT('',(35.,53.,59.));
#1114 = LINE('',#1115,#1116);
#1115 = CARTESIAN_POINT('',(35.,53.,23.));
#1116 = VECTOR('',#1117,1.);
#1117 = DIRECTION('',(0.,0.,1.));
#1118 = ORIENTED_EDGE('',*,*,#1119,.T.);
#1119 = EDGE_CURVE('',#1112,#491,#1120,.T.);
#1120 = LINE('',#1121,#1122);
#1121 = CARTESIAN_POINT('',(40.,53.,59.));
#1122 = VECTOR('',#1123,1.);
#1123 = DIRECTION('',(-1.,0.,0.));
#1124 = ORIENTED_EDGE('',*,*,#490,.T.);
#1125 = ORIENTED_EDGE('',*,*,#433,.T.);
#1126 = ORIENTED_EDGE('',*,*,#1008,.F.);
#1127 = ORIENTED_EDGE('',*,*,#1128,.T.);
#1128 = EDGE_CURVE('',#1000,#1110,#1129,.T.);
#1129 = LINE('',#1130,#1131);
#1130 = CARTESIAN_POINT('',(-23.,53.,25.));
#1131 = VECTOR('',#1132,1.);
#1132 = DIRECTION('',(1.,0.,0.));
#1133 = PLANE('',#1134);
#1134 = AXIS2_PLACEMENT_3D('',#1135,#1136,#1137);
#1135 = CARTESIAN_POINT('',(40.,53.,0.));
#1136 = DIRECTION('',(0.,-1.,0.));
#1137 = DIRECTION('',(-1.,0.,0.));
#1138 = ADVANCED_FACE('',(#1139,#1166),#1177,.T.);
#1139 = FACE_BOUND('',#1140,.T.);
#1140 = EDGE_LOOP('',(#1141,#1142,#1143,#1151,#1157,#1158,#1159));
#1141 = ORIENTED_EDGE('',*,*,#731,.F.);
#1142 = ORIENTED_EDGE('',*,*,#683,.T.);
#1143 = ORIENTED_EDGE('',*,*,#1144,.T.);
#1144 = EDGE_CURVE('',#676,#1145,#1147,.T.);
#1145 = VERTEX_POINT('',#1146);
#1146 = CARTESIAN_POINT('',(-15.,1.,60.7));
#1147 = LINE('',#1148,#1149);
#1148 = CARTESIAN_POINT('',(-15.,15.,60.7));
#1149 = VECTOR('',#1150,1.);
#1150 = DIRECTION('',(0.,-1.,2.2E-16));
#1151 = ORIENTED_EDGE('',*,*,#1152,.F.);
#1152 = EDGE_CURVE('',#523,#1145,#1153,.T.);
#1153 = LINE('',#1154,#1155);
#1154 = CARTESIAN_POINT('',(-20.,1.,60.7));
#1155 = VECTOR('',#1156,1.);
#1156 = DIRECTION('',(1.,0.,0.));
#1157 = ORIENTED_EDGE('',*,*,#522,.T.);
#1158 = ORIENTED_EDGE('',*,*,#464,.F.);
#1159 = ORIENTED_EDGE('',*,*,#1160,.T.);
#1160 = EDGE_CURVE('',#457,#708,#1161,.T.);
#1161 = CIRCLE('',#1162,5.);
#1162 = AXIS2_PLACEMENT_3D('',#1163,#1164,#1165);
#1163 = CARTESIAN_POINT('',(1.78E-15,-5.,60.7));
#1164 = DIRECTION('',(0.,0.,1.));
#1165 = DIRECTION('',(1.,0.,0.));
#1166 = FACE_BOUND('',#1167,.T.);
#1167 = EDGE_LOOP('',(#1168));
#1168 = ORIENTED_EDGE('',*,*,#1169,.F.);
#1169 = EDGE_CURVE('',#1170,#1170,#1172,.T.);
#1170 = VERTEX_POINT('',#1171);
#1171 = CARTESIAN_POINT('',(-2.1,0.,60.7));
#1172 = CIRCLE('',#1173,2.65);
#1173 = AXIS2_PLACEMENT_3D('',#1174,#1175,#1176);
#1174 = CARTESIAN_POINT('',(-4.75,0.,60.7));
#1175 = DIRECTION('',(0.,0.,1.));
#1176 = DIRECTION('',(1.,0.,0.));
#1177 = PLANE('',#1178);
#1178 = AXIS2_PLACEMENT_3D('',#1179,#1180,#1181);
#1179 = CARTESIAN_POINT('',(-7.092056403937,2.092056403937,60.7));
#1180 = DIRECTION('',(0.,0.,1.));
#1181 = DIRECTION('',(1.,0.,0.));
#1182 = ADVANCED_FACE('',(#1183),#1189,.T.);
#1183 = FACE_BOUND('',#1184,.F.);
#1184 = EDGE_LOOP('',(#1185,#1186,#1187,#1188));
#1185 = ORIENTED_EDGE('',*,*,#705,.F.);
#1186 = ORIENTED_EDGE('',*,*,#1080,.T.);
#1187 = ORIENTED_EDGE('',*,*,#456,.T.);
#1188 = ORIENTED_EDGE('',*,*,#1160,.T.);
#1189 = CYLINDRICAL_SURFACE('',#1190,5.);
#1190 = AXIS2_PLACEMENT_3D('',#1191,#1192,#1193);
#1191 = CARTESIAN_POINT('',(1.78E-15,-5.,31.));
#1192 = DIRECTION('',(0.,0.,1.));
#1193 = DIRECTION('',(1.,0.,0.));
#1194 = ADVANCED_FACE('',(#1195,#1224,#1235),#1246,.T.);
#1195 = FACE_BOUND('',#1196,.T.);
#1196 = EDGE_LOOP('',(#1197,#1198,#1206,#1214,#1220,#1221,#1222,#1223));
#1197 = ORIENTED_EDGE('',*,*,#755,.F.);
#1198 = ORIENTED_EDGE('',*,*,#1199,.T.);
#1199 = EDGE_CURVE('',#748,#1200,#1202,.T.);
#1200 = VERTEX_POINT('',#1201);
#1201 = CARTESIAN_POINT('',(40.,10.5,59.));
#1202 = LINE('',#1203,#1204);
#1203 = CARTESIAN_POINT('',(42.25,12.75,59.));
#1204 = VECTOR('',#1205,1.);
#1205 = DIRECTION('',(0.707106781187,0.707106781187,0.));
#1206 = ORIENTED_EDGE('',*,*,#1207,.T.);
#1207 = EDGE_CURVE('',#1200,#1208,#1210,.T.);
#1208 = VERTEX_POINT('',#1209);
#1209 = CARTESIAN_POINT('',(40.,48.,59.));
#1210 = LINE('',#1211,#1212);
#1211 = CARTESIAN_POINT('',(40.,-20.,59.));
#1212 = VECTOR('',#1213,1.);
#1213 = DIRECTION('',(0.,1.,0.));
#1214 = ORIENTED_EDGE('',*,*,#1215,.F.);
#1215 = EDGE_CURVE('',#1112,#1208,#1216,.T.);
#1216 = LINE('',#1217,#1218);
#1217 = CARTESIAN_POINT('',(39.625,48.375,59.));
#1218 = VECTOR('',#1219,1.);
#1219 = DIRECTION('',(0.707106781187,-0.707106781187,0.));
#1220 = ORIENTED_EDGE('',*,*,#1119,.T.);
#1221 = ORIENTED_EDGE('',*,*,#498,.F.);
#1222 = ORIENTED_EDGE('',*,*,#585,.F.);
#1223 = ORIENTED_EDGE('',*,*,#625,.F.);
#1224 = FACE_BOUND('',#1225,.T.);
#1225 = EDGE_LOOP('',(#1226));
#1226 = ORIENTED_EDGE('',*,*,#1227,.T.);
#1227 = EDGE_CURVE('',#1228,#1228,#1230,.T.);
#1228 = VERTEX_POINT('',#1229);
#1229 = CARTESIAN_POINT('',(32.65,15.,59.));
#1230 = CIRCLE('',#1231,2.65);
#1231 = AXIS2_PLACEMENT_3D('',#1232,#1233,#1234);
#1232 = CARTESIAN_POINT('',(30.,15.,59.));
#1233 = DIRECTION('',(0.,-1.2E-16,-1.));
#1234 = DIRECTION('',(1.,0.,0.));
#1235 = FACE_BOUND('',#1236,.T.);
#1236 = EDGE_LOOP('',(#1237));
#1237 = ORIENTED_EDGE('',*,*,#1238,.T.);
#1238 = EDGE_CURVE('',#1239,#1239,#1241,.T.);
#1239 = VERTEX_POINT('',#1240);
#1240 = CARTESIAN_POINT('',(32.65,40.,59.));
#1241 = CIRCLE('',#1242,2.65);
#1242 = AXIS2_PLACEMENT_3D('',#1243,#1244,#1245);
#1243 = CARTESIAN_POINT('',(30.,40.,59.));
#1244 = DIRECTION('',(0.,-1.2E-16,-1.));
#1245 = DIRECTION('',(1.,0.,0.));
#1246 = PLANE('',#1247);
#1247 = AXIS2_PLACEMENT_3D('',#1248,#1249,#1250);
#1248 = CARTESIAN_POINT('',(30.,34.5,59.));
#1249 = DIRECTION('',(0.,0.,1.));
#1250 = DIRECTION('',(1.,0.,0.));
#1251 = ADVANCED_FACE('',(#1252,#1280),#1291,.T.);
#1252 = FACE_BOUND('',#1253,.T.);
#1253 = EDGE_LOOP('',(#1254,#1255,#1263,#1272,#1278,#1279));
#1254 = ORIENTED_EDGE('',*,*,#554,.T.);
#1255 = ORIENTED_EDGE('',*,*,#1256,.T.);
#1256 = EDGE_CURVE('',#547,#1257,#1259,.T.);
#1257 = VERTEX_POINT('',#1258);
#1258 = CARTESIAN_POINT('',(2.E-15,-10.,82.));
#1259 = LINE('',#1260,#1261);
#1260 = CARTESIAN_POINT('',(-20.,-10.,82.));
#1261 = VECTOR('',#1262,1.);
#1262 = DIRECTION('',(1.,0.,0.));
#1263 = ORIENTED_EDGE('',*,*,#1264,.F.);
#1264 = EDGE_CURVE('',#1265,#1257,#1267,.T.);
#1265 = VERTEX_POINT('',#1266);
#1266 = CARTESIAN_POINT('',(5.,-5.,82.));
#1267 = CIRCLE('',#1268,5.);
#1268 = AXIS2_PLACEMENT_3D('',#1269,#1270,#1271);
#1269 = CARTESIAN_POINT('',(1.78E-15,-5.,82.));
#1270 = DIRECTION('',(-0.,-0.,-1.));
#1271 = DIRECTION('',(0.,-1.,0.));
#1272 = ORIENTED_EDGE('',*,*,#1273,.T.);
#1273 = EDGE_CURVE('',#1265,#652,#1274,.T.);
#1274 = LINE('',#1275,#1276);
#1275 = CARTESIAN_POINT('',(5.,-10.,82.));
#1276 = VECTOR('',#1277,1.);
#1277 = DIRECTION('',(0.,1.,0.));
#1278 = ORIENTED_EDGE('',*,*,#651,.T.);
#1279 = ORIENTED_EDGE('',*,*,#600,.F.);
#1280 = FACE_BOUND('',#1281,.T.);
#1281 = EDGE_LOOP('',(#1282));
#1282 = ORIENTED_EDGE('',*,*,#1283,.F.);
#1283 = EDGE_CURVE('',#1284,#1284,#1286,.T.);
#1284 = VERTEX_POINT('',#1285);
#1285 = CARTESIAN_POINT('',(-0.25,0.,82.));
#1286 = CIRCLE('',#1287,4.5);
#1287 = AXIS2_PLACEMENT_3D('',#1288,#1289,#1290);
#1288 = CARTESIAN_POINT('',(-4.75,0.,82.));
#1289 = DIRECTION('',(0.,0.,1.));
#1290 = DIRECTION('',(1.,0.,0.));
#1291 = PLANE('',#1292);
#1292 = AXIS2_PLACEMENT_3D('',#1293,#1294,#1295);
#1293 = CARTESIAN_POINT('',(-7.5,2.5,82.));
#1294 = DIRECTION('',(0.,0.,1.));
#1295 = DIRECTION('',(1.,0.,0.));
#1296 = ADVANCED_FACE('',(#1297),#1315,.F.);
#1297 = FACE_BOUND('',#1298,.F.);
#1298 = EDGE_LOOP('',(#1299,#1307,#1313,#1314));
#1299 = ORIENTED_EDGE('',*,*,#1300,.F.);
#1300 = EDGE_CURVE('',#1301,#1257,#1303,.T.);
#1301 = VERTEX_POINT('',#1302);
#1302 = CARTESIAN_POINT('',(2.E-15,-10.,76.1));
#1303 = LINE('',#1304,#1305);
#1304 = CARTESIAN_POINT('',(2.08E-15,-10.,31.));
#1305 = VECTOR('',#1306,1.);
#1306 = DIRECTION('',(0.,0.,1.));
#1307 = ORIENTED_EDGE('',*,*,#1308,.F.);
#1308 = EDGE_CURVE('',#539,#1301,#1309,.T.);
#1309 = LINE('',#1310,#1311);
#1310 = CARTESIAN_POINT('',(-20.,-10.,76.1));
#1311 = VECTOR('',#1312,1.);
#1312 = DIRECTION('',(1.,0.,0.));
#1313 = ORIENTED_EDGE('',*,*,#546,.T.);
#1314 = ORIENTED_EDGE('',*,*,#1256,.T.);
#1315 = PLANE('',#1316);
#1316 = AXIS2_PLACEMENT_3D('',#1317,#1318,#1319);
#1317 = CARTESIAN_POINT('',(-20.,-10.,31.));
#1318 = DIRECTION('',(0.,1.,0.));
#1319 = DIRECTION('',(1.,0.,0.));
#1320 = ADVANCED_FACE('',(#1321),#1339,.T.);
#1321 = FACE_BOUND('',#1322,.T.);
#1322 = EDGE_LOOP('',(#1323,#1324,#1325,#1333));
#1323 = ORIENTED_EDGE('',*,*,#530,.T.);
#1324 = ORIENTED_EDGE('',*,*,#1152,.T.);
#1325 = ORIENTED_EDGE('',*,*,#1326,.T.);
#1326 = EDGE_CURVE('',#1145,#1327,#1329,.T.);
#1327 = VERTEX_POINT('',#1328);
#1328 = CARTESIAN_POINT('',(-15.,1.,76.1));
#1329 = LINE('',#1330,#1331);
#1330 = CARTESIAN_POINT('',(-15.,1.,75.5));
#1331 = VECTOR('',#1332,1.);
#1332 = DIRECTION('',(0.,0.,1.));
#1333 = ORIENTED_EDGE('',*,*,#1334,.F.);
#1334 = EDGE_CURVE('',#531,#1327,#1335,.T.);
#1335 = LINE('',#1336,#1337);
#1336 = CARTESIAN_POINT('',(-20.,1.,76.1));
#1337 = VECTOR('',#1338,1.);
#1338 = DIRECTION('',(1.,0.,0.));
#1339 = PLANE('',#1340);
#1340 = AXIS2_PLACEMENT_3D('',#1341,#1342,#1343);
#1341 = CARTESIAN_POINT('',(-17.5,1.,68.4));
#1342 = DIRECTION('',(-0.,-1.,-0.));
#1343 = DIRECTION('',(0.,0.,-1.));
#1344 = ADVANCED_FACE('',(#1345,#1372),#1383,.T.);
#1345 = FACE_BOUND('',#1346,.T.);
#1346 = EDGE_LOOP('',(#1347,#1353,#1354,#1362,#1369,#1370,#1371));
#1347 = ORIENTED_EDGE('',*,*,#1348,.F.);
#1348 = EDGE_CURVE('',#668,#1327,#1349,.T.);
#1349 = LINE('',#1350,#1351);
#1350 = CARTESIAN_POINT('',(-15.,15.,76.1));
#1351 = VECTOR('',#1352,1.);
#1352 = DIRECTION('',(0.,-1.,2.2E-16));
#1353 = ORIENTED_EDGE('',*,*,#667,.T.);
#1354 = ORIENTED_EDGE('',*,*,#1355,.T.);
#1355 = EDGE_CURVE('',#660,#1356,#1358,.T.);
#1356 = VERTEX_POINT('',#1357);
#1357 = CARTESIAN_POINT('',(5.,-5.,76.1));
#1358 = LINE('',#1359,#1360);
#1359 = CARTESIAN_POINT('',(5.,15.,76.1));
#1360 = VECTOR('',#1361,1.);
#1361 = DIRECTION('',(0.,-1.,2.2E-16));
#1362 = ORIENTED_EDGE('',*,*,#1363,.F.);
#1363 = EDGE_CURVE('',#1301,#1356,#1364,.T.);
#1364 = CIRCLE('',#1365,5.);
#1365 = AXIS2_PLACEMENT_3D('',#1366,#1367,#1368);
#1366 = CARTESIAN_POINT('',(1.78E-15,-5.,76.1));
#1367 = DIRECTION('',(0.,0.,1.));
#1368 = DIRECTION('',(1.,0.,0.));
#1369 = ORIENTED_EDGE('',*,*,#1308,.F.);
#1370 = ORIENTED_EDGE('',*,*,#538,.T.);
#1371 = ORIENTED_EDGE('',*,*,#1334,.T.);
#1372 = FACE_BOUND('',#1373,.T.);
#1373 = EDGE_LOOP('',(#1374));
#1374 = ORIENTED_EDGE('',*,*,#1375,.T.);
#1375 = EDGE_CURVE('',#1376,#1376,#1378,.T.);
#1376 = VERTEX_POINT('',#1377);
#1377 = CARTESIAN_POINT('',(-2.1,0.,76.1));
#1378 = CIRCLE('',#1379,2.65);
#1379 = AXIS2_PLACEMENT_3D('',#1380,#1381,#1382);
#1380 = CARTESIAN_POINT('',(-4.75,0.,76.1));
#1381 = DIRECTION('',(0.,0.,1.));
#1382 = DIRECTION('',(1.,0.,0.));
#1383 = PLANE('',#1384);
#1384 = AXIS2_PLACEMENT_3D('',#1385,#1386,#1387);
#1385 = CARTESIAN_POINT('',(-7.092056403937,2.092056403937,76.1));
#1386 = DIRECTION('',(-0.,-0.,-1.));
#1387 = DIRECTION('',(-1.,0.,0.));
#1388 = ADVANCED_FACE('',(#1389),#1400,.F.);
#1389 = FACE_BOUND('',#1390,.F.);
#1390 = EDGE_LOOP('',(#1391,#1392,#1393,#1399));
#1391 = ORIENTED_EDGE('',*,*,#659,.F.);
#1392 = ORIENTED_EDGE('',*,*,#1355,.T.);
#1393 = ORIENTED_EDGE('',*,*,#1394,.T.);
#1394 = EDGE_CURVE('',#1356,#1265,#1395,.T.);
#1395 = LINE('',#1396,#1397);
#1396 = CARTESIAN_POINT('',(5.,-5.,31.));
#1397 = VECTOR('',#1398,1.);
#1398 = DIRECTION('',(0.,0.,1.));
#1399 = ORIENTED_EDGE('',*,*,#1273,.T.);
#1400 = PLANE('',#1401);
#1401 = AXIS2_PLACEMENT_3D('',#1402,#1403,#1404);
#1402 = CARTESIAN_POINT('',(5.,-10.,31.));
#1403 = DIRECTION('',(-1.,0.,0.));
#1404 = DIRECTION('',(0.,1.,0.));
#1405 = ADVANCED_FACE('',(#1406),#1412,.T.);
#1406 = FACE_BOUND('',#1407,.T.);
#1407 = EDGE_LOOP('',(#1408,#1409,#1410,#1411));
#1408 = ORIENTED_EDGE('',*,*,#1144,.F.);
#1409 = ORIENTED_EDGE('',*,*,#675,.T.);
#1410 = ORIENTED_EDGE('',*,*,#1348,.T.);
#1411 = ORIENTED_EDGE('',*,*,#1326,.F.);
#1412 = PLANE('',#1413);
#1413 = AXIS2_PLACEMENT_3D('',#1414,#1415,#1416);
#1414 = CARTESIAN_POINT('',(-15.,8.,68.4));
#1415 = DIRECTION('',(1.,0.,0.));
#1416 = DIRECTION('',(0.,0.,1.));
#1417 = ADVANCED_FACE('',(#1418),#1452,.T.);
#1418 = FACE_BOUND('',#1419,.F.);
#1419 = EDGE_LOOP('',(#1420,#1430,#1436,#1437,#1438,#1446));
#1420 = ORIENTED_EDGE('',*,*,#1421,.F.);
#1421 = EDGE_CURVE('',#1422,#1424,#1426,.T.);
#1422 = VERTEX_POINT('',#1423);
#1423 = CARTESIAN_POINT('',(37.,7.5,23.));
#1424 = VERTEX_POINT('',#1425);
#1425 = CARTESIAN_POINT('',(38.,8.5,23.));
#1426 = LINE('',#1427,#1428);
#1427 = CARTESIAN_POINT('',(29.125,-0.375,23.));
#1428 = VECTOR('',#1429,1.);
#1429 = DIRECTION('',(0.707106781187,0.707106781187,0.));
#1430 = ORIENTED_EDGE('',*,*,#1431,.F.);
#1431 = EDGE_CURVE('',#746,#1422,#1432,.T.);
#1432 = LINE('',#1433,#1434);
#1433 = CARTESIAN_POINT('',(29.,-0.5,31.));
#1434 = VECTOR('',#1435,1.);
#1435 = DIRECTION('',(0.57735026919,0.57735026919,-0.57735026919));
#1436 = ORIENTED_EDGE('',*,*,#745,.T.);
#1437 = ORIENTED_EDGE('',*,*,#1199,.T.);
#1438 = ORIENTED_EDGE('',*,*,#1439,.F.);
#1439 = EDGE_CURVE('',#1440,#1200,#1442,.T.);
#1440 = VERTEX_POINT('',#1441);
#1441 = CARTESIAN_POINT('',(40.,10.5,25.));
#1442 = LINE('',#1443,#1444);
#1443 = CARTESIAN_POINT('',(40.,10.5,23.));
#1444 = VECTOR('',#1445,1.);
#1445 = DIRECTION('',(0.,0.,1.));
#1446 = ORIENTED_EDGE('',*,*,#1447,.F.);
#1447 = EDGE_CURVE('',#1424,#1440,#1448,.T.);
#1448 = LINE('',#1449,#1450);
#1449 = CARTESIAN_POINT('',(38.5,9.,23.5));
#1450 = VECTOR('',#1451,1.);
#1451 = DIRECTION('',(0.57735026919,0.57735026919,0.57735026919));
#1452 = PLANE('',#1453);
#1453 = AXIS2_PLACEMENT_3D('',#1454,#1455,#1456);
#1454 = CARTESIAN_POINT('',(37.5,8.,23.));
#1455 = DIRECTION('',(0.707106781187,-0.707106781187,0.));
#1456 = DIRECTION('',(-0.,-0.,-1.));
#1457 = ADVANCED_FACE('',(#1458),#1469,.T.);
#1458 = FACE_BOUND('',#1459,.F.);
#1459 = EDGE_LOOP('',(#1460,#1461,#1462,#1463));
#1460 = ORIENTED_EDGE('',*,*,#1057,.F.);
#1461 = ORIENTED_EDGE('',*,*,#771,.T.);
#1462 = ORIENTED_EDGE('',*,*,#1431,.T.);
#1463 = ORIENTED_EDGE('',*,*,#1464,.F.);
#1464 = EDGE_CURVE('',#1058,#1422,#1465,.T.);
#1465 = LINE('',#1466,#1467);
#1466 = CARTESIAN_POINT('',(-10.,7.5,23.));
#1467 = VECTOR('',#1468,1.);
#1468 = DIRECTION('',(1.,0.,0.));
#1469 = PLANE('',#1470);
#1470 = AXIS2_PLACEMENT_3D('',#1471,#1472,#1473);
#1471 = CARTESIAN_POINT('',(-10.,6.5,24.));
#1472 = DIRECTION('',(0.,-0.707106781187,-0.707106781187));
#1473 = DIRECTION('',(-1.,-0.,-0.));
#1474 = ADVANCED_FACE('',(#1475,#1536,#1547,#1558,#1561,#1572,#1575,
    #1578,#1589),#1592,.T.);
#1475 = FACE_BOUND('',#1476,.T.);
#1476 = EDGE_LOOP('',(#1477,#1487,#1493,#1494,#1495,#1496,#1497,#1505,
    #1513,#1521,#1530));
#1477 = ORIENTED_EDGE('',*,*,#1478,.T.);
#1478 = EDGE_CURVE('',#1479,#1481,#1483,.T.);
#1479 = VERTEX_POINT('',#1480);
#1480 = CARTESIAN_POINT('',(37.,51.,23.));
#1481 = VERTEX_POINT('',#1482);
#1482 = CARTESIAN_POINT('',(38.,50.,23.));
#1483 = LINE('',#1484,#1485);
#1484 = CARTESIAN_POINT('',(34.998641304348,53.001358695652,23.));
#1485 = VECTOR('',#1486,1.);
#1486 = DIRECTION('',(0.707106781187,-0.707106781187,0.));
#1487 = ORIENTED_EDGE('',*,*,#1488,.F.);
#1488 = EDGE_CURVE('',#1424,#1481,#1489,.T.);
#1489 = LINE('',#1490,#1491);
#1490 = CARTESIAN_POINT('',(38.,10.5,23.));
#1491 = VECTOR('',#1492,1.);
#1492 = DIRECTION('',(0.,1.,0.));
#1493 = ORIENTED_EDGE('',*,*,#1421,.F.);
#1494 = ORIENTED_EDGE('',*,*,#1464,.F.);
#1495 = ORIENTED_EDGE('',*,*,#1065,.F.);
#1496 = ORIENTED_EDGE('',*,*,#1023,.T.);
#1497 = ORIENTED_EDGE('',*,*,#1498,.F.);
#1498 = EDGE_CURVE('',#1499,#1026,#1501,.T.);
#1499 = VERTEX_POINT('',#1500);
#1500 = CARTESIAN_POINT('',(-28.,-40.,23.));
#1501 = LINE('',#1502,#1503);
#1502 = CARTESIAN_POINT('',(-40.,-40.,23.));
#1503 = VECTOR('',#1504,1.);
#1504 = DIRECTION('',(1.,0.,0.));
#1505 = ORIENTED_EDGE('',*,*,#1506,.F.);
#1506 = EDGE_CURVE('',#1507,#1499,#1509,.T.);
#1507 = VERTEX_POINT('',#1508);
#1508 = CARTESIAN_POINT('',(-31.,-37.,23.));
#1509 = LINE('',#1510,#1511);
#1510 = CARTESIAN_POINT('',(-38.00135869565,-29.99864130434,23.));
#1511 = VECTOR('',#1512,1.);
#1512 = DIRECTION('',(0.707106781187,-0.707106781187,0.));
#1513 = ORIENTED_EDGE('',*,*,#1514,.T.);
#1514 = EDGE_CURVE('',#1507,#1515,#1517,.T.);
#1515 = VERTEX_POINT('',#1516);
#1516 = CARTESIAN_POINT('',(-31.,43.,23.));
#1517 = LINE('',#1518,#1519);
#1518 = CARTESIAN_POINT('',(-31.,-35.,23.));
#1519 = VECTOR('',#1520,1.);
#1520 = DIRECTION('',(0.,1.,0.));
#1521 = ORIENTED_EDGE('',*,*,#1522,.T.);
#1522 = EDGE_CURVE('',#1515,#1523,#1525,.T.);
#1523 = VERTEX_POINT('',#1524);
#1524 = CARTESIAN_POINT('',(-23.,51.,23.));
#1525 = CIRCLE('',#1526,8.);
#1526 = AXIS2_PLACEMENT_3D('',#1527,#1528,#1529);
#1527 = CARTESIAN_POINT('',(-23.,43.,23.));
#1528 = DIRECTION('',(0.,0.,-1.));
#1529 = DIRECTION('',(-1.,0.,0.));
#1530 = ORIENTED_EDGE('',*,*,#1531,.T.);
#1531 = EDGE_CURVE('',#1523,#1479,#1532,.T.);
#1532 = LINE('',#1533,#1534);
#1533 = CARTESIAN_POINT('',(-23.,51.,23.));
#1534 = VECTOR('',#1535,1.);
#1535 = DIRECTION('',(1.,0.,0.));
#1536 = FACE_BOUND('',#1537,.T.);
#1537 = EDGE_LOOP('',(#1538));
#1538 = ORIENTED_EDGE('',*,*,#1539,.F.);
#1539 = EDGE_CURVE('',#1540,#1540,#1542,.T.);
#1540 = VERTEX_POINT('',#1541);
#1541 = CARTESIAN_POINT('',(-15.5,-30.,23.));
#1542 = CIRCLE('',#1543,4.5);
#1543 = AXIS2_PLACEMENT_3D('',#1544,#1545,#1546);
#1544 = CARTESIAN_POINT('',(-20.,-30.,23.));
#1545 = DIRECTION('',(0.,0.,-1.));
#1546 = DIRECTION('',(1.,0.,0.));
#1547 = FACE_BOUND('',#1548,.T.);
#1548 = EDGE_LOOP('',(#1549));
#1549 = ORIENTED_EDGE('',*,*,#1550,.F.);
#1550 = EDGE_CURVE('',#1551,#1551,#1553,.T.);
#1551 = VERTEX_POINT('',#1552);
#1552 = CARTESIAN_POINT('',(34.5,15.,23.));
#1553 = CIRCLE('',#1554,4.5);
#1554 = AXIS2_PLACEMENT_3D('',#1555,#1556,#1557);
#1555 = CARTESIAN_POINT('',(30.,15.,23.));
#1556 = DIRECTION('',(0.,0.,-1.));
#1557 = DIRECTION('',(1.,0.,0.));
#1558 = FACE_BOUND('',#1559,.T.);
#1559 = EDGE_LOOP('',(#1560));
#1560 = ORIENTED_EDGE('',*,*,#821,.T.);
#1561 = FACE_BOUND('',#1562,.T.);
#1562 = EDGE_LOOP('',(#1563));
#1563 = ORIENTED_EDGE('',*,*,#1564,.F.);
#1564 = EDGE_CURVE('',#1565,#1565,#1567,.T.);
#1565 = VERTEX_POINT('',#1566);
#1566 = CARTESIAN_POINT('',(34.5,40.,23.));
#1567 = CIRCLE('',#1568,4.5);
#1568 = AXIS2_PLACEMENT_3D('',#1569,#1570,#1571);
#1569 = CARTESIAN_POINT('',(30.,40.,23.));
#1570 = DIRECTION('',(0.,0.,-1.));
#1571 = DIRECTION('',(1.,0.,0.));
#1572 = FACE_BOUND('',#1573,.T.);
#1573 = EDGE_LOOP('',(#1574));
#1574 = ORIENTED_EDGE('',*,*,#896,.T.);
#1575 = FACE_BOUND('',#1576,.T.);
#1576 = EDGE_LOOP('',(#1577));
#1577 = ORIENTED_EDGE('',*,*,#794,.T.);
#1578 = FACE_BOUND('',#1579,.T.);
#1579 = EDGE_LOOP('',(#1580));
#1580 = ORIENTED_EDGE('',*,*,#1581,.T.);
#1581 = EDGE_CURVE('',#1582,#1582,#1584,.T.);
#1582 = VERTEX_POINT('',#1583);
#1583 = CARTESIAN_POINT('',(10.5,32.,23.));
#1584 = CIRCLE('',#1585,11.5);
#1585 = AXIS2_PLACEMENT_3D('',#1586,#1587,#1588);
#1586 = CARTESIAN_POINT('',(-1.,32.,23.));
#1587 = DIRECTION('',(0.,0.,1.));
#1588 = DIRECTION('',(1.,0.,0.));
#1589 = FACE_BOUND('',#1590,.T.);
#1590 = EDGE_LOOP('',(#1591));
#1591 = ORIENTED_EDGE('',*,*,#846,.T.);
#1592 = PLANE('',#1593);
#1593 = AXIS2_PLACEMENT_3D('',#1594,#1595,#1596);
#1594 = CARTESIAN_POINT('',(-5.502717391304,17.502717391304,23.));
#1595 = DIRECTION('',(-0.,-0.,-1.));
#1596 = DIRECTION('',(-1.,0.,0.));
#1597 = ADVANCED_FACE('',(#1598),#1609,.F.);
#1598 = FACE_BOUND('',#1599,.F.);
#1599 = EDGE_LOOP('',(#1600,#1606,#1607,#1608));
#1600 = ORIENTED_EDGE('',*,*,#1601,.F.);
#1601 = EDGE_CURVE('',#863,#1582,#1602,.T.);
#1602 = LINE('',#1603,#1604);
#1603 = CARTESIAN_POINT('',(10.5,32.,31.));
#1604 = VECTOR('',#1605,1.);
#1605 = DIRECTION('',(-0.,-0.,-1.));
#1606 = ORIENTED_EDGE('',*,*,#872,.F.);
#1607 = ORIENTED_EDGE('',*,*,#1601,.T.);
#1608 = ORIENTED_EDGE('',*,*,#1581,.T.);
#1609 = CYLINDRICAL_SURFACE('',#1610,11.5);
#1610 = AXIS2_PLACEMENT_3D('',#1611,#1612,#1613);
#1611 = CARTESIAN_POINT('',(-1.,32.,31.));
#1612 = DIRECTION('',(0.,0.,1.));
#1613 = DIRECTION('',(1.,0.,0.));
#1614 = ADVANCED_FACE('',(#1615),#1632,.F.);
#1615 = FACE_BOUND('',#1616,.F.);
#1616 = EDGE_LOOP('',(#1617,#1618,#1624,#1625,#1626));
#1617 = ORIENTED_EDGE('',*,*,#1506,.F.);
#1618 = ORIENTED_EDGE('',*,*,#1619,.F.);
#1619 = EDGE_CURVE('',#913,#1507,#1620,.T.);
#1620 = LINE('',#1621,#1622);
#1621 = CARTESIAN_POINT('',(-31.5,-36.5,23.5));
#1622 = VECTOR('',#1623,1.);
#1623 = DIRECTION('',(0.57735026919,-0.57735026919,-0.57735026919));
#1624 = ORIENTED_EDGE('',*,*,#912,.T.);
#1625 = ORIENTED_EDGE('',*,*,#957,.T.);
#1626 = ORIENTED_EDGE('',*,*,#1627,.F.);
#1627 = EDGE_CURVE('',#1499,#958,#1628,.T.);
#1628 = LINE('',#1629,#1630);
#1629 = CARTESIAN_POINT('',(-28.,-40.,23.));
#1630 = VECTOR('',#1631,1.);
#1631 = DIRECTION('',(0.,0.,1.));
#1632 = PLANE('',#1633);
#1633 = AXIS2_PLACEMENT_3D('',#1634,#1635,#1636);
#1634 = CARTESIAN_POINT('',(-30.5,-37.5,23.));
#1635 = DIRECTION('',(0.707106781187,0.707106781187,0.));
#1636 = DIRECTION('',(0.,0.,1.));
#1637 = ADVANCED_FACE('',(#1638),#1649,.T.);
#1638 = FACE_BOUND('',#1639,.T.);
#1639 = EDGE_LOOP('',(#1640,#1641,#1642,#1648));
#1640 = ORIENTED_EDGE('',*,*,#1619,.F.);
#1641 = ORIENTED_EDGE('',*,*,#938,.T.);
#1642 = ORIENTED_EDGE('',*,*,#1643,.T.);
#1643 = EDGE_CURVE('',#931,#1515,#1644,.T.);
#1644 = LINE('',#1645,#1646);
#1645 = CARTESIAN_POINT('',(-32.,43.,24.));
#1646 = VECTOR('',#1647,1.);
#1647 = DIRECTION('',(0.707106781187,0.,-0.707106781187));
#1648 = ORIENTED_EDGE('',*,*,#1514,.F.);
#1649 = PLANE('',#1650);
#1650 = AXIS2_PLACEMENT_3D('',#1651,#1652,#1653);
#1651 = CARTESIAN_POINT('',(-32.,-35.,24.));
#1652 = DIRECTION('',(-0.707106781187,0.,-0.707106781187));
#1653 = DIRECTION('',(0.,1.,0.));
#1654 = ADVANCED_FACE('',(#1655),#1661,.F.);
#1655 = FACE_BOUND('',#1656,.F.);
#1656 = EDGE_LOOP('',(#1657,#1658,#1659,#1660));
#1657 = ORIENTED_EDGE('',*,*,#1498,.F.);
#1658 = ORIENTED_EDGE('',*,*,#1627,.T.);
#1659 = ORIENTED_EDGE('',*,*,#965,.T.);
#1660 = ORIENTED_EDGE('',*,*,#1041,.F.);
#1661 = PLANE('',#1662);
#1662 = AXIS2_PLACEMENT_3D('',#1663,#1664,#1665);
#1663 = CARTESIAN_POINT('',(-40.,-40.,0.));
#1664 = DIRECTION('',(0.,1.,0.));
#1665 = DIRECTION('',(1.,0.,0.));
#1666 = ADVANCED_FACE('',(#1667),#1686,.F.);
#1667 = FACE_BOUND('',#1668,.F.);
#1668 = EDGE_LOOP('',(#1669,#1678,#1684,#1685));
#1669 = ORIENTED_EDGE('',*,*,#1670,.F.);
#1670 = EDGE_CURVE('',#1671,#1671,#1673,.T.);
#1671 = VERTEX_POINT('',#1672);
#1672 = CARTESIAN_POINT('',(-17.35,-30.,42.));
#1673 = CIRCLE('',#1674,2.65);
#1674 = AXIS2_PLACEMENT_3D('',#1675,#1676,#1677);
#1675 = CARTESIAN_POINT('',(-20.,-30.,42.));
#1676 = DIRECTION('',(0.,-1.2E-16,-1.));
#1677 = DIRECTION('',(1.,0.,0.));
#1678 = ORIENTED_EDGE('',*,*,#1679,.T.);
#1679 = EDGE_CURVE('',#1671,#982,#1680,.T.);
#1680 = LINE('',#1681,#1682);
#1681 = CARTESIAN_POINT('',(-17.35,-30.,23.));
#1682 = VECTOR('',#1683,1.);
#1683 = DIRECTION('',(0.,1.2E-16,1.));
#1684 = ORIENTED_EDGE('',*,*,#981,.T.);
#1685 = ORIENTED_EDGE('',*,*,#1679,.F.);
#1686 = CYLINDRICAL_SURFACE('',#1687,2.65);
#1687 = AXIS2_PLACEMENT_3D('',#1688,#1689,#1690);
#1688 = CARTESIAN_POINT('',(-20.,-30.,23.));
#1689 = DIRECTION('',(0.,-1.2E-16,-1.));
#1690 = DIRECTION('',(1.,0.,0.));
#1691 = ADVANCED_FACE('',(#1692),#1703,.T.);
#1692 = FACE_BOUND('',#1693,.T.);
#1693 = EDGE_LOOP('',(#1694,#1695,#1696,#1702));
#1694 = ORIENTED_EDGE('',*,*,#1643,.F.);
#1695 = ORIENTED_EDGE('',*,*,#999,.T.);
#1696 = ORIENTED_EDGE('',*,*,#1697,.T.);
#1697 = EDGE_CURVE('',#1000,#1523,#1698,.T.);
#1698 = LINE('',#1699,#1700);
#1699 = CARTESIAN_POINT('',(-23.,53.,25.));
#1700 = VECTOR('',#1701,1.);
#1701 = DIRECTION('',(4.329780281177E-17,-0.707106781187,-0.707106781187
    ));
#1702 = ORIENTED_EDGE('',*,*,#1522,.F.);
#1703 = CONICAL_SURFACE('',#1704,10.,0.785398163397);
#1704 = AXIS2_PLACEMENT_3D('',#1705,#1706,#1707);
#1705 = CARTESIAN_POINT('',(-23.,43.,25.));
#1706 = DIRECTION('',(0.,0.,1.));
#1707 = DIRECTION('',(-1.,0.,0.));
#1708 = ADVANCED_FACE('',(#1709),#1728,.F.);
#1709 = FACE_BOUND('',#1710,.F.);
#1710 = EDGE_LOOP('',(#1711,#1719,#1726,#1727));
#1711 = ORIENTED_EDGE('',*,*,#1712,.T.);
#1712 = EDGE_CURVE('',#1093,#1713,#1715,.T.);
#1713 = VERTEX_POINT('',#1714);
#1714 = CARTESIAN_POINT('',(-0.25,0.,56.));
#1715 = LINE('',#1716,#1717);
#1716 = CARTESIAN_POINT('',(-0.25,0.,31.));
#1717 = VECTOR('',#1718,1.);
#1718 = DIRECTION('',(0.,0.,1.));
#1719 = ORIENTED_EDGE('',*,*,#1720,.T.);
#1720 = EDGE_CURVE('',#1713,#1713,#1721,.T.);
#1721 = CIRCLE('',#1722,4.5);
#1722 = AXIS2_PLACEMENT_3D('',#1723,#1724,#1725);
#1723 = CARTESIAN_POINT('',(-4.75,0.,56.));
#1724 = DIRECTION('',(0.,0.,-1.));
#1725 = DIRECTION('',(1.,0.,0.));
#1726 = ORIENTED_EDGE('',*,*,#1712,.F.);
#1727 = ORIENTED_EDGE('',*,*,#1092,.F.);
#1728 = CYLINDRICAL_SURFACE('',#1729,4.5);
#1729 = AXIS2_PLACEMENT_3D('',#1730,#1731,#1732);
#1730 = CARTESIAN_POINT('',(-4.75,0.,31.));
#1731 = DIRECTION('',(0.,0.,-1.));
#1732 = DIRECTION('',(1.,0.,0.));
#1733 = ADVANCED_FACE('',(#1734),#1759,.F.);
#1734 = FACE_BOUND('',#1735,.T.);
#1735 = EDGE_LOOP('',(#1736,#1737,#1743,#1744,#1745,#1753));
#1736 = ORIENTED_EDGE('',*,*,#1478,.F.);
#1737 = ORIENTED_EDGE('',*,*,#1738,.F.);
#1738 = EDGE_CURVE('',#1110,#1479,#1739,.T.);
#1739 = LINE('',#1740,#1741);
#1740 = CARTESIAN_POINT('',(26.833333333333,61.166666666667,
    33.166666666667));
#1741 = VECTOR('',#1742,1.);
#1742 = DIRECTION('',(0.57735026919,-0.57735026919,-0.57735026919));
#1743 = ORIENTED_EDGE('',*,*,#1109,.T.);
#1744 = ORIENTED_EDGE('',*,*,#1215,.T.);
#1745 = ORIENTED_EDGE('',*,*,#1746,.F.);
#1746 = EDGE_CURVE('',#1747,#1208,#1749,.T.);
#1747 = VERTEX_POINT('',#1748);
#1748 = CARTESIAN_POINT('',(40.,48.,25.));
#1749 = LINE('',#1750,#1751);
#1750 = CARTESIAN_POINT('',(40.,48.,23.));
#1751 = VECTOR('',#1752,1.);
#1752 = DIRECTION('',(0.,0.,1.));
#1753 = ORIENTED_EDGE('',*,*,#1754,.F.);
#1754 = EDGE_CURVE('',#1481,#1747,#1755,.T.);
#1755 = LINE('',#1756,#1757);
#1756 = CARTESIAN_POINT('',(44.75,43.25,29.75));
#1757 = VECTOR('',#1758,1.);
#1758 = DIRECTION('',(0.57735026919,-0.57735026919,0.57735026919));
#1759 = PLANE('',#1760);
#1760 = AXIS2_PLACEMENT_3D('',#1761,#1762,#1763);
#1761 = CARTESIAN_POINT('',(37.5,50.5,23.));
#1762 = DIRECTION('',(-0.707106781187,-0.707106781187,0.));
#1763 = DIRECTION('',(-0.,-0.,-1.));
#1764 = ADVANCED_FACE('',(#1765),#1771,.F.);
#1765 = FACE_BOUND('',#1766,.T.);
#1766 = EDGE_LOOP('',(#1767,#1768,#1769,#1770));
#1767 = ORIENTED_EDGE('',*,*,#1697,.F.);
#1768 = ORIENTED_EDGE('',*,*,#1128,.T.);
#1769 = ORIENTED_EDGE('',*,*,#1738,.T.);
#1770 = ORIENTED_EDGE('',*,*,#1531,.F.);
#1771 = PLANE('',#1772);
#1772 = AXIS2_PLACEMENT_3D('',#1773,#1774,#1775);
#1773 = CARTESIAN_POINT('',(-23.,52.,24.));
#1774 = DIRECTION('',(0.,-0.707106781187,0.707106781187));
#1775 = DIRECTION('',(-1.,-0.,-0.));
#1776 = ADVANCED_FACE('',(#1777),#1796,.F.);
#1777 = FACE_BOUND('',#1778,.F.);
#1778 = EDGE_LOOP('',(#1779,#1787,#1788,#1789));
#1779 = ORIENTED_EDGE('',*,*,#1780,.F.);
#1780 = EDGE_CURVE('',#1170,#1781,#1783,.T.);
#1781 = VERTEX_POINT('',#1782);
#1782 = CARTESIAN_POINT('',(-2.1,0.,56.));
#1783 = LINE('',#1784,#1785);
#1784 = CARTESIAN_POINT('',(-2.1,0.,82.));
#1785 = VECTOR('',#1786,1.);
#1786 = DIRECTION('',(-0.,-0.,-1.));
#1787 = ORIENTED_EDGE('',*,*,#1169,.F.);
#1788 = ORIENTED_EDGE('',*,*,#1780,.T.);
#1789 = ORIENTED_EDGE('',*,*,#1790,.T.);
#1790 = EDGE_CURVE('',#1781,#1781,#1791,.T.);
#1791 = CIRCLE('',#1792,2.65);
#1792 = AXIS2_PLACEMENT_3D('',#1793,#1794,#1795);
#1793 = CARTESIAN_POINT('',(-4.75,0.,56.));
#1794 = DIRECTION('',(0.,0.,1.));
#1795 = DIRECTION('',(1.,0.,0.));
#1796 = CYLINDRICAL_SURFACE('',#1797,2.65);
#1797 = AXIS2_PLACEMENT_3D('',#1798,#1799,#1800);
#1798 = CARTESIAN_POINT('',(-4.75,0.,82.));
#1799 = DIRECTION('',(0.,0.,1.));
#1800 = DIRECTION('',(1.,0.,0.));
#1801 = ADVANCED_FACE('',(#1802),#1813,.T.);
#1802 = FACE_BOUND('',#1803,.T.);
#1803 = EDGE_LOOP('',(#1804,#1805,#1811,#1812));
#1804 = ORIENTED_EDGE('',*,*,#1439,.F.);
#1805 = ORIENTED_EDGE('',*,*,#1806,.T.);
#1806 = EDGE_CURVE('',#1440,#1747,#1807,.T.);
#1807 = LINE('',#1808,#1809);
#1808 = CARTESIAN_POINT('',(40.,10.5,25.));
#1809 = VECTOR('',#1810,1.);
#1810 = DIRECTION('',(0.,1.,0.));
#1811 = ORIENTED_EDGE('',*,*,#1746,.T.);
#1812 = ORIENTED_EDGE('',*,*,#1207,.F.);
#1813 = PLANE('',#1814);
#1814 = AXIS2_PLACEMENT_3D('',#1815,#1816,#1817);
#1815 = CARTESIAN_POINT('',(40.,34.5,41.));
#1816 = DIRECTION('',(1.,0.,0.));
#1817 = DIRECTION('',(0.,0.,1.));
#1818 = ADVANCED_FACE('',(#1819),#1838,.F.);
#1819 = FACE_BOUND('',#1820,.F.);
#1820 = EDGE_LOOP('',(#1821,#1830,#1836,#1837));
#1821 = ORIENTED_EDGE('',*,*,#1822,.F.);
#1822 = EDGE_CURVE('',#1823,#1823,#1825,.T.);
#1823 = VERTEX_POINT('',#1824);
#1824 = CARTESIAN_POINT('',(32.65,15.,42.));
#1825 = CIRCLE('',#1826,2.65);
#1826 = AXIS2_PLACEMENT_3D('',#1827,#1828,#1829);
#1827 = CARTESIAN_POINT('',(30.,15.,42.));
#1828 = DIRECTION('',(0.,-1.2E-16,-1.));
#1829 = DIRECTION('',(1.,0.,0.));
#1830 = ORIENTED_EDGE('',*,*,#1831,.T.);
#1831 = EDGE_CURVE('',#1823,#1228,#1832,.T.);
#1832 = LINE('',#1833,#1834);
#1833 = CARTESIAN_POINT('',(32.65,15.,23.));
#1834 = VECTOR('',#1835,1.);
#1835 = DIRECTION('',(0.,1.2E-16,1.));
#1836 = ORIENTED_EDGE('',*,*,#1227,.T.);
#1837 = ORIENTED_EDGE('',*,*,#1831,.F.);
#1838 = CYLINDRICAL_SURFACE('',#1839,2.65);
#1839 = AXIS2_PLACEMENT_3D('',#1840,#1841,#1842);
#1840 = CARTESIAN_POINT('',(30.,15.,23.));
#1841 = DIRECTION('',(0.,-1.2E-16,-1.));
#1842 = DIRECTION('',(1.,0.,0.));
#1843 = ADVANCED_FACE('',(#1844),#1863,.F.);
#1844 = FACE_BOUND('',#1845,.F.);
#1845 = EDGE_LOOP('',(#1846,#1855,#1861,#1862));
#1846 = ORIENTED_EDGE('',*,*,#1847,.F.);
#1847 = EDGE_CURVE('',#1848,#1848,#1850,.T.);
#1848 = VERTEX_POINT('',#1849);
#1849 = CARTESIAN_POINT('',(32.65,40.,42.));
#1850 = CIRCLE('',#1851,2.65);
#1851 = AXIS2_PLACEMENT_3D('',#1852,#1853,#1854);
#1852 = CARTESIAN_POINT('',(30.,40.,42.));
#1853 = DIRECTION('',(0.,-1.2E-16,-1.));
#1854 = DIRECTION('',(1.,0.,0.));
#1855 = ORIENTED_EDGE('',*,*,#1856,.T.);
#1856 = EDGE_CURVE('',#1848,#1239,#1857,.T.);
#1857 = LINE('',#1858,#1859);
#1858 = CARTESIAN_POINT('',(32.65,40.,23.));
#1859 = VECTOR('',#1860,1.);
#1860 = DIRECTION('',(0.,1.2E-16,1.));
#1861 = ORIENTED_EDGE('',*,*,#1238,.T.);
#1862 = ORIENTED_EDGE('',*,*,#1856,.F.);
#1863 = CYLINDRICAL_SURFACE('',#1864,2.65);
#1864 = AXIS2_PLACEMENT_3D('',#1865,#1866,#1867);
#1865 = CARTESIAN_POINT('',(30.,40.,23.));
#1866 = DIRECTION('',(0.,-1.2E-16,-1.));
#1867 = DIRECTION('',(1.,0.,0.));
#1868 = ADVANCED_FACE('',(#1869),#1875,.T.);
#1869 = FACE_BOUND('',#1870,.F.);
#1870 = EDGE_LOOP('',(#1871,#1872,#1873,#1874));
#1871 = ORIENTED_EDGE('',*,*,#1394,.F.);
#1872 = ORIENTED_EDGE('',*,*,#1363,.F.);
#1873 = ORIENTED_EDGE('',*,*,#1300,.T.);
#1874 = ORIENTED_EDGE('',*,*,#1264,.F.);
#1875 = CYLINDRICAL_SURFACE('',#1876,5.);
#1876 = AXIS2_PLACEMENT_3D('',#1877,#1878,#1879);
#1877 = CARTESIAN_POINT('',(1.78E-15,-5.,31.));
#1878 = DIRECTION('',(0.,0.,1.));
#1879 = DIRECTION('',(1.,0.,0.));
#1880 = ADVANCED_FACE('',(#1881),#1900,.F.);
#1881 = FACE_BOUND('',#1882,.F.);
#1882 = EDGE_LOOP('',(#1883,#1891,#1898,#1899));
#1883 = ORIENTED_EDGE('',*,*,#1884,.T.);
#1884 = EDGE_CURVE('',#1284,#1885,#1887,.T.);
#1885 = VERTEX_POINT('',#1886);
#1886 = CARTESIAN_POINT('',(-0.25,0.,79.));
#1887 = LINE('',#1888,#1889);
#1888 = CARTESIAN_POINT('',(-0.25,0.,82.));
#1889 = VECTOR('',#1890,1.);
#1890 = DIRECTION('',(-0.,-0.,-1.));
#1891 = ORIENTED_EDGE('',*,*,#1892,.T.);
#1892 = EDGE_CURVE('',#1885,#1885,#1893,.T.);
#1893 = CIRCLE('',#1894,4.5);
#1894 = AXIS2_PLACEMENT_3D('',#1895,#1896,#1897);
#1895 = CARTESIAN_POINT('',(-4.75,0.,79.));
#1896 = DIRECTION('',(0.,0.,1.));
#1897 = DIRECTION('',(1.,0.,0.));
#1898 = ORIENTED_EDGE('',*,*,#1884,.F.);
#1899 = ORIENTED_EDGE('',*,*,#1283,.F.);
#1900 = CYLINDRICAL_SURFACE('',#1901,4.5);
#1901 = AXIS2_PLACEMENT_3D('',#1902,#1903,#1904);
#1902 = CARTESIAN_POINT('',(-4.75,0.,82.));
#1903 = DIRECTION('',(0.,0.,1.));
#1904 = DIRECTION('',(1.,0.,0.));
#1905 = ADVANCED_FACE('',(#1906),#1925,.F.);
#1906 = FACE_BOUND('',#1907,.F.);
#1907 = EDGE_LOOP('',(#1908,#1917,#1923,#1924));
#1908 = ORIENTED_EDGE('',*,*,#1909,.F.);
#1909 = EDGE_CURVE('',#1910,#1910,#1912,.T.);
#1910 = VERTEX_POINT('',#1911);
#1911 = CARTESIAN_POINT('',(-2.1,0.,79.));
#1912 = CIRCLE('',#1913,2.65);
#1913 = AXIS2_PLACEMENT_3D('',#1914,#1915,#1916);
#1914 = CARTESIAN_POINT('',(-4.75,0.,79.));
#1915 = DIRECTION('',(0.,0.,1.));
#1916 = DIRECTION('',(1.,0.,0.));
#1917 = ORIENTED_EDGE('',*,*,#1918,.T.);
#1918 = EDGE_CURVE('',#1910,#1376,#1919,.T.);
#1919 = LINE('',#1920,#1921);
#1920 = CARTESIAN_POINT('',(-2.1,0.,82.));
#1921 = VECTOR('',#1922,1.);
#1922 = DIRECTION('',(-0.,-0.,-1.));
#1923 = ORIENTED_EDGE('',*,*,#1375,.T.);
#1924 = ORIENTED_EDGE('',*,*,#1918,.F.);
#1925 = CYLINDRICAL_SURFACE('',#1926,2.65);
#1926 = AXIS2_PLACEMENT_3D('',#1927,#1928,#1929);
#1927 = CARTESIAN_POINT('',(-4.75,0.,82.));
#1928 = DIRECTION('',(0.,0.,1.));
#1929 = DIRECTION('',(1.,0.,0.));
#1930 = ADVANCED_FACE('',(#1931),#1937,.T.);
#1931 = FACE_BOUND('',#1932,.T.);
#1932 = EDGE_LOOP('',(#1933,#1934,#1935,#1936));
#1933 = ORIENTED_EDGE('',*,*,#1447,.F.);
#1934 = ORIENTED_EDGE('',*,*,#1488,.T.);
#1935 = ORIENTED_EDGE('',*,*,#1754,.T.);
#1936 = ORIENTED_EDGE('',*,*,#1806,.F.);
#1937 = PLANE('',#1938);
#1938 = AXIS2_PLACEMENT_3D('',#1939,#1940,#1941);
#1939 = CARTESIAN_POINT('',(39.,10.5,24.));
#1940 = DIRECTION('',(0.707106781187,0.,-0.707106781187));
#1941 = DIRECTION('',(0.,1.,0.));
#1942 = ADVANCED_FACE('',(#1943),#1961,.F.);
#1943 = FACE_BOUND('',#1944,.F.);
#1944 = EDGE_LOOP('',(#1945,#1954,#1959,#1960));
#1945 = ORIENTED_EDGE('',*,*,#1946,.T.);
#1946 = EDGE_CURVE('',#1947,#1947,#1949,.T.);
#1947 = VERTEX_POINT('',#1948);
#1948 = CARTESIAN_POINT('',(-15.5,-30.,42.));
#1949 = CIRCLE('',#1950,4.5);
#1950 = AXIS2_PLACEMENT_3D('',#1951,#1952,#1953);
#1951 = CARTESIAN_POINT('',(-20.,-30.,42.));
#1952 = DIRECTION('',(0.,0.,-1.));
#1953 = DIRECTION('',(1.,0.,0.));
#1954 = ORIENTED_EDGE('',*,*,#1955,.T.);
#1955 = EDGE_CURVE('',#1947,#1540,#1956,.T.);
#1956 = B_SPLINE_CURVE_WITH_KNOTS('',1,(#1957,#1958),.UNSPECIFIED.,.F.,
  .F.,(2,2),(-19.,0.),.PIECEWISE_BEZIER_KNOTS.);
#1957 = CARTESIAN_POINT('',(-15.5,-30.,42.));
#1958 = CARTESIAN_POINT('',(-15.5,-30.,23.));
#1959 = ORIENTED_EDGE('',*,*,#1539,.F.);
#1960 = ORIENTED_EDGE('',*,*,#1955,.F.);
#1961 = CYLINDRICAL_SURFACE('',#1962,4.5);
#1962 = AXIS2_PLACEMENT_3D('',#1963,#1964,#1965);
#1963 = CARTESIAN_POINT('',(-20.,-30.,23.));
#1964 = DIRECTION('',(0.,0.,-1.));
#1965 = DIRECTION('',(1.,0.,0.));
#1966 = ADVANCED_FACE('',(#1967),#1985,.F.);
#1967 = FACE_BOUND('',#1968,.F.);
#1968 = EDGE_LOOP('',(#1969,#1978,#1983,#1984));
#1969 = ORIENTED_EDGE('',*,*,#1970,.T.);
#1970 = EDGE_CURVE('',#1971,#1971,#1973,.T.);
#1971 = VERTEX_POINT('',#1972);
#1972 = CARTESIAN_POINT('',(34.5,15.,42.));
#1973 = CIRCLE('',#1974,4.5);
#1974 = AXIS2_PLACEMENT_3D('',#1975,#1976,#1977);
#1975 = CARTESIAN_POINT('',(30.,15.,42.));
#1976 = DIRECTION('',(0.,0.,-1.));
#1977 = DIRECTION('',(1.,0.,0.));
#1978 = ORIENTED_EDGE('',*,*,#1979,.T.);
#1979 = EDGE_CURVE('',#1971,#1551,#1980,.T.);
#1980 = B_SPLINE_CURVE_WITH_KNOTS('',1,(#1981,#1982),.UNSPECIFIED.,.F.,
  .F.,(2,2),(-19.,0.),.PIECEWISE_BEZIER_KNOTS.);
#1981 = CARTESIAN_POINT('',(34.5,15.,42.));
#1982 = CARTESIAN_POINT('',(34.5,15.,23.));
#1983 = ORIENTED_EDGE('',*,*,#1550,.F.);
#1984 = ORIENTED_EDGE('',*,*,#1979,.F.);
#1985 = CYLINDRICAL_SURFACE('',#1986,4.5);
#1986 = AXIS2_PLACEMENT_3D('',#1987,#1988,#1989);
#1987 = CARTESIAN_POINT('',(30.,15.,23.));
#1988 = DIRECTION('',(0.,0.,-1.));
#1989 = DIRECTION('',(1.,0.,0.));
#1990 = ADVANCED_FACE('',(#1991),#2009,.F.);
#1991 = FACE_BOUND('',#1992,.F.);
#1992 = EDGE_LOOP('',(#1993,#2002,#2007,#2008));
#1993 = ORIENTED_EDGE('',*,*,#1994,.T.);
#1994 = EDGE_CURVE('',#1995,#1995,#1997,.T.);
#1995 = VERTEX_POINT('',#1996);
#1996 = CARTESIAN_POINT('',(34.5,40.,42.));
#1997 = CIRCLE('',#1998,4.5);
#1998 = AXIS2_PLACEMENT_3D('',#1999,#2000,#2001);
#1999 = CARTESIAN_POINT('',(30.,40.,42.));
#2000 = DIRECTION('',(0.,0.,-1.));
#2001 = DIRECTION('',(1.,0.,0.));
#2002 = ORIENTED_EDGE('',*,*,#2003,.T.);
#2003 = EDGE_CURVE('',#1995,#1565,#2004,.T.);
#2004 = B_SPLINE_CURVE_WITH_KNOTS('',1,(#2005,#2006),.UNSPECIFIED.,.F.,
  .F.,(2,2),(-19.,0.),.PIECEWISE_BEZIER_KNOTS.);
#2005 = CARTESIAN_POINT('',(34.5,40.,42.));
#2006 = CARTESIAN_POINT('',(34.5,40.,23.));
#2007 = ORIENTED_EDGE('',*,*,#1564,.F.);
#2008 = ORIENTED_EDGE('',*,*,#2003,.F.);
#2009 = CYLINDRICAL_SURFACE('',#2010,4.5);
#2010 = AXIS2_PLACEMENT_3D('',#2011,#2012,#2013);
#2011 = CARTESIAN_POINT('',(30.,40.,23.));
#2012 = DIRECTION('',(0.,0.,-1.));
#2013 = DIRECTION('',(1.,0.,0.));
#2014 = ADVANCED_FACE('',(#2015,#2018),#2021,.F.);
#2015 = FACE_BOUND('',#2016,.F.);
#2016 = EDGE_LOOP('',(#2017));
#2017 = ORIENTED_EDGE('',*,*,#1946,.F.);
#2018 = FACE_BOUND('',#2019,.F.);
#2019 = EDGE_LOOP('',(#2020));
#2020 = ORIENTED_EDGE('',*,*,#1670,.T.);
#2021 = PLANE('',#2022);
#2022 = AXIS2_PLACEMENT_3D('',#2023,#2024,#2025);
#2023 = CARTESIAN_POINT('',(13.333333333333,8.333333333333,42.));
#2024 = DIRECTION('',(0.,0.,1.));
#2025 = DIRECTION('',(1.,0.,0.));
#2026 = ADVANCED_FACE('',(#2027,#2030),#2033,.F.);
#2027 = FACE_BOUND('',#2028,.F.);
#2028 = EDGE_LOOP('',(#2029));
#2029 = ORIENTED_EDGE('',*,*,#1720,.F.);
#2030 = FACE_BOUND('',#2031,.F.);
#2031 = EDGE_LOOP('',(#2032));
#2032 = ORIENTED_EDGE('',*,*,#1790,.F.);
#2033 = PLANE('',#2034);
#2034 = AXIS2_PLACEMENT_3D('',#2035,#2036,#2037);
#2035 = CARTESIAN_POINT('',(-4.75,1.836970198721E-16,56.));
#2036 = DIRECTION('',(0.,0.,1.));
#2037 = DIRECTION('',(1.,0.,0.));
#2038 = ADVANCED_FACE('',(#2039,#2042),#2045,.F.);
#2039 = FACE_BOUND('',#2040,.F.);
#2040 = EDGE_LOOP('',(#2041));
#2041 = ORIENTED_EDGE('',*,*,#1970,.F.);
#2042 = FACE_BOUND('',#2043,.F.);
#2043 = EDGE_LOOP('',(#2044));
#2044 = ORIENTED_EDGE('',*,*,#1822,.T.);
#2045 = PLANE('',#2046);
#2046 = AXIS2_PLACEMENT_3D('',#2047,#2048,#2049);
#2047 = CARTESIAN_POINT('',(13.333333333333,8.333333333333,42.));
#2048 = DIRECTION('',(0.,0.,1.));
#2049 = DIRECTION('',(1.,0.,0.));
#2050 = ADVANCED_FACE('',(#2051,#2054),#2057,.F.);
#2051 = FACE_BOUND('',#2052,.F.);
#2052 = EDGE_LOOP('',(#2053));
#2053 = ORIENTED_EDGE('',*,*,#1994,.F.);
#2054 = FACE_BOUND('',#2055,.F.);
#2055 = EDGE_LOOP('',(#2056));
#2056 = ORIENTED_EDGE('',*,*,#1847,.T.);
#2057 = PLANE('',#2058);
#2058 = AXIS2_PLACEMENT_3D('',#2059,#2060,#2061);
#2059 = CARTESIAN_POINT('',(13.333333333333,8.333333333333,42.));
#2060 = DIRECTION('',(0.,0.,1.));
#2061 = DIRECTION('',(1.,0.,0.));
#2062 = ADVANCED_FACE('',(#2063,#2066),#2069,.T.);
#2063 = FACE_BOUND('',#2064,.T.);
#2064 = EDGE_LOOP('',(#2065));
#2065 = ORIENTED_EDGE('',*,*,#1892,.T.);
#2066 = FACE_BOUND('',#2067,.T.);
#2067 = EDGE_LOOP('',(#2068));
#2068 = ORIENTED_EDGE('',*,*,#1909,.F.);
#2069 = PLANE('',#2070);
#2070 = AXIS2_PLACEMENT_3D('',#2071,#2072,#2073);
#2071 = CARTESIAN_POINT('',(-4.75,-1.836970198721E-16,79.));
#2072 = DIRECTION('',(0.,0.,1.));
#2073 = DIRECTION('',(1.,0.,0.));
#2074 = ( GEOMETRIC_REPRESENTATION_CONTEXT(3) 
GLOBAL_UNCERTAINTY_ASSIGNED_CONTEXT((#2078)) 
GLOBAL_UNIT_ASSIGNED_CONTEXT((#2075,#2076,#2077)) REPRESENTATION_CONTEXT
('Context #1','3D Context with UNIT and UNCERTAINTY') );
#2075 = ( LENGTH_UNIT() NAMED_UNIT(*) SI_UNIT(.MILLI.,.METRE.) );
#2076 = ( NAMED_UNIT(*) PLANE_ANGLE_UNIT() SI_UNIT($,.RADIAN.) );
#2077 = ( NAMED_UNIT(*) SI_UNIT($,.STERADIAN.) SOLID_ANGLE_UNIT() );
#2078 = UNCERTAINTY_MEASURE_WITH_UNIT(LENGTH_MEASURE(5.E-05),#2075,
  'distance_accuracy_value','confusion accuracy');
#2079 = PRODUCT_RELATED_PRODUCT_CATEGORY('part',$,(#7));
#2080 = MECHANICAL_DESIGN_GEOMETRIC_PRESENTATION_REPRESENTATION('',(
    #2081),#2074);
#2081 = STYLED_ITEM('color',(#2082),#15);
#2082 = PRESENTATION_STYLE_ASSIGNMENT((#2083,#2089));
#2083 = SURFACE_STYLE_USAGE(.BOTH.,#2084);
#2084 = SURFACE_SIDE_STYLE('',(#2085));
#2085 = SURFACE_STYLE_FILL_AREA(#2086);
#2086 = FILL_AREA_STYLE('',(#2087));
#2087 = FILL_AREA_STYLE_COLOUR('',#2088);
#2088 = COLOUR_RGB('',0.447058818107,0.474509808674,0.501960817233);
#2089 = CURVE_STYLE('',#2090,POSITIVE_LENGTH_MEASURE(0.1),#2091);
#2090 = DRAUGHTING_PRE_DEFINED_CURVE_FONT('continuous');
#2091 = COLOUR_RGB('',9.803921802644E-02,9.803921802644E-02,
  9.803921802644E-02);
ENDSEC;
END-ISO-10303-21;
