ISO-10303-21;
HEADER;
FILE_DESCRIPTION(('FreeCAD Model'),'2;1');
FILE_NAME('Open CASCADE Shape Model','2025-12-09T17:26:26',(''),(''),
  'Open CASCADE STEP processor 7.8','FreeCAD','Unknown');
FILE_SCHEMA(('AUTOMOTIVE_DESIGN { 1 0 10303 214 1 1 1 1 }'));
ENDSEC;
DATA;
#1 = APPLICATION_PROTOCOL_DEFINITION('international standard',
  'automotive_design',2000,#2);
#2 = APPLICATION_CONTEXT(
  'core data for automotive mechanical design processes');
#3 = SHAPE_DEFINITION_REPRESENTATION(#4,#10);
#4 = PRODUCT_DEFINITION_SHAPE('','',#5);
#5 = PRODUCT_DEFINITION('design','',#6,#9);
#6 = PRODUCT_DEFINITION_FORMATION('','',#7);
#7 = PRODUCT('Mocowanie lewy przod silnik i rolka',
  'Mocowanie lewy przod silnik i rolka','',(#8));
#8 = PRODUCT_CONTEXT('',#2,'mechanical');
#9 = PRODUCT_DEFINITION_CONTEXT('part definition',#2,'design');
#10 = ADVANCED_BREP_SHAPE_REPRESENTATION('',(#11,#15),#2042);
#11 = AXIS2_PLACEMENT_3D('',#12,#13,#14);
#12 = CARTESIAN_POINT('',(0.,0.,0.));
#13 = DIRECTION('',(0.,0.,1.));
#14 = DIRECTION('',(1.,0.,-0.));
#15 = MANIFOLD_SOLID_BREP('',#16);
#16 = CLOSED_SHELL('',(#17,#234,#289,#313,#337,#362,#394,#418,#442,#490,
    #514,#578,#602,#634,#658,#682,#715,#740,#765,#790,#815,#840,#865,
    #890,#915,#939,#956,#996,#1080,#1105,#1122,#1155,#1186,#1222,#1246,
    #1277,#1301,#1345,#1370,#1434,#1467,#1573,#1590,#1607,#1624,#1653,
    #1670,#1687,#1699,#1724,#1736,#1771,#1783,#1808,#1825,#1849,#1866,
    #1878,#1903,#1920,#1932,#1956,#1981,#2006,#2018,#2030));
#17 = ADVANCED_FACE('',(#18,#141,#152,#163,#174,#185,#196,#207,#218),
  #229,.T.);
#18 = FACE_BOUND('',#19,.T.);
#19 = EDGE_LOOP('',(#20,#30,#38,#46,#54,#62,#70,#78,#86,#94,#102,#110,
    #118,#126,#135));
#20 = ORIENTED_EDGE('',*,*,#21,.T.);
#21 = EDGE_CURVE('',#22,#24,#26,.T.);
#22 = VERTEX_POINT('',#23);
#23 = CARTESIAN_POINT('',(38.,-38.,26.));
#24 = VERTEX_POINT('',#25);
#25 = CARTESIAN_POINT('',(37.,-39.,26.));
#26 = LINE('',#27,#28);
#27 = CARTESIAN_POINT('',(35.5,-40.5,26.));
#28 = VECTOR('',#29,1.);
#29 = DIRECTION('',(-0.707106781187,-0.707106781187,0.));
#30 = ORIENTED_EDGE('',*,*,#31,.T.);
#31 = EDGE_CURVE('',#24,#32,#34,.T.);
#32 = VERTEX_POINT('',#33);
#33 = CARTESIAN_POINT('',(8.,-39.,26.));
#34 = LINE('',#35,#36);
#35 = CARTESIAN_POINT('',(35.,-39.,26.));
#36 = VECTOR('',#37,1.);
#37 = DIRECTION('',(-1.,0.,0.));
#38 = ORIENTED_EDGE('',*,*,#39,.T.);
#39 = EDGE_CURVE('',#32,#40,#42,.T.);
#40 = VERTEX_POINT('',#41);
#41 = CARTESIAN_POINT('',(5.,-36.,26.));
#42 = LINE('',#43,#44);
#43 = CARTESIAN_POINT('',(-1.75,-29.25,26.));
#44 = VECTOR('',#45,1.);
#45 = DIRECTION('',(-0.707106781187,0.707106781187,0.));
#46 = ORIENTED_EDGE('',*,*,#47,.F.);
#47 = EDGE_CURVE('',#48,#40,#50,.T.);
#48 = VERTEX_POINT('',#49);
#49 = CARTESIAN_POINT('',(5.,-21.,26.));
#50 = LINE('',#51,#52);
#51 = CARTESIAN_POINT('',(5.,-21.,26.));
#52 = VECTOR('',#53,1.);
#53 = DIRECTION('',(0.,-1.,0.));
#54 = ORIENTED_EDGE('',*,*,#55,.F.);
#55 = EDGE_CURVE('',#56,#48,#58,.T.);
#56 = VERTEX_POINT('',#57);
#57 = CARTESIAN_POINT('',(-20.,-21.,26.));
#58 = LINE('',#59,#60);
#59 = CARTESIAN_POINT('',(-20.,-21.,26.));
#60 = VECTOR('',#61,1.);
#61 = DIRECTION('',(1.,0.,0.));
#62 = ORIENTED_EDGE('',*,*,#63,.F.);
#63 = EDGE_CURVE('',#64,#56,#66,.T.);
#64 = VERTEX_POINT('',#65);
#65 = CARTESIAN_POINT('',(-20.,4.,26.));
#66 = LINE('',#67,#68);
#67 = CARTESIAN_POINT('',(-20.,4.,26.));
#68 = VECTOR('',#69,1.);
#69 = DIRECTION('',(0.,-1.,0.));
#70 = ORIENTED_EDGE('',*,*,#71,.T.);
#71 = EDGE_CURVE('',#64,#72,#74,.T.);
#72 = VERTEX_POINT('',#73);
#73 = CARTESIAN_POINT('',(-35.,4.,26.));
#74 = LINE('',#75,#76);
#75 = CARTESIAN_POINT('',(-20.,4.,26.));
#76 = VECTOR('',#77,1.);
#77 = DIRECTION('',(-1.,0.,0.));
#78 = ORIENTED_EDGE('',*,*,#79,.F.);
#79 = EDGE_CURVE('',#80,#72,#82,.T.);
#80 = VERTEX_POINT('',#81);
#81 = CARTESIAN_POINT('',(-40.,9.,26.));
#82 = LINE('',#83,#84);
#83 = CARTESIAN_POINT('',(-24.25,-6.75,26.));
#84 = VECTOR('',#85,1.);
#85 = DIRECTION('',(0.707106781187,-0.707106781187,0.));
#86 = ORIENTED_EDGE('',*,*,#87,.T.);
#87 = EDGE_CURVE('',#80,#88,#90,.T.);
#88 = VERTEX_POINT('',#89);
#89 = CARTESIAN_POINT('',(-40.,28.,26.));
#90 = LINE('',#91,#92);
#91 = CARTESIAN_POINT('',(-40.,-20.,26.));
#92 = VECTOR('',#93,1.);
#93 = DIRECTION('',(0.,1.,0.));
#94 = ORIENTED_EDGE('',*,*,#95,.F.);
#95 = EDGE_CURVE('',#96,#88,#98,.T.);
#96 = VERTEX_POINT('',#97);
#97 = CARTESIAN_POINT('',(-35.,23.,26.));
#98 = LINE('',#99,#100);
#99 = CARTESIAN_POINT('',(-19.5,7.5,26.));
#100 = VECTOR('',#101,1.);
#101 = DIRECTION('',(-0.707106781187,0.707106781187,0.));
#102 = ORIENTED_EDGE('',*,*,#103,.F.);
#103 = EDGE_CURVE('',#104,#96,#106,.T.);
#104 = VERTEX_POINT('',#105);
#105 = CARTESIAN_POINT('',(14.,23.,26.));
#106 = LINE('',#107,#108);
#107 = CARTESIAN_POINT('',(-20.,23.,26.));
#108 = VECTOR('',#109,1.);
#109 = DIRECTION('',(-1.,-0.,-0.));
#110 = ORIENTED_EDGE('',*,*,#111,.T.);
#111 = EDGE_CURVE('',#104,#112,#114,.T.);
#112 = VERTEX_POINT('',#113);
#113 = CARTESIAN_POINT('',(14.,21.,26.));
#114 = LINE('',#115,#116);
#115 = CARTESIAN_POINT('',(14.,11.25,26.));
#116 = VECTOR('',#117,1.);
#117 = DIRECTION('',(0.,-1.,0.));
#118 = ORIENTED_EDGE('',*,*,#119,.T.);
#119 = EDGE_CURVE('',#112,#120,#122,.T.);
#120 = VERTEX_POINT('',#121);
#121 = CARTESIAN_POINT('',(35.,21.,26.));
#122 = LINE('',#123,#124);
#123 = CARTESIAN_POINT('',(14.,21.,26.));
#124 = VECTOR('',#125,1.);
#125 = DIRECTION('',(1.,0.,0.));
#126 = ORIENTED_EDGE('',*,*,#127,.T.);
#127 = EDGE_CURVE('',#120,#128,#130,.T.);
#128 = VERTEX_POINT('',#129);
#129 = CARTESIAN_POINT('',(38.,18.,26.));
#130 = CIRCLE('',#131,3.);
#131 = AXIS2_PLACEMENT_3D('',#132,#133,#134);
#132 = CARTESIAN_POINT('',(35.,18.,26.));
#133 = DIRECTION('',(0.,0.,-1.));
#134 = DIRECTION('',(0.,1.,0.));
#135 = ORIENTED_EDGE('',*,*,#136,.T.);
#136 = EDGE_CURVE('',#128,#22,#137,.T.);
#137 = LINE('',#138,#139);
#138 = CARTESIAN_POINT('',(38.,18.,26.));
#139 = VECTOR('',#140,1.);
#140 = DIRECTION('',(0.,-1.,0.));
#141 = FACE_BOUND('',#142,.T.);
#142 = EDGE_LOOP('',(#143));
#143 = ORIENTED_EDGE('',*,*,#144,.F.);
#144 = EDGE_CURVE('',#145,#145,#147,.T.);
#145 = VERTEX_POINT('',#146);
#146 = CARTESIAN_POINT('',(32.65,-30.,26.));
#147 = CIRCLE('',#148,2.65);
#148 = AXIS2_PLACEMENT_3D('',#149,#150,#151);
#149 = CARTESIAN_POINT('',(30.,-30.,26.));
#150 = DIRECTION('',(0.,0.,-1.));
#151 = DIRECTION('',(1.,0.,0.));
#152 = FACE_BOUND('',#153,.T.);
#153 = EDGE_LOOP('',(#154));
#154 = ORIENTED_EDGE('',*,*,#155,.F.);
#155 = EDGE_CURVE('',#156,#156,#158,.T.);
#156 = VERTEX_POINT('',#157);
#157 = CARTESIAN_POINT('',(17.65,-30.,26.));
#158 = CIRCLE('',#159,2.65);
#159 = AXIS2_PLACEMENT_3D('',#160,#161,#162);
#160 = CARTESIAN_POINT('',(15.,-30.,26.));
#161 = DIRECTION('',(0.,0.,-1.));
#162 = DIRECTION('',(1.,0.,0.));
#163 = FACE_BOUND('',#164,.T.);
#164 = EDGE_LOOP('',(#165));
#165 = ORIENTED_EDGE('',*,*,#166,.T.);
#166 = EDGE_CURVE('',#167,#167,#169,.T.);
#167 = VERTEX_POINT('',#168);
#168 = CARTESIAN_POINT('',(28.5,-16.15,26.));
#169 = CIRCLE('',#170,1.75);
#170 = AXIS2_PLACEMENT_3D('',#171,#172,#173);
#171 = CARTESIAN_POINT('',(26.75,-16.15,26.));
#172 = DIRECTION('',(0.,0.,1.));
#173 = DIRECTION('',(1.,0.,0.));
#174 = FACE_BOUND('',#175,.T.);
#175 = EDGE_LOOP('',(#176));
#176 = ORIENTED_EDGE('',*,*,#177,.T.);
#177 = EDGE_CURVE('',#178,#178,#180,.T.);
#178 = VERTEX_POINT('',#179);
#179 = CARTESIAN_POINT('',(-2.5,-16.15,26.));
#180 = CIRCLE('',#181,1.75);
#181 = AXIS2_PLACEMENT_3D('',#182,#183,#184);
#182 = CARTESIAN_POINT('',(-4.25,-16.15,26.));
#183 = DIRECTION('',(0.,0.,1.));
#184 = DIRECTION('',(1.,0.,0.));
#185 = FACE_BOUND('',#186,.T.);
#186 = EDGE_LOOP('',(#187));
#187 = ORIENTED_EDGE('',*,*,#188,.T.);
#188 = EDGE_CURVE('',#189,#189,#191,.T.);
#189 = VERTEX_POINT('',#190);
#190 = CARTESIAN_POINT('',(22.65,-0.65,26.));
#191 = CIRCLE('',#192,11.5);
#192 = AXIS2_PLACEMENT_3D('',#193,#194,#195);
#193 = CARTESIAN_POINT('',(11.15,-0.65,26.));
#194 = DIRECTION('',(0.,0.,1.));
#195 = DIRECTION('',(1.,0.,0.));
#196 = FACE_BOUND('',#197,.T.);
#197 = EDGE_LOOP('',(#198));
#198 = ORIENTED_EDGE('',*,*,#199,.T.);
#199 = EDGE_CURVE('',#200,#200,#202,.T.);
#200 = VERTEX_POINT('',#201);
#201 = CARTESIAN_POINT('',(28.5,14.85,26.));
#202 = CIRCLE('',#203,1.75);
#203 = AXIS2_PLACEMENT_3D('',#204,#205,#206);
#204 = CARTESIAN_POINT('',(26.75,14.85,26.));
#205 = DIRECTION('',(0.,0.,1.));
#206 = DIRECTION('',(1.,0.,0.));
#207 = FACE_BOUND('',#208,.T.);
#208 = EDGE_LOOP('',(#209));
#209 = ORIENTED_EDGE('',*,*,#210,.T.);
#210 = EDGE_CURVE('',#211,#211,#213,.T.);
#211 = VERTEX_POINT('',#212);
#212 = CARTESIAN_POINT('',(-2.5,14.85,26.));
#213 = CIRCLE('',#214,1.75);
#214 = AXIS2_PLACEMENT_3D('',#215,#216,#217);
#215 = CARTESIAN_POINT('',(-4.25,14.85,26.));
#216 = DIRECTION('',(0.,0.,1.));
#217 = DIRECTION('',(1.,0.,0.));
#218 = FACE_BOUND('',#219,.T.);
#219 = EDGE_LOOP('',(#220));
#220 = ORIENTED_EDGE('',*,*,#221,.F.);
#221 = EDGE_CURVE('',#222,#222,#224,.T.);
#222 = VERTEX_POINT('',#223);
#223 = CARTESIAN_POINT('',(-27.35,12.5,26.));
#224 = CIRCLE('',#225,2.65);
#225 = AXIS2_PLACEMENT_3D('',#226,#227,#228);
#226 = CARTESIAN_POINT('',(-30.,12.5,26.));
#227 = DIRECTION('',(0.,0.,-1.));
#228 = DIRECTION('',(1.,0.,0.));
#229 = PLANE('',#230);
#230 = AXIS2_PLACEMENT_3D('',#231,#232,#233);
#231 = CARTESIAN_POINT('',(0.,-9.,26.));
#232 = DIRECTION('',(-0.,-0.,-1.));
#233 = DIRECTION('',(-1.,0.,0.));
#234 = ADVANCED_FACE('',(#235),#284,.T.);
#235 = FACE_BOUND('',#236,.T.);
#236 = EDGE_LOOP('',(#237,#238,#246,#254,#262,#270,#278));
#237 = ORIENTED_EDGE('',*,*,#21,.F.);
#238 = ORIENTED_EDGE('',*,*,#239,.T.);
#239 = EDGE_CURVE('',#22,#240,#242,.T.);
#240 = VERTEX_POINT('',#241);
#241 = CARTESIAN_POINT('',(40.,-36.,28.));
#242 = LINE('',#243,#244);
#243 = CARTESIAN_POINT('',(47.5,-28.5,35.5));
#244 = VECTOR('',#245,1.);
#245 = DIRECTION('',(0.57735026919,0.57735026919,0.57735026919));
#246 = ORIENTED_EDGE('',*,*,#247,.T.);
#247 = EDGE_CURVE('',#240,#248,#250,.T.);
#248 = VERTEX_POINT('',#249);
#249 = CARTESIAN_POINT('',(40.,-36.,31.));
#250 = LINE('',#251,#252);
#251 = CARTESIAN_POINT('',(40.,-36.,26.));
#252 = VECTOR('',#253,1.);
#253 = DIRECTION('',(0.,0.,1.));
#254 = ORIENTED_EDGE('',*,*,#255,.T.);
#255 = EDGE_CURVE('',#248,#256,#258,.T.);
#256 = VERTEX_POINT('',#257);
#257 = CARTESIAN_POINT('',(39.7,-36.3,31.3));
#258 = LINE('',#259,#260);
#259 = CARTESIAN_POINT('',(42.333333333333,-33.66666666666,
    28.666666666667));
#260 = VECTOR('',#261,1.);
#261 = DIRECTION('',(-0.57735026919,-0.57735026919,0.57735026919));
#262 = ORIENTED_EDGE('',*,*,#263,.T.);
#263 = EDGE_CURVE('',#256,#264,#266,.T.);
#264 = VERTEX_POINT('',#265);
#265 = CARTESIAN_POINT('',(35.,-41.,31.3));
#266 = LINE('',#267,#268);
#267 = CARTESIAN_POINT('',(34.226319875776,-41.77368012422,31.3));
#268 = VECTOR('',#269,1.);
#269 = DIRECTION('',(-0.707106781187,-0.707106781187,0.));
#270 = ORIENTED_EDGE('',*,*,#271,.F.);
#271 = EDGE_CURVE('',#272,#264,#274,.T.);
#272 = VERTEX_POINT('',#273);
#273 = CARTESIAN_POINT('',(35.,-41.,28.));
#274 = LINE('',#275,#276);
#275 = CARTESIAN_POINT('',(35.,-41.,26.));
#276 = VECTOR('',#277,1.);
#277 = DIRECTION('',(0.,0.,1.));
#278 = ORIENTED_EDGE('',*,*,#279,.F.);
#279 = EDGE_CURVE('',#24,#272,#280,.T.);
#280 = LINE('',#281,#282);
#281 = CARTESIAN_POINT('',(36.5,-39.5,26.5));
#282 = VECTOR('',#283,1.);
#283 = DIRECTION('',(-0.57735026919,-0.57735026919,0.57735026919));
#284 = PLANE('',#285);
#285 = AXIS2_PLACEMENT_3D('',#286,#287,#288);
#286 = CARTESIAN_POINT('',(37.5,-38.5,26.));
#287 = DIRECTION('',(0.707106781187,-0.707106781187,4.759089844287E-16)
  );
#288 = DIRECTION('',(-3.365184701171E-16,3.365184701171E-16,1.));
#289 = ADVANCED_FACE('',(#290),#308,.T.);
#290 = FACE_BOUND('',#291,.F.);
#291 = EDGE_LOOP('',(#292,#300,#301,#302));
#292 = ORIENTED_EDGE('',*,*,#293,.F.);
#293 = EDGE_CURVE('',#128,#294,#296,.T.);
#294 = VERTEX_POINT('',#295);
#295 = CARTESIAN_POINT('',(40.,18.,28.));
#296 = LINE('',#297,#298);
#297 = CARTESIAN_POINT('',(40.,18.,28.));
#298 = VECTOR('',#299,1.);
#299 = DIRECTION('',(0.707106781187,4.329780281177E-17,0.707106781187));
#300 = ORIENTED_EDGE('',*,*,#136,.T.);
#301 = ORIENTED_EDGE('',*,*,#239,.T.);
#302 = ORIENTED_EDGE('',*,*,#303,.F.);
#303 = EDGE_CURVE('',#294,#240,#304,.T.);
#304 = LINE('',#305,#306);
#305 = CARTESIAN_POINT('',(40.,18.,28.));
#306 = VECTOR('',#307,1.);
#307 = DIRECTION('',(0.,-1.,0.));
#308 = PLANE('',#309);
#309 = AXIS2_PLACEMENT_3D('',#310,#311,#312);
#310 = CARTESIAN_POINT('',(39.,18.,27.));
#311 = DIRECTION('',(0.707106781187,0.,-0.707106781187));
#312 = DIRECTION('',(0.,1.,0.));
#313 = ADVANCED_FACE('',(#314),#332,.T.);
#314 = FACE_BOUND('',#315,.F.);
#315 = EDGE_LOOP('',(#316,#317,#318,#326));
#316 = ORIENTED_EDGE('',*,*,#279,.F.);
#317 = ORIENTED_EDGE('',*,*,#31,.T.);
#318 = ORIENTED_EDGE('',*,*,#319,.T.);
#319 = EDGE_CURVE('',#32,#320,#322,.T.);
#320 = VERTEX_POINT('',#321);
#321 = CARTESIAN_POINT('',(10.,-41.,28.));
#322 = LINE('',#323,#324);
#323 = CARTESIAN_POINT('',(12.666666666667,-43.66666666666,
    30.666666666667));
#324 = VECTOR('',#325,1.);
#325 = DIRECTION('',(0.57735026919,-0.57735026919,0.57735026919));
#326 = ORIENTED_EDGE('',*,*,#327,.F.);
#327 = EDGE_CURVE('',#272,#320,#328,.T.);
#328 = LINE('',#329,#330);
#329 = CARTESIAN_POINT('',(35.,-41.,28.));
#330 = VECTOR('',#331,1.);
#331 = DIRECTION('',(-1.,0.,0.));
#332 = PLANE('',#333);
#333 = AXIS2_PLACEMENT_3D('',#334,#335,#336);
#334 = CARTESIAN_POINT('',(35.,-40.,27.));
#335 = DIRECTION('',(0.,-0.707106781187,-0.707106781187));
#336 = DIRECTION('',(1.,0.,0.));
#337 = ADVANCED_FACE('',(#338),#357,.T.);
#338 = FACE_BOUND('',#339,.F.);
#339 = EDGE_LOOP('',(#340,#348,#349,#350));
#340 = ORIENTED_EDGE('',*,*,#341,.F.);
#341 = EDGE_CURVE('',#120,#342,#344,.T.);
#342 = VERTEX_POINT('',#343);
#343 = CARTESIAN_POINT('',(35.,23.,28.));
#344 = LINE('',#345,#346);
#345 = CARTESIAN_POINT('',(35.,22.,27.));
#346 = VECTOR('',#347,1.);
#347 = DIRECTION('',(0.,0.707106781187,0.707106781187));
#348 = ORIENTED_EDGE('',*,*,#127,.T.);
#349 = ORIENTED_EDGE('',*,*,#293,.T.);
#350 = ORIENTED_EDGE('',*,*,#351,.F.);
#351 = EDGE_CURVE('',#342,#294,#352,.T.);
#352 = CIRCLE('',#353,5.);
#353 = AXIS2_PLACEMENT_3D('',#354,#355,#356);
#354 = CARTESIAN_POINT('',(35.,18.,28.));
#355 = DIRECTION('',(0.,0.,-1.));
#356 = DIRECTION('',(0.,1.,0.));
#357 = CONICAL_SURFACE('',#358,5.,0.785398163397);
#358 = AXIS2_PLACEMENT_3D('',#359,#360,#361);
#359 = CARTESIAN_POINT('',(35.,18.,28.));
#360 = DIRECTION('',(0.,0.,1.));
#361 = DIRECTION('',(0.,1.,0.));
#362 = ADVANCED_FACE('',(#363),#389,.F.);
#363 = FACE_BOUND('',#364,.T.);
#364 = EDGE_LOOP('',(#365,#366,#367,#375,#383));
#365 = ORIENTED_EDGE('',*,*,#39,.F.);
#366 = ORIENTED_EDGE('',*,*,#319,.T.);
#367 = ORIENTED_EDGE('',*,*,#368,.T.);
#368 = EDGE_CURVE('',#320,#369,#371,.T.);
#369 = VERTEX_POINT('',#370);
#370 = CARTESIAN_POINT('',(10.,-41.,31.3));
#371 = LINE('',#372,#373);
#372 = CARTESIAN_POINT('',(10.,-41.,26.));
#373 = VECTOR('',#374,1.);
#374 = DIRECTION('',(0.,0.,1.));
#375 = ORIENTED_EDGE('',*,*,#376,.T.);
#376 = EDGE_CURVE('',#369,#377,#379,.T.);
#377 = VERTEX_POINT('',#378);
#378 = CARTESIAN_POINT('',(5.,-36.,31.3));
#379 = LINE('',#380,#381);
#380 = CARTESIAN_POINT('',(-3.875,-27.125,31.3));
#381 = VECTOR('',#382,1.);
#382 = DIRECTION('',(-0.707106781187,0.707106781187,0.));
#383 = ORIENTED_EDGE('',*,*,#384,.F.);
#384 = EDGE_CURVE('',#40,#377,#385,.T.);
#385 = LINE('',#386,#387);
#386 = CARTESIAN_POINT('',(5.,-36.,26.));
#387 = VECTOR('',#388,1.);
#388 = DIRECTION('',(0.,0.,1.));
#389 = PLANE('',#390);
#390 = AXIS2_PLACEMENT_3D('',#391,#392,#393);
#391 = CARTESIAN_POINT('',(7.5,-38.5,26.));
#392 = DIRECTION('',(0.707106781187,0.707106781187,-4.759089844287E-16)
  );
#393 = DIRECTION('',(-3.365184701171E-16,-3.365184701171E-16,-1.));
#394 = ADVANCED_FACE('',(#395),#413,.T.);
#395 = FACE_BOUND('',#396,.F.);
#396 = EDGE_LOOP('',(#397,#405,#406,#407));
#397 = ORIENTED_EDGE('',*,*,#398,.F.);
#398 = EDGE_CURVE('',#112,#399,#401,.T.);
#399 = VERTEX_POINT('',#400);
#400 = CARTESIAN_POINT('',(14.,23.,28.));
#401 = LINE('',#402,#403);
#402 = CARTESIAN_POINT('',(14.,23.98125,28.98125));
#403 = VECTOR('',#404,1.);
#404 = DIRECTION('',(0.,0.707106781187,0.707106781187));
#405 = ORIENTED_EDGE('',*,*,#119,.T.);
#406 = ORIENTED_EDGE('',*,*,#341,.T.);
#407 = ORIENTED_EDGE('',*,*,#408,.F.);
#408 = EDGE_CURVE('',#399,#342,#409,.T.);
#409 = LINE('',#410,#411);
#410 = CARTESIAN_POINT('',(14.,23.,28.));
#411 = VECTOR('',#412,1.);
#412 = DIRECTION('',(1.,0.,0.));
#413 = PLANE('',#414);
#414 = AXIS2_PLACEMENT_3D('',#415,#416,#417);
#415 = CARTESIAN_POINT('',(14.,22.,27.));
#416 = DIRECTION('',(0.,0.707106781187,-0.707106781187));
#417 = DIRECTION('',(-1.,-0.,-0.));
#418 = ADVANCED_FACE('',(#419),#437,.F.);
#419 = FACE_BOUND('',#420,.F.);
#420 = EDGE_LOOP('',(#421,#422,#430,#436));
#421 = ORIENTED_EDGE('',*,*,#47,.F.);
#422 = ORIENTED_EDGE('',*,*,#423,.T.);
#423 = EDGE_CURVE('',#48,#424,#426,.T.);
#424 = VERTEX_POINT('',#425);
#425 = CARTESIAN_POINT('',(5.,-21.,31.3));
#426 = LINE('',#427,#428);
#427 = CARTESIAN_POINT('',(5.,-21.,26.));
#428 = VECTOR('',#429,1.);
#429 = DIRECTION('',(0.,0.,1.));
#430 = ORIENTED_EDGE('',*,*,#431,.F.);
#431 = EDGE_CURVE('',#377,#424,#432,.T.);
#432 = LINE('',#433,#434);
#433 = CARTESIAN_POINT('',(5.,-19.1040239726,31.3));
#434 = VECTOR('',#435,1.);
#435 = DIRECTION('',(0.,1.,0.));
#436 = ORIENTED_EDGE('',*,*,#384,.F.);
#437 = PLANE('',#438);
#438 = AXIS2_PLACEMENT_3D('',#439,#440,#441);
#439 = CARTESIAN_POINT('',(5.,-21.,26.));
#440 = DIRECTION('',(1.,0.,0.));
#441 = DIRECTION('',(0.,-1.,0.));
#442 = ADVANCED_FACE('',(#443),#485,.T.);
#443 = FACE_BOUND('',#444,.T.);
#444 = EDGE_LOOP('',(#445,#455,#463,#469,#470,#471,#479));
#445 = ORIENTED_EDGE('',*,*,#446,.T.);
#446 = EDGE_CURVE('',#447,#449,#451,.T.);
#447 = VERTEX_POINT('',#448);
#448 = CARTESIAN_POINT('',(14.,35.,17.85));
#449 = VERTEX_POINT('',#450);
#450 = CARTESIAN_POINT('',(14.,35.,31.));
#451 = LINE('',#452,#453);
#452 = CARTESIAN_POINT('',(14.,35.,17.85));
#453 = VECTOR('',#454,1.);
#454 = DIRECTION('',(0.,0.,1.));
#455 = ORIENTED_EDGE('',*,*,#456,.T.);
#456 = EDGE_CURVE('',#449,#457,#459,.T.);
#457 = VERTEX_POINT('',#458);
#458 = CARTESIAN_POINT('',(14.,23.,31.));
#459 = LINE('',#460,#461);
#460 = CARTESIAN_POINT('',(14.,35.,31.));
#461 = VECTOR('',#462,1.);
#462 = DIRECTION('',(-0.,-1.,-0.));
#463 = ORIENTED_EDGE('',*,*,#464,.T.);
#464 = EDGE_CURVE('',#457,#399,#465,.T.);
#465 = LINE('',#466,#467);
#466 = CARTESIAN_POINT('',(14.,23.,31.25));
#467 = VECTOR('',#468,1.);
#468 = DIRECTION('',(0.,0.,-1.));
#469 = ORIENTED_EDGE('',*,*,#398,.F.);
#470 = ORIENTED_EDGE('',*,*,#111,.F.);
#471 = ORIENTED_EDGE('',*,*,#472,.T.);
#472 = EDGE_CURVE('',#104,#473,#475,.T.);
#473 = VERTEX_POINT('',#474);
#474 = CARTESIAN_POINT('',(14.,23.,17.85));
#475 = LINE('',#476,#477);
#476 = CARTESIAN_POINT('',(14.,23.,31.25));
#477 = VECTOR('',#478,1.);
#478 = DIRECTION('',(0.,0.,-1.));
#479 = ORIENTED_EDGE('',*,*,#480,.F.);
#480 = EDGE_CURVE('',#447,#473,#481,.T.);
#481 = LINE('',#482,#483);
#482 = CARTESIAN_POINT('',(14.,40.,17.85));
#483 = VECTOR('',#484,1.);
#484 = DIRECTION('',(0.,-1.,2.2E-16));
#485 = PLANE('',#486);
#486 = AXIS2_PLACEMENT_3D('',#487,#488,#489);
#487 = CARTESIAN_POINT('',(14.,31.5,25.425));
#488 = DIRECTION('',(1.,0.,0.));
#489 = DIRECTION('',(0.,0.,1.));
#490 = ADVANCED_FACE('',(#491),#509,.F.);
#491 = FACE_BOUND('',#492,.F.);
#492 = EDGE_LOOP('',(#493,#494,#502,#508));
#493 = ORIENTED_EDGE('',*,*,#55,.F.);
#494 = ORIENTED_EDGE('',*,*,#495,.T.);
#495 = EDGE_CURVE('',#56,#496,#498,.T.);
#496 = VERTEX_POINT('',#497);
#497 = CARTESIAN_POINT('',(-20.,-21.,31.3));
#498 = LINE('',#499,#500);
#499 = CARTESIAN_POINT('',(-20.,-21.,26.));
#500 = VECTOR('',#501,1.);
#501 = DIRECTION('',(0.,0.,1.));
#502 = ORIENTED_EDGE('',*,*,#503,.F.);
#503 = EDGE_CURVE('',#424,#496,#504,.T.);
#504 = LINE('',#505,#506);
#505 = CARTESIAN_POINT('',(-14.6040239726,-21.,31.3));
#506 = VECTOR('',#507,1.);
#507 = DIRECTION('',(-1.,0.,0.));
#508 = ORIENTED_EDGE('',*,*,#423,.F.);
#509 = PLANE('',#510);
#510 = AXIS2_PLACEMENT_3D('',#511,#512,#513);
#511 = CARTESIAN_POINT('',(-20.,-21.,26.));
#512 = DIRECTION('',(0.,1.,0.));
#513 = DIRECTION('',(1.,0.,0.));
#514 = ADVANCED_FACE('',(#515),#573,.T.);
#515 = FACE_BOUND('',#516,.T.);
#516 = EDGE_LOOP('',(#517,#525,#533,#541,#549,#557,#565,#571,#572));
#517 = ORIENTED_EDGE('',*,*,#518,.F.);
#518 = EDGE_CURVE('',#519,#96,#521,.T.);
#519 = VERTEX_POINT('',#520);
#520 = CARTESIAN_POINT('',(-35.,23.,-1.7));
#521 = LINE('',#522,#523);
#522 = CARTESIAN_POINT('',(-35.,23.,-3.7));
#523 = VECTOR('',#524,1.);
#524 = DIRECTION('',(0.,0.,1.));
#525 = ORIENTED_EDGE('',*,*,#526,.F.);
#526 = EDGE_CURVE('',#527,#519,#529,.T.);
#527 = VERTEX_POINT('',#528);
#528 = CARTESIAN_POINT('',(14.,23.,-1.7));
#529 = LINE('',#530,#531);
#530 = CARTESIAN_POINT('',(14.,23.,-1.7));
#531 = VECTOR('',#532,1.);
#532 = DIRECTION('',(-1.,-0.,-0.));
#533 = ORIENTED_EDGE('',*,*,#534,.F.);
#534 = EDGE_CURVE('',#535,#527,#537,.T.);
#535 = VERTEX_POINT('',#536);
#536 = CARTESIAN_POINT('',(14.,23.,0.45));
#537 = LINE('',#538,#539);
#538 = CARTESIAN_POINT('',(14.,23.,31.25));
#539 = VECTOR('',#540,1.);
#540 = DIRECTION('',(0.,0.,-1.));
#541 = ORIENTED_EDGE('',*,*,#542,.F.);
#542 = EDGE_CURVE('',#543,#535,#545,.T.);
#543 = VERTEX_POINT('',#544);
#544 = CARTESIAN_POINT('',(12.,23.,2.45));
#545 = LINE('',#546,#547);
#546 = CARTESIAN_POINT('',(4.549226804124,23.,9.900773195876));
#547 = VECTOR('',#548,1.);
#548 = DIRECTION('',(0.707106781187,0.,-0.707106781187));
#549 = ORIENTED_EDGE('',*,*,#550,.T.);
#550 = EDGE_CURVE('',#543,#551,#553,.T.);
#551 = VERTEX_POINT('',#552);
#552 = CARTESIAN_POINT('',(-9.,23.,2.45));
#553 = LINE('',#554,#555);
#554 = CARTESIAN_POINT('',(14.,23.,2.45));
#555 = VECTOR('',#556,1.);
#556 = DIRECTION('',(-1.,0.,0.));
#557 = ORIENTED_EDGE('',*,*,#558,.T.);
#558 = EDGE_CURVE('',#551,#559,#561,.T.);
#559 = VERTEX_POINT('',#560);
#560 = CARTESIAN_POINT('',(-9.,23.,17.85));
#561 = LINE('',#562,#563);
#562 = CARTESIAN_POINT('',(-9.,23.,2.45));
#563 = VECTOR('',#564,1.);
#564 = DIRECTION('',(0.,0.,1.));
#565 = ORIENTED_EDGE('',*,*,#566,.T.);
#566 = EDGE_CURVE('',#559,#473,#567,.T.);
#567 = LINE('',#568,#569);
#568 = CARTESIAN_POINT('',(-9.,23.,17.85));
#569 = VECTOR('',#570,1.);
#570 = DIRECTION('',(1.,0.,0.));
#571 = ORIENTED_EDGE('',*,*,#472,.F.);
#572 = ORIENTED_EDGE('',*,*,#103,.T.);
#573 = PLANE('',#574);
#574 = AXIS2_PLACEMENT_3D('',#575,#576,#577);
#575 = CARTESIAN_POINT('',(-11.31865042174,23.,10.934442361762));
#576 = DIRECTION('',(-0.,-1.,-0.));
#577 = DIRECTION('',(0.,0.,-1.));
#578 = ADVANCED_FACE('',(#579),#597,.F.);
#579 = FACE_BOUND('',#580,.F.);
#580 = EDGE_LOOP('',(#581,#582,#590,#596));
#581 = ORIENTED_EDGE('',*,*,#63,.F.);
#582 = ORIENTED_EDGE('',*,*,#583,.T.);
#583 = EDGE_CURVE('',#64,#584,#586,.T.);
#584 = VERTEX_POINT('',#585);
#585 = CARTESIAN_POINT('',(-20.,4.,31.3));
#586 = LINE('',#587,#588);
#587 = CARTESIAN_POINT('',(-20.,4.,26.));
#588 = VECTOR('',#589,1.);
#589 = DIRECTION('',(0.,0.,1.));
#590 = ORIENTED_EDGE('',*,*,#591,.F.);
#591 = EDGE_CURVE('',#496,#584,#592,.T.);
#592 = LINE('',#593,#594);
#593 = CARTESIAN_POINT('',(-20.,-6.604023972603,31.3));
#594 = VECTOR('',#595,1.);
#595 = DIRECTION('',(0.,1.,0.));
#596 = ORIENTED_EDGE('',*,*,#495,.F.);
#597 = PLANE('',#598);
#598 = AXIS2_PLACEMENT_3D('',#599,#600,#601);
#599 = CARTESIAN_POINT('',(-20.,4.,26.));
#600 = DIRECTION('',(1.,0.,0.));
#601 = DIRECTION('',(0.,-1.,0.));
#602 = ADVANCED_FACE('',(#603),#629,.T.);
#603 = FACE_BOUND('',#604,.T.);
#604 = EDGE_LOOP('',(#605,#615,#621,#622,#623));
#605 = ORIENTED_EDGE('',*,*,#606,.F.);
#606 = EDGE_CURVE('',#607,#609,#611,.T.);
#607 = VERTEX_POINT('',#608);
#608 = CARTESIAN_POINT('',(-37.,25.,-3.7));
#609 = VERTEX_POINT('',#610);
#610 = CARTESIAN_POINT('',(-40.,28.,-3.7));
#611 = LINE('',#612,#613);
#612 = CARTESIAN_POINT('',(-32.875,20.875,-3.7));
#613 = VECTOR('',#614,1.);
#614 = DIRECTION('',(-0.707106781187,0.707106781187,0.));
#615 = ORIENTED_EDGE('',*,*,#616,.F.);
#616 = EDGE_CURVE('',#519,#607,#617,.T.);
#617 = LINE('',#618,#619);
#618 = CARTESIAN_POINT('',(-28.33333333333,16.333333333333,
    4.966666666667));
#619 = VECTOR('',#620,1.);
#620 = DIRECTION('',(-0.57735026919,0.57735026919,-0.57735026919));
#621 = ORIENTED_EDGE('',*,*,#518,.T.);
#622 = ORIENTED_EDGE('',*,*,#95,.T.);
#623 = ORIENTED_EDGE('',*,*,#624,.F.);
#624 = EDGE_CURVE('',#609,#88,#625,.T.);
#625 = LINE('',#626,#627);
#626 = CARTESIAN_POINT('',(-40.,28.,-3.7));
#627 = VECTOR('',#628,1.);
#628 = DIRECTION('',(0.,0.,1.));
#629 = PLANE('',#630);
#630 = AXIS2_PLACEMENT_3D('',#631,#632,#633);
#631 = CARTESIAN_POINT('',(-37.5,25.5,-3.7));
#632 = DIRECTION('',(-0.707106781187,-0.707106781187,0.));
#633 = DIRECTION('',(0.,0.,1.));
#634 = ADVANCED_FACE('',(#635),#653,.T.);
#635 = FACE_BOUND('',#636,.T.);
#636 = EDGE_LOOP('',(#637,#638,#639,#647));
#637 = ORIENTED_EDGE('',*,*,#71,.F.);
#638 = ORIENTED_EDGE('',*,*,#583,.T.);
#639 = ORIENTED_EDGE('',*,*,#640,.F.);
#640 = EDGE_CURVE('',#641,#584,#643,.T.);
#641 = VERTEX_POINT('',#642);
#642 = CARTESIAN_POINT('',(-35.,4.,31.3));
#643 = LINE('',#644,#645);
#644 = CARTESIAN_POINT('',(-14.6040239726,4.,31.3));
#645 = VECTOR('',#646,1.);
#646 = DIRECTION('',(1.,0.,0.));
#647 = ORIENTED_EDGE('',*,*,#648,.F.);
#648 = EDGE_CURVE('',#72,#641,#649,.T.);
#649 = LINE('',#650,#651);
#650 = CARTESIAN_POINT('',(-35.,4.,26.));
#651 = VECTOR('',#652,1.);
#652 = DIRECTION('',(0.,0.,1.));
#653 = PLANE('',#654);
#654 = AXIS2_PLACEMENT_3D('',#655,#656,#657);
#655 = CARTESIAN_POINT('',(-20.,4.,26.));
#656 = DIRECTION('',(0.,-1.,0.));
#657 = DIRECTION('',(-1.,0.,0.));
#658 = ADVANCED_FACE('',(#659),#677,.T.);
#659 = FACE_BOUND('',#660,.F.);
#660 = EDGE_LOOP('',(#661,#662,#670,#676));
#661 = ORIENTED_EDGE('',*,*,#79,.F.);
#662 = ORIENTED_EDGE('',*,*,#663,.T.);
#663 = EDGE_CURVE('',#80,#664,#666,.T.);
#664 = VERTEX_POINT('',#665);
#665 = CARTESIAN_POINT('',(-40.,9.,31.3));
#666 = LINE('',#667,#668);
#667 = CARTESIAN_POINT('',(-40.,9.,26.));
#668 = VECTOR('',#669,1.);
#669 = DIRECTION('',(0.,0.,1.));
#670 = ORIENTED_EDGE('',*,*,#671,.T.);
#671 = EDGE_CURVE('',#664,#641,#672,.T.);
#672 = LINE('',#673,#674);
#673 = CARTESIAN_POINT('',(-26.375,-4.625,31.3));
#674 = VECTOR('',#675,1.);
#675 = DIRECTION('',(0.707106781187,-0.707106781187,0.));
#676 = ORIENTED_EDGE('',*,*,#648,.F.);
#677 = PLANE('',#678);
#678 = AXIS2_PLACEMENT_3D('',#679,#680,#681);
#679 = CARTESIAN_POINT('',(-37.5,6.5,26.));
#680 = DIRECTION('',(-0.707106781187,-0.707106781187,0.));
#681 = DIRECTION('',(-0.,-0.,-1.));
#682 = ADVANCED_FACE('',(#683),#710,.T.);
#683 = FACE_BOUND('',#684,.T.);
#684 = EDGE_LOOP('',(#685,#693,#701,#707,#708,#709));
#685 = ORIENTED_EDGE('',*,*,#686,.F.);
#686 = EDGE_CURVE('',#687,#664,#689,.T.);
#687 = VERTEX_POINT('',#688);
#688 = CARTESIAN_POINT('',(-40.,35.,31.3));
#689 = LINE('',#690,#691);
#690 = CARTESIAN_POINT('',(-40.,-17.61037735849,31.3));
#691 = VECTOR('',#692,1.);
#692 = DIRECTION('',(0.,-1.,2.2E-16));
#693 = ORIENTED_EDGE('',*,*,#694,.T.);
#694 = EDGE_CURVE('',#687,#695,#697,.T.);
#695 = VERTEX_POINT('',#696);
#696 = CARTESIAN_POINT('',(-40.,35.,-3.7));
#697 = LINE('',#698,#699);
#698 = CARTESIAN_POINT('',(-40.,35.,31.3));
#699 = VECTOR('',#700,1.);
#700 = DIRECTION('',(0.,0.,-1.));
#701 = ORIENTED_EDGE('',*,*,#702,.T.);
#702 = EDGE_CURVE('',#695,#609,#703,.T.);
#703 = LINE('',#704,#705);
#704 = CARTESIAN_POINT('',(-40.,40.,-3.7));
#705 = VECTOR('',#706,1.);
#706 = DIRECTION('',(0.,-1.,0.));
#707 = ORIENTED_EDGE('',*,*,#624,.T.);
#708 = ORIENTED_EDGE('',*,*,#87,.F.);
#709 = ORIENTED_EDGE('',*,*,#663,.T.);
#710 = PLANE('',#711);
#711 = AXIS2_PLACEMENT_3D('',#712,#713,#714);
#712 = CARTESIAN_POINT('',(-40.,25.973943661972,17.773943661972));
#713 = DIRECTION('',(-1.,-0.,-0.));
#714 = DIRECTION('',(0.,0.,-1.));
#715 = ADVANCED_FACE('',(#716),#735,.F.);
#716 = FACE_BOUND('',#717,.F.);
#717 = EDGE_LOOP('',(#718,#719,#727,#734));
#718 = ORIENTED_EDGE('',*,*,#144,.F.);
#719 = ORIENTED_EDGE('',*,*,#720,.T.);
#720 = EDGE_CURVE('',#145,#721,#723,.T.);
#721 = VERTEX_POINT('',#722);
#722 = CARTESIAN_POINT('',(32.65,-30.,31.3));
#723 = LINE('',#724,#725);
#724 = CARTESIAN_POINT('',(32.65,-30.,26.));
#725 = VECTOR('',#726,1.);
#726 = DIRECTION('',(0.,0.,1.));
#727 = ORIENTED_EDGE('',*,*,#728,.T.);
#728 = EDGE_CURVE('',#721,#721,#729,.T.);
#729 = CIRCLE('',#730,2.65);
#730 = AXIS2_PLACEMENT_3D('',#731,#732,#733);
#731 = CARTESIAN_POINT('',(30.,-30.,31.3));
#732 = DIRECTION('',(0.,0.,-1.));
#733 = DIRECTION('',(1.,0.,0.));
#734 = ORIENTED_EDGE('',*,*,#720,.F.);
#735 = CYLINDRICAL_SURFACE('',#736,2.65);
#736 = AXIS2_PLACEMENT_3D('',#737,#738,#739);
#737 = CARTESIAN_POINT('',(30.,-30.,26.));
#738 = DIRECTION('',(0.,0.,-1.));
#739 = DIRECTION('',(1.,0.,0.));
#740 = ADVANCED_FACE('',(#741),#760,.F.);
#741 = FACE_BOUND('',#742,.F.);
#742 = EDGE_LOOP('',(#743,#744,#752,#759));
#743 = ORIENTED_EDGE('',*,*,#155,.F.);
#744 = ORIENTED_EDGE('',*,*,#745,.T.);
#745 = EDGE_CURVE('',#156,#746,#748,.T.);
#746 = VERTEX_POINT('',#747);
#747 = CARTESIAN_POINT('',(17.65,-30.,31.3));
#748 = LINE('',#749,#750);
#749 = CARTESIAN_POINT('',(17.65,-30.,26.));
#750 = VECTOR('',#751,1.);
#751 = DIRECTION('',(0.,0.,1.));
#752 = ORIENTED_EDGE('',*,*,#753,.T.);
#753 = EDGE_CURVE('',#746,#746,#754,.T.);
#754 = CIRCLE('',#755,2.65);
#755 = AXIS2_PLACEMENT_3D('',#756,#757,#758);
#756 = CARTESIAN_POINT('',(15.,-30.,31.3));
#757 = DIRECTION('',(0.,0.,-1.));
#758 = DIRECTION('',(1.,0.,0.));
#759 = ORIENTED_EDGE('',*,*,#745,.F.);
#760 = CYLINDRICAL_SURFACE('',#761,2.65);
#761 = AXIS2_PLACEMENT_3D('',#762,#763,#764);
#762 = CARTESIAN_POINT('',(15.,-30.,26.));
#763 = DIRECTION('',(0.,0.,-1.));
#764 = DIRECTION('',(1.,0.,0.));
#765 = ADVANCED_FACE('',(#766),#785,.F.);
#766 = FACE_BOUND('',#767,.F.);
#767 = EDGE_LOOP('',(#768,#777,#783,#784));
#768 = ORIENTED_EDGE('',*,*,#769,.F.);
#769 = EDGE_CURVE('',#770,#770,#772,.T.);
#770 = VERTEX_POINT('',#771);
#771 = CARTESIAN_POINT('',(28.5,-16.15,33.));
#772 = CIRCLE('',#773,1.75);
#773 = AXIS2_PLACEMENT_3D('',#774,#775,#776);
#774 = CARTESIAN_POINT('',(26.75,-16.15,33.));
#775 = DIRECTION('',(0.,0.,1.));
#776 = DIRECTION('',(1.,0.,0.));
#777 = ORIENTED_EDGE('',*,*,#778,.T.);
#778 = EDGE_CURVE('',#770,#167,#779,.T.);
#779 = LINE('',#780,#781);
#780 = CARTESIAN_POINT('',(28.5,-16.15,33.));
#781 = VECTOR('',#782,1.);
#782 = DIRECTION('',(-0.,-0.,-1.));
#783 = ORIENTED_EDGE('',*,*,#166,.T.);
#784 = ORIENTED_EDGE('',*,*,#778,.F.);
#785 = CYLINDRICAL_SURFACE('',#786,1.75);
#786 = AXIS2_PLACEMENT_3D('',#787,#788,#789);
#787 = CARTESIAN_POINT('',(26.75,-16.15,33.));
#788 = DIRECTION('',(0.,0.,1.));
#789 = DIRECTION('',(1.,0.,0.));
#790 = ADVANCED_FACE('',(#791),#810,.F.);
#791 = FACE_BOUND('',#792,.F.);
#792 = EDGE_LOOP('',(#793,#802,#808,#809));
#793 = ORIENTED_EDGE('',*,*,#794,.F.);
#794 = EDGE_CURVE('',#795,#795,#797,.T.);
#795 = VERTEX_POINT('',#796);
#796 = CARTESIAN_POINT('',(-2.5,-16.15,33.));
#797 = CIRCLE('',#798,1.75);
#798 = AXIS2_PLACEMENT_3D('',#799,#800,#801);
#799 = CARTESIAN_POINT('',(-4.25,-16.15,33.));
#800 = DIRECTION('',(0.,0.,1.));
#801 = DIRECTION('',(1.,0.,0.));
#802 = ORIENTED_EDGE('',*,*,#803,.T.);
#803 = EDGE_CURVE('',#795,#178,#804,.T.);
#804 = LINE('',#805,#806);
#805 = CARTESIAN_POINT('',(-2.5,-16.15,33.));
#806 = VECTOR('',#807,1.);
#807 = DIRECTION('',(-0.,-0.,-1.));
#808 = ORIENTED_EDGE('',*,*,#177,.T.);
#809 = ORIENTED_EDGE('',*,*,#803,.F.);
#810 = CYLINDRICAL_SURFACE('',#811,1.75);
#811 = AXIS2_PLACEMENT_3D('',#812,#813,#814);
#812 = CARTESIAN_POINT('',(-4.25,-16.15,33.));
#813 = DIRECTION('',(0.,0.,1.));
#814 = DIRECTION('',(1.,0.,0.));
#815 = ADVANCED_FACE('',(#816),#835,.F.);
#816 = FACE_BOUND('',#817,.F.);
#817 = EDGE_LOOP('',(#818,#826,#833,#834));
#818 = ORIENTED_EDGE('',*,*,#819,.F.);
#819 = EDGE_CURVE('',#820,#189,#822,.T.);
#820 = VERTEX_POINT('',#821);
#821 = CARTESIAN_POINT('',(22.65,-0.65,30.));
#822 = LINE('',#823,#824);
#823 = CARTESIAN_POINT('',(22.65,-0.65,33.));
#824 = VECTOR('',#825,1.);
#825 = DIRECTION('',(-0.,-0.,-1.));
#826 = ORIENTED_EDGE('',*,*,#827,.F.);
#827 = EDGE_CURVE('',#820,#820,#828,.T.);
#828 = CIRCLE('',#829,11.5);
#829 = AXIS2_PLACEMENT_3D('',#830,#831,#832);
#830 = CARTESIAN_POINT('',(11.15,-0.65,30.));
#831 = DIRECTION('',(0.,-0.,1.));
#832 = DIRECTION('',(1.,2.896233977283E-17,0.));
#833 = ORIENTED_EDGE('',*,*,#819,.T.);
#834 = ORIENTED_EDGE('',*,*,#188,.T.);
#835 = CYLINDRICAL_SURFACE('',#836,11.5);
#836 = AXIS2_PLACEMENT_3D('',#837,#838,#839);
#837 = CARTESIAN_POINT('',(11.15,-0.65,33.));
#838 = DIRECTION('',(0.,0.,1.));
#839 = DIRECTION('',(1.,0.,0.));
#840 = ADVANCED_FACE('',(#841),#860,.F.);
#841 = FACE_BOUND('',#842,.F.);
#842 = EDGE_LOOP('',(#843,#852,#858,#859));
#843 = ORIENTED_EDGE('',*,*,#844,.F.);
#844 = EDGE_CURVE('',#845,#845,#847,.T.);
#845 = VERTEX_POINT('',#846);
#846 = CARTESIAN_POINT('',(28.5,14.85,33.));
#847 = CIRCLE('',#848,1.75);
#848 = AXIS2_PLACEMENT_3D('',#849,#850,#851);
#849 = CARTESIAN_POINT('',(26.75,14.85,33.));
#850 = DIRECTION('',(0.,0.,1.));
#851 = DIRECTION('',(1.,0.,0.));
#852 = ORIENTED_EDGE('',*,*,#853,.T.);
#853 = EDGE_CURVE('',#845,#200,#854,.T.);
#854 = LINE('',#855,#856);
#855 = CARTESIAN_POINT('',(28.5,14.85,33.));
#856 = VECTOR('',#857,1.);
#857 = DIRECTION('',(-0.,-0.,-1.));
#858 = ORIENTED_EDGE('',*,*,#199,.T.);
#859 = ORIENTED_EDGE('',*,*,#853,.F.);
#860 = CYLINDRICAL_SURFACE('',#861,1.75);
#861 = AXIS2_PLACEMENT_3D('',#862,#863,#864);
#862 = CARTESIAN_POINT('',(26.75,14.85,33.));
#863 = DIRECTION('',(0.,0.,1.));
#864 = DIRECTION('',(1.,0.,0.));
#865 = ADVANCED_FACE('',(#866),#885,.F.);
#866 = FACE_BOUND('',#867,.F.);
#867 = EDGE_LOOP('',(#868,#877,#883,#884));
#868 = ORIENTED_EDGE('',*,*,#869,.F.);
#869 = EDGE_CURVE('',#870,#870,#872,.T.);
#870 = VERTEX_POINT('',#871);
#871 = CARTESIAN_POINT('',(-2.5,14.85,33.));
#872 = CIRCLE('',#873,1.75);
#873 = AXIS2_PLACEMENT_3D('',#874,#875,#876);
#874 = CARTESIAN_POINT('',(-4.25,14.85,33.));
#875 = DIRECTION('',(0.,0.,1.));
#876 = DIRECTION('',(1.,0.,0.));
#877 = ORIENTED_EDGE('',*,*,#878,.T.);
#878 = EDGE_CURVE('',#870,#211,#879,.T.);
#879 = LINE('',#880,#881);
#880 = CARTESIAN_POINT('',(-2.5,14.85,33.));
#881 = VECTOR('',#882,1.);
#882 = DIRECTION('',(-0.,-0.,-1.));
#883 = ORIENTED_EDGE('',*,*,#210,.T.);
#884 = ORIENTED_EDGE('',*,*,#878,.F.);
#885 = CYLINDRICAL_SURFACE('',#886,1.75);
#886 = AXIS2_PLACEMENT_3D('',#887,#888,#889);
#887 = CARTESIAN_POINT('',(-4.25,14.85,33.));
#888 = DIRECTION('',(0.,0.,1.));
#889 = DIRECTION('',(1.,0.,0.));
#890 = ADVANCED_FACE('',(#891),#910,.F.);
#891 = FACE_BOUND('',#892,.F.);
#892 = EDGE_LOOP('',(#893,#894,#902,#909));
#893 = ORIENTED_EDGE('',*,*,#221,.F.);
#894 = ORIENTED_EDGE('',*,*,#895,.T.);
#895 = EDGE_CURVE('',#222,#896,#898,.T.);
#896 = VERTEX_POINT('',#897);
#897 = CARTESIAN_POINT('',(-27.35,12.5,31.3));
#898 = LINE('',#899,#900);
#899 = CARTESIAN_POINT('',(-27.35,12.5,26.));
#900 = VECTOR('',#901,1.);
#901 = DIRECTION('',(0.,0.,1.));
#902 = ORIENTED_EDGE('',*,*,#903,.T.);
#903 = EDGE_CURVE('',#896,#896,#904,.T.);
#904 = CIRCLE('',#905,2.65);
#905 = AXIS2_PLACEMENT_3D('',#906,#907,#908);
#906 = CARTESIAN_POINT('',(-30.,12.5,31.3));
#907 = DIRECTION('',(0.,0.,-1.));
#908 = DIRECTION('',(1.,0.,0.));
#909 = ORIENTED_EDGE('',*,*,#895,.F.);
#910 = CYLINDRICAL_SURFACE('',#911,2.65);
#911 = AXIS2_PLACEMENT_3D('',#912,#913,#914);
#912 = CARTESIAN_POINT('',(-30.,12.5,26.));
#913 = DIRECTION('',(0.,0.,-1.));
#914 = DIRECTION('',(1.,0.,0.));
#915 = ADVANCED_FACE('',(#916),#934,.T.);
#916 = FACE_BOUND('',#917,.T.);
#917 = EDGE_LOOP('',(#918,#919,#920,#928));
#918 = ORIENTED_EDGE('',*,*,#247,.F.);
#919 = ORIENTED_EDGE('',*,*,#303,.F.);
#920 = ORIENTED_EDGE('',*,*,#921,.F.);
#921 = EDGE_CURVE('',#922,#294,#924,.T.);
#922 = VERTEX_POINT('',#923);
#923 = CARTESIAN_POINT('',(40.,18.,31.));
#924 = LINE('',#925,#926);
#925 = CARTESIAN_POINT('',(40.,18.,33.));
#926 = VECTOR('',#927,1.);
#927 = DIRECTION('',(0.,0.,-1.));
#928 = ORIENTED_EDGE('',*,*,#929,.F.);
#929 = EDGE_CURVE('',#248,#922,#930,.T.);
#930 = LINE('',#931,#932);
#931 = CARTESIAN_POINT('',(40.,-20.,31.));
#932 = VECTOR('',#933,1.);
#933 = DIRECTION('',(0.,1.,0.));
#934 = PLANE('',#935);
#935 = AXIS2_PLACEMENT_3D('',#936,#937,#938);
#936 = CARTESIAN_POINT('',(40.,4.661516853933,36.327247191011));
#937 = DIRECTION('',(1.,0.,0.));
#938 = DIRECTION('',(0.,0.,1.));
#939 = ADVANCED_FACE('',(#940),#951,.T.);
#940 = FACE_BOUND('',#941,.T.);
#941 = EDGE_LOOP('',(#942,#943,#949,#950));
#942 = ORIENTED_EDGE('',*,*,#271,.T.);
#943 = ORIENTED_EDGE('',*,*,#944,.T.);
#944 = EDGE_CURVE('',#264,#369,#945,.T.);
#945 = LINE('',#946,#947);
#946 = CARTESIAN_POINT('',(-20.,-41.,31.3));
#947 = VECTOR('',#948,1.);
#948 = DIRECTION('',(-1.,-0.,-0.));
#949 = ORIENTED_EDGE('',*,*,#368,.F.);
#950 = ORIENTED_EDGE('',*,*,#327,.F.);
#951 = PLANE('',#952);
#952 = AXIS2_PLACEMENT_3D('',#953,#954,#955);
#953 = CARTESIAN_POINT('',(-1.7E-16,-41.,28.65));
#954 = DIRECTION('',(0.,-1.,9.4E-16));
#955 = DIRECTION('',(0.,-9.4E-16,-1.));
#956 = ADVANCED_FACE('',(#957),#991,.T.);
#957 = FACE_BOUND('',#958,.T.);
#958 = EDGE_LOOP('',(#959,#960,#961,#969,#977,#985));
#959 = ORIENTED_EDGE('',*,*,#255,.F.);
#960 = ORIENTED_EDGE('',*,*,#929,.T.);
#961 = ORIENTED_EDGE('',*,*,#962,.T.);
#962 = EDGE_CURVE('',#922,#963,#965,.T.);
#963 = VERTEX_POINT('',#964);
#964 = CARTESIAN_POINT('',(38.,18.,33.));
#965 = LINE('',#966,#967);
#966 = CARTESIAN_POINT('',(39.,18.,32.));
#967 = VECTOR('',#968,1.);
#968 = DIRECTION('',(-0.707106781187,0.,0.707106781187));
#969 = ORIENTED_EDGE('',*,*,#970,.F.);
#970 = EDGE_CURVE('',#971,#963,#973,.T.);
#971 = VERTEX_POINT('',#972);
#972 = CARTESIAN_POINT('',(38.,-20.,33.));
#973 = LINE('',#974,#975);
#974 = CARTESIAN_POINT('',(38.,-20.,33.));
#975 = VECTOR('',#976,1.);
#976 = DIRECTION('',(0.,1.,0.));
#977 = ORIENTED_EDGE('',*,*,#978,.F.);
#978 = EDGE_CURVE('',#979,#971,#981,.T.);
#979 = VERTEX_POINT('',#980);
#980 = CARTESIAN_POINT('',(39.7,-20.,31.3));
#981 = LINE('',#982,#983);
#982 = CARTESIAN_POINT('',(26.892471334497,-20.,44.107528665503));
#983 = VECTOR('',#984,1.);
#984 = DIRECTION('',(-0.707106781187,1.626345596729E-16,0.707106781187)
  );
#985 = ORIENTED_EDGE('',*,*,#986,.F.);
#986 = EDGE_CURVE('',#256,#979,#987,.T.);
#987 = LINE('',#988,#989);
#988 = CARTESIAN_POINT('',(39.7,-13.64868012422,31.3));
#989 = VECTOR('',#990,1.);
#990 = DIRECTION('',(0.,1.,0.));
#991 = PLANE('',#992);
#992 = AXIS2_PLACEMENT_3D('',#993,#994,#995);
#993 = CARTESIAN_POINT('',(39.,-20.,32.));
#994 = DIRECTION('',(0.707106781187,0.,0.707106781187));
#995 = DIRECTION('',(0.,1.,0.));
#996 = ADVANCED_FACE('',(#997,#1055,#1058,#1061,#1064),#1075,.T.);
#997 = FACE_BOUND('',#998,.T.);
#998 = EDGE_LOOP('',(#999,#1007,#1008,#1009,#1010,#1011,#1012,#1013,
    #1014,#1015,#1016,#1017,#1025,#1033,#1041,#1049));
#999 = ORIENTED_EDGE('',*,*,#1000,.F.);
#1000 = EDGE_CURVE('',#687,#1001,#1003,.T.);
#1001 = VERTEX_POINT('',#1002);
#1002 = CARTESIAN_POINT('',(-35.3,39.7,31.3));
#1003 = LINE('',#1004,#1005);
#1004 = CARTESIAN_POINT('',(-41.02368012422,33.976319875776,31.3));
#1005 = VECTOR('',#1006,1.);
#1006 = DIRECTION('',(0.707106781187,0.707106781187,0.));
#1007 = ORIENTED_EDGE('',*,*,#686,.T.);
#1008 = ORIENTED_EDGE('',*,*,#671,.T.);
#1009 = ORIENTED_EDGE('',*,*,#640,.T.);
#1010 = ORIENTED_EDGE('',*,*,#591,.F.);
#1011 = ORIENTED_EDGE('',*,*,#503,.F.);
#1012 = ORIENTED_EDGE('',*,*,#431,.F.);
#1013 = ORIENTED_EDGE('',*,*,#376,.F.);
#1014 = ORIENTED_EDGE('',*,*,#944,.F.);
#1015 = ORIENTED_EDGE('',*,*,#263,.F.);
#1016 = ORIENTED_EDGE('',*,*,#986,.T.);
#1017 = ORIENTED_EDGE('',*,*,#1018,.T.);
#1018 = EDGE_CURVE('',#979,#1019,#1021,.T.);
#1019 = VERTEX_POINT('',#1020);
#1020 = CARTESIAN_POINT('',(-19.75,-20.,31.3));
#1021 = LINE('',#1022,#1023);
#1022 = CARTESIAN_POINT('',(-20.,-20.,31.3));
#1023 = VECTOR('',#1024,1.);
#1024 = DIRECTION('',(-1.,-0.,-0.));
#1025 = ORIENTED_EDGE('',*,*,#1026,.F.);
#1026 = EDGE_CURVE('',#1027,#1019,#1029,.T.);
#1027 = VERTEX_POINT('',#1028);
#1028 = CARTESIAN_POINT('',(-19.75,25.,31.3));
#1029 = LINE('',#1030,#1031);
#1030 = CARTESIAN_POINT('',(-19.75,25.,31.3));
#1031 = VECTOR('',#1032,1.);
#1032 = DIRECTION('',(0.,-1.,0.));
#1033 = ORIENTED_EDGE('',*,*,#1034,.F.);
#1034 = EDGE_CURVE('',#1035,#1027,#1037,.T.);
#1035 = VERTEX_POINT('',#1036);
#1036 = CARTESIAN_POINT('',(-20.,25.,31.3));
#1037 = LINE('',#1038,#1039);
#1038 = CARTESIAN_POINT('',(-40.,25.,31.3));
#1039 = VECTOR('',#1040,1.);
#1040 = DIRECTION('',(1.,0.,0.));
#1041 = ORIENTED_EDGE('',*,*,#1042,.T.);
#1042 = EDGE_CURVE('',#1035,#1043,#1045,.T.);
#1043 = VERTEX_POINT('',#1044);
#1044 = CARTESIAN_POINT('',(-20.,39.7,31.3));
#1045 = LINE('',#1046,#1047);
#1046 = CARTESIAN_POINT('',(-20.,25.,31.3));
#1047 = VECTOR('',#1048,1.);
#1048 = DIRECTION('',(0.,1.,0.));
#1049 = ORIENTED_EDGE('',*,*,#1050,.F.);
#1050 = EDGE_CURVE('',#1001,#1043,#1051,.T.);
#1051 = LINE('',#1052,#1053);
#1052 = CARTESIAN_POINT('',(-13.39868012422,39.7,31.3));
#1053 = VECTOR('',#1054,1.);
#1054 = DIRECTION('',(1.,0.,0.));
#1055 = FACE_BOUND('',#1056,.T.);
#1056 = EDGE_LOOP('',(#1057));
#1057 = ORIENTED_EDGE('',*,*,#753,.T.);
#1058 = FACE_BOUND('',#1059,.T.);
#1059 = EDGE_LOOP('',(#1060));
#1060 = ORIENTED_EDGE('',*,*,#728,.T.);
#1061 = FACE_BOUND('',#1062,.T.);
#1062 = EDGE_LOOP('',(#1063));
#1063 = ORIENTED_EDGE('',*,*,#903,.T.);
#1064 = FACE_BOUND('',#1065,.T.);
#1065 = EDGE_LOOP('',(#1066));
#1066 = ORIENTED_EDGE('',*,*,#1067,.T.);
#1067 = EDGE_CURVE('',#1068,#1068,#1070,.T.);
#1068 = VERTEX_POINT('',#1069);
#1069 = CARTESIAN_POINT('',(-27.35,31.5,31.3));
#1070 = CIRCLE('',#1071,2.65);
#1071 = AXIS2_PLACEMENT_3D('',#1072,#1073,#1074);
#1072 = CARTESIAN_POINT('',(-30.,31.5,31.3));
#1073 = DIRECTION('',(0.,0.,-1.));
#1074 = DIRECTION('',(1.,0.,0.));
#1075 = PLANE('',#1076);
#1076 = AXIS2_PLACEMENT_3D('',#1077,#1078,#1079);
#1077 = CARTESIAN_POINT('',(-6.797360248447,-7.297360248447,31.3));
#1078 = DIRECTION('',(0.,0.,1.));
#1079 = DIRECTION('',(1.,0.,0.));
#1080 = ADVANCED_FACE('',(#1081),#1100,.T.);
#1081 = FACE_BOUND('',#1082,.F.);
#1082 = EDGE_LOOP('',(#1083,#1084,#1093,#1099));
#1083 = ORIENTED_EDGE('',*,*,#921,.F.);
#1084 = ORIENTED_EDGE('',*,*,#1085,.T.);
#1085 = EDGE_CURVE('',#922,#1086,#1088,.T.);
#1086 = VERTEX_POINT('',#1087);
#1087 = CARTESIAN_POINT('',(35.,23.,31.));
#1088 = CIRCLE('',#1089,5.);
#1089 = AXIS2_PLACEMENT_3D('',#1090,#1091,#1092);
#1090 = CARTESIAN_POINT('',(35.,18.,31.));
#1091 = DIRECTION('',(0.,0.,1.));
#1092 = DIRECTION('',(1.,0.,0.));
#1093 = ORIENTED_EDGE('',*,*,#1094,.T.);
#1094 = EDGE_CURVE('',#1086,#342,#1095,.T.);
#1095 = LINE('',#1096,#1097);
#1096 = CARTESIAN_POINT('',(35.,23.,33.));
#1097 = VECTOR('',#1098,1.);
#1098 = DIRECTION('',(0.,0.,-1.));
#1099 = ORIENTED_EDGE('',*,*,#351,.T.);
#1100 = CYLINDRICAL_SURFACE('',#1101,5.);
#1101 = AXIS2_PLACEMENT_3D('',#1102,#1103,#1104);
#1102 = CARTESIAN_POINT('',(35.,18.,33.));
#1103 = DIRECTION('',(0.,0.,-1.));
#1104 = DIRECTION('',(1.,0.,0.));
#1105 = ADVANCED_FACE('',(#1106),#1117,.T.);
#1106 = FACE_BOUND('',#1107,.T.);
#1107 = EDGE_LOOP('',(#1108,#1109,#1110,#1111));
#1108 = ORIENTED_EDGE('',*,*,#1094,.T.);
#1109 = ORIENTED_EDGE('',*,*,#408,.F.);
#1110 = ORIENTED_EDGE('',*,*,#464,.F.);
#1111 = ORIENTED_EDGE('',*,*,#1112,.F.);
#1112 = EDGE_CURVE('',#1086,#457,#1113,.T.);
#1113 = LINE('',#1114,#1115);
#1114 = CARTESIAN_POINT('',(35.,23.,31.));
#1115 = VECTOR('',#1116,1.);
#1116 = DIRECTION('',(-1.,-0.,-0.));
#1117 = PLANE('',#1118);
#1118 = AXIS2_PLACEMENT_3D('',#1119,#1120,#1121);
#1119 = CARTESIAN_POINT('',(27.,23.,29.5));
#1120 = DIRECTION('',(0.,1.,0.));
#1121 = DIRECTION('',(0.,0.,1.));
#1122 = ADVANCED_FACE('',(#1123),#1150,.T.);
#1123 = FACE_BOUND('',#1124,.F.);
#1124 = EDGE_LOOP('',(#1125,#1135,#1142,#1143));
#1125 = ORIENTED_EDGE('',*,*,#1126,.F.);
#1126 = EDGE_CURVE('',#1127,#1129,#1131,.T.);
#1127 = VERTEX_POINT('',#1128);
#1128 = CARTESIAN_POINT('',(9.,40.,17.85));
#1129 = VERTEX_POINT('',#1130);
#1130 = CARTESIAN_POINT('',(9.,40.,31.));
#1131 = LINE('',#1132,#1133);
#1132 = CARTESIAN_POINT('',(9.,40.,17.85));
#1133 = VECTOR('',#1134,1.);
#1134 = DIRECTION('',(0.,0.,1.));
#1135 = ORIENTED_EDGE('',*,*,#1136,.T.);
#1136 = EDGE_CURVE('',#1127,#447,#1137,.T.);
#1137 = CIRCLE('',#1138,5.);
#1138 = AXIS2_PLACEMENT_3D('',#1139,#1140,#1141);
#1139 = CARTESIAN_POINT('',(9.,35.,17.85));
#1140 = DIRECTION('',(-0.,-0.,-1.));
#1141 = DIRECTION('',(0.,-1.,0.));
#1142 = ORIENTED_EDGE('',*,*,#446,.T.);
#1143 = ORIENTED_EDGE('',*,*,#1144,.F.);
#1144 = EDGE_CURVE('',#1129,#449,#1145,.T.);
#1145 = CIRCLE('',#1146,5.);
#1146 = AXIS2_PLACEMENT_3D('',#1147,#1148,#1149);
#1147 = CARTESIAN_POINT('',(9.,35.,31.));
#1148 = DIRECTION('',(0.,0.,-1.));
#1149 = DIRECTION('',(0.,1.,0.));
#1150 = CYLINDRICAL_SURFACE('',#1151,5.);
#1151 = AXIS2_PLACEMENT_3D('',#1152,#1153,#1154);
#1152 = CARTESIAN_POINT('',(9.,35.,17.85));
#1153 = DIRECTION('',(0.,0.,1.));
#1154 = DIRECTION('',(0.,1.,0.));
#1155 = ADVANCED_FACE('',(#1156),#1181,.T.);
#1156 = FACE_BOUND('',#1157,.F.);
#1157 = EDGE_LOOP('',(#1158,#1166,#1167,#1175));
#1158 = ORIENTED_EDGE('',*,*,#1159,.F.);
#1159 = EDGE_CURVE('',#449,#1160,#1162,.T.);
#1160 = VERTEX_POINT('',#1161);
#1161 = CARTESIAN_POINT('',(12.,35.,33.));
#1162 = LINE('',#1163,#1164);
#1163 = CARTESIAN_POINT('',(14.,35.,31.));
#1164 = VECTOR('',#1165,1.);
#1165 = DIRECTION('',(-0.707106781187,-4.329780281177E-17,0.707106781187
    ));
#1166 = ORIENTED_EDGE('',*,*,#456,.T.);
#1167 = ORIENTED_EDGE('',*,*,#1168,.T.);
#1168 = EDGE_CURVE('',#457,#1169,#1171,.T.);
#1169 = VERTEX_POINT('',#1170);
#1170 = CARTESIAN_POINT('',(12.,21.,33.));
#1171 = LINE('',#1172,#1173);
#1172 = CARTESIAN_POINT('',(18.833333333333,27.833333333333,
    26.166666666667));
#1173 = VECTOR('',#1174,1.);
#1174 = DIRECTION('',(-0.57735026919,-0.57735026919,0.57735026919));
#1175 = ORIENTED_EDGE('',*,*,#1176,.F.);
#1176 = EDGE_CURVE('',#1160,#1169,#1177,.T.);
#1177 = LINE('',#1178,#1179);
#1178 = CARTESIAN_POINT('',(12.,35.,33.));
#1179 = VECTOR('',#1180,1.);
#1180 = DIRECTION('',(-0.,-1.,-0.));
#1181 = PLANE('',#1182);
#1182 = AXIS2_PLACEMENT_3D('',#1183,#1184,#1185);
#1183 = CARTESIAN_POINT('',(13.,35.,32.));
#1184 = DIRECTION('',(0.707106781187,0.,0.707106781187));
#1185 = DIRECTION('',(0.,1.,0.));
#1186 = ADVANCED_FACE('',(#1187,#1206),#1217,.F.);
#1187 = FACE_BOUND('',#1188,.F.);
#1188 = EDGE_LOOP('',(#1189,#1197,#1203,#1204,#1205));
#1189 = ORIENTED_EDGE('',*,*,#1190,.F.);
#1190 = EDGE_CURVE('',#1191,#1127,#1193,.T.);
#1191 = VERTEX_POINT('',#1192);
#1192 = CARTESIAN_POINT('',(-9.,40.,17.85));
#1193 = LINE('',#1194,#1195);
#1194 = CARTESIAN_POINT('',(-9.,40.,17.85));
#1195 = VECTOR('',#1196,1.);
#1196 = DIRECTION('',(1.,0.,0.));
#1197 = ORIENTED_EDGE('',*,*,#1198,.T.);
#1198 = EDGE_CURVE('',#1191,#559,#1199,.T.);
#1199 = LINE('',#1200,#1201);
#1200 = CARTESIAN_POINT('',(-9.,40.,17.85));
#1201 = VECTOR('',#1202,1.);
#1202 = DIRECTION('',(0.,-1.,2.2E-16));
#1203 = ORIENTED_EDGE('',*,*,#566,.T.);
#1204 = ORIENTED_EDGE('',*,*,#480,.F.);
#1205 = ORIENTED_EDGE('',*,*,#1136,.F.);
#1206 = FACE_BOUND('',#1207,.F.);
#1207 = EDGE_LOOP('',(#1208));
#1208 = ORIENTED_EDGE('',*,*,#1209,.F.);
#1209 = EDGE_CURVE('',#1210,#1210,#1212,.T.);
#1210 = VERTEX_POINT('',#1211);
#1211 = CARTESIAN_POINT('',(6.15,32.5,17.85));
#1212 = CIRCLE('',#1213,2.65);
#1213 = AXIS2_PLACEMENT_3D('',#1214,#1215,#1216);
#1214 = CARTESIAN_POINT('',(3.5,32.5,17.85));
#1215 = DIRECTION('',(0.,0.,1.));
#1216 = DIRECTION('',(1.,0.,0.));
#1217 = PLANE('',#1218);
#1218 = AXIS2_PLACEMENT_3D('',#1219,#1220,#1221);
#1219 = CARTESIAN_POINT('',(-9.,40.,17.85));
#1220 = DIRECTION('',(0.,2.2E-16,1.));
#1221 = DIRECTION('',(1.,0.,0.));
#1222 = ADVANCED_FACE('',(#1223),#1241,.T.);
#1223 = FACE_BOUND('',#1224,.T.);
#1224 = EDGE_LOOP('',(#1225,#1233,#1234,#1235));
#1225 = ORIENTED_EDGE('',*,*,#1226,.T.);
#1226 = EDGE_CURVE('',#1227,#527,#1229,.T.);
#1227 = VERTEX_POINT('',#1228);
#1228 = CARTESIAN_POINT('',(12.,25.,-3.7));
#1229 = LINE('',#1230,#1231);
#1230 = CARTESIAN_POINT('',(13.333333333333,23.666666666667,
    -2.366666666667));
#1231 = VECTOR('',#1232,1.);
#1232 = DIRECTION('',(0.57735026919,-0.57735026919,0.57735026919));
#1233 = ORIENTED_EDGE('',*,*,#526,.T.);
#1234 = ORIENTED_EDGE('',*,*,#616,.T.);
#1235 = ORIENTED_EDGE('',*,*,#1236,.F.);
#1236 = EDGE_CURVE('',#1227,#607,#1237,.T.);
#1237 = LINE('',#1238,#1239);
#1238 = CARTESIAN_POINT('',(14.,25.,-3.7));
#1239 = VECTOR('',#1240,1.);
#1240 = DIRECTION('',(-1.,-0.,-0.));
#1241 = PLANE('',#1242);
#1242 = AXIS2_PLACEMENT_3D('',#1243,#1244,#1245);
#1243 = CARTESIAN_POINT('',(14.,24.,-2.7));
#1244 = DIRECTION('',(0.,-0.707106781187,-0.707106781187));
#1245 = DIRECTION('',(-1.,0.,0.));
#1246 = ADVANCED_FACE('',(#1247),#1272,.T.);
#1247 = FACE_BOUND('',#1248,.T.);
#1248 = EDGE_LOOP('',(#1249,#1259,#1265,#1266));
#1249 = ORIENTED_EDGE('',*,*,#1250,.F.);
#1250 = EDGE_CURVE('',#1251,#1253,#1255,.T.);
#1251 = VERTEX_POINT('',#1252);
#1252 = CARTESIAN_POINT('',(14.,35.,0.45));
#1253 = VERTEX_POINT('',#1254);
#1254 = CARTESIAN_POINT('',(14.,35.,-1.7));
#1255 = LINE('',#1256,#1257);
#1256 = CARTESIAN_POINT('',(14.,35.,2.45));
#1257 = VECTOR('',#1258,1.);
#1258 = DIRECTION('',(0.,0.,-1.));
#1259 = ORIENTED_EDGE('',*,*,#1260,.F.);
#1260 = EDGE_CURVE('',#535,#1251,#1261,.T.);
#1261 = LINE('',#1262,#1263);
#1262 = CARTESIAN_POINT('',(14.,23.,0.45));
#1263 = VECTOR('',#1264,1.);
#1264 = DIRECTION('',(0.,1.,-2.2E-16));
#1265 = ORIENTED_EDGE('',*,*,#534,.T.);
#1266 = ORIENTED_EDGE('',*,*,#1267,.T.);
#1267 = EDGE_CURVE('',#527,#1253,#1268,.T.);
#1268 = LINE('',#1269,#1270);
#1269 = CARTESIAN_POINT('',(14.,23.,-1.7));
#1270 = VECTOR('',#1271,1.);
#1271 = DIRECTION('',(0.,1.,0.));
#1272 = PLANE('',#1273);
#1273 = AXIS2_PLACEMENT_3D('',#1274,#1275,#1276);
#1274 = CARTESIAN_POINT('',(14.,31.5,-0.625));
#1275 = DIRECTION('',(1.,0.,2.4E-16));
#1276 = DIRECTION('',(-2.4E-16,0.,1.));
#1277 = ADVANCED_FACE('',(#1278),#1296,.F.);
#1278 = FACE_BOUND('',#1279,.F.);
#1279 = EDGE_LOOP('',(#1280,#1281,#1289,#1295));
#1280 = ORIENTED_EDGE('',*,*,#542,.F.);
#1281 = ORIENTED_EDGE('',*,*,#1282,.T.);
#1282 = EDGE_CURVE('',#543,#1283,#1285,.T.);
#1283 = VERTEX_POINT('',#1284);
#1284 = CARTESIAN_POINT('',(12.,35.,2.45));
#1285 = LINE('',#1286,#1287);
#1286 = CARTESIAN_POINT('',(12.,23.,2.45));
#1287 = VECTOR('',#1288,1.);
#1288 = DIRECTION('',(0.,1.,-2.2E-16));
#1289 = ORIENTED_EDGE('',*,*,#1290,.T.);
#1290 = EDGE_CURVE('',#1283,#1251,#1291,.T.);
#1291 = LINE('',#1292,#1293);
#1292 = CARTESIAN_POINT('',(13.,35.,1.45));
#1293 = VECTOR('',#1294,1.);
#1294 = DIRECTION('',(0.707106781187,-1.55563491861E-16,-0.707106781187)
  );
#1295 = ORIENTED_EDGE('',*,*,#1260,.F.);
#1296 = PLANE('',#1297);
#1297 = AXIS2_PLACEMENT_3D('',#1298,#1299,#1300);
#1298 = CARTESIAN_POINT('',(13.,23.,1.45));
#1299 = DIRECTION('',(-0.707106781187,-1.442222014788E-16,
    -0.707106781187));
#1300 = DIRECTION('',(8.019503336711E-18,1.,-2.119804966633E-16));
#1301 = ADVANCED_FACE('',(#1302,#1329),#1340,.F.);
#1302 = FACE_BOUND('',#1303,.F.);
#1303 = EDGE_LOOP('',(#1304,#1305,#1313,#1321,#1328));
#1304 = ORIENTED_EDGE('',*,*,#550,.T.);
#1305 = ORIENTED_EDGE('',*,*,#1306,.F.);
#1306 = EDGE_CURVE('',#1307,#551,#1309,.T.);
#1307 = VERTEX_POINT('',#1308);
#1308 = CARTESIAN_POINT('',(-9.,38.,2.45));
#1309 = LINE('',#1310,#1311);
#1310 = CARTESIAN_POINT('',(-9.,40.,2.45));
#1311 = VECTOR('',#1312,1.);
#1312 = DIRECTION('',(0.,-1.,2.2E-16));
#1313 = ORIENTED_EDGE('',*,*,#1314,.F.);
#1314 = EDGE_CURVE('',#1315,#1307,#1317,.T.);
#1315 = VERTEX_POINT('',#1316);
#1316 = CARTESIAN_POINT('',(9.,38.,2.45));
#1317 = LINE('',#1318,#1319);
#1318 = CARTESIAN_POINT('',(9.,38.,2.45));
#1319 = VECTOR('',#1320,1.);
#1320 = DIRECTION('',(-1.,0.,0.));
#1321 = ORIENTED_EDGE('',*,*,#1322,.F.);
#1322 = EDGE_CURVE('',#1283,#1315,#1323,.T.);
#1323 = CIRCLE('',#1324,3.);
#1324 = AXIS2_PLACEMENT_3D('',#1325,#1326,#1327);
#1325 = CARTESIAN_POINT('',(9.,35.,2.45));
#1326 = DIRECTION('',(0.,2.2E-16,1.));
#1327 = DIRECTION('',(1.,-1.95399252334E-32,4.298783551349E-48));
#1328 = ORIENTED_EDGE('',*,*,#1282,.F.);
#1329 = FACE_BOUND('',#1330,.F.);
#1330 = EDGE_LOOP('',(#1331));
#1331 = ORIENTED_EDGE('',*,*,#1332,.T.);
#1332 = EDGE_CURVE('',#1333,#1333,#1335,.T.);
#1333 = VERTEX_POINT('',#1334);
#1334 = CARTESIAN_POINT('',(6.15,32.5,2.45));
#1335 = CIRCLE('',#1336,2.65);
#1336 = AXIS2_PLACEMENT_3D('',#1337,#1338,#1339);
#1337 = CARTESIAN_POINT('',(3.5,32.5,2.45));
#1338 = DIRECTION('',(0.,0.,1.));
#1339 = DIRECTION('',(1.,0.,0.));
#1340 = PLANE('',#1341);
#1341 = AXIS2_PLACEMENT_3D('',#1342,#1343,#1344);
#1342 = CARTESIAN_POINT('',(14.,40.,2.45));
#1343 = DIRECTION('',(-0.,-2.2E-16,-1.));
#1344 = DIRECTION('',(-1.,0.,0.));
#1345 = ADVANCED_FACE('',(#1346),#1365,.F.);
#1346 = FACE_BOUND('',#1347,.F.);
#1347 = EDGE_LOOP('',(#1348,#1349,#1350,#1351,#1359));
#1348 = ORIENTED_EDGE('',*,*,#1306,.T.);
#1349 = ORIENTED_EDGE('',*,*,#558,.T.);
#1350 = ORIENTED_EDGE('',*,*,#1198,.F.);
#1351 = ORIENTED_EDGE('',*,*,#1352,.T.);
#1352 = EDGE_CURVE('',#1191,#1353,#1355,.T.);
#1353 = VERTEX_POINT('',#1354);
#1354 = CARTESIAN_POINT('',(-9.,40.,0.45));
#1355 = LINE('',#1356,#1357);
#1356 = CARTESIAN_POINT('',(-9.,40.,8.020096745822));
#1357 = VECTOR('',#1358,1.);
#1358 = DIRECTION('',(0.,0.,-1.));
#1359 = ORIENTED_EDGE('',*,*,#1360,.F.);
#1360 = EDGE_CURVE('',#1307,#1353,#1361,.T.);
#1361 = LINE('',#1362,#1363);
#1362 = CARTESIAN_POINT('',(-9.,39.,1.45));
#1363 = VECTOR('',#1364,1.);
#1364 = DIRECTION('',(0.,0.707106781187,-0.707106781187));
#1365 = PLANE('',#1366);
#1366 = AXIS2_PLACEMENT_3D('',#1367,#1368,#1369);
#1367 = CARTESIAN_POINT('',(-9.,40.,2.45));
#1368 = DIRECTION('',(-1.,0.,0.));
#1369 = DIRECTION('',(0.,2.2E-16,1.));
#1370 = ADVANCED_FACE('',(#1371,#1407,#1418),#1429,.T.);
#1371 = FACE_BOUND('',#1372,.T.);
#1372 = EDGE_LOOP('',(#1373,#1381,#1389,#1398,#1404,#1405,#1406));
#1373 = ORIENTED_EDGE('',*,*,#1374,.T.);
#1374 = EDGE_CURVE('',#695,#1375,#1377,.T.);
#1375 = VERTEX_POINT('',#1376);
#1376 = CARTESIAN_POINT('',(-37.,38.,-3.7));
#1377 = LINE('',#1378,#1379);
#1378 = CARTESIAN_POINT('',(-32.875,42.125,-3.7));
#1379 = VECTOR('',#1380,1.);
#1380 = DIRECTION('',(0.707106781187,0.707106781187,0.));
#1381 = ORIENTED_EDGE('',*,*,#1382,.F.);
#1382 = EDGE_CURVE('',#1383,#1375,#1385,.T.);
#1383 = VERTEX_POINT('',#1384);
#1384 = CARTESIAN_POINT('',(9.,38.,-3.7));
#1385 = LINE('',#1386,#1387);
#1386 = CARTESIAN_POINT('',(9.,38.,-3.7));
#1387 = VECTOR('',#1388,1.);
#1388 = DIRECTION('',(-1.,0.,0.));
#1389 = ORIENTED_EDGE('',*,*,#1390,.F.);
#1390 = EDGE_CURVE('',#1391,#1383,#1393,.T.);
#1391 = VERTEX_POINT('',#1392);
#1392 = CARTESIAN_POINT('',(12.,35.,-3.7));
#1393 = CIRCLE('',#1394,3.);
#1394 = AXIS2_PLACEMENT_3D('',#1395,#1396,#1397);
#1395 = CARTESIAN_POINT('',(9.,35.,-3.7));
#1396 = DIRECTION('',(0.,0.,1.));
#1397 = DIRECTION('',(1.,0.,0.));
#1398 = ORIENTED_EDGE('',*,*,#1399,.F.);
#1399 = EDGE_CURVE('',#1227,#1391,#1400,.T.);
#1400 = LINE('',#1401,#1402);
#1401 = CARTESIAN_POINT('',(12.,23.,-3.7));
#1402 = VECTOR('',#1403,1.);
#1403 = DIRECTION('',(0.,1.,0.));
#1404 = ORIENTED_EDGE('',*,*,#1236,.T.);
#1405 = ORIENTED_EDGE('',*,*,#606,.T.);
#1406 = ORIENTED_EDGE('',*,*,#702,.F.);
#1407 = FACE_BOUND('',#1408,.T.);
#1408 = EDGE_LOOP('',(#1409));
#1409 = ORIENTED_EDGE('',*,*,#1410,.F.);
#1410 = EDGE_CURVE('',#1411,#1411,#1413,.T.);
#1411 = VERTEX_POINT('',#1412);
#1412 = CARTESIAN_POINT('',(-25.5,31.5,-3.7));
#1413 = CIRCLE('',#1414,4.5);
#1414 = AXIS2_PLACEMENT_3D('',#1415,#1416,#1417);
#1415 = CARTESIAN_POINT('',(-30.,31.5,-3.7));
#1416 = DIRECTION('',(0.,0.,-1.));
#1417 = DIRECTION('',(1.,0.,0.));
#1418 = FACE_BOUND('',#1419,.T.);
#1419 = EDGE_LOOP('',(#1420));
#1420 = ORIENTED_EDGE('',*,*,#1421,.F.);
#1421 = EDGE_CURVE('',#1422,#1422,#1424,.T.);
#1422 = VERTEX_POINT('',#1423);
#1423 = CARTESIAN_POINT('',(8.,32.5,-3.7));
#1424 = CIRCLE('',#1425,4.5);
#1425 = AXIS2_PLACEMENT_3D('',#1426,#1427,#1428);
#1426 = CARTESIAN_POINT('',(3.5,32.5,-3.7));
#1427 = DIRECTION('',(0.,0.,-1.));
#1428 = DIRECTION('',(1.,0.,0.));
#1429 = PLANE('',#1430);
#1430 = AXIS2_PLACEMENT_3D('',#1431,#1432,#1433);
#1431 = CARTESIAN_POINT('',(-13.,31.5,-3.7));
#1432 = DIRECTION('',(-0.,-0.,-1.));
#1433 = DIRECTION('',(-1.,0.,0.));
#1434 = ADVANCED_FACE('',(#1435),#1462,.T.);
#1435 = FACE_BOUND('',#1436,.F.);
#1436 = EDGE_LOOP('',(#1437,#1438,#1439,#1440,#1448,#1456));
#1437 = ORIENTED_EDGE('',*,*,#1000,.F.);
#1438 = ORIENTED_EDGE('',*,*,#694,.T.);
#1439 = ORIENTED_EDGE('',*,*,#1374,.T.);
#1440 = ORIENTED_EDGE('',*,*,#1441,.T.);
#1441 = EDGE_CURVE('',#1375,#1442,#1444,.T.);
#1442 = VERTEX_POINT('',#1443);
#1443 = CARTESIAN_POINT('',(-35.,40.,-1.7));
#1444 = LINE('',#1445,#1446);
#1445 = CARTESIAN_POINT('',(-23.33333333333,51.666666666667,
    9.966666666667));
#1446 = VECTOR('',#1447,1.);
#1447 = DIRECTION('',(0.57735026919,0.57735026919,0.57735026919));
#1448 = ORIENTED_EDGE('',*,*,#1449,.F.);
#1449 = EDGE_CURVE('',#1450,#1442,#1452,.T.);
#1450 = VERTEX_POINT('',#1451);
#1451 = CARTESIAN_POINT('',(-35.,40.,31.));
#1452 = LINE('',#1453,#1454);
#1453 = CARTESIAN_POINT('',(-35.,40.,31.3));
#1454 = VECTOR('',#1455,1.);
#1455 = DIRECTION('',(0.,0.,-1.));
#1456 = ORIENTED_EDGE('',*,*,#1457,.T.);
#1457 = EDGE_CURVE('',#1450,#1001,#1458,.T.);
#1458 = LINE('',#1459,#1460);
#1459 = CARTESIAN_POINT('',(-33.71666666666,41.283333333333,
    29.716666666667));
#1460 = VECTOR('',#1461,1.);
#1461 = DIRECTION('',(-0.57735026919,-0.57735026919,0.57735026919));
#1462 = PLANE('',#1463);
#1463 = AXIS2_PLACEMENT_3D('',#1464,#1465,#1466);
#1464 = CARTESIAN_POINT('',(-37.5,37.5,31.3));
#1465 = DIRECTION('',(-0.707106781187,0.707106781187,0.));
#1466 = DIRECTION('',(0.,0.,1.));
#1467 = ADVANCED_FACE('',(#1468,#1534,#1537,#1548,#1551,#1554,#1565),
  #1568,.T.);
#1468 = FACE_BOUND('',#1469,.T.);
#1469 = EDGE_LOOP('',(#1470,#1480,#1488,#1496,#1502,#1503,#1512,#1518,
    #1519,#1528));
#1470 = ORIENTED_EDGE('',*,*,#1471,.F.);
#1471 = EDGE_CURVE('',#1472,#1474,#1476,.T.);
#1472 = VERTEX_POINT('',#1473);
#1473 = CARTESIAN_POINT('',(-20.,25.,33.));
#1474 = VERTEX_POINT('',#1475);
#1475 = CARTESIAN_POINT('',(-20.,38.,33.));
#1476 = LINE('',#1477,#1478);
#1477 = CARTESIAN_POINT('',(-20.,25.,33.));
#1478 = VECTOR('',#1479,1.);
#1479 = DIRECTION('',(0.,1.,0.));
#1480 = ORIENTED_EDGE('',*,*,#1481,.F.);
#1481 = EDGE_CURVE('',#1482,#1472,#1484,.T.);
#1482 = VERTEX_POINT('',#1483);
#1483 = CARTESIAN_POINT('',(-19.75,25.,33.));
#1484 = LINE('',#1485,#1486);
#1485 = CARTESIAN_POINT('',(-20.,25.,33.));
#1486 = VECTOR('',#1487,1.);
#1487 = DIRECTION('',(-1.,-0.,-0.));
#1488 = ORIENTED_EDGE('',*,*,#1489,.T.);
#1489 = EDGE_CURVE('',#1482,#1490,#1492,.T.);
#1490 = VERTEX_POINT('',#1491);
#1491 = CARTESIAN_POINT('',(-19.75,-20.,33.));
#1492 = LINE('',#1493,#1494);
#1493 = CARTESIAN_POINT('',(-19.75,1.25,33.));
#1494 = VECTOR('',#1495,1.);
#1495 = DIRECTION('',(0.,-1.,0.));
#1496 = ORIENTED_EDGE('',*,*,#1497,.F.);
#1497 = EDGE_CURVE('',#971,#1490,#1498,.T.);
#1498 = LINE('',#1499,#1500);
#1499 = CARTESIAN_POINT('',(4.97133449651E-03,-20.,33.));
#1500 = VECTOR('',#1501,1.);
#1501 = DIRECTION('',(-1.,0.,0.));
#1502 = ORIENTED_EDGE('',*,*,#970,.T.);
#1503 = ORIENTED_EDGE('',*,*,#1504,.T.);
#1504 = EDGE_CURVE('',#963,#1505,#1507,.T.);
#1505 = VERTEX_POINT('',#1506);
#1506 = CARTESIAN_POINT('',(35.,21.,33.));
#1507 = CIRCLE('',#1508,3.);
#1508 = AXIS2_PLACEMENT_3D('',#1509,#1510,#1511);
#1509 = CARTESIAN_POINT('',(35.,18.,33.));
#1510 = DIRECTION('',(0.,0.,1.));
#1511 = DIRECTION('',(1.,0.,0.));
#1512 = ORIENTED_EDGE('',*,*,#1513,.T.);
#1513 = EDGE_CURVE('',#1505,#1169,#1514,.T.);
#1514 = LINE('',#1515,#1516);
#1515 = CARTESIAN_POINT('',(35.,21.,33.));
#1516 = VECTOR('',#1517,1.);
#1517 = DIRECTION('',(-1.,-0.,-0.));
#1518 = ORIENTED_EDGE('',*,*,#1176,.F.);
#1519 = ORIENTED_EDGE('',*,*,#1520,.F.);
#1520 = EDGE_CURVE('',#1521,#1160,#1523,.T.);
#1521 = VERTEX_POINT('',#1522);
#1522 = CARTESIAN_POINT('',(9.,38.,33.));
#1523 = CIRCLE('',#1524,3.);
#1524 = AXIS2_PLACEMENT_3D('',#1525,#1526,#1527);
#1525 = CARTESIAN_POINT('',(9.,35.,33.));
#1526 = DIRECTION('',(0.,0.,-1.));
#1527 = DIRECTION('',(0.,1.,0.));
#1528 = ORIENTED_EDGE('',*,*,#1529,.F.);
#1529 = EDGE_CURVE('',#1474,#1521,#1530,.T.);
#1530 = LINE('',#1531,#1532);
#1531 = CARTESIAN_POINT('',(-20.,38.,33.));
#1532 = VECTOR('',#1533,1.);
#1533 = DIRECTION('',(1.,0.,0.));
#1534 = FACE_BOUND('',#1535,.T.);
#1535 = EDGE_LOOP('',(#1536));
#1536 = ORIENTED_EDGE('',*,*,#794,.F.);
#1537 = FACE_BOUND('',#1538,.T.);
#1538 = EDGE_LOOP('',(#1539));
#1539 = ORIENTED_EDGE('',*,*,#1540,.F.);
#1540 = EDGE_CURVE('',#1541,#1541,#1543,.T.);
#1541 = VERTEX_POINT('',#1542);
#1542 = CARTESIAN_POINT('',(25.65,-0.65,33.));
#1543 = CIRCLE('',#1544,14.5);
#1544 = AXIS2_PLACEMENT_3D('',#1545,#1546,#1547);
#1545 = CARTESIAN_POINT('',(11.15,-0.65,33.));
#1546 = DIRECTION('',(0.,-0.,1.));
#1547 = DIRECTION('',(1.,2.896233977283E-17,0.));
#1548 = FACE_BOUND('',#1549,.T.);
#1549 = EDGE_LOOP('',(#1550));
#1550 = ORIENTED_EDGE('',*,*,#769,.F.);
#1551 = FACE_BOUND('',#1552,.T.);
#1552 = EDGE_LOOP('',(#1553));
#1553 = ORIENTED_EDGE('',*,*,#869,.F.);
#1554 = FACE_BOUND('',#1555,.T.);
#1555 = EDGE_LOOP('',(#1556));
#1556 = ORIENTED_EDGE('',*,*,#1557,.F.);
#1557 = EDGE_CURVE('',#1558,#1558,#1560,.T.);
#1558 = VERTEX_POINT('',#1559);
#1559 = CARTESIAN_POINT('',(8.,32.5,33.));
#1560 = CIRCLE('',#1561,4.5);
#1561 = AXIS2_PLACEMENT_3D('',#1562,#1563,#1564);
#1562 = CARTESIAN_POINT('',(3.5,32.5,33.));
#1563 = DIRECTION('',(0.,0.,1.));
#1564 = DIRECTION('',(1.,0.,0.));
#1565 = FACE_BOUND('',#1566,.T.);
#1566 = EDGE_LOOP('',(#1567));
#1567 = ORIENTED_EDGE('',*,*,#844,.F.);
#1568 = PLANE('',#1569);
#1569 = AXIS2_PLACEMENT_3D('',#1570,#1571,#1572);
#1570 = CARTESIAN_POINT('',(8.421875,8.421875,33.));
#1571 = DIRECTION('',(0.,0.,1.));
#1572 = DIRECTION('',(1.,0.,0.));
#1573 = ADVANCED_FACE('',(#1574),#1585,.F.);
#1574 = FACE_BOUND('',#1575,.F.);
#1575 = EDGE_LOOP('',(#1576,#1582,#1583,#1584));
#1576 = ORIENTED_EDGE('',*,*,#1577,.F.);
#1577 = EDGE_CURVE('',#820,#1541,#1578,.T.);
#1578 = LINE('',#1579,#1580);
#1579 = CARTESIAN_POINT('',(22.65,-0.65,30.));
#1580 = VECTOR('',#1581,1.);
#1581 = DIRECTION('',(0.707106781187,2.04794668524E-17,0.707106781187));
#1582 = ORIENTED_EDGE('',*,*,#827,.T.);
#1583 = ORIENTED_EDGE('',*,*,#1577,.T.);
#1584 = ORIENTED_EDGE('',*,*,#1540,.F.);
#1585 = CONICAL_SURFACE('',#1586,11.5,0.785398163397);
#1586 = AXIS2_PLACEMENT_3D('',#1587,#1588,#1589);
#1587 = CARTESIAN_POINT('',(11.15,-0.65,30.));
#1588 = DIRECTION('',(0.,0.,1.));
#1589 = DIRECTION('',(1.,2.896233977283E-17,0.));
#1590 = ADVANCED_FACE('',(#1591),#1602,.T.);
#1591 = FACE_BOUND('',#1592,.T.);
#1592 = EDGE_LOOP('',(#1593,#1594,#1595,#1601));
#1593 = ORIENTED_EDGE('',*,*,#962,.F.);
#1594 = ORIENTED_EDGE('',*,*,#1085,.T.);
#1595 = ORIENTED_EDGE('',*,*,#1596,.T.);
#1596 = EDGE_CURVE('',#1086,#1505,#1597,.T.);
#1597 = LINE('',#1598,#1599);
#1598 = CARTESIAN_POINT('',(35.,23.,31.));
#1599 = VECTOR('',#1600,1.);
#1600 = DIRECTION('',(-4.329780281177E-17,-0.707106781187,0.707106781187
    ));
#1601 = ORIENTED_EDGE('',*,*,#1504,.F.);
#1602 = CONICAL_SURFACE('',#1603,5.,0.785398163397);
#1603 = AXIS2_PLACEMENT_3D('',#1604,#1605,#1606);
#1604 = CARTESIAN_POINT('',(35.,18.,31.));
#1605 = DIRECTION('',(-0.,-0.,-1.));
#1606 = DIRECTION('',(1.,0.,0.));
#1607 = ADVANCED_FACE('',(#1608),#1619,.T.);
#1608 = FACE_BOUND('',#1609,.T.);
#1609 = EDGE_LOOP('',(#1610,#1611,#1612,#1613));
#1610 = ORIENTED_EDGE('',*,*,#1018,.F.);
#1611 = ORIENTED_EDGE('',*,*,#978,.T.);
#1612 = ORIENTED_EDGE('',*,*,#1497,.T.);
#1613 = ORIENTED_EDGE('',*,*,#1614,.F.);
#1614 = EDGE_CURVE('',#1019,#1490,#1615,.T.);
#1615 = LINE('',#1616,#1617);
#1616 = CARTESIAN_POINT('',(-19.75,-20.,31.3));
#1617 = VECTOR('',#1618,1.);
#1618 = DIRECTION('',(0.,0.,1.));
#1619 = PLANE('',#1620);
#1620 = AXIS2_PLACEMENT_3D('',#1621,#1622,#1623);
#1621 = CARTESIAN_POINT('',(9.942668993019E-03,-20.,41.440057331007));
#1622 = DIRECTION('',(0.,-1.,2.3E-16));
#1623 = DIRECTION('',(0.,-2.3E-16,-1.));
#1624 = ADVANCED_FACE('',(#1625),#1648,.T.);
#1625 = FACE_BOUND('',#1626,.F.);
#1626 = EDGE_LOOP('',(#1627,#1628,#1634,#1640,#1641,#1647));
#1627 = ORIENTED_EDGE('',*,*,#1457,.F.);
#1628 = ORIENTED_EDGE('',*,*,#1629,.T.);
#1629 = EDGE_CURVE('',#1450,#1129,#1630,.T.);
#1630 = LINE('',#1631,#1632);
#1631 = CARTESIAN_POINT('',(-20.,40.,31.));
#1632 = VECTOR('',#1633,1.);
#1633 = DIRECTION('',(1.,0.,0.));
#1634 = ORIENTED_EDGE('',*,*,#1635,.T.);
#1635 = EDGE_CURVE('',#1129,#1521,#1636,.T.);
#1636 = LINE('',#1637,#1638);
#1637 = CARTESIAN_POINT('',(9.,39.,32.));
#1638 = VECTOR('',#1639,1.);
#1639 = DIRECTION('',(0.,-0.707106781187,0.707106781187));
#1640 = ORIENTED_EDGE('',*,*,#1529,.F.);
#1641 = ORIENTED_EDGE('',*,*,#1642,.F.);
#1642 = EDGE_CURVE('',#1043,#1474,#1643,.T.);
#1643 = LINE('',#1644,#1645);
#1644 = CARTESIAN_POINT('',(-20.,37.5,33.5));
#1645 = VECTOR('',#1646,1.);
#1646 = DIRECTION('',(0.,-0.707106781187,0.707106781187));
#1647 = ORIENTED_EDGE('',*,*,#1050,.F.);
#1648 = PLANE('',#1649);
#1649 = AXIS2_PLACEMENT_3D('',#1650,#1651,#1652);
#1650 = CARTESIAN_POINT('',(-20.,39.,32.));
#1651 = DIRECTION('',(0.,0.707106781187,0.707106781187));
#1652 = DIRECTION('',(-1.,-0.,-0.));
#1653 = ADVANCED_FACE('',(#1654),#1665,.T.);
#1654 = FACE_BOUND('',#1655,.T.);
#1655 = EDGE_LOOP('',(#1656,#1657,#1663,#1664));
#1656 = ORIENTED_EDGE('',*,*,#1042,.F.);
#1657 = ORIENTED_EDGE('',*,*,#1658,.T.);
#1658 = EDGE_CURVE('',#1035,#1472,#1659,.T.);
#1659 = LINE('',#1660,#1661);
#1660 = CARTESIAN_POINT('',(-20.,25.,24.));
#1661 = VECTOR('',#1662,1.);
#1662 = DIRECTION('',(0.,0.,1.));
#1663 = ORIENTED_EDGE('',*,*,#1471,.T.);
#1664 = ORIENTED_EDGE('',*,*,#1642,.F.);
#1665 = PLANE('',#1666);
#1666 = AXIS2_PLACEMENT_3D('',#1667,#1668,#1669);
#1667 = CARTESIAN_POINT('',(-20.,25.,24.));
#1668 = DIRECTION('',(-1.,0.,0.));
#1669 = DIRECTION('',(0.,1.,0.));
#1670 = ADVANCED_FACE('',(#1671),#1682,.T.);
#1671 = FACE_BOUND('',#1672,.T.);
#1672 = EDGE_LOOP('',(#1673,#1679,#1680,#1681));
#1673 = ORIENTED_EDGE('',*,*,#1674,.F.);
#1674 = EDGE_CURVE('',#1482,#1027,#1675,.T.);
#1675 = LINE('',#1676,#1677);
#1676 = CARTESIAN_POINT('',(-19.75,25.,51.6));
#1677 = VECTOR('',#1678,1.);
#1678 = DIRECTION('',(0.,0.,-1.));
#1679 = ORIENTED_EDGE('',*,*,#1481,.T.);
#1680 = ORIENTED_EDGE('',*,*,#1658,.F.);
#1681 = ORIENTED_EDGE('',*,*,#1034,.T.);
#1682 = PLANE('',#1683);
#1683 = AXIS2_PLACEMENT_3D('',#1684,#1685,#1686);
#1684 = CARTESIAN_POINT('',(14.,25.,24.));
#1685 = DIRECTION('',(0.,-1.,0.));
#1686 = DIRECTION('',(-1.,0.,0.));
#1687 = ADVANCED_FACE('',(#1688),#1694,.F.);
#1688 = FACE_BOUND('',#1689,.F.);
#1689 = EDGE_LOOP('',(#1690,#1691,#1692,#1693));
#1690 = ORIENTED_EDGE('',*,*,#1674,.F.);
#1691 = ORIENTED_EDGE('',*,*,#1489,.T.);
#1692 = ORIENTED_EDGE('',*,*,#1614,.F.);
#1693 = ORIENTED_EDGE('',*,*,#1026,.F.);
#1694 = PLANE('',#1695);
#1695 = AXIS2_PLACEMENT_3D('',#1696,#1697,#1698);
#1696 = CARTESIAN_POINT('',(-19.75,2.5,41.45));
#1697 = DIRECTION('',(1.,0.,0.));
#1698 = DIRECTION('',(0.,0.,1.));
#1699 = ADVANCED_FACE('',(#1700),#1719,.F.);
#1700 = FACE_BOUND('',#1701,.F.);
#1701 = EDGE_LOOP('',(#1702,#1711,#1717,#1718));
#1702 = ORIENTED_EDGE('',*,*,#1703,.F.);
#1703 = EDGE_CURVE('',#1704,#1704,#1706,.T.);
#1704 = VERTEX_POINT('',#1705);
#1705 = CARTESIAN_POINT('',(-27.35,31.5,9.3));
#1706 = CIRCLE('',#1707,2.65);
#1707 = AXIS2_PLACEMENT_3D('',#1708,#1709,#1710);
#1708 = CARTESIAN_POINT('',(-30.,31.5,9.3));
#1709 = DIRECTION('',(0.,0.,-1.));
#1710 = DIRECTION('',(1.,0.,0.));
#1711 = ORIENTED_EDGE('',*,*,#1712,.T.);
#1712 = EDGE_CURVE('',#1704,#1068,#1713,.T.);
#1713 = LINE('',#1714,#1715);
#1714 = CARTESIAN_POINT('',(-27.35,31.5,-3.7));
#1715 = VECTOR('',#1716,1.);
#1716 = DIRECTION('',(0.,0.,1.));
#1717 = ORIENTED_EDGE('',*,*,#1067,.T.);
#1718 = ORIENTED_EDGE('',*,*,#1712,.F.);
#1719 = CYLINDRICAL_SURFACE('',#1720,2.65);
#1720 = AXIS2_PLACEMENT_3D('',#1721,#1722,#1723);
#1721 = CARTESIAN_POINT('',(-30.,31.5,-3.7));
#1722 = DIRECTION('',(0.,0.,-1.));
#1723 = DIRECTION('',(1.,0.,0.));
#1724 = ADVANCED_FACE('',(#1725),#1731,.T.);
#1725 = FACE_BOUND('',#1726,.T.);
#1726 = EDGE_LOOP('',(#1727,#1728,#1729,#1730));
#1727 = ORIENTED_EDGE('',*,*,#1596,.F.);
#1728 = ORIENTED_EDGE('',*,*,#1112,.T.);
#1729 = ORIENTED_EDGE('',*,*,#1168,.T.);
#1730 = ORIENTED_EDGE('',*,*,#1513,.F.);
#1731 = PLANE('',#1732);
#1732 = AXIS2_PLACEMENT_3D('',#1733,#1734,#1735);
#1733 = CARTESIAN_POINT('',(35.,22.,32.));
#1734 = DIRECTION('',(0.,0.707106781187,0.707106781187));
#1735 = DIRECTION('',(-1.,0.,0.));
#1736 = ADVANCED_FACE('',(#1737),#1766,.T.);
#1737 = FACE_BOUND('',#1738,.T.);
#1738 = EDGE_LOOP('',(#1739,#1740,#1741,#1742,#1743,#1744,#1752,#1760));
#1739 = ORIENTED_EDGE('',*,*,#1449,.F.);
#1740 = ORIENTED_EDGE('',*,*,#1629,.T.);
#1741 = ORIENTED_EDGE('',*,*,#1126,.F.);
#1742 = ORIENTED_EDGE('',*,*,#1190,.F.);
#1743 = ORIENTED_EDGE('',*,*,#1352,.T.);
#1744 = ORIENTED_EDGE('',*,*,#1745,.F.);
#1745 = EDGE_CURVE('',#1746,#1353,#1748,.T.);
#1746 = VERTEX_POINT('',#1747);
#1747 = CARTESIAN_POINT('',(9.,40.,0.45));
#1748 = LINE('',#1749,#1750);
#1749 = CARTESIAN_POINT('',(9.,40.,0.45));
#1750 = VECTOR('',#1751,1.);
#1751 = DIRECTION('',(-1.,0.,0.));
#1752 = ORIENTED_EDGE('',*,*,#1753,.T.);
#1753 = EDGE_CURVE('',#1746,#1754,#1756,.T.);
#1754 = VERTEX_POINT('',#1755);
#1755 = CARTESIAN_POINT('',(9.,40.,-1.7));
#1756 = LINE('',#1757,#1758);
#1757 = CARTESIAN_POINT('',(9.,40.,2.45));
#1758 = VECTOR('',#1759,1.);
#1759 = DIRECTION('',(0.,0.,-1.));
#1760 = ORIENTED_EDGE('',*,*,#1761,.T.);
#1761 = EDGE_CURVE('',#1754,#1442,#1762,.T.);
#1762 = LINE('',#1763,#1764);
#1763 = CARTESIAN_POINT('',(9.,40.,-1.7));
#1764 = VECTOR('',#1765,1.);
#1765 = DIRECTION('',(-1.,0.,0.));
#1766 = PLANE('',#1767);
#1767 = AXIS2_PLACEMENT_3D('',#1768,#1769,#1770);
#1768 = CARTESIAN_POINT('',(-11.2726473175,40.,13.590193491645));
#1769 = DIRECTION('',(0.,1.,0.));
#1770 = DIRECTION('',(0.,0.,1.));
#1771 = ADVANCED_FACE('',(#1772),#1778,.T.);
#1772 = FACE_BOUND('',#1773,.F.);
#1773 = EDGE_LOOP('',(#1774,#1775,#1776,#1777));
#1774 = ORIENTED_EDGE('',*,*,#1635,.F.);
#1775 = ORIENTED_EDGE('',*,*,#1144,.T.);
#1776 = ORIENTED_EDGE('',*,*,#1159,.T.);
#1777 = ORIENTED_EDGE('',*,*,#1520,.F.);
#1778 = CONICAL_SURFACE('',#1779,5.,0.785398163397);
#1779 = AXIS2_PLACEMENT_3D('',#1780,#1781,#1782);
#1780 = CARTESIAN_POINT('',(9.,35.,31.));
#1781 = DIRECTION('',(-0.,-0.,-1.));
#1782 = DIRECTION('',(0.,1.,0.));
#1783 = ADVANCED_FACE('',(#1784),#1803,.F.);
#1784 = FACE_BOUND('',#1785,.F.);
#1785 = EDGE_LOOP('',(#1786,#1795,#1801,#1802));
#1786 = ORIENTED_EDGE('',*,*,#1787,.F.);
#1787 = EDGE_CURVE('',#1788,#1788,#1790,.T.);
#1788 = VERTEX_POINT('',#1789);
#1789 = CARTESIAN_POINT('',(6.15,32.5,22.));
#1790 = CIRCLE('',#1791,2.65);
#1791 = AXIS2_PLACEMENT_3D('',#1792,#1793,#1794);
#1792 = CARTESIAN_POINT('',(3.5,32.5,22.));
#1793 = DIRECTION('',(0.,0.,1.));
#1794 = DIRECTION('',(1.,0.,0.));
#1795 = ORIENTED_EDGE('',*,*,#1796,.T.);
#1796 = EDGE_CURVE('',#1788,#1210,#1797,.T.);
#1797 = LINE('',#1798,#1799);
#1798 = CARTESIAN_POINT('',(6.15,32.5,33.));
#1799 = VECTOR('',#1800,1.);
#1800 = DIRECTION('',(-0.,-0.,-1.));
#1801 = ORIENTED_EDGE('',*,*,#1209,.T.);
#1802 = ORIENTED_EDGE('',*,*,#1796,.F.);
#1803 = CYLINDRICAL_SURFACE('',#1804,2.65);
#1804 = AXIS2_PLACEMENT_3D('',#1805,#1806,#1807);
#1805 = CARTESIAN_POINT('',(3.5,32.5,33.));
#1806 = DIRECTION('',(0.,0.,1.));
#1807 = DIRECTION('',(1.,0.,0.));
#1808 = ADVANCED_FACE('',(#1809),#1820,.T.);
#1809 = FACE_BOUND('',#1810,.T.);
#1810 = EDGE_LOOP('',(#1811,#1812,#1813,#1819));
#1811 = ORIENTED_EDGE('',*,*,#1226,.F.);
#1812 = ORIENTED_EDGE('',*,*,#1399,.T.);
#1813 = ORIENTED_EDGE('',*,*,#1814,.T.);
#1814 = EDGE_CURVE('',#1391,#1253,#1815,.T.);
#1815 = LINE('',#1816,#1817);
#1816 = CARTESIAN_POINT('',(13.,35.,-2.7));
#1817 = VECTOR('',#1818,1.);
#1818 = DIRECTION('',(0.707106781187,0.,0.707106781187));
#1819 = ORIENTED_EDGE('',*,*,#1267,.F.);
#1820 = PLANE('',#1821);
#1821 = AXIS2_PLACEMENT_3D('',#1822,#1823,#1824);
#1822 = CARTESIAN_POINT('',(13.,23.,-2.7));
#1823 = DIRECTION('',(0.707106781187,0.,-0.707106781187));
#1824 = DIRECTION('',(0.,1.,0.));
#1825 = ADVANCED_FACE('',(#1826),#1844,.T.);
#1826 = FACE_BOUND('',#1827,.T.);
#1827 = EDGE_LOOP('',(#1828,#1829,#1836,#1837));
#1828 = ORIENTED_EDGE('',*,*,#1753,.F.);
#1829 = ORIENTED_EDGE('',*,*,#1830,.F.);
#1830 = EDGE_CURVE('',#1251,#1746,#1831,.T.);
#1831 = CIRCLE('',#1832,5.);
#1832 = AXIS2_PLACEMENT_3D('',#1833,#1834,#1835);
#1833 = CARTESIAN_POINT('',(9.,35.,0.45));
#1834 = DIRECTION('',(0.,2.2E-16,1.));
#1835 = DIRECTION('',(1.,-1.95399252334E-32,4.298783551349E-48));
#1836 = ORIENTED_EDGE('',*,*,#1250,.T.);
#1837 = ORIENTED_EDGE('',*,*,#1838,.T.);
#1838 = EDGE_CURVE('',#1253,#1754,#1839,.T.);
#1839 = CIRCLE('',#1840,5.);
#1840 = AXIS2_PLACEMENT_3D('',#1841,#1842,#1843);
#1841 = CARTESIAN_POINT('',(9.,35.,-1.7));
#1842 = DIRECTION('',(0.,0.,1.));
#1843 = DIRECTION('',(1.,0.,0.));
#1844 = CYLINDRICAL_SURFACE('',#1845,5.);
#1845 = AXIS2_PLACEMENT_3D('',#1846,#1847,#1848);
#1846 = CARTESIAN_POINT('',(9.,35.,2.45));
#1847 = DIRECTION('',(0.,0.,-1.));
#1848 = DIRECTION('',(0.,1.,0.));
#1849 = ADVANCED_FACE('',(#1850),#1861,.T.);
#1850 = FACE_BOUND('',#1851,.F.);
#1851 = EDGE_LOOP('',(#1852,#1853,#1854,#1860));
#1852 = ORIENTED_EDGE('',*,*,#1290,.F.);
#1853 = ORIENTED_EDGE('',*,*,#1322,.T.);
#1854 = ORIENTED_EDGE('',*,*,#1855,.T.);
#1855 = EDGE_CURVE('',#1315,#1746,#1856,.T.);
#1856 = LINE('',#1857,#1858);
#1857 = CARTESIAN_POINT('',(9.,40.,0.45));
#1858 = VECTOR('',#1859,1.);
#1859 = DIRECTION('',(4.329780281177E-17,0.707106781187,-0.707106781187)
  );
#1860 = ORIENTED_EDGE('',*,*,#1830,.F.);
#1861 = CONICAL_SURFACE('',#1862,5.,0.785398163397);
#1862 = AXIS2_PLACEMENT_3D('',#1863,#1864,#1865);
#1863 = CARTESIAN_POINT('',(9.,35.,0.45));
#1864 = DIRECTION('',(-0.,-2.2E-16,-1.));
#1865 = DIRECTION('',(1.,-1.95399252334E-32,4.298783551349E-48));
#1866 = ADVANCED_FACE('',(#1867),#1873,.F.);
#1867 = FACE_BOUND('',#1868,.F.);
#1868 = EDGE_LOOP('',(#1869,#1870,#1871,#1872));
#1869 = ORIENTED_EDGE('',*,*,#1855,.F.);
#1870 = ORIENTED_EDGE('',*,*,#1314,.T.);
#1871 = ORIENTED_EDGE('',*,*,#1360,.T.);
#1872 = ORIENTED_EDGE('',*,*,#1745,.F.);
#1873 = PLANE('',#1874);
#1874 = AXIS2_PLACEMENT_3D('',#1875,#1876,#1877);
#1875 = CARTESIAN_POINT('',(9.,39.,1.45));
#1876 = DIRECTION('',(2.884444029575E-17,-0.707106781187,-0.707106781187
    ));
#1877 = DIRECTION('',(-1.,-2.039609933266E-17,-2.039609933266E-17));
#1878 = ADVANCED_FACE('',(#1879),#1898,.F.);
#1879 = FACE_BOUND('',#1880,.F.);
#1880 = EDGE_LOOP('',(#1881,#1889,#1890,#1891));
#1881 = ORIENTED_EDGE('',*,*,#1882,.F.);
#1882 = EDGE_CURVE('',#1333,#1883,#1885,.T.);
#1883 = VERTEX_POINT('',#1884);
#1884 = CARTESIAN_POINT('',(6.15,32.5,-0.7));
#1885 = LINE('',#1886,#1887);
#1886 = CARTESIAN_POINT('',(6.15,32.5,33.));
#1887 = VECTOR('',#1888,1.);
#1888 = DIRECTION('',(-0.,-0.,-1.));
#1889 = ORIENTED_EDGE('',*,*,#1332,.F.);
#1890 = ORIENTED_EDGE('',*,*,#1882,.T.);
#1891 = ORIENTED_EDGE('',*,*,#1892,.T.);
#1892 = EDGE_CURVE('',#1883,#1883,#1893,.T.);
#1893 = CIRCLE('',#1894,2.65);
#1894 = AXIS2_PLACEMENT_3D('',#1895,#1896,#1897);
#1895 = CARTESIAN_POINT('',(3.5,32.5,-0.7));
#1896 = DIRECTION('',(0.,0.,1.));
#1897 = DIRECTION('',(1.,0.,0.));
#1898 = CYLINDRICAL_SURFACE('',#1899,2.65);
#1899 = AXIS2_PLACEMENT_3D('',#1900,#1901,#1902);
#1900 = CARTESIAN_POINT('',(3.5,32.5,33.));
#1901 = DIRECTION('',(0.,0.,1.));
#1902 = DIRECTION('',(1.,0.,0.));
#1903 = ADVANCED_FACE('',(#1904),#1915,.T.);
#1904 = FACE_BOUND('',#1905,.T.);
#1905 = EDGE_LOOP('',(#1906,#1912,#1913,#1914));
#1906 = ORIENTED_EDGE('',*,*,#1907,.F.);
#1907 = EDGE_CURVE('',#1383,#1754,#1908,.T.);
#1908 = LINE('',#1909,#1910);
#1909 = CARTESIAN_POINT('',(9.,40.,-1.7));
#1910 = VECTOR('',#1911,1.);
#1911 = DIRECTION('',(4.329780281177E-17,0.707106781187,0.707106781187)
  );
#1912 = ORIENTED_EDGE('',*,*,#1382,.T.);
#1913 = ORIENTED_EDGE('',*,*,#1441,.T.);
#1914 = ORIENTED_EDGE('',*,*,#1761,.F.);
#1915 = PLANE('',#1916);
#1916 = AXIS2_PLACEMENT_3D('',#1917,#1918,#1919);
#1917 = CARTESIAN_POINT('',(9.,39.,-2.7));
#1918 = DIRECTION('',(0.,0.707106781187,-0.707106781187));
#1919 = DIRECTION('',(-1.,0.,0.));
#1920 = ADVANCED_FACE('',(#1921),#1927,.T.);
#1921 = FACE_BOUND('',#1922,.T.);
#1922 = EDGE_LOOP('',(#1923,#1924,#1925,#1926));
#1923 = ORIENTED_EDGE('',*,*,#1814,.F.);
#1924 = ORIENTED_EDGE('',*,*,#1390,.T.);
#1925 = ORIENTED_EDGE('',*,*,#1907,.T.);
#1926 = ORIENTED_EDGE('',*,*,#1838,.F.);
#1927 = CONICAL_SURFACE('',#1928,5.,0.785398163397);
#1928 = AXIS2_PLACEMENT_3D('',#1929,#1930,#1931);
#1929 = CARTESIAN_POINT('',(9.,35.,-1.7));
#1930 = DIRECTION('',(0.,0.,1.));
#1931 = DIRECTION('',(1.,0.,0.));
#1932 = ADVANCED_FACE('',(#1933),#1951,.F.);
#1933 = FACE_BOUND('',#1934,.F.);
#1934 = EDGE_LOOP('',(#1935,#1936,#1943,#1950));
#1935 = ORIENTED_EDGE('',*,*,#1410,.F.);
#1936 = ORIENTED_EDGE('',*,*,#1937,.F.);
#1937 = EDGE_CURVE('',#1938,#1411,#1940,.T.);
#1938 = VERTEX_POINT('',#1939);
#1939 = CARTESIAN_POINT('',(-25.5,31.5,9.3));
#1940 = B_SPLINE_CURVE_WITH_KNOTS('',1,(#1941,#1942),.UNSPECIFIED.,.F.,
  .F.,(2,2),(-13.,0.),.PIECEWISE_BEZIER_KNOTS.);
#1941 = CARTESIAN_POINT('',(-25.5,31.5,9.3));
#1942 = CARTESIAN_POINT('',(-25.5,31.5,-3.7));
#1943 = ORIENTED_EDGE('',*,*,#1944,.T.);
#1944 = EDGE_CURVE('',#1938,#1938,#1945,.T.);
#1945 = CIRCLE('',#1946,4.5);
#1946 = AXIS2_PLACEMENT_3D('',#1947,#1948,#1949);
#1947 = CARTESIAN_POINT('',(-30.,31.5,9.3));
#1948 = DIRECTION('',(0.,0.,-1.));
#1949 = DIRECTION('',(1.,0.,0.));
#1950 = ORIENTED_EDGE('',*,*,#1937,.T.);
#1951 = CYLINDRICAL_SURFACE('',#1952,4.5);
#1952 = AXIS2_PLACEMENT_3D('',#1953,#1954,#1955);
#1953 = CARTESIAN_POINT('',(-30.,31.5,-3.7));
#1954 = DIRECTION('',(0.,0.,-1.));
#1955 = DIRECTION('',(1.,0.,0.));
#1956 = ADVANCED_FACE('',(#1957),#1976,.F.);
#1957 = FACE_BOUND('',#1958,.F.);
#1958 = EDGE_LOOP('',(#1959,#1967,#1974,#1975));
#1959 = ORIENTED_EDGE('',*,*,#1960,.T.);
#1960 = EDGE_CURVE('',#1422,#1961,#1963,.T.);
#1961 = VERTEX_POINT('',#1962);
#1962 = CARTESIAN_POINT('',(8.,32.5,-0.7));
#1963 = LINE('',#1964,#1965);
#1964 = CARTESIAN_POINT('',(8.,32.5,-3.7));
#1965 = VECTOR('',#1966,1.);
#1966 = DIRECTION('',(0.,0.,1.));
#1967 = ORIENTED_EDGE('',*,*,#1968,.T.);
#1968 = EDGE_CURVE('',#1961,#1961,#1969,.T.);
#1969 = CIRCLE('',#1970,4.5);
#1970 = AXIS2_PLACEMENT_3D('',#1971,#1972,#1973);
#1971 = CARTESIAN_POINT('',(3.5,32.5,-0.7));
#1972 = DIRECTION('',(0.,0.,-1.));
#1973 = DIRECTION('',(1.,0.,0.));
#1974 = ORIENTED_EDGE('',*,*,#1960,.F.);
#1975 = ORIENTED_EDGE('',*,*,#1421,.F.);
#1976 = CYLINDRICAL_SURFACE('',#1977,4.5);
#1977 = AXIS2_PLACEMENT_3D('',#1978,#1979,#1980);
#1978 = CARTESIAN_POINT('',(3.5,32.5,-3.7));
#1979 = DIRECTION('',(0.,0.,-1.));
#1980 = DIRECTION('',(1.,0.,0.));
#1981 = ADVANCED_FACE('',(#1982),#2001,.F.);
#1982 = FACE_BOUND('',#1983,.F.);
#1983 = EDGE_LOOP('',(#1984,#1992,#1999,#2000));
#1984 = ORIENTED_EDGE('',*,*,#1985,.T.);
#1985 = EDGE_CURVE('',#1558,#1986,#1988,.T.);
#1986 = VERTEX_POINT('',#1987);
#1987 = CARTESIAN_POINT('',(8.,32.5,22.));
#1988 = LINE('',#1989,#1990);
#1989 = CARTESIAN_POINT('',(8.,32.5,33.));
#1990 = VECTOR('',#1991,1.);
#1991 = DIRECTION('',(-0.,-0.,-1.));
#1992 = ORIENTED_EDGE('',*,*,#1993,.T.);
#1993 = EDGE_CURVE('',#1986,#1986,#1994,.T.);
#1994 = CIRCLE('',#1995,4.5);
#1995 = AXIS2_PLACEMENT_3D('',#1996,#1997,#1998);
#1996 = CARTESIAN_POINT('',(3.5,32.5,22.));
#1997 = DIRECTION('',(0.,0.,1.));
#1998 = DIRECTION('',(1.,0.,0.));
#1999 = ORIENTED_EDGE('',*,*,#1985,.F.);
#2000 = ORIENTED_EDGE('',*,*,#1557,.F.);
#2001 = CYLINDRICAL_SURFACE('',#2002,4.5);
#2002 = AXIS2_PLACEMENT_3D('',#2003,#2004,#2005);
#2003 = CARTESIAN_POINT('',(3.5,32.5,33.));
#2004 = DIRECTION('',(0.,0.,1.));
#2005 = DIRECTION('',(1.,0.,0.));
#2006 = ADVANCED_FACE('',(#2007,#2010),#2013,.F.);
#2007 = FACE_BOUND('',#2008,.F.);
#2008 = EDGE_LOOP('',(#2009));
#2009 = ORIENTED_EDGE('',*,*,#1944,.F.);
#2010 = FACE_BOUND('',#2011,.F.);
#2011 = EDGE_LOOP('',(#2012));
#2012 = ORIENTED_EDGE('',*,*,#1703,.T.);
#2013 = PLANE('',#2014);
#2014 = AXIS2_PLACEMENT_3D('',#2015,#2016,#2017);
#2015 = CARTESIAN_POINT('',(-30.,31.5,9.3));
#2016 = DIRECTION('',(0.,0.,1.));
#2017 = DIRECTION('',(1.,0.,0.));
#2018 = ADVANCED_FACE('',(#2019,#2022),#2025,.T.);
#2019 = FACE_BOUND('',#2020,.T.);
#2020 = EDGE_LOOP('',(#2021));
#2021 = ORIENTED_EDGE('',*,*,#1993,.T.);
#2022 = FACE_BOUND('',#2023,.T.);
#2023 = EDGE_LOOP('',(#2024));
#2024 = ORIENTED_EDGE('',*,*,#1787,.F.);
#2025 = PLANE('',#2026);
#2026 = AXIS2_PLACEMENT_3D('',#2027,#2028,#2029);
#2027 = CARTESIAN_POINT('',(3.5,32.5,22.));
#2028 = DIRECTION('',(0.,0.,1.));
#2029 = DIRECTION('',(1.,0.,0.));
#2030 = ADVANCED_FACE('',(#2031,#2034),#2037,.F.);
#2031 = FACE_BOUND('',#2032,.F.);
#2032 = EDGE_LOOP('',(#2033));
#2033 = ORIENTED_EDGE('',*,*,#1968,.F.);
#2034 = FACE_BOUND('',#2035,.F.);
#2035 = EDGE_LOOP('',(#2036));
#2036 = ORIENTED_EDGE('',*,*,#1892,.F.);
#2037 = PLANE('',#2038);
#2038 = AXIS2_PLACEMENT_3D('',#2039,#2040,#2041);
#2039 = CARTESIAN_POINT('',(3.5,32.5,-0.7));
#2040 = DIRECTION('',(0.,0.,1.));
#2041 = DIRECTION('',(1.,0.,0.));
#2042 = ( GEOMETRIC_REPRESENTATION_CONTEXT(3) 
GLOBAL_UNCERTAINTY_ASSIGNED_CONTEXT((#2046)) 
GLOBAL_UNIT_ASSIGNED_CONTEXT((#2043,#2044,#2045)) REPRESENTATION_CONTEXT
('Context #1','3D Context with UNIT and UNCERTAINTY') );
#2043 = ( LENGTH_UNIT() NAMED_UNIT(*) SI_UNIT(.MILLI.,.METRE.) );
#2044 = ( NAMED_UNIT(*) PLANE_ANGLE_UNIT() SI_UNIT($,.RADIAN.) );
#2045 = ( NAMED_UNIT(*) SI_UNIT($,.STERADIAN.) SOLID_ANGLE_UNIT() );
#2046 = UNCERTAINTY_MEASURE_WITH_UNIT(LENGTH_MEASURE(1.E-04),#2043,
  'distance_accuracy_value','confusion accuracy');
#2047 = PRODUCT_RELATED_PRODUCT_CATEGORY('part',$,(#7));
#2048 = MECHANICAL_DESIGN_GEOMETRIC_PRESENTATION_REPRESENTATION('',(
    #2049),#2042);
#2049 = STYLED_ITEM('color',(#2050),#15);
#2050 = PRESENTATION_STYLE_ASSIGNMENT((#2051,#2057));
#2051 = SURFACE_STYLE_USAGE(.BOTH.,#2052);
#2052 = SURFACE_SIDE_STYLE('',(#2053));
#2053 = SURFACE_STYLE_FILL_AREA(#2054);
#2054 = FILL_AREA_STYLE('',(#2055));
#2055 = FILL_AREA_STYLE_COLOUR('',#2056);
#2056 = COLOUR_RGB('',0.447058818107,0.474509808674,0.501960817233);
#2057 = CURVE_STYLE('',#2058,POSITIVE_LENGTH_MEASURE(0.1),#2059);
#2058 = DRAUGHTING_PRE_DEFINED_CURVE_FONT('continuous');
#2059 = COLOUR_RGB('',9.803921802644E-02,9.803921802644E-02,
  9.803921802644E-02);
ENDSEC;
END-ISO-10303-21;
