ISO-10303-21;
HEADER;
FILE_DESCRIPTION(('FreeCAD Model'),'2;1');
FILE_NAME('Open CASCADE Shape Model','2025-12-06T11:45:23',(''),(''),
  'Open CASCADE STEP processor 7.8','FreeCAD','Unknown');
FILE_SCHEMA(('AUTOMOTIVE_DESIGN { 1 0 10303 214 1 1 1 1 }'));
ENDSEC;
DATA;
#1 = APPLICATION_PROTOCOL_DEFINITION('international standard',
  'automotive_design',2000,#2);
#2 = APPLICATION_CONTEXT(
  'core data for automotive mechanical design processes');
#3 = SHAPE_DEFINITION_REPRESENTATION(#4,#10);
#4 = PRODUCT_DEFINITION_SHAPE('','',#5);
#5 = PRODUCT_DEFINITION('design','',#6,#9);
#6 = PRODUCT_DEFINITION_FORMATION('','',#7);
#7 = PRODUCT('mocowanie silnik tył Z v2','mocowanie silnik tył Z v2',
  '',(#8));
#8 = PRODUCT_CONTEXT('',#2,'mechanical');
#9 = PRODUCT_DEFINITION_CONTEXT('part definition',#2,'design');
#10 = ADVANCED_BREP_SHAPE_REPRESENTATION('',(#11,#15),#2070);
#11 = AXIS2_PLACEMENT_3D('',#12,#13,#14);
#12 = CARTESIAN_POINT('',(0.,0.,0.));
#13 = DIRECTION('',(0.,0.,1.));
#14 = DIRECTION('',(1.,0.,-0.));
#15 = MANIFOLD_SOLID_BREP('',#16);
#16 = CLOSED_SHELL('',(#17,#216,#241,#288,#312,#336,#376,#401,#425,#449,
    #508,#533,#557,#581,#621,#669,#686,#711,#736,#761,#786,#810,#834,
    #859,#876,#940,#1004,#1030,#1055,#1111,#1204,#1228,#1270,#1294,#1319
    ,#1353,#1365,#1382,#1402,#1422,#1442,#1462,#1482,#1502,#1589,#1606,
    #1680,#1697,#1709,#1726,#1738,#1755,#1772,#1796,#1820,#1837,#1854,
    #1871,#1894,#1914,#1931,#1948,#1965,#1982,#2004,#2025,#2042,#2054));
#17 = ADVANCED_FACE('',(#18,#29,#145,#156,#167,#178,#189,#200),#211,.T.
  );
#18 = FACE_BOUND('',#19,.T.);
#19 = EDGE_LOOP('',(#20));
#20 = ORIENTED_EDGE('',*,*,#21,.F.);
#21 = EDGE_CURVE('',#22,#22,#24,.T.);
#22 = VERTEX_POINT('',#23);
#23 = CARTESIAN_POINT('',(15.5,-42.5,10.));
#24 = CIRCLE('',#25,15.5);
#25 = AXIS2_PLACEMENT_3D('',#26,#27,#28);
#26 = CARTESIAN_POINT('',(0.,-42.5,10.));
#27 = DIRECTION('',(0.,0.,1.));
#28 = DIRECTION('',(1.,0.,0.));
#29 = FACE_BOUND('',#30,.T.);
#30 = EDGE_LOOP('',(#31,#41,#49,#57,#65,#73,#81,#89,#97,#105,#113,#122,
    #130,#139));
#31 = ORIENTED_EDGE('',*,*,#32,.F.);
#32 = EDGE_CURVE('',#33,#35,#37,.T.);
#33 = VERTEX_POINT('',#34);
#34 = CARTESIAN_POINT('',(22.,84.,10.));
#35 = VERTEX_POINT('',#36);
#36 = CARTESIAN_POINT('',(23.,83.,10.));
#37 = LINE('',#38,#39);
#38 = CARTESIAN_POINT('',(34.033223985656,71.966776014344,10.));
#39 = VECTOR('',#40,1.);
#40 = DIRECTION('',(0.707106781187,-0.707106781187,0.));
#41 = ORIENTED_EDGE('',*,*,#42,.T.);
#42 = EDGE_CURVE('',#33,#43,#45,.T.);
#43 = VERTEX_POINT('',#44);
#44 = CARTESIAN_POINT('',(-22.,84.,10.));
#45 = LINE('',#46,#47);
#46 = CARTESIAN_POINT('',(21.,84.,10.));
#47 = VECTOR('',#48,1.);
#48 = DIRECTION('',(-1.,0.,0.));
#49 = ORIENTED_EDGE('',*,*,#50,.F.);
#50 = EDGE_CURVE('',#51,#43,#53,.T.);
#51 = VERTEX_POINT('',#52);
#52 = CARTESIAN_POINT('',(-24.,82.,10.));
#53 = LINE('',#54,#55);
#54 = CARTESIAN_POINT('',(-36.88998927422,69.110010725778,10.));
#55 = VECTOR('',#56,1.);
#56 = DIRECTION('',(0.707106781187,0.707106781187,0.));
#57 = ORIENTED_EDGE('',*,*,#58,.T.);
#58 = EDGE_CURVE('',#51,#59,#61,.T.);
#59 = VERTEX_POINT('',#60);
#60 = CARTESIAN_POINT('',(-24.,47.,10.));
#61 = LINE('',#62,#63);
#62 = CARTESIAN_POINT('',(-24.,81.,10.));
#63 = VECTOR('',#64,1.);
#64 = DIRECTION('',(0.,-1.,0.));
#65 = ORIENTED_EDGE('',*,*,#66,.F.);
#66 = EDGE_CURVE('',#67,#59,#69,.T.);
#67 = VERTEX_POINT('',#68);
#68 = CARTESIAN_POINT('',(-40.,47.,10.));
#69 = LINE('',#70,#71);
#70 = CARTESIAN_POINT('',(-20.35676528856,47.,10.));
#71 = VECTOR('',#72,1.);
#72 = DIRECTION('',(1.,0.,0.));
#73 = ORIENTED_EDGE('',*,*,#74,.F.);
#74 = EDGE_CURVE('',#75,#67,#77,.T.);
#75 = VERTEX_POINT('',#76);
#76 = CARTESIAN_POINT('',(-45.,42.,10.));
#77 = LINE('',#78,#79);
#78 = CARTESIAN_POINT('',(-41.88998927422,45.110010725778,10.));
#79 = VECTOR('',#80,1.);
#80 = DIRECTION('',(0.707106781187,0.707106781187,0.));
#81 = ORIENTED_EDGE('',*,*,#82,.F.);
#82 = EDGE_CURVE('',#83,#75,#85,.T.);
#83 = VERTEX_POINT('',#84);
#84 = CARTESIAN_POINT('',(-45.,12.364213562373,10.));
#85 = LINE('',#86,#87);
#86 = CARTESIAN_POINT('',(-45.,31.,10.));
#87 = VECTOR('',#88,1.);
#88 = DIRECTION('',(0.,1.,0.));
#89 = ORIENTED_EDGE('',*,*,#90,.F.);
#90 = EDGE_CURVE('',#91,#83,#93,.T.);
#91 = VERTEX_POINT('',#92);
#92 = CARTESIAN_POINT('',(-23.63578643762,-9.,10.));
#93 = LINE('',#94,#95);
#94 = CARTESIAN_POINT('',(-24.34289321881,-8.292893218813,10.));
#95 = VECTOR('',#96,1.);
#96 = DIRECTION('',(-0.707106781187,0.707106781187,0.));
#97 = ORIENTED_EDGE('',*,*,#98,.T.);
#98 = EDGE_CURVE('',#91,#99,#101,.T.);
#99 = VERTEX_POINT('',#100);
#100 = CARTESIAN_POINT('',(-23.,-9.,10.));
#101 = LINE('',#102,#103);
#102 = CARTESIAN_POINT('',(-15.35676528856,-9.,10.));
#103 = VECTOR('',#104,1.);
#104 = DIRECTION('',(1.,0.,0.));
#105 = ORIENTED_EDGE('',*,*,#106,.T.);
#106 = EDGE_CURVE('',#99,#107,#109,.T.);
#107 = VERTEX_POINT('',#108);
#108 = CARTESIAN_POINT('',(-23.,-60.,10.));
#109 = LINE('',#110,#111);
#110 = CARTESIAN_POINT('',(-23.,-9.,10.));
#111 = VECTOR('',#112,1.);
#112 = DIRECTION('',(0.,-1.,0.));
#113 = ORIENTED_EDGE('',*,*,#114,.T.);
#114 = EDGE_CURVE('',#107,#115,#117,.T.);
#115 = VERTEX_POINT('',#116);
#116 = CARTESIAN_POINT('',(-15.,-68.,10.));
#117 = CIRCLE('',#118,8.);
#118 = AXIS2_PLACEMENT_3D('',#119,#120,#121);
#119 = CARTESIAN_POINT('',(-15.,-60.,10.));
#120 = DIRECTION('',(0.,0.,1.));
#121 = DIRECTION('',(-1.,0.,0.));
#122 = ORIENTED_EDGE('',*,*,#123,.T.);
#123 = EDGE_CURVE('',#115,#124,#126,.T.);
#124 = VERTEX_POINT('',#125);
#125 = CARTESIAN_POINT('',(15.,-68.,10.));
#126 = LINE('',#127,#128);
#127 = CARTESIAN_POINT('',(-15.,-68.,10.));
#128 = VECTOR('',#129,1.);
#129 = DIRECTION('',(1.,0.,0.));
#130 = ORIENTED_EDGE('',*,*,#131,.T.);
#131 = EDGE_CURVE('',#124,#132,#134,.T.);
#132 = VERTEX_POINT('',#133);
#133 = CARTESIAN_POINT('',(23.,-60.,10.));
#134 = CIRCLE('',#135,8.);
#135 = AXIS2_PLACEMENT_3D('',#136,#137,#138);
#136 = CARTESIAN_POINT('',(15.,-60.,10.));
#137 = DIRECTION('',(0.,0.,1.));
#138 = DIRECTION('',(-1.7763568394E-16,-1.,0.));
#139 = ORIENTED_EDGE('',*,*,#140,.T.);
#140 = EDGE_CURVE('',#132,#35,#141,.T.);
#141 = LINE('',#142,#143);
#142 = CARTESIAN_POINT('',(23.,-60.,10.));
#143 = VECTOR('',#144,1.);
#144 = DIRECTION('',(0.,1.,0.));
#145 = FACE_BOUND('',#146,.T.);
#146 = EDGE_LOOP('',(#147));
#147 = ORIENTED_EDGE('',*,*,#148,.F.);
#148 = EDGE_CURVE('',#149,#149,#151,.T.);
#149 = VERTEX_POINT('',#150);
#150 = CARTESIAN_POINT('',(-12.5,-58.,10.));
#151 = CIRCLE('',#152,3.);
#152 = AXIS2_PLACEMENT_3D('',#153,#154,#155);
#153 = CARTESIAN_POINT('',(-15.5,-58.,10.));
#154 = DIRECTION('',(0.,0.,1.));
#155 = DIRECTION('',(1.,0.,0.));
#156 = FACE_BOUND('',#157,.T.);
#157 = EDGE_LOOP('',(#158));
#158 = ORIENTED_EDGE('',*,*,#159,.F.);
#159 = EDGE_CURVE('',#160,#160,#162,.T.);
#160 = VERTEX_POINT('',#161);
#161 = CARTESIAN_POINT('',(-12.5,-27.,10.));
#162 = CIRCLE('',#163,3.);
#163 = AXIS2_PLACEMENT_3D('',#164,#165,#166);
#164 = CARTESIAN_POINT('',(-15.5,-27.,10.));
#165 = DIRECTION('',(0.,0.,1.));
#166 = DIRECTION('',(1.,0.,0.));
#167 = FACE_BOUND('',#168,.T.);
#168 = EDGE_LOOP('',(#169));
#169 = ORIENTED_EDGE('',*,*,#170,.F.);
#170 = EDGE_CURVE('',#171,#171,#173,.T.);
#171 = VERTEX_POINT('',#172);
#172 = CARTESIAN_POINT('',(18.5,-58.,10.));
#173 = CIRCLE('',#174,3.);
#174 = AXIS2_PLACEMENT_3D('',#175,#176,#177);
#175 = CARTESIAN_POINT('',(15.5,-58.,10.));
#176 = DIRECTION('',(0.,0.,1.));
#177 = DIRECTION('',(1.,0.,0.));
#178 = FACE_BOUND('',#179,.T.);
#179 = EDGE_LOOP('',(#180));
#180 = ORIENTED_EDGE('',*,*,#181,.F.);
#181 = EDGE_CURVE('',#182,#182,#184,.T.);
#182 = VERTEX_POINT('',#183);
#183 = CARTESIAN_POINT('',(18.5,-27.,10.));
#184 = CIRCLE('',#185,3.);
#185 = AXIS2_PLACEMENT_3D('',#186,#187,#188);
#186 = CARTESIAN_POINT('',(15.5,-27.,10.));
#187 = DIRECTION('',(0.,0.,1.));
#188 = DIRECTION('',(1.,0.,0.));
#189 = FACE_BOUND('',#190,.T.);
#190 = EDGE_LOOP('',(#191));
#191 = ORIENTED_EDGE('',*,*,#192,.F.);
#192 = EDGE_CURVE('',#193,#193,#195,.T.);
#193 = VERTEX_POINT('',#194);
#194 = CARTESIAN_POINT('',(-10.5,77.,10.));
#195 = CIRCLE('',#196,4.5);
#196 = AXIS2_PLACEMENT_3D('',#197,#198,#199);
#197 = CARTESIAN_POINT('',(-15.,77.,10.));
#198 = DIRECTION('',(0.,0.,1.));
#199 = DIRECTION('',(1.,0.,0.));
#200 = FACE_BOUND('',#201,.T.);
#201 = EDGE_LOOP('',(#202));
#202 = ORIENTED_EDGE('',*,*,#203,.F.);
#203 = EDGE_CURVE('',#204,#204,#206,.T.);
#204 = VERTEX_POINT('',#205);
#205 = CARTESIAN_POINT('',(19.5,77.,10.));
#206 = CIRCLE('',#207,4.5);
#207 = AXIS2_PLACEMENT_3D('',#208,#209,#210);
#208 = CARTESIAN_POINT('',(15.,77.,10.));
#209 = DIRECTION('',(0.,0.,1.));
#210 = DIRECTION('',(1.,0.,0.));
#211 = PLANE('',#212);
#212 = AXIS2_PLACEMENT_3D('',#213,#214,#215);
#213 = CARTESIAN_POINT('',(-5.713530577131,10.153573480244,10.));
#214 = DIRECTION('',(0.,0.,1.));
#215 = DIRECTION('',(1.,0.,0.));
#216 = ADVANCED_FACE('',(#217),#236,.F.);
#217 = FACE_BOUND('',#218,.T.);
#218 = EDGE_LOOP('',(#219,#227,#228,#229));
#219 = ORIENTED_EDGE('',*,*,#220,.F.);
#220 = EDGE_CURVE('',#22,#221,#223,.T.);
#221 = VERTEX_POINT('',#222);
#222 = CARTESIAN_POINT('',(11.5,-42.5,6.));
#223 = LINE('',#224,#225);
#224 = CARTESIAN_POINT('',(11.5,-42.5,6.));
#225 = VECTOR('',#226,1.);
#226 = DIRECTION('',(-0.707106781187,-0.,-0.707106781187));
#227 = ORIENTED_EDGE('',*,*,#21,.T.);
#228 = ORIENTED_EDGE('',*,*,#220,.T.);
#229 = ORIENTED_EDGE('',*,*,#230,.F.);
#230 = EDGE_CURVE('',#221,#221,#231,.T.);
#231 = CIRCLE('',#232,11.5);
#232 = AXIS2_PLACEMENT_3D('',#233,#234,#235);
#233 = CARTESIAN_POINT('',(0.,-42.5,6.));
#234 = DIRECTION('',(0.,0.,1.));
#235 = DIRECTION('',(1.,0.,0.));
#236 = CONICAL_SURFACE('',#237,11.5,0.785398163397);
#237 = AXIS2_PLACEMENT_3D('',#238,#239,#240);
#238 = CARTESIAN_POINT('',(0.,-42.5,6.));
#239 = DIRECTION('',(0.,0.,1.));
#240 = DIRECTION('',(1.,0.,0.));
#241 = ADVANCED_FACE('',(#242),#283,.T.);
#242 = FACE_BOUND('',#243,.T.);
#243 = EDGE_LOOP('',(#244,#245,#253,#261,#269,#277));
#244 = ORIENTED_EDGE('',*,*,#32,.T.);
#245 = ORIENTED_EDGE('',*,*,#246,.T.);
#246 = EDGE_CURVE('',#35,#247,#249,.T.);
#247 = VERTEX_POINT('',#248);
#248 = CARTESIAN_POINT('',(25.,81.,8.));
#249 = LINE('',#250,#251);
#250 = CARTESIAN_POINT('',(51.833333333333,54.166666666667,
    -18.83333333333));
#251 = VECTOR('',#252,1.);
#252 = DIRECTION('',(0.57735026919,-0.57735026919,-0.57735026919));
#253 = ORIENTED_EDGE('',*,*,#254,.F.);
#254 = EDGE_CURVE('',#255,#247,#257,.T.);
#255 = VERTEX_POINT('',#256);
#256 = CARTESIAN_POINT('',(25.,81.,-18.));
#257 = LINE('',#258,#259);
#258 = CARTESIAN_POINT('',(25.,81.,-18.));
#259 = VECTOR('',#260,1.);
#260 = DIRECTION('',(0.,0.,1.));
#261 = ORIENTED_EDGE('',*,*,#262,.F.);
#262 = EDGE_CURVE('',#263,#255,#265,.T.);
#263 = VERTEX_POINT('',#264);
#264 = CARTESIAN_POINT('',(21.,85.,-18.));
#265 = LINE('',#266,#267);
#266 = CARTESIAN_POINT('',(21.125,84.875,-18.));
#267 = VECTOR('',#268,1.);
#268 = DIRECTION('',(0.707106781187,-0.707106781187,0.));
#269 = ORIENTED_EDGE('',*,*,#270,.T.);
#270 = EDGE_CURVE('',#263,#271,#273,.T.);
#271 = VERTEX_POINT('',#272);
#272 = CARTESIAN_POINT('',(21.,85.,9.));
#273 = LINE('',#274,#275);
#274 = CARTESIAN_POINT('',(21.,85.,-18.));
#275 = VECTOR('',#276,1.);
#276 = DIRECTION('',(0.,0.,1.));
#277 = ORIENTED_EDGE('',*,*,#278,.F.);
#278 = EDGE_CURVE('',#33,#271,#279,.T.);
#279 = LINE('',#280,#281);
#280 = CARTESIAN_POINT('',(17.333333333333,88.666666666667,
    5.333333333333));
#281 = VECTOR('',#282,1.);
#282 = DIRECTION('',(-0.57735026919,0.57735026919,-0.57735026919));
#283 = PLANE('',#284);
#284 = AXIS2_PLACEMENT_3D('',#285,#286,#287);
#285 = CARTESIAN_POINT('',(23.,83.,-18.));
#286 = DIRECTION('',(0.707106781187,0.707106781187,0.));
#287 = DIRECTION('',(0.,0.,1.));
#288 = ADVANCED_FACE('',(#289),#307,.T.);
#289 = FACE_BOUND('',#290,.F.);
#290 = EDGE_LOOP('',(#291,#292,#293,#301));
#291 = ORIENTED_EDGE('',*,*,#278,.F.);
#292 = ORIENTED_EDGE('',*,*,#42,.T.);
#293 = ORIENTED_EDGE('',*,*,#294,.T.);
#294 = EDGE_CURVE('',#43,#295,#297,.T.);
#295 = VERTEX_POINT('',#296);
#296 = CARTESIAN_POINT('',(-21.,85.,9.));
#297 = LINE('',#298,#299);
#298 = CARTESIAN_POINT('',(-10.33333333333,95.666666666667,
    -1.666666666667));
#299 = VECTOR('',#300,1.);
#300 = DIRECTION('',(0.57735026919,0.57735026919,-0.57735026919));
#301 = ORIENTED_EDGE('',*,*,#302,.F.);
#302 = EDGE_CURVE('',#271,#295,#303,.T.);
#303 = LINE('',#304,#305);
#304 = CARTESIAN_POINT('',(21.,85.,9.));
#305 = VECTOR('',#306,1.);
#306 = DIRECTION('',(-1.,0.,0.));
#307 = PLANE('',#308);
#308 = AXIS2_PLACEMENT_3D('',#309,#310,#311);
#309 = CARTESIAN_POINT('',(21.,84.5,9.5));
#310 = DIRECTION('',(0.,0.707106781187,0.707106781187));
#311 = DIRECTION('',(1.,0.,0.));
#312 = ADVANCED_FACE('',(#313),#331,.T.);
#313 = FACE_BOUND('',#314,.F.);
#314 = EDGE_LOOP('',(#315,#323,#324,#325));
#315 = ORIENTED_EDGE('',*,*,#316,.F.);
#316 = EDGE_CURVE('',#132,#317,#319,.T.);
#317 = VERTEX_POINT('',#318);
#318 = CARTESIAN_POINT('',(25.,-60.,8.));
#319 = LINE('',#320,#321);
#320 = CARTESIAN_POINT('',(25.,-60.,8.));
#321 = VECTOR('',#322,1.);
#322 = DIRECTION('',(0.707106781187,-1.689051995065E-16,-0.707106781187)
  );
#323 = ORIENTED_EDGE('',*,*,#140,.T.);
#324 = ORIENTED_EDGE('',*,*,#246,.T.);
#325 = ORIENTED_EDGE('',*,*,#326,.F.);
#326 = EDGE_CURVE('',#317,#247,#327,.T.);
#327 = LINE('',#328,#329);
#328 = CARTESIAN_POINT('',(25.,-60.,8.));
#329 = VECTOR('',#330,1.);
#330 = DIRECTION('',(0.,1.,0.));
#331 = PLANE('',#332);
#332 = AXIS2_PLACEMENT_3D('',#333,#334,#335);
#333 = CARTESIAN_POINT('',(24.,-60.,9.));
#334 = DIRECTION('',(0.707106781187,0.,0.707106781187));
#335 = DIRECTION('',(-0.,-1.,-0.));
#336 = ADVANCED_FACE('',(#337),#371,.T.);
#337 = FACE_BOUND('',#338,.T.);
#338 = EDGE_LOOP('',(#339,#349,#355,#356,#357,#365));
#339 = ORIENTED_EDGE('',*,*,#340,.T.);
#340 = EDGE_CURVE('',#341,#343,#345,.T.);
#341 = VERTEX_POINT('',#342);
#342 = CARTESIAN_POINT('',(-25.,81.,-18.));
#343 = VERTEX_POINT('',#344);
#344 = CARTESIAN_POINT('',(-25.,81.,9.));
#345 = LINE('',#346,#347);
#346 = CARTESIAN_POINT('',(-25.,81.,-18.));
#347 = VECTOR('',#348,1.);
#348 = DIRECTION('',(0.,0.,1.));
#349 = ORIENTED_EDGE('',*,*,#350,.F.);
#350 = EDGE_CURVE('',#51,#343,#351,.T.);
#351 = LINE('',#352,#353);
#352 = CARTESIAN_POINT('',(-28.66666666666,77.333333333333,
    5.333333333333));
#353 = VECTOR('',#354,1.);
#354 = DIRECTION('',(-0.57735026919,-0.57735026919,-0.57735026919));
#355 = ORIENTED_EDGE('',*,*,#50,.T.);
#356 = ORIENTED_EDGE('',*,*,#294,.T.);
#357 = ORIENTED_EDGE('',*,*,#358,.F.);
#358 = EDGE_CURVE('',#359,#295,#361,.T.);
#359 = VERTEX_POINT('',#360);
#360 = CARTESIAN_POINT('',(-21.,85.,-18.));
#361 = LINE('',#362,#363);
#362 = CARTESIAN_POINT('',(-21.,85.,-18.));
#363 = VECTOR('',#364,1.);
#364 = DIRECTION('',(0.,0.,1.));
#365 = ORIENTED_EDGE('',*,*,#366,.F.);
#366 = EDGE_CURVE('',#341,#359,#367,.T.);
#367 = LINE('',#368,#369);
#368 = CARTESIAN_POINT('',(-21.125,84.875,-18.));
#369 = VECTOR('',#370,1.);
#370 = DIRECTION('',(0.707106781187,0.707106781187,0.));
#371 = PLANE('',#372);
#372 = AXIS2_PLACEMENT_3D('',#373,#374,#375);
#373 = CARTESIAN_POINT('',(-23.,83.,-18.));
#374 = DIRECTION('',(-0.707106781187,0.707106781187,0.));
#375 = DIRECTION('',(0.,0.,1.));
#376 = ADVANCED_FACE('',(#377),#396,.T.);
#377 = FACE_BOUND('',#378,.F.);
#378 = EDGE_LOOP('',(#379,#387,#388,#389));
#379 = ORIENTED_EDGE('',*,*,#380,.F.);
#380 = EDGE_CURVE('',#124,#381,#383,.T.);
#381 = VERTEX_POINT('',#382);
#382 = CARTESIAN_POINT('',(15.,-70.,8.));
#383 = LINE('',#384,#385);
#384 = CARTESIAN_POINT('',(15.,-69.,9.));
#385 = VECTOR('',#386,1.);
#386 = DIRECTION('',(0.,-0.707106781187,-0.707106781187));
#387 = ORIENTED_EDGE('',*,*,#131,.T.);
#388 = ORIENTED_EDGE('',*,*,#316,.T.);
#389 = ORIENTED_EDGE('',*,*,#390,.F.);
#390 = EDGE_CURVE('',#381,#317,#391,.T.);
#391 = CIRCLE('',#392,10.);
#392 = AXIS2_PLACEMENT_3D('',#393,#394,#395);
#393 = CARTESIAN_POINT('',(15.,-60.,8.));
#394 = DIRECTION('',(0.,0.,1.));
#395 = DIRECTION('',(-1.7763568394E-16,-1.,0.));
#396 = CONICAL_SURFACE('',#397,10.,0.785398163397);
#397 = AXIS2_PLACEMENT_3D('',#398,#399,#400);
#398 = CARTESIAN_POINT('',(15.,-60.,8.));
#399 = DIRECTION('',(-0.,-0.,-1.));
#400 = DIRECTION('',(-1.7763568394E-16,-1.,0.));
#401 = ADVANCED_FACE('',(#402),#420,.T.);
#402 = FACE_BOUND('',#403,.F.);
#403 = EDGE_LOOP('',(#404,#405,#406,#414));
#404 = ORIENTED_EDGE('',*,*,#350,.F.);
#405 = ORIENTED_EDGE('',*,*,#58,.T.);
#406 = ORIENTED_EDGE('',*,*,#407,.T.);
#407 = EDGE_CURVE('',#59,#408,#410,.T.);
#408 = VERTEX_POINT('',#409);
#409 = CARTESIAN_POINT('',(-25.,47.,9.));
#410 = LINE('',#411,#412);
#411 = CARTESIAN_POINT('',(-30.75,47.,3.25));
#412 = VECTOR('',#413,1.);
#413 = DIRECTION('',(-0.707106781187,0.,-0.707106781187));
#414 = ORIENTED_EDGE('',*,*,#415,.F.);
#415 = EDGE_CURVE('',#343,#408,#416,.T.);
#416 = LINE('',#417,#418);
#417 = CARTESIAN_POINT('',(-25.,81.,9.));
#418 = VECTOR('',#419,1.);
#419 = DIRECTION('',(0.,-1.,0.));
#420 = PLANE('',#421);
#421 = AXIS2_PLACEMENT_3D('',#422,#423,#424);
#422 = CARTESIAN_POINT('',(-24.5,81.,9.5));
#423 = DIRECTION('',(-0.707106781187,0.,0.707106781187));
#424 = DIRECTION('',(0.,1.,0.));
#425 = ADVANCED_FACE('',(#426),#444,.T.);
#426 = FACE_BOUND('',#427,.F.);
#427 = EDGE_LOOP('',(#428,#436,#437,#438));
#428 = ORIENTED_EDGE('',*,*,#429,.F.);
#429 = EDGE_CURVE('',#115,#430,#432,.T.);
#430 = VERTEX_POINT('',#431);
#431 = CARTESIAN_POINT('',(-15.,-70.,8.));
#432 = LINE('',#433,#434);
#433 = CARTESIAN_POINT('',(-15.,-70.,8.));
#434 = VECTOR('',#435,1.);
#435 = DIRECTION('',(-4.329780281177E-17,-0.707106781187,-0.707106781187
    ));
#436 = ORIENTED_EDGE('',*,*,#123,.T.);
#437 = ORIENTED_EDGE('',*,*,#380,.T.);
#438 = ORIENTED_EDGE('',*,*,#439,.F.);
#439 = EDGE_CURVE('',#430,#381,#440,.T.);
#440 = LINE('',#441,#442);
#441 = CARTESIAN_POINT('',(-15.,-70.,8.));
#442 = VECTOR('',#443,1.);
#443 = DIRECTION('',(1.,0.,0.));
#444 = PLANE('',#445);
#445 = AXIS2_PLACEMENT_3D('',#446,#447,#448);
#446 = CARTESIAN_POINT('',(-15.,-69.,9.));
#447 = DIRECTION('',(0.,-0.707106781187,0.707106781187));
#448 = DIRECTION('',(-1.,-0.,-0.));
#449 = ADVANCED_FACE('',(#450,#492),#503,.T.);
#450 = FACE_BOUND('',#451,.T.);
#451 = EDGE_LOOP('',(#452,#460,#468,#476,#484,#490,#491));
#452 = ORIENTED_EDGE('',*,*,#453,.T.);
#453 = EDGE_CURVE('',#408,#454,#456,.T.);
#454 = VERTEX_POINT('',#455);
#455 = CARTESIAN_POINT('',(-25.,47.,0.));
#456 = LINE('',#457,#458);
#457 = CARTESIAN_POINT('',(-25.,47.,10.));
#458 = VECTOR('',#459,1.);
#459 = DIRECTION('',(0.,0.,-1.));
#460 = ORIENTED_EDGE('',*,*,#461,.T.);
#461 = EDGE_CURVE('',#454,#462,#464,.T.);
#462 = VERTEX_POINT('',#463);
#463 = CARTESIAN_POINT('',(-30.,47.,0.));
#464 = LINE('',#465,#466);
#465 = CARTESIAN_POINT('',(-20.3947368421,47.,0.));
#466 = VECTOR('',#467,1.);
#467 = DIRECTION('',(-1.,0.,0.));
#468 = ORIENTED_EDGE('',*,*,#469,.T.);
#469 = EDGE_CURVE('',#462,#470,#472,.T.);
#470 = VERTEX_POINT('',#471);
#471 = CARTESIAN_POINT('',(-30.,47.,-20.));
#472 = LINE('',#473,#474);
#473 = CARTESIAN_POINT('',(-30.,47.,0.));
#474 = VECTOR('',#475,1.);
#475 = DIRECTION('',(0.,0.,-1.));
#476 = ORIENTED_EDGE('',*,*,#477,.F.);
#477 = EDGE_CURVE('',#478,#470,#480,.T.);
#478 = VERTEX_POINT('',#479);
#479 = CARTESIAN_POINT('',(-40.,47.,-20.));
#480 = LINE('',#481,#482);
#481 = CARTESIAN_POINT('',(-45.,47.,-20.));
#482 = VECTOR('',#483,1.);
#483 = DIRECTION('',(1.,0.,0.));
#484 = ORIENTED_EDGE('',*,*,#485,.F.);
#485 = EDGE_CURVE('',#67,#478,#486,.T.);
#486 = LINE('',#487,#488);
#487 = CARTESIAN_POINT('',(-40.,47.,10.));
#488 = VECTOR('',#489,1.);
#489 = DIRECTION('',(0.,0.,-1.));
#490 = ORIENTED_EDGE('',*,*,#66,.T.);
#491 = ORIENTED_EDGE('',*,*,#407,.T.);
#492 = FACE_BOUND('',#493,.T.);
#493 = EDGE_LOOP('',(#494));
#494 = ORIENTED_EDGE('',*,*,#495,.T.);
#495 = EDGE_CURVE('',#496,#496,#498,.T.);
#496 = VERTEX_POINT('',#497);
#497 = CARTESIAN_POINT('',(-32.35,47.,-10.));
#498 = CIRCLE('',#499,2.65);
#499 = AXIS2_PLACEMENT_3D('',#500,#501,#502);
#500 = CARTESIAN_POINT('',(-35.,47.,-10.));
#501 = DIRECTION('',(0.,-1.,2.22044604925E-16));
#502 = DIRECTION('',(1.,0.,0.));
#503 = PLANE('',#504);
#504 = AXIS2_PLACEMENT_3D('',#505,#506,#507);
#505 = CARTESIAN_POINT('',(-35.,47.,-5.));
#506 = DIRECTION('',(0.,1.,0.));
#507 = DIRECTION('',(0.,0.,1.));
#508 = ADVANCED_FACE('',(#509),#528,.T.);
#509 = FACE_BOUND('',#510,.F.);
#510 = EDGE_LOOP('',(#511,#519,#520,#521));
#511 = ORIENTED_EDGE('',*,*,#512,.F.);
#512 = EDGE_CURVE('',#107,#513,#515,.T.);
#513 = VERTEX_POINT('',#514);
#514 = CARTESIAN_POINT('',(-25.,-60.,8.));
#515 = LINE('',#516,#517);
#516 = CARTESIAN_POINT('',(-24.,-60.,9.));
#517 = VECTOR('',#518,1.);
#518 = DIRECTION('',(-0.707106781187,-0.,-0.707106781187));
#519 = ORIENTED_EDGE('',*,*,#114,.T.);
#520 = ORIENTED_EDGE('',*,*,#429,.T.);
#521 = ORIENTED_EDGE('',*,*,#522,.F.);
#522 = EDGE_CURVE('',#513,#430,#523,.T.);
#523 = CIRCLE('',#524,10.);
#524 = AXIS2_PLACEMENT_3D('',#525,#526,#527);
#525 = CARTESIAN_POINT('',(-15.,-60.,8.));
#526 = DIRECTION('',(0.,0.,1.));
#527 = DIRECTION('',(-1.,0.,0.));
#528 = CONICAL_SURFACE('',#529,10.,0.785398163397);
#529 = AXIS2_PLACEMENT_3D('',#530,#531,#532);
#530 = CARTESIAN_POINT('',(-15.,-60.,8.));
#531 = DIRECTION('',(-0.,-0.,-1.));
#532 = DIRECTION('',(-1.,0.,0.));
#533 = ADVANCED_FACE('',(#534),#552,.T.);
#534 = FACE_BOUND('',#535,.F.);
#535 = EDGE_LOOP('',(#536,#544,#545,#546));
#536 = ORIENTED_EDGE('',*,*,#537,.F.);
#537 = EDGE_CURVE('',#99,#538,#540,.T.);
#538 = VERTEX_POINT('',#539);
#539 = CARTESIAN_POINT('',(-25.,-9.,8.));
#540 = LINE('',#541,#542);
#541 = CARTESIAN_POINT('',(-26.5,-9.,6.5));
#542 = VECTOR('',#543,1.);
#543 = DIRECTION('',(-0.707106781187,0.,-0.707106781187));
#544 = ORIENTED_EDGE('',*,*,#106,.T.);
#545 = ORIENTED_EDGE('',*,*,#512,.T.);
#546 = ORIENTED_EDGE('',*,*,#547,.F.);
#547 = EDGE_CURVE('',#538,#513,#548,.T.);
#548 = LINE('',#549,#550);
#549 = CARTESIAN_POINT('',(-25.,-9.,8.));
#550 = VECTOR('',#551,1.);
#551 = DIRECTION('',(0.,-1.,0.));
#552 = PLANE('',#553);
#553 = AXIS2_PLACEMENT_3D('',#554,#555,#556);
#554 = CARTESIAN_POINT('',(-24.,-9.,9.));
#555 = DIRECTION('',(-0.707106781187,0.,0.707106781187));
#556 = DIRECTION('',(0.,1.,0.));
#557 = ADVANCED_FACE('',(#558),#576,.T.);
#558 = FACE_BOUND('',#559,.F.);
#559 = EDGE_LOOP('',(#560,#561,#569,#575));
#560 = ORIENTED_EDGE('',*,*,#74,.F.);
#561 = ORIENTED_EDGE('',*,*,#562,.T.);
#562 = EDGE_CURVE('',#75,#563,#565,.T.);
#563 = VERTEX_POINT('',#564);
#564 = CARTESIAN_POINT('',(-45.,42.,-20.));
#565 = LINE('',#566,#567);
#566 = CARTESIAN_POINT('',(-45.,42.,10.));
#567 = VECTOR('',#568,1.);
#568 = DIRECTION('',(0.,0.,-1.));
#569 = ORIENTED_EDGE('',*,*,#570,.T.);
#570 = EDGE_CURVE('',#563,#478,#571,.T.);
#571 = LINE('',#572,#573);
#572 = CARTESIAN_POINT('',(-43.25,43.75,-20.));
#573 = VECTOR('',#574,1.);
#574 = DIRECTION('',(0.707106781187,0.707106781187,0.));
#575 = ORIENTED_EDGE('',*,*,#485,.F.);
#576 = PLANE('',#577);
#577 = AXIS2_PLACEMENT_3D('',#578,#579,#580);
#578 = CARTESIAN_POINT('',(-42.5,44.5,10.));
#579 = DIRECTION('',(-0.707106781187,0.707106781187,0.));
#580 = DIRECTION('',(0.,0.,1.));
#581 = ADVANCED_FACE('',(#582),#616,.F.);
#582 = FACE_BOUND('',#583,.F.);
#583 = EDGE_LOOP('',(#584,#585,#586,#594,#602,#610));
#584 = ORIENTED_EDGE('',*,*,#98,.T.);
#585 = ORIENTED_EDGE('',*,*,#537,.T.);
#586 = ORIENTED_EDGE('',*,*,#587,.F.);
#587 = EDGE_CURVE('',#588,#538,#590,.T.);
#588 = VERTEX_POINT('',#589);
#589 = CARTESIAN_POINT('',(-25.,-9.,0.));
#590 = LINE('',#591,#592);
#591 = CARTESIAN_POINT('',(-25.,-9.,0.));
#592 = VECTOR('',#593,1.);
#593 = DIRECTION('',(0.,0.,1.));
#594 = ORIENTED_EDGE('',*,*,#595,.T.);
#595 = EDGE_CURVE('',#588,#596,#598,.T.);
#596 = VERTEX_POINT('',#597);
#597 = CARTESIAN_POINT('',(-25.05,-9.,0.));
#598 = LINE('',#599,#600);
#599 = CARTESIAN_POINT('',(-25.,-9.,0.));
#600 = VECTOR('',#601,1.);
#601 = DIRECTION('',(-1.,0.,0.));
#602 = ORIENTED_EDGE('',*,*,#603,.T.);
#603 = EDGE_CURVE('',#596,#604,#606,.T.);
#604 = VERTEX_POINT('',#605);
#605 = CARTESIAN_POINT('',(-25.05,-9.,9.));
#606 = LINE('',#607,#608);
#607 = CARTESIAN_POINT('',(-25.05,-9.,0.));
#608 = VECTOR('',#609,1.);
#609 = DIRECTION('',(0.,0.,1.));
#610 = ORIENTED_EDGE('',*,*,#611,.F.);
#611 = EDGE_CURVE('',#91,#604,#612,.T.);
#612 = LINE('',#613,#614);
#613 = CARTESIAN_POINT('',(-26.91895141649,-9.,7.678451779686));
#614 = VECTOR('',#615,1.);
#615 = DIRECTION('',(-0.816496580928,0.,-0.57735026919));
#616 = PLANE('',#617);
#617 = AXIS2_PLACEMENT_3D('',#618,#619,#620);
#618 = CARTESIAN_POINT('',(-25.,-9.,0.));
#619 = DIRECTION('',(0.,1.,0.));
#620 = DIRECTION('',(0.,0.,1.));
#621 = ADVANCED_FACE('',(#622),#664,.T.);
#622 = FACE_BOUND('',#623,.T.);
#623 = EDGE_LOOP('',(#624,#625,#626,#634,#642,#650,#658));
#624 = ORIENTED_EDGE('',*,*,#82,.T.);
#625 = ORIENTED_EDGE('',*,*,#562,.T.);
#626 = ORIENTED_EDGE('',*,*,#627,.F.);
#627 = EDGE_CURVE('',#628,#563,#630,.T.);
#628 = VERTEX_POINT('',#629);
#629 = CARTESIAN_POINT('',(-45.,26.,-20.));
#630 = LINE('',#631,#632);
#631 = CARTESIAN_POINT('',(-45.,31.,-20.));
#632 = VECTOR('',#633,1.);
#633 = DIRECTION('',(0.,1.,0.));
#634 = ORIENTED_EDGE('',*,*,#635,.F.);
#635 = EDGE_CURVE('',#636,#628,#638,.T.);
#636 = VERTEX_POINT('',#637);
#637 = CARTESIAN_POINT('',(-45.,26.,0.));
#638 = LINE('',#639,#640);
#639 = CARTESIAN_POINT('',(-45.,26.,0.));
#640 = VECTOR('',#641,1.);
#641 = DIRECTION('',(0.,0.,-1.));
#642 = ORIENTED_EDGE('',*,*,#643,.F.);
#643 = EDGE_CURVE('',#644,#636,#646,.T.);
#644 = VERTEX_POINT('',#645);
#645 = CARTESIAN_POINT('',(-45.,10.95,0.));
#646 = LINE('',#647,#648);
#647 = CARTESIAN_POINT('',(-45.,7.349449204406,0.));
#648 = VECTOR('',#649,1.);
#649 = DIRECTION('',(0.,1.,0.));
#650 = ORIENTED_EDGE('',*,*,#651,.T.);
#651 = EDGE_CURVE('',#644,#652,#654,.T.);
#652 = VERTEX_POINT('',#653);
#653 = CARTESIAN_POINT('',(-45.,10.95,9.));
#654 = LINE('',#655,#656);
#655 = CARTESIAN_POINT('',(-45.,10.95,0.));
#656 = VECTOR('',#657,1.);
#657 = DIRECTION('',(0.,0.,1.));
#658 = ORIENTED_EDGE('',*,*,#659,.F.);
#659 = EDGE_CURVE('',#83,#652,#660,.T.);
#660 = LINE('',#661,#662);
#661 = CARTESIAN_POINT('',(-45.,5.904211833292,5.43208897089));
#662 = VECTOR('',#663,1.);
#663 = DIRECTION('',(0.,-0.816496580928,-0.57735026919));
#664 = PLANE('',#665);
#665 = AXIS2_PLACEMENT_3D('',#666,#667,#668);
#666 = CARTESIAN_POINT('',(-45.,22.488372093023,-1.511627906977));
#667 = DIRECTION('',(-1.,-0.,-0.));
#668 = DIRECTION('',(0.,0.,-1.));
#669 = ADVANCED_FACE('',(#670),#681,.T.);
#670 = FACE_BOUND('',#671,.T.);
#671 = EDGE_LOOP('',(#672,#673,#674,#675));
#672 = ORIENTED_EDGE('',*,*,#611,.F.);
#673 = ORIENTED_EDGE('',*,*,#90,.T.);
#674 = ORIENTED_EDGE('',*,*,#659,.T.);
#675 = ORIENTED_EDGE('',*,*,#676,.F.);
#676 = EDGE_CURVE('',#604,#652,#677,.T.);
#677 = LINE('',#678,#679);
#678 = CARTESIAN_POINT('',(-25.05,-9.,9.));
#679 = VECTOR('',#680,1.);
#680 = DIRECTION('',(-0.707106781187,0.707106781187,0.));
#681 = PLANE('',#682);
#682 = AXIS2_PLACEMENT_3D('',#683,#684,#685);
#683 = CARTESIAN_POINT('',(-24.6964466094,-8.646446609407,9.5));
#684 = DIRECTION('',(-0.5,-0.5,0.707106781187));
#685 = DIRECTION('',(-0.707106781187,0.707106781187,-5.551115123126E-17)
  );
#686 = ADVANCED_FACE('',(#687),#706,.F.);
#687 = FACE_BOUND('',#688,.F.);
#688 = EDGE_LOOP('',(#689,#697,#704,#705));
#689 = ORIENTED_EDGE('',*,*,#690,.T.);
#690 = EDGE_CURVE('',#149,#691,#693,.T.);
#691 = VERTEX_POINT('',#692);
#692 = CARTESIAN_POINT('',(-12.5,-58.,5.));
#693 = LINE('',#694,#695);
#694 = CARTESIAN_POINT('',(-12.5,-58.,10.));
#695 = VECTOR('',#696,1.);
#696 = DIRECTION('',(-0.,-0.,-1.));
#697 = ORIENTED_EDGE('',*,*,#698,.T.);
#698 = EDGE_CURVE('',#691,#691,#699,.T.);
#699 = CIRCLE('',#700,3.);
#700 = AXIS2_PLACEMENT_3D('',#701,#702,#703);
#701 = CARTESIAN_POINT('',(-15.5,-58.,5.));
#702 = DIRECTION('',(0.,0.,1.));
#703 = DIRECTION('',(1.,0.,0.));
#704 = ORIENTED_EDGE('',*,*,#690,.F.);
#705 = ORIENTED_EDGE('',*,*,#148,.F.);
#706 = CYLINDRICAL_SURFACE('',#707,3.);
#707 = AXIS2_PLACEMENT_3D('',#708,#709,#710);
#708 = CARTESIAN_POINT('',(-15.5,-58.,10.));
#709 = DIRECTION('',(0.,0.,1.));
#710 = DIRECTION('',(1.,0.,0.));
#711 = ADVANCED_FACE('',(#712),#731,.F.);
#712 = FACE_BOUND('',#713,.F.);
#713 = EDGE_LOOP('',(#714,#722,#729,#730));
#714 = ORIENTED_EDGE('',*,*,#715,.T.);
#715 = EDGE_CURVE('',#160,#716,#718,.T.);
#716 = VERTEX_POINT('',#717);
#717 = CARTESIAN_POINT('',(-12.5,-27.,5.));
#718 = LINE('',#719,#720);
#719 = CARTESIAN_POINT('',(-12.5,-27.,10.));
#720 = VECTOR('',#721,1.);
#721 = DIRECTION('',(-0.,-0.,-1.));
#722 = ORIENTED_EDGE('',*,*,#723,.T.);
#723 = EDGE_CURVE('',#716,#716,#724,.T.);
#724 = CIRCLE('',#725,3.);
#725 = AXIS2_PLACEMENT_3D('',#726,#727,#728);
#726 = CARTESIAN_POINT('',(-15.5,-27.,5.));
#727 = DIRECTION('',(0.,0.,1.));
#728 = DIRECTION('',(1.,0.,0.));
#729 = ORIENTED_EDGE('',*,*,#715,.F.);
#730 = ORIENTED_EDGE('',*,*,#159,.F.);
#731 = CYLINDRICAL_SURFACE('',#732,3.);
#732 = AXIS2_PLACEMENT_3D('',#733,#734,#735);
#733 = CARTESIAN_POINT('',(-15.5,-27.,10.));
#734 = DIRECTION('',(0.,0.,1.));
#735 = DIRECTION('',(1.,0.,0.));
#736 = ADVANCED_FACE('',(#737),#756,.F.);
#737 = FACE_BOUND('',#738,.F.);
#738 = EDGE_LOOP('',(#739,#747,#754,#755));
#739 = ORIENTED_EDGE('',*,*,#740,.T.);
#740 = EDGE_CURVE('',#171,#741,#743,.T.);
#741 = VERTEX_POINT('',#742);
#742 = CARTESIAN_POINT('',(18.5,-58.,5.));
#743 = LINE('',#744,#745);
#744 = CARTESIAN_POINT('',(18.5,-58.,10.));
#745 = VECTOR('',#746,1.);
#746 = DIRECTION('',(-0.,-0.,-1.));
#747 = ORIENTED_EDGE('',*,*,#748,.T.);
#748 = EDGE_CURVE('',#741,#741,#749,.T.);
#749 = CIRCLE('',#750,3.);
#750 = AXIS2_PLACEMENT_3D('',#751,#752,#753);
#751 = CARTESIAN_POINT('',(15.5,-58.,5.));
#752 = DIRECTION('',(0.,0.,1.));
#753 = DIRECTION('',(1.,0.,0.));
#754 = ORIENTED_EDGE('',*,*,#740,.F.);
#755 = ORIENTED_EDGE('',*,*,#170,.F.);
#756 = CYLINDRICAL_SURFACE('',#757,3.);
#757 = AXIS2_PLACEMENT_3D('',#758,#759,#760);
#758 = CARTESIAN_POINT('',(15.5,-58.,10.));
#759 = DIRECTION('',(0.,0.,1.));
#760 = DIRECTION('',(1.,0.,0.));
#761 = ADVANCED_FACE('',(#762),#781,.F.);
#762 = FACE_BOUND('',#763,.F.);
#763 = EDGE_LOOP('',(#764,#772,#779,#780));
#764 = ORIENTED_EDGE('',*,*,#765,.T.);
#765 = EDGE_CURVE('',#182,#766,#768,.T.);
#766 = VERTEX_POINT('',#767);
#767 = CARTESIAN_POINT('',(18.5,-27.,5.));
#768 = LINE('',#769,#770);
#769 = CARTESIAN_POINT('',(18.5,-27.,10.));
#770 = VECTOR('',#771,1.);
#771 = DIRECTION('',(-0.,-0.,-1.));
#772 = ORIENTED_EDGE('',*,*,#773,.T.);
#773 = EDGE_CURVE('',#766,#766,#774,.T.);
#774 = CIRCLE('',#775,3.);
#775 = AXIS2_PLACEMENT_3D('',#776,#777,#778);
#776 = CARTESIAN_POINT('',(15.5,-27.,5.));
#777 = DIRECTION('',(0.,0.,1.));
#778 = DIRECTION('',(1.,0.,0.));
#779 = ORIENTED_EDGE('',*,*,#765,.F.);
#780 = ORIENTED_EDGE('',*,*,#181,.F.);
#781 = CYLINDRICAL_SURFACE('',#782,3.);
#782 = AXIS2_PLACEMENT_3D('',#783,#784,#785);
#783 = CARTESIAN_POINT('',(15.5,-27.,10.));
#784 = DIRECTION('',(0.,0.,1.));
#785 = DIRECTION('',(1.,0.,0.));
#786 = ADVANCED_FACE('',(#787),#805,.F.);
#787 = FACE_BOUND('',#788,.F.);
#788 = EDGE_LOOP('',(#789,#798,#803,#804));
#789 = ORIENTED_EDGE('',*,*,#790,.T.);
#790 = EDGE_CURVE('',#791,#791,#793,.T.);
#791 = VERTEX_POINT('',#792);
#792 = CARTESIAN_POINT('',(-10.5,77.,-1.));
#793 = CIRCLE('',#794,4.5);
#794 = AXIS2_PLACEMENT_3D('',#795,#796,#797);
#795 = CARTESIAN_POINT('',(-15.,77.,-1.));
#796 = DIRECTION('',(0.,0.,1.));
#797 = DIRECTION('',(1.,0.,0.));
#798 = ORIENTED_EDGE('',*,*,#799,.T.);
#799 = EDGE_CURVE('',#791,#193,#800,.T.);
#800 = B_SPLINE_CURVE_WITH_KNOTS('',1,(#801,#802),.UNSPECIFIED.,.F.,.F.,
  (2,2),(-11.,0.),.PIECEWISE_BEZIER_KNOTS.);
#801 = CARTESIAN_POINT('',(-10.5,77.,-1.));
#802 = CARTESIAN_POINT('',(-10.5,77.,10.));
#803 = ORIENTED_EDGE('',*,*,#192,.F.);
#804 = ORIENTED_EDGE('',*,*,#799,.F.);
#805 = CYLINDRICAL_SURFACE('',#806,4.5);
#806 = AXIS2_PLACEMENT_3D('',#807,#808,#809);
#807 = CARTESIAN_POINT('',(-15.,77.,10.));
#808 = DIRECTION('',(0.,0.,1.));
#809 = DIRECTION('',(1.,0.,0.));
#810 = ADVANCED_FACE('',(#811),#829,.F.);
#811 = FACE_BOUND('',#812,.F.);
#812 = EDGE_LOOP('',(#813,#822,#827,#828));
#813 = ORIENTED_EDGE('',*,*,#814,.T.);
#814 = EDGE_CURVE('',#815,#815,#817,.T.);
#815 = VERTEX_POINT('',#816);
#816 = CARTESIAN_POINT('',(19.5,77.,-1.));
#817 = CIRCLE('',#818,4.5);
#818 = AXIS2_PLACEMENT_3D('',#819,#820,#821);
#819 = CARTESIAN_POINT('',(15.,77.,-1.));
#820 = DIRECTION('',(0.,0.,1.));
#821 = DIRECTION('',(1.,0.,0.));
#822 = ORIENTED_EDGE('',*,*,#823,.T.);
#823 = EDGE_CURVE('',#815,#204,#824,.T.);
#824 = B_SPLINE_CURVE_WITH_KNOTS('',1,(#825,#826),.UNSPECIFIED.,.F.,.F.,
  (2,2),(-11.,0.),.PIECEWISE_BEZIER_KNOTS.);
#825 = CARTESIAN_POINT('',(19.5,77.,-1.));
#826 = CARTESIAN_POINT('',(19.5,77.,10.));
#827 = ORIENTED_EDGE('',*,*,#203,.F.);
#828 = ORIENTED_EDGE('',*,*,#823,.F.);
#829 = CYLINDRICAL_SURFACE('',#830,4.5);
#830 = AXIS2_PLACEMENT_3D('',#831,#832,#833);
#831 = CARTESIAN_POINT('',(15.,77.,10.));
#832 = DIRECTION('',(0.,0.,1.));
#833 = DIRECTION('',(1.,0.,0.));
#834 = ADVANCED_FACE('',(#835),#854,.F.);
#835 = FACE_BOUND('',#836,.F.);
#836 = EDGE_LOOP('',(#837,#845,#846,#847));
#837 = ORIENTED_EDGE('',*,*,#838,.F.);
#838 = EDGE_CURVE('',#221,#839,#841,.T.);
#839 = VERTEX_POINT('',#840);
#840 = CARTESIAN_POINT('',(11.5,-42.5,7.105427357601E-15));
#841 = LINE('',#842,#843);
#842 = CARTESIAN_POINT('',(11.5,-42.5,10.));
#843 = VECTOR('',#844,1.);
#844 = DIRECTION('',(-0.,-0.,-1.));
#845 = ORIENTED_EDGE('',*,*,#230,.F.);
#846 = ORIENTED_EDGE('',*,*,#838,.T.);
#847 = ORIENTED_EDGE('',*,*,#848,.T.);
#848 = EDGE_CURVE('',#839,#839,#849,.T.);
#849 = CIRCLE('',#850,11.5);
#850 = AXIS2_PLACEMENT_3D('',#851,#852,#853);
#851 = CARTESIAN_POINT('',(0.,-42.5,7.105427357601E-15));
#852 = DIRECTION('',(0.,0.,1.));
#853 = DIRECTION('',(1.,0.,0.));
#854 = CYLINDRICAL_SURFACE('',#855,11.5);
#855 = AXIS2_PLACEMENT_3D('',#856,#857,#858);
#856 = CARTESIAN_POINT('',(0.,-42.5,10.));
#857 = DIRECTION('',(0.,0.,1.));
#858 = DIRECTION('',(1.,0.,0.));
#859 = ADVANCED_FACE('',(#860),#871,.T.);
#860 = FACE_BOUND('',#861,.T.);
#861 = EDGE_LOOP('',(#862,#863,#864,#865));
#862 = ORIENTED_EDGE('',*,*,#358,.T.);
#863 = ORIENTED_EDGE('',*,*,#302,.F.);
#864 = ORIENTED_EDGE('',*,*,#270,.F.);
#865 = ORIENTED_EDGE('',*,*,#866,.F.);
#866 = EDGE_CURVE('',#359,#263,#867,.T.);
#867 = LINE('',#868,#869);
#868 = CARTESIAN_POINT('',(-25.,85.,-18.));
#869 = VECTOR('',#870,1.);
#870 = DIRECTION('',(1.,0.,0.));
#871 = PLANE('',#872);
#872 = AXIS2_PLACEMENT_3D('',#873,#874,#875);
#873 = CARTESIAN_POINT('',(0.,85.,-4.));
#874 = DIRECTION('',(0.,1.,0.));
#875 = DIRECTION('',(0.,0.,1.));
#876 = ADVANCED_FACE('',(#877),#935,.T.);
#877 = FACE_BOUND('',#878,.T.);
#878 = EDGE_LOOP('',(#879,#880,#881,#889,#897,#905,#913,#921,#929));
#879 = ORIENTED_EDGE('',*,*,#254,.T.);
#880 = ORIENTED_EDGE('',*,*,#326,.F.);
#881 = ORIENTED_EDGE('',*,*,#882,.T.);
#882 = EDGE_CURVE('',#317,#883,#885,.T.);
#883 = VERTEX_POINT('',#884);
#884 = CARTESIAN_POINT('',(25.,-60.,-39.));
#885 = LINE('',#886,#887);
#886 = CARTESIAN_POINT('',(25.,-60.,10.));
#887 = VECTOR('',#888,1.);
#888 = DIRECTION('',(0.,-1.224646799147E-16,-1.));
#889 = ORIENTED_EDGE('',*,*,#890,.F.);
#890 = EDGE_CURVE('',#891,#883,#893,.T.);
#891 = VERTEX_POINT('',#892);
#892 = CARTESIAN_POINT('',(25.,-18.25,-39.));
#893 = LINE('',#894,#895);
#894 = CARTESIAN_POINT('',(25.,-9.25,-39.));
#895 = VECTOR('',#896,1.);
#896 = DIRECTION('',(0.,-1.,1.224646799147E-16));
#897 = ORIENTED_EDGE('',*,*,#898,.F.);
#898 = EDGE_CURVE('',#899,#891,#901,.T.);
#899 = VERTEX_POINT('',#900);
#900 = CARTESIAN_POINT('',(25.,-9.25,-30.));
#901 = LINE('',#902,#903);
#902 = CARTESIAN_POINT('',(25.,-4.10597826087,-24.85597826087));
#903 = VECTOR('',#904,1.);
#904 = DIRECTION('',(0.,-0.707106781187,-0.707106781187));
#905 = ORIENTED_EDGE('',*,*,#906,.F.);
#906 = EDGE_CURVE('',#907,#899,#909,.T.);
#907 = VERTEX_POINT('',#908);
#908 = CARTESIAN_POINT('',(25.,-9.25,1.132798289211E-15));
#909 = LINE('',#910,#911);
#910 = CARTESIAN_POINT('',(25.,-9.25,1.132798289211E-15));
#911 = VECTOR('',#912,1.);
#912 = DIRECTION('',(0.,-1.224646799147E-16,-1.));
#913 = ORIENTED_EDGE('',*,*,#914,.T.);
#914 = EDGE_CURVE('',#907,#915,#917,.T.);
#915 = VERTEX_POINT('',#916);
#916 = CARTESIAN_POINT('',(25.,54.,0.));
#917 = LINE('',#918,#919);
#918 = CARTESIAN_POINT('',(25.,-70.,0.));
#919 = VECTOR('',#920,1.);
#920 = DIRECTION('',(0.,1.,0.));
#921 = ORIENTED_EDGE('',*,*,#922,.T.);
#922 = EDGE_CURVE('',#915,#923,#925,.T.);
#923 = VERTEX_POINT('',#924);
#924 = CARTESIAN_POINT('',(25.,54.,-18.));
#925 = LINE('',#926,#927);
#926 = CARTESIAN_POINT('',(25.,54.,0.));
#927 = VECTOR('',#928,1.);
#928 = DIRECTION('',(0.,0.,-1.));
#929 = ORIENTED_EDGE('',*,*,#930,.F.);
#930 = EDGE_CURVE('',#255,#923,#931,.T.);
#931 = LINE('',#932,#933);
#932 = CARTESIAN_POINT('',(25.,70.,-18.));
#933 = VECTOR('',#934,1.);
#934 = DIRECTION('',(0.,-1.,0.));
#935 = PLANE('',#936);
#936 = AXIS2_PLACEMENT_3D('',#937,#938,#939);
#937 = CARTESIAN_POINT('',(25.,8.684018619431,-6.404787380584));
#938 = DIRECTION('',(1.,0.,0.));
#939 = DIRECTION('',(0.,0.,1.));
#940 = ADVANCED_FACE('',(#941,#977,#988),#999,.T.);
#941 = FACE_BOUND('',#942,.T.);
#942 = EDGE_LOOP('',(#943,#953,#961,#967,#968,#969,#970,#971));
#943 = ORIENTED_EDGE('',*,*,#944,.T.);
#944 = EDGE_CURVE('',#945,#947,#949,.T.);
#945 = VERTEX_POINT('',#946);
#946 = CARTESIAN_POINT('',(21.,50.,-18.));
#947 = VERTEX_POINT('',#948);
#948 = CARTESIAN_POINT('',(-21.,50.,-18.));
#949 = LINE('',#950,#951);
#950 = CARTESIAN_POINT('',(25.,50.,-18.));
#951 = VECTOR('',#952,1.);
#952 = DIRECTION('',(-1.,0.,0.));
#953 = ORIENTED_EDGE('',*,*,#954,.F.);
#954 = EDGE_CURVE('',#955,#947,#957,.T.);
#955 = VERTEX_POINT('',#956);
#956 = CARTESIAN_POINT('',(-25.,54.,-18.));
#957 = LINE('',#958,#959);
#958 = CARTESIAN_POINT('',(-21.125,50.125,-18.));
#959 = VECTOR('',#960,1.);
#960 = DIRECTION('',(0.707106781187,-0.707106781187,0.));
#961 = ORIENTED_EDGE('',*,*,#962,.T.);
#962 = EDGE_CURVE('',#955,#341,#963,.T.);
#963 = LINE('',#964,#965);
#964 = CARTESIAN_POINT('',(-25.,70.,-18.));
#965 = VECTOR('',#966,1.);
#966 = DIRECTION('',(0.,1.,0.));
#967 = ORIENTED_EDGE('',*,*,#366,.T.);
#968 = ORIENTED_EDGE('',*,*,#866,.T.);
#969 = ORIENTED_EDGE('',*,*,#262,.T.);
#970 = ORIENTED_EDGE('',*,*,#930,.T.);
#971 = ORIENTED_EDGE('',*,*,#972,.T.);
#972 = EDGE_CURVE('',#923,#945,#973,.T.);
#973 = LINE('',#974,#975);
#974 = CARTESIAN_POINT('',(21.125,50.125,-18.));
#975 = VECTOR('',#976,1.);
#976 = DIRECTION('',(-0.707106781187,-0.707106781187,0.));
#977 = FACE_BOUND('',#978,.T.);
#978 = EDGE_LOOP('',(#979));
#979 = ORIENTED_EDGE('',*,*,#980,.T.);
#980 = EDGE_CURVE('',#981,#981,#983,.T.);
#981 = VERTEX_POINT('',#982);
#982 = CARTESIAN_POINT('',(17.65,77.,-18.));
#983 = CIRCLE('',#984,2.65);
#984 = AXIS2_PLACEMENT_3D('',#985,#986,#987);
#985 = CARTESIAN_POINT('',(15.,77.,-18.));
#986 = DIRECTION('',(0.,0.,1.));
#987 = DIRECTION('',(1.,0.,0.));
#988 = FACE_BOUND('',#989,.T.);
#989 = EDGE_LOOP('',(#990));
#990 = ORIENTED_EDGE('',*,*,#991,.T.);
#991 = EDGE_CURVE('',#992,#992,#994,.T.);
#992 = VERTEX_POINT('',#993);
#993 = CARTESIAN_POINT('',(-12.35,77.,-18.));
#994 = CIRCLE('',#995,2.65);
#995 = AXIS2_PLACEMENT_3D('',#996,#997,#998);
#996 = CARTESIAN_POINT('',(-15.,77.,-18.));
#997 = DIRECTION('',(0.,0.,1.));
#998 = DIRECTION('',(1.,0.,0.));
#999 = PLANE('',#1000);
#1000 = AXIS2_PLACEMENT_3D('',#1001,#1002,#1003);
#1001 = CARTESIAN_POINT('',(0.,67.5,-18.));
#1002 = DIRECTION('',(-0.,-0.,-1.));
#1003 = DIRECTION('',(-1.,0.,0.));
#1004 = ADVANCED_FACE('',(#1005),#1025,.T.);
#1005 = FACE_BOUND('',#1006,.T.);
#1006 = EDGE_LOOP('',(#1007,#1008,#1009,#1017,#1023,#1024));
#1007 = ORIENTED_EDGE('',*,*,#340,.F.);
#1008 = ORIENTED_EDGE('',*,*,#962,.F.);
#1009 = ORIENTED_EDGE('',*,*,#1010,.F.);
#1010 = EDGE_CURVE('',#1011,#955,#1013,.T.);
#1011 = VERTEX_POINT('',#1012);
#1012 = CARTESIAN_POINT('',(-25.,54.,0.));
#1013 = LINE('',#1014,#1015);
#1014 = CARTESIAN_POINT('',(-25.,54.,0.));
#1015 = VECTOR('',#1016,1.);
#1016 = DIRECTION('',(0.,0.,-1.));
#1017 = ORIENTED_EDGE('',*,*,#1018,.F.);
#1018 = EDGE_CURVE('',#454,#1011,#1019,.T.);
#1019 = LINE('',#1020,#1021);
#1020 = CARTESIAN_POINT('',(-25.,26.147946084724,0.));
#1021 = VECTOR('',#1022,1.);
#1022 = DIRECTION('',(0.,1.,0.));
#1023 = ORIENTED_EDGE('',*,*,#453,.F.);
#1024 = ORIENTED_EDGE('',*,*,#415,.F.);
#1025 = PLANE('',#1026);
#1026 = AXIS2_PLACEMENT_3D('',#1027,#1028,#1029);
#1027 = CARTESIAN_POINT('',(-25.,60.085365853659,-1.914634146341));
#1028 = DIRECTION('',(-1.,-0.,-0.));
#1029 = DIRECTION('',(0.,0.,-1.));
#1030 = ADVANCED_FACE('',(#1031),#1050,.T.);
#1031 = FACE_BOUND('',#1032,.F.);
#1032 = EDGE_LOOP('',(#1033,#1041,#1042,#1043));
#1033 = ORIENTED_EDGE('',*,*,#1034,.F.);
#1034 = EDGE_CURVE('',#381,#1035,#1037,.T.);
#1035 = VERTEX_POINT('',#1036);
#1036 = CARTESIAN_POINT('',(15.,-70.,-39.));
#1037 = LINE('',#1038,#1039);
#1038 = CARTESIAN_POINT('',(15.,-70.,10.));
#1039 = VECTOR('',#1040,1.);
#1040 = DIRECTION('',(0.,-1.224646799147E-16,-1.));
#1041 = ORIENTED_EDGE('',*,*,#390,.T.);
#1042 = ORIENTED_EDGE('',*,*,#882,.T.);
#1043 = ORIENTED_EDGE('',*,*,#1044,.F.);
#1044 = EDGE_CURVE('',#1035,#883,#1045,.T.);
#1045 = CIRCLE('',#1046,10.);
#1046 = AXIS2_PLACEMENT_3D('',#1047,#1048,#1049);
#1047 = CARTESIAN_POINT('',(15.,-60.,-39.));
#1048 = DIRECTION('',(0.,1.224646799147E-16,1.));
#1049 = DIRECTION('',(0.,1.,-1.224646799147E-16));
#1050 = CYLINDRICAL_SURFACE('',#1051,10.);
#1051 = AXIS2_PLACEMENT_3D('',#1052,#1053,#1054);
#1052 = CARTESIAN_POINT('',(15.,-60.,10.));
#1053 = DIRECTION('',(0.,-1.224646799147E-16,-1.));
#1054 = DIRECTION('',(0.,-1.,1.224646799147E-16));
#1055 = ADVANCED_FACE('',(#1056),#1106,.T.);
#1056 = FACE_BOUND('',#1057,.T.);
#1057 = EDGE_LOOP('',(#1058,#1066,#1074,#1082,#1090,#1098,#1104,#1105));
#1058 = ORIENTED_EDGE('',*,*,#1059,.F.);
#1059 = EDGE_CURVE('',#1060,#430,#1062,.T.);
#1060 = VERTEX_POINT('',#1061);
#1061 = CARTESIAN_POINT('',(-15.,-70.,-39.));
#1062 = LINE('',#1063,#1064);
#1063 = CARTESIAN_POINT('',(-15.,-70.,-39.));
#1064 = VECTOR('',#1065,1.);
#1065 = DIRECTION('',(0.,0.,1.));
#1066 = ORIENTED_EDGE('',*,*,#1067,.F.);
#1067 = EDGE_CURVE('',#1068,#1060,#1070,.T.);
#1068 = VERTEX_POINT('',#1069);
#1069 = CARTESIAN_POINT('',(-9.,-70.,-39.));
#1070 = LINE('',#1071,#1072);
#1071 = CARTESIAN_POINT('',(25.,-70.,-39.));
#1072 = VECTOR('',#1073,1.);
#1073 = DIRECTION('',(-1.,-0.,0.));
#1074 = ORIENTED_EDGE('',*,*,#1075,.T.);
#1075 = EDGE_CURVE('',#1068,#1076,#1078,.T.);
#1076 = VERTEX_POINT('',#1077);
#1077 = CARTESIAN_POINT('',(-9.,-70.,-28.));
#1078 = LINE('',#1079,#1080);
#1079 = CARTESIAN_POINT('',(-9.,-70.,-39.));
#1080 = VECTOR('',#1081,1.);
#1081 = DIRECTION('',(0.,0.,1.));
#1082 = ORIENTED_EDGE('',*,*,#1083,.F.);
#1083 = EDGE_CURVE('',#1084,#1076,#1086,.T.);
#1084 = VERTEX_POINT('',#1085);
#1085 = CARTESIAN_POINT('',(9.,-70.,-28.));
#1086 = LINE('',#1087,#1088);
#1087 = CARTESIAN_POINT('',(9.,-70.,-28.));
#1088 = VECTOR('',#1089,1.);
#1089 = DIRECTION('',(-1.,0.,0.));
#1090 = ORIENTED_EDGE('',*,*,#1091,.F.);
#1091 = EDGE_CURVE('',#1092,#1084,#1094,.T.);
#1092 = VERTEX_POINT('',#1093);
#1093 = CARTESIAN_POINT('',(9.,-70.,-39.));
#1094 = LINE('',#1095,#1096);
#1095 = CARTESIAN_POINT('',(9.,-70.,-39.));
#1096 = VECTOR('',#1097,1.);
#1097 = DIRECTION('',(0.,0.,1.));
#1098 = ORIENTED_EDGE('',*,*,#1099,.F.);
#1099 = EDGE_CURVE('',#1035,#1092,#1100,.T.);
#1100 = LINE('',#1101,#1102);
#1101 = CARTESIAN_POINT('',(25.,-70.,-39.));
#1102 = VECTOR('',#1103,1.);
#1103 = DIRECTION('',(-1.,-0.,0.));
#1104 = ORIENTED_EDGE('',*,*,#1034,.F.);
#1105 = ORIENTED_EDGE('',*,*,#439,.F.);
#1106 = PLANE('',#1107);
#1107 = AXIS2_PLACEMENT_3D('',#1108,#1109,#1110);
#1108 = CARTESIAN_POINT('',(0.,-70.,-14.5));
#1109 = DIRECTION('',(-0.,-1.,-0.));
#1110 = DIRECTION('',(0.,0.,-1.));
#1111 = ADVANCED_FACE('',(#1112),#1199,.T.);
#1112 = FACE_BOUND('',#1113,.T.);
#1113 = EDGE_LOOP('',(#1114,#1124,#1130,#1131,#1139,#1145,#1146,#1152,
    #1153,#1161,#1169,#1177,#1185,#1191,#1192,#1193));
#1114 = ORIENTED_EDGE('',*,*,#1115,.F.);
#1115 = EDGE_CURVE('',#1116,#1118,#1120,.T.);
#1116 = VERTEX_POINT('',#1117);
#1117 = CARTESIAN_POINT('',(21.,50.,0.));
#1118 = VERTEX_POINT('',#1119);
#1119 = CARTESIAN_POINT('',(-21.,50.,0.));
#1120 = LINE('',#1121,#1122);
#1121 = CARTESIAN_POINT('',(25.,50.,0.));
#1122 = VECTOR('',#1123,1.);
#1123 = DIRECTION('',(-1.,0.,0.));
#1124 = ORIENTED_EDGE('',*,*,#1125,.F.);
#1125 = EDGE_CURVE('',#915,#1116,#1126,.T.);
#1126 = LINE('',#1127,#1128);
#1127 = CARTESIAN_POINT('',(0.855263157895,29.855263157895,0.));
#1128 = VECTOR('',#1129,1.);
#1129 = DIRECTION('',(-0.707106781187,-0.707106781187,0.));
#1130 = ORIENTED_EDGE('',*,*,#914,.F.);
#1131 = ORIENTED_EDGE('',*,*,#1132,.F.);
#1132 = EDGE_CURVE('',#1133,#907,#1135,.T.);
#1133 = VERTEX_POINT('',#1134);
#1134 = CARTESIAN_POINT('',(-25.,-9.25,1.132798289211E-15));
#1135 = LINE('',#1136,#1137);
#1136 = CARTESIAN_POINT('',(-25.,-9.25,1.132798289211E-15));
#1137 = VECTOR('',#1138,1.);
#1138 = DIRECTION('',(1.,0.,0.));
#1139 = ORIENTED_EDGE('',*,*,#1140,.F.);
#1140 = EDGE_CURVE('',#588,#1133,#1141,.T.);
#1141 = LINE('',#1142,#1143);
#1142 = CARTESIAN_POINT('',(-25.,70.,0.));
#1143 = VECTOR('',#1144,1.);
#1144 = DIRECTION('',(0.,-1.,0.));
#1145 = ORIENTED_EDGE('',*,*,#595,.T.);
#1146 = ORIENTED_EDGE('',*,*,#1147,.T.);
#1147 = EDGE_CURVE('',#596,#644,#1148,.T.);
#1148 = LINE('',#1149,#1150);
#1149 = CARTESIAN_POINT('',(-25.525,-8.525,0.));
#1150 = VECTOR('',#1151,1.);
#1151 = DIRECTION('',(-0.707106781187,0.707106781187,0.));
#1152 = ORIENTED_EDGE('',*,*,#643,.T.);
#1153 = ORIENTED_EDGE('',*,*,#1154,.T.);
#1154 = EDGE_CURVE('',#636,#1155,#1157,.T.);
#1155 = VERTEX_POINT('',#1156);
#1156 = CARTESIAN_POINT('',(-40.,21.,0.));
#1157 = LINE('',#1158,#1159);
#1158 = CARTESIAN_POINT('',(-25.5,6.5,0.));
#1159 = VECTOR('',#1160,1.);
#1160 = DIRECTION('',(0.707106781187,-0.707106781187,0.));
#1161 = ORIENTED_EDGE('',*,*,#1162,.F.);
#1162 = EDGE_CURVE('',#1163,#1155,#1165,.T.);
#1163 = VERTEX_POINT('',#1164);
#1164 = CARTESIAN_POINT('',(-30.,21.,0.));
#1165 = LINE('',#1166,#1167);
#1166 = CARTESIAN_POINT('',(-25.,21.,0.));
#1167 = VECTOR('',#1168,1.);
#1168 = DIRECTION('',(-1.,0.,0.));
#1169 = ORIENTED_EDGE('',*,*,#1170,.T.);
#1170 = EDGE_CURVE('',#1163,#1171,#1173,.T.);
#1171 = VERTEX_POINT('',#1172);
#1172 = CARTESIAN_POINT('',(-25.,26.,0.));
#1173 = LINE('',#1174,#1175);
#1174 = CARTESIAN_POINT('',(-29.8947368421,21.105263157895,0.));
#1175 = VECTOR('',#1176,1.);
#1176 = DIRECTION('',(0.707106781187,0.707106781187,0.));
#1177 = ORIENTED_EDGE('',*,*,#1178,.F.);
#1178 = EDGE_CURVE('',#1179,#1171,#1181,.T.);
#1179 = VERTEX_POINT('',#1180);
#1180 = CARTESIAN_POINT('',(-25.,42.,0.));
#1181 = LINE('',#1182,#1183);
#1182 = CARTESIAN_POINT('',(-25.,31.,0.));
#1183 = VECTOR('',#1184,1.);
#1184 = DIRECTION('',(0.,-1.,0.));
#1185 = ORIENTED_EDGE('',*,*,#1186,.F.);
#1186 = EDGE_CURVE('',#462,#1179,#1187,.T.);
#1187 = LINE('',#1188,#1189);
#1188 = CARTESIAN_POINT('',(-9.,26.,0.));
#1189 = VECTOR('',#1190,1.);
#1190 = DIRECTION('',(0.707106781187,-0.707106781187,0.));
#1191 = ORIENTED_EDGE('',*,*,#461,.F.);
#1192 = ORIENTED_EDGE('',*,*,#1018,.T.);
#1193 = ORIENTED_EDGE('',*,*,#1194,.T.);
#1194 = EDGE_CURVE('',#1011,#1118,#1195,.T.);
#1195 = LINE('',#1196,#1197);
#1196 = CARTESIAN_POINT('',(-3.75,32.75,0.));
#1197 = VECTOR('',#1198,1.);
#1198 = DIRECTION('',(0.707106781187,-0.707106781187,0.));
#1199 = PLANE('',#1200);
#1200 = AXIS2_PLACEMENT_3D('',#1201,#1202,#1203);
#1201 = CARTESIAN_POINT('',(-5.789473684211,-7.789473684211,0.));
#1202 = DIRECTION('',(-0.,-0.,-1.));
#1203 = DIRECTION('',(-1.,0.,0.));
#1204 = ADVANCED_FACE('',(#1205),#1223,.T.);
#1205 = FACE_BOUND('',#1206,.F.);
#1206 = EDGE_LOOP('',(#1207,#1208,#1209,#1217));
#1207 = ORIENTED_EDGE('',*,*,#1186,.F.);
#1208 = ORIENTED_EDGE('',*,*,#469,.T.);
#1209 = ORIENTED_EDGE('',*,*,#1210,.T.);
#1210 = EDGE_CURVE('',#470,#1211,#1213,.T.);
#1211 = VERTEX_POINT('',#1212);
#1212 = CARTESIAN_POINT('',(-25.,42.,-20.));
#1213 = LINE('',#1214,#1215);
#1214 = CARTESIAN_POINT('',(-26.75,43.75,-20.));
#1215 = VECTOR('',#1216,1.);
#1216 = DIRECTION('',(0.707106781187,-0.707106781187,0.));
#1217 = ORIENTED_EDGE('',*,*,#1218,.F.);
#1218 = EDGE_CURVE('',#1179,#1211,#1219,.T.);
#1219 = LINE('',#1220,#1221);
#1220 = CARTESIAN_POINT('',(-25.,42.,0.));
#1221 = VECTOR('',#1222,1.);
#1222 = DIRECTION('',(0.,0.,-1.));
#1223 = PLANE('',#1224);
#1224 = AXIS2_PLACEMENT_3D('',#1225,#1226,#1227);
#1225 = CARTESIAN_POINT('',(-27.5,44.5,0.));
#1226 = DIRECTION('',(0.707106781187,0.707106781187,0.));
#1227 = DIRECTION('',(0.,0.,1.));
#1228 = ADVANCED_FACE('',(#1229),#1265,.T.);
#1229 = FACE_BOUND('',#1230,.T.);
#1230 = EDGE_LOOP('',(#1231,#1232,#1233,#1234,#1235,#1243,#1251,#1259));
#1231 = ORIENTED_EDGE('',*,*,#627,.T.);
#1232 = ORIENTED_EDGE('',*,*,#570,.T.);
#1233 = ORIENTED_EDGE('',*,*,#477,.T.);
#1234 = ORIENTED_EDGE('',*,*,#1210,.T.);
#1235 = ORIENTED_EDGE('',*,*,#1236,.T.);
#1236 = EDGE_CURVE('',#1211,#1237,#1239,.T.);
#1237 = VERTEX_POINT('',#1238);
#1238 = CARTESIAN_POINT('',(-25.,26.,-20.));
#1239 = LINE('',#1240,#1241);
#1240 = CARTESIAN_POINT('',(-25.,31.,-20.));
#1241 = VECTOR('',#1242,1.);
#1242 = DIRECTION('',(0.,-1.,0.));
#1243 = ORIENTED_EDGE('',*,*,#1244,.F.);
#1244 = EDGE_CURVE('',#1245,#1237,#1247,.T.);
#1245 = VERTEX_POINT('',#1246);
#1246 = CARTESIAN_POINT('',(-30.,21.,-20.));
#1247 = LINE('',#1248,#1249);
#1248 = CARTESIAN_POINT('',(-26.75,24.25,-20.));
#1249 = VECTOR('',#1250,1.);
#1250 = DIRECTION('',(0.707106781187,0.707106781187,0.));
#1251 = ORIENTED_EDGE('',*,*,#1252,.T.);
#1252 = EDGE_CURVE('',#1245,#1253,#1255,.T.);
#1253 = VERTEX_POINT('',#1254);
#1254 = CARTESIAN_POINT('',(-40.,21.,-20.));
#1255 = LINE('',#1256,#1257);
#1256 = CARTESIAN_POINT('',(-25.,21.,-20.));
#1257 = VECTOR('',#1258,1.);
#1258 = DIRECTION('',(-1.,0.,0.));
#1259 = ORIENTED_EDGE('',*,*,#1260,.F.);
#1260 = EDGE_CURVE('',#628,#1253,#1261,.T.);
#1261 = LINE('',#1262,#1263);
#1262 = CARTESIAN_POINT('',(-43.25,24.25,-20.));
#1263 = VECTOR('',#1264,1.);
#1264 = DIRECTION('',(0.707106781187,-0.707106781187,0.));
#1265 = PLANE('',#1266);
#1266 = AXIS2_PLACEMENT_3D('',#1267,#1268,#1269);
#1267 = CARTESIAN_POINT('',(-35.,34.,-20.));
#1268 = DIRECTION('',(-0.,-0.,-1.));
#1269 = DIRECTION('',(-1.,0.,0.));
#1270 = ADVANCED_FACE('',(#1271),#1289,.F.);
#1271 = FACE_BOUND('',#1272,.F.);
#1272 = EDGE_LOOP('',(#1273,#1282,#1287,#1288));
#1273 = ORIENTED_EDGE('',*,*,#1274,.F.);
#1274 = EDGE_CURVE('',#1275,#1275,#1277,.T.);
#1275 = VERTEX_POINT('',#1276);
#1276 = CARTESIAN_POINT('',(-32.35,30.,-10.));
#1277 = CIRCLE('',#1278,2.65);
#1278 = AXIS2_PLACEMENT_3D('',#1279,#1280,#1281);
#1279 = CARTESIAN_POINT('',(-35.,30.,-10.));
#1280 = DIRECTION('',(0.,-1.,2.22044604925E-16));
#1281 = DIRECTION('',(1.,0.,0.));
#1282 = ORIENTED_EDGE('',*,*,#1283,.F.);
#1283 = EDGE_CURVE('',#496,#1275,#1284,.T.);
#1284 = B_SPLINE_CURVE_WITH_KNOTS('',1,(#1285,#1286),.UNSPECIFIED.,.F.,
  .F.,(2,2),(-16.,10.),.PIECEWISE_BEZIER_KNOTS.);
#1285 = CARTESIAN_POINT('',(-32.35,47.,-10.));
#1286 = CARTESIAN_POINT('',(-32.35,21.,-10.));
#1287 = ORIENTED_EDGE('',*,*,#495,.T.);
#1288 = ORIENTED_EDGE('',*,*,#1283,.T.);
#1289 = CYLINDRICAL_SURFACE('',#1290,2.65);
#1290 = AXIS2_PLACEMENT_3D('',#1291,#1292,#1293);
#1291 = CARTESIAN_POINT('',(-35.,31.,-10.));
#1292 = DIRECTION('',(0.,-1.,2.22044604925E-16));
#1293 = DIRECTION('',(1.,0.,0.));
#1294 = ADVANCED_FACE('',(#1295),#1314,.T.);
#1295 = FACE_BOUND('',#1296,.T.);
#1296 = EDGE_LOOP('',(#1297,#1305,#1312,#1313));
#1297 = ORIENTED_EDGE('',*,*,#1298,.F.);
#1298 = EDGE_CURVE('',#1299,#513,#1301,.T.);
#1299 = VERTEX_POINT('',#1300);
#1300 = CARTESIAN_POINT('',(-25.,-60.,-39.));
#1301 = LINE('',#1302,#1303);
#1302 = CARTESIAN_POINT('',(-25.,-60.,-39.));
#1303 = VECTOR('',#1304,1.);
#1304 = DIRECTION('',(0.,0.,1.));
#1305 = ORIENTED_EDGE('',*,*,#1306,.T.);
#1306 = EDGE_CURVE('',#1299,#1060,#1307,.T.);
#1307 = CIRCLE('',#1308,10.);
#1308 = AXIS2_PLACEMENT_3D('',#1309,#1310,#1311);
#1309 = CARTESIAN_POINT('',(-15.,-60.,-39.));
#1310 = DIRECTION('',(-0.,0.,1.));
#1311 = DIRECTION('',(0.,-1.,0.));
#1312 = ORIENTED_EDGE('',*,*,#1059,.T.);
#1313 = ORIENTED_EDGE('',*,*,#522,.F.);
#1314 = CYLINDRICAL_SURFACE('',#1315,10.);
#1315 = AXIS2_PLACEMENT_3D('',#1316,#1317,#1318);
#1316 = CARTESIAN_POINT('',(-15.,-60.,-39.));
#1317 = DIRECTION('',(0.,0.,1.));
#1318 = DIRECTION('',(-1.,0.,0.));
#1319 = ADVANCED_FACE('',(#1320),#1348,.T.);
#1320 = FACE_BOUND('',#1321,.T.);
#1321 = EDGE_LOOP('',(#1322,#1323,#1324,#1325,#1326,#1334,#1342));
#1322 = ORIENTED_EDGE('',*,*,#1298,.T.);
#1323 = ORIENTED_EDGE('',*,*,#547,.F.);
#1324 = ORIENTED_EDGE('',*,*,#587,.F.);
#1325 = ORIENTED_EDGE('',*,*,#1140,.T.);
#1326 = ORIENTED_EDGE('',*,*,#1327,.T.);
#1327 = EDGE_CURVE('',#1133,#1328,#1330,.T.);
#1328 = VERTEX_POINT('',#1329);
#1329 = CARTESIAN_POINT('',(-25.,-9.25,-30.));
#1330 = LINE('',#1331,#1332);
#1331 = CARTESIAN_POINT('',(-25.,-9.25,1.132798289211E-15));
#1332 = VECTOR('',#1333,1.);
#1333 = DIRECTION('',(0.,-1.224646799147E-16,-1.));
#1334 = ORIENTED_EDGE('',*,*,#1335,.T.);
#1335 = EDGE_CURVE('',#1328,#1336,#1338,.T.);
#1336 = VERTEX_POINT('',#1337);
#1337 = CARTESIAN_POINT('',(-25.,-18.25,-39.));
#1338 = LINE('',#1339,#1340);
#1339 = CARTESIAN_POINT('',(-25.,-15.1875,-35.9375));
#1340 = VECTOR('',#1341,1.);
#1341 = DIRECTION('',(0.,-0.707106781187,-0.707106781187));
#1342 = ORIENTED_EDGE('',*,*,#1343,.F.);
#1343 = EDGE_CURVE('',#1299,#1336,#1344,.T.);
#1344 = LINE('',#1345,#1346);
#1345 = CARTESIAN_POINT('',(-25.,-70.,-39.));
#1346 = VECTOR('',#1347,1.);
#1347 = DIRECTION('',(0.,1.,-1.224646799147E-16));
#1348 = PLANE('',#1349);
#1349 = AXIS2_PLACEMENT_3D('',#1350,#1351,#1352);
#1350 = CARTESIAN_POINT('',(-25.,-39.54431818181,-14.45568181818));
#1351 = DIRECTION('',(-1.,-0.,-0.));
#1352 = DIRECTION('',(0.,0.,-1.));
#1353 = ADVANCED_FACE('',(#1354),#1360,.F.);
#1354 = FACE_BOUND('',#1355,.T.);
#1355 = EDGE_LOOP('',(#1356,#1357,#1358,#1359));
#1356 = ORIENTED_EDGE('',*,*,#603,.T.);
#1357 = ORIENTED_EDGE('',*,*,#676,.T.);
#1358 = ORIENTED_EDGE('',*,*,#651,.F.);
#1359 = ORIENTED_EDGE('',*,*,#1147,.F.);
#1360 = PLANE('',#1361);
#1361 = AXIS2_PLACEMENT_3D('',#1362,#1363,#1364);
#1362 = CARTESIAN_POINT('',(-35.025,0.975,0.));
#1363 = DIRECTION('',(0.707106781187,0.707106781187,0.));
#1364 = DIRECTION('',(-0.,-0.,-1.));
#1365 = ADVANCED_FACE('',(#1366),#1377,.F.);
#1366 = FACE_BOUND('',#1367,.T.);
#1367 = EDGE_LOOP('',(#1368,#1369,#1370,#1371));
#1368 = ORIENTED_EDGE('',*,*,#1154,.F.);
#1369 = ORIENTED_EDGE('',*,*,#635,.T.);
#1370 = ORIENTED_EDGE('',*,*,#1260,.T.);
#1371 = ORIENTED_EDGE('',*,*,#1372,.F.);
#1372 = EDGE_CURVE('',#1155,#1253,#1373,.T.);
#1373 = LINE('',#1374,#1375);
#1374 = CARTESIAN_POINT('',(-40.,21.,0.));
#1375 = VECTOR('',#1376,1.);
#1376 = DIRECTION('',(0.,0.,-1.));
#1377 = PLANE('',#1378);
#1378 = AXIS2_PLACEMENT_3D('',#1379,#1380,#1381);
#1379 = CARTESIAN_POINT('',(-42.5,23.5,0.));
#1380 = DIRECTION('',(0.707106781187,0.707106781187,0.));
#1381 = DIRECTION('',(0.,0.,1.));
#1382 = ADVANCED_FACE('',(#1383,#1386),#1397,.T.);
#1383 = FACE_BOUND('',#1384,.T.);
#1384 = EDGE_LOOP('',(#1385));
#1385 = ORIENTED_EDGE('',*,*,#698,.T.);
#1386 = FACE_BOUND('',#1387,.T.);
#1387 = EDGE_LOOP('',(#1388));
#1388 = ORIENTED_EDGE('',*,*,#1389,.F.);
#1389 = EDGE_CURVE('',#1390,#1390,#1392,.T.);
#1390 = VERTEX_POINT('',#1391);
#1391 = CARTESIAN_POINT('',(-13.75,-58.,5.));
#1392 = CIRCLE('',#1393,1.75);
#1393 = AXIS2_PLACEMENT_3D('',#1394,#1395,#1396);
#1394 = CARTESIAN_POINT('',(-15.5,-58.,5.));
#1395 = DIRECTION('',(0.,0.,1.));
#1396 = DIRECTION('',(1.,0.,0.));
#1397 = PLANE('',#1398);
#1398 = AXIS2_PLACEMENT_3D('',#1399,#1400,#1401);
#1399 = CARTESIAN_POINT('',(1.041859148601E-15,8.714285714286,5.));
#1400 = DIRECTION('',(0.,0.,1.));
#1401 = DIRECTION('',(1.,0.,0.));
#1402 = ADVANCED_FACE('',(#1403,#1406),#1417,.T.);
#1403 = FACE_BOUND('',#1404,.T.);
#1404 = EDGE_LOOP('',(#1405));
#1405 = ORIENTED_EDGE('',*,*,#723,.T.);
#1406 = FACE_BOUND('',#1407,.T.);
#1407 = EDGE_LOOP('',(#1408));
#1408 = ORIENTED_EDGE('',*,*,#1409,.F.);
#1409 = EDGE_CURVE('',#1410,#1410,#1412,.T.);
#1410 = VERTEX_POINT('',#1411);
#1411 = CARTESIAN_POINT('',(-13.75,-27.,5.));
#1412 = CIRCLE('',#1413,1.75);
#1413 = AXIS2_PLACEMENT_3D('',#1414,#1415,#1416);
#1414 = CARTESIAN_POINT('',(-15.5,-27.,5.));
#1415 = DIRECTION('',(0.,0.,1.));
#1416 = DIRECTION('',(1.,0.,0.));
#1417 = PLANE('',#1418);
#1418 = AXIS2_PLACEMENT_3D('',#1419,#1420,#1421);
#1419 = CARTESIAN_POINT('',(1.041859148601E-15,8.714285714286,5.));
#1420 = DIRECTION('',(0.,0.,1.));
#1421 = DIRECTION('',(1.,0.,0.));
#1422 = ADVANCED_FACE('',(#1423,#1426),#1437,.T.);
#1423 = FACE_BOUND('',#1424,.T.);
#1424 = EDGE_LOOP('',(#1425));
#1425 = ORIENTED_EDGE('',*,*,#748,.T.);
#1426 = FACE_BOUND('',#1427,.T.);
#1427 = EDGE_LOOP('',(#1428));
#1428 = ORIENTED_EDGE('',*,*,#1429,.F.);
#1429 = EDGE_CURVE('',#1430,#1430,#1432,.T.);
#1430 = VERTEX_POINT('',#1431);
#1431 = CARTESIAN_POINT('',(17.25,-58.,5.));
#1432 = CIRCLE('',#1433,1.75);
#1433 = AXIS2_PLACEMENT_3D('',#1434,#1435,#1436);
#1434 = CARTESIAN_POINT('',(15.5,-58.,5.));
#1435 = DIRECTION('',(0.,0.,1.));
#1436 = DIRECTION('',(1.,0.,0.));
#1437 = PLANE('',#1438);
#1438 = AXIS2_PLACEMENT_3D('',#1439,#1440,#1441);
#1439 = CARTESIAN_POINT('',(1.041859148601E-15,8.714285714286,5.));
#1440 = DIRECTION('',(0.,0.,1.));
#1441 = DIRECTION('',(1.,0.,0.));
#1442 = ADVANCED_FACE('',(#1443,#1446),#1457,.T.);
#1443 = FACE_BOUND('',#1444,.T.);
#1444 = EDGE_LOOP('',(#1445));
#1445 = ORIENTED_EDGE('',*,*,#773,.T.);
#1446 = FACE_BOUND('',#1447,.T.);
#1447 = EDGE_LOOP('',(#1448));
#1448 = ORIENTED_EDGE('',*,*,#1449,.F.);
#1449 = EDGE_CURVE('',#1450,#1450,#1452,.T.);
#1450 = VERTEX_POINT('',#1451);
#1451 = CARTESIAN_POINT('',(17.25,-27.,5.));
#1452 = CIRCLE('',#1453,1.75);
#1453 = AXIS2_PLACEMENT_3D('',#1454,#1455,#1456);
#1454 = CARTESIAN_POINT('',(15.5,-27.,5.));
#1455 = DIRECTION('',(0.,0.,1.));
#1456 = DIRECTION('',(1.,0.,0.));
#1457 = PLANE('',#1458);
#1458 = AXIS2_PLACEMENT_3D('',#1459,#1460,#1461);
#1459 = CARTESIAN_POINT('',(1.041859148601E-15,8.714285714286,5.));
#1460 = DIRECTION('',(0.,0.,1.));
#1461 = DIRECTION('',(1.,0.,0.));
#1462 = ADVANCED_FACE('',(#1463,#1466),#1477,.T.);
#1463 = FACE_BOUND('',#1464,.T.);
#1464 = EDGE_LOOP('',(#1465));
#1465 = ORIENTED_EDGE('',*,*,#790,.T.);
#1466 = FACE_BOUND('',#1467,.T.);
#1467 = EDGE_LOOP('',(#1468));
#1468 = ORIENTED_EDGE('',*,*,#1469,.F.);
#1469 = EDGE_CURVE('',#1470,#1470,#1472,.T.);
#1470 = VERTEX_POINT('',#1471);
#1471 = CARTESIAN_POINT('',(-12.35,77.,-1.));
#1472 = CIRCLE('',#1473,2.65);
#1473 = AXIS2_PLACEMENT_3D('',#1474,#1475,#1476);
#1474 = CARTESIAN_POINT('',(-15.,77.,-1.));
#1475 = DIRECTION('',(0.,0.,1.));
#1476 = DIRECTION('',(1.,0.,0.));
#1477 = PLANE('',#1478);
#1478 = AXIS2_PLACEMENT_3D('',#1479,#1480,#1481);
#1479 = CARTESIAN_POINT('',(1.041859148601E-15,8.714285714286,-1.));
#1480 = DIRECTION('',(0.,0.,1.));
#1481 = DIRECTION('',(1.,0.,0.));
#1482 = ADVANCED_FACE('',(#1483,#1486),#1497,.T.);
#1483 = FACE_BOUND('',#1484,.T.);
#1484 = EDGE_LOOP('',(#1485));
#1485 = ORIENTED_EDGE('',*,*,#814,.T.);
#1486 = FACE_BOUND('',#1487,.T.);
#1487 = EDGE_LOOP('',(#1488));
#1488 = ORIENTED_EDGE('',*,*,#1489,.F.);
#1489 = EDGE_CURVE('',#1490,#1490,#1492,.T.);
#1490 = VERTEX_POINT('',#1491);
#1491 = CARTESIAN_POINT('',(17.65,77.,-1.));
#1492 = CIRCLE('',#1493,2.65);
#1493 = AXIS2_PLACEMENT_3D('',#1494,#1495,#1496);
#1494 = CARTESIAN_POINT('',(15.,77.,-1.));
#1495 = DIRECTION('',(0.,0.,1.));
#1496 = DIRECTION('',(1.,0.,0.));
#1497 = PLANE('',#1498);
#1498 = AXIS2_PLACEMENT_3D('',#1499,#1500,#1501);
#1499 = CARTESIAN_POINT('',(1.041859148601E-15,8.714285714286,-1.));
#1500 = DIRECTION('',(0.,0.,1.));
#1501 = DIRECTION('',(1.,0.,0.));
#1502 = ADVANCED_FACE('',(#1503,#1537,#1548,#1559,#1570,#1573),#1584,.F.
  );
#1503 = FACE_BOUND('',#1504,.F.);
#1504 = EDGE_LOOP('',(#1505,#1515,#1523,#1531));
#1505 = ORIENTED_EDGE('',*,*,#1506,.F.);
#1506 = EDGE_CURVE('',#1507,#1509,#1511,.T.);
#1507 = VERTEX_POINT('',#1508);
#1508 = CARTESIAN_POINT('',(-21.5,-64.,7.105427357601E-15));
#1509 = VERTEX_POINT('',#1510);
#1510 = CARTESIAN_POINT('',(-21.5,-21.,7.105427357601E-15));
#1511 = LINE('',#1512,#1513);
#1512 = CARTESIAN_POINT('',(-21.5,-64.,7.105427357601E-15));
#1513 = VECTOR('',#1514,1.);
#1514 = DIRECTION('',(0.,1.,0.));
#1515 = ORIENTED_EDGE('',*,*,#1516,.F.);
#1516 = EDGE_CURVE('',#1517,#1507,#1519,.T.);
#1517 = VERTEX_POINT('',#1518);
#1518 = CARTESIAN_POINT('',(21.5,-64.,7.105427357601E-15));
#1519 = LINE('',#1520,#1521);
#1520 = CARTESIAN_POINT('',(21.5,-64.,7.105427357601E-15));
#1521 = VECTOR('',#1522,1.);
#1522 = DIRECTION('',(-1.,0.,0.));
#1523 = ORIENTED_EDGE('',*,*,#1524,.F.);
#1524 = EDGE_CURVE('',#1525,#1517,#1527,.T.);
#1525 = VERTEX_POINT('',#1526);
#1526 = CARTESIAN_POINT('',(21.5,-21.,7.105427357601E-15));
#1527 = LINE('',#1528,#1529);
#1528 = CARTESIAN_POINT('',(21.5,-21.,7.105427357601E-15));
#1529 = VECTOR('',#1530,1.);
#1530 = DIRECTION('',(0.,-1.,0.));
#1531 = ORIENTED_EDGE('',*,*,#1532,.F.);
#1532 = EDGE_CURVE('',#1509,#1525,#1533,.T.);
#1533 = LINE('',#1534,#1535);
#1534 = CARTESIAN_POINT('',(-21.5,-21.,7.105427357601E-15));
#1535 = VECTOR('',#1536,1.);
#1536 = DIRECTION('',(1.,0.,0.));
#1537 = FACE_BOUND('',#1538,.F.);
#1538 = EDGE_LOOP('',(#1539));
#1539 = ORIENTED_EDGE('',*,*,#1540,.F.);
#1540 = EDGE_CURVE('',#1541,#1541,#1543,.T.);
#1541 = VERTEX_POINT('',#1542);
#1542 = CARTESIAN_POINT('',(-13.75,-58.,7.105427357601E-15));
#1543 = CIRCLE('',#1544,1.75);
#1544 = AXIS2_PLACEMENT_3D('',#1545,#1546,#1547);
#1545 = CARTESIAN_POINT('',(-15.5,-58.,7.105427357601E-15));
#1546 = DIRECTION('',(0.,0.,1.));
#1547 = DIRECTION('',(1.,0.,0.));
#1548 = FACE_BOUND('',#1549,.F.);
#1549 = EDGE_LOOP('',(#1550));
#1550 = ORIENTED_EDGE('',*,*,#1551,.F.);
#1551 = EDGE_CURVE('',#1552,#1552,#1554,.T.);
#1552 = VERTEX_POINT('',#1553);
#1553 = CARTESIAN_POINT('',(17.25,-58.,7.105427357601E-15));
#1554 = CIRCLE('',#1555,1.75);
#1555 = AXIS2_PLACEMENT_3D('',#1556,#1557,#1558);
#1556 = CARTESIAN_POINT('',(15.5,-58.,7.105427357601E-15));
#1557 = DIRECTION('',(0.,0.,1.));
#1558 = DIRECTION('',(1.,0.,0.));
#1559 = FACE_BOUND('',#1560,.F.);
#1560 = EDGE_LOOP('',(#1561));
#1561 = ORIENTED_EDGE('',*,*,#1562,.F.);
#1562 = EDGE_CURVE('',#1563,#1563,#1565,.T.);
#1563 = VERTEX_POINT('',#1564);
#1564 = CARTESIAN_POINT('',(-13.75,-27.,7.105427357601E-15));
#1565 = CIRCLE('',#1566,1.75);
#1566 = AXIS2_PLACEMENT_3D('',#1567,#1568,#1569);
#1567 = CARTESIAN_POINT('',(-15.5,-27.,7.105427357601E-15));
#1568 = DIRECTION('',(0.,0.,1.));
#1569 = DIRECTION('',(1.,0.,0.));
#1570 = FACE_BOUND('',#1571,.F.);
#1571 = EDGE_LOOP('',(#1572));
#1572 = ORIENTED_EDGE('',*,*,#848,.F.);
#1573 = FACE_BOUND('',#1574,.F.);
#1574 = EDGE_LOOP('',(#1575));
#1575 = ORIENTED_EDGE('',*,*,#1576,.F.);
#1576 = EDGE_CURVE('',#1577,#1577,#1579,.T.);
#1577 = VERTEX_POINT('',#1578);
#1578 = CARTESIAN_POINT('',(17.25,-27.,7.105427357601E-15));
#1579 = CIRCLE('',#1580,1.75);
#1580 = AXIS2_PLACEMENT_3D('',#1581,#1582,#1583);
#1581 = CARTESIAN_POINT('',(15.5,-27.,7.105427357601E-15));
#1582 = DIRECTION('',(0.,0.,1.));
#1583 = DIRECTION('',(1.,0.,0.));
#1584 = PLANE('',#1585);
#1585 = AXIS2_PLACEMENT_3D('',#1586,#1587,#1588);
#1586 = CARTESIAN_POINT('',(0.,-42.5,7.105427357601E-15));
#1587 = DIRECTION('',(0.,0.,1.));
#1588 = DIRECTION('',(1.,0.,0.));
#1589 = ADVANCED_FACE('',(#1590),#1601,.F.);
#1590 = FACE_BOUND('',#1591,.F.);
#1591 = EDGE_LOOP('',(#1592,#1593,#1594,#1595));
#1592 = ORIENTED_EDGE('',*,*,#1125,.F.);
#1593 = ORIENTED_EDGE('',*,*,#922,.T.);
#1594 = ORIENTED_EDGE('',*,*,#972,.T.);
#1595 = ORIENTED_EDGE('',*,*,#1596,.F.);
#1596 = EDGE_CURVE('',#1116,#945,#1597,.T.);
#1597 = LINE('',#1598,#1599);
#1598 = CARTESIAN_POINT('',(21.,50.,0.));
#1599 = VECTOR('',#1600,1.);
#1600 = DIRECTION('',(0.,0.,-1.));
#1601 = PLANE('',#1602);
#1602 = AXIS2_PLACEMENT_3D('',#1603,#1604,#1605);
#1603 = CARTESIAN_POINT('',(23.,52.,0.));
#1604 = DIRECTION('',(-0.707106781187,0.707106781187,0.));
#1605 = DIRECTION('',(0.,0.,-1.));
#1606 = ADVANCED_FACE('',(#1607),#1675,.F.);
#1607 = FACE_BOUND('',#1608,.F.);
#1608 = EDGE_LOOP('',(#1609,#1610,#1611,#1612,#1620,#1628,#1636,#1644,
    #1652,#1660,#1666,#1667,#1668,#1669));
#1609 = ORIENTED_EDGE('',*,*,#1343,.F.);
#1610 = ORIENTED_EDGE('',*,*,#1306,.T.);
#1611 = ORIENTED_EDGE('',*,*,#1067,.F.);
#1612 = ORIENTED_EDGE('',*,*,#1613,.T.);
#1613 = EDGE_CURVE('',#1068,#1614,#1616,.T.);
#1614 = VERTEX_POINT('',#1615);
#1615 = CARTESIAN_POINT('',(-9.,-64.,-39.));
#1616 = LINE('',#1617,#1618);
#1617 = CARTESIAN_POINT('',(-9.,-70.,-39.));
#1618 = VECTOR('',#1619,1.);
#1619 = DIRECTION('',(0.,1.,0.));
#1620 = ORIENTED_EDGE('',*,*,#1621,.T.);
#1621 = EDGE_CURVE('',#1614,#1622,#1624,.T.);
#1622 = VERTEX_POINT('',#1623);
#1623 = CARTESIAN_POINT('',(-21.5,-64.,-39.));
#1624 = LINE('',#1625,#1626);
#1625 = CARTESIAN_POINT('',(21.5,-64.,-39.));
#1626 = VECTOR('',#1627,1.);
#1627 = DIRECTION('',(-1.,0.,0.));
#1628 = ORIENTED_EDGE('',*,*,#1629,.T.);
#1629 = EDGE_CURVE('',#1622,#1630,#1632,.T.);
#1630 = VERTEX_POINT('',#1631);
#1631 = CARTESIAN_POINT('',(-21.5,-21.,-39.));
#1632 = LINE('',#1633,#1634);
#1633 = CARTESIAN_POINT('',(-21.5,-64.,-39.));
#1634 = VECTOR('',#1635,1.);
#1635 = DIRECTION('',(0.,1.,0.));
#1636 = ORIENTED_EDGE('',*,*,#1637,.T.);
#1637 = EDGE_CURVE('',#1630,#1638,#1640,.T.);
#1638 = VERTEX_POINT('',#1639);
#1639 = CARTESIAN_POINT('',(21.5,-21.,-39.));
#1640 = LINE('',#1641,#1642);
#1641 = CARTESIAN_POINT('',(-21.5,-21.,-39.));
#1642 = VECTOR('',#1643,1.);
#1643 = DIRECTION('',(1.,0.,0.));
#1644 = ORIENTED_EDGE('',*,*,#1645,.T.);
#1645 = EDGE_CURVE('',#1638,#1646,#1648,.T.);
#1646 = VERTEX_POINT('',#1647);
#1647 = CARTESIAN_POINT('',(21.5,-64.,-39.));
#1648 = LINE('',#1649,#1650);
#1649 = CARTESIAN_POINT('',(21.5,-21.,-39.));
#1650 = VECTOR('',#1651,1.);
#1651 = DIRECTION('',(0.,-1.,0.));
#1652 = ORIENTED_EDGE('',*,*,#1653,.T.);
#1653 = EDGE_CURVE('',#1646,#1654,#1656,.T.);
#1654 = VERTEX_POINT('',#1655);
#1655 = CARTESIAN_POINT('',(9.,-64.,-39.));
#1656 = LINE('',#1657,#1658);
#1657 = CARTESIAN_POINT('',(21.5,-64.,-39.));
#1658 = VECTOR('',#1659,1.);
#1659 = DIRECTION('',(-1.,0.,0.));
#1660 = ORIENTED_EDGE('',*,*,#1661,.T.);
#1661 = EDGE_CURVE('',#1654,#1092,#1662,.T.);
#1662 = LINE('',#1663,#1664);
#1663 = CARTESIAN_POINT('',(9.,-64.,-39.));
#1664 = VECTOR('',#1665,1.);
#1665 = DIRECTION('',(0.,-1.,0.));
#1666 = ORIENTED_EDGE('',*,*,#1099,.F.);
#1667 = ORIENTED_EDGE('',*,*,#1044,.T.);
#1668 = ORIENTED_EDGE('',*,*,#890,.F.);
#1669 = ORIENTED_EDGE('',*,*,#1670,.F.);
#1670 = EDGE_CURVE('',#1336,#891,#1671,.T.);
#1671 = LINE('',#1672,#1673);
#1672 = CARTESIAN_POINT('',(-25.,-18.25,-39.));
#1673 = VECTOR('',#1674,1.);
#1674 = DIRECTION('',(1.,0.,0.));
#1675 = PLANE('',#1676);
#1676 = AXIS2_PLACEMENT_3D('',#1677,#1678,#1679);
#1677 = CARTESIAN_POINT('',(0.,-39.625,-39.));
#1678 = DIRECTION('',(0.,0.,1.));
#1679 = DIRECTION('',(1.,0.,0.));
#1680 = ADVANCED_FACE('',(#1681),#1692,.T.);
#1681 = FACE_BOUND('',#1682,.T.);
#1682 = EDGE_LOOP('',(#1683,#1684,#1690,#1691));
#1683 = ORIENTED_EDGE('',*,*,#1335,.F.);
#1684 = ORIENTED_EDGE('',*,*,#1685,.T.);
#1685 = EDGE_CURVE('',#1328,#899,#1686,.T.);
#1686 = LINE('',#1687,#1688);
#1687 = CARTESIAN_POINT('',(-25.,-9.25,-30.));
#1688 = VECTOR('',#1689,1.);
#1689 = DIRECTION('',(1.,0.,0.));
#1690 = ORIENTED_EDGE('',*,*,#898,.T.);
#1691 = ORIENTED_EDGE('',*,*,#1670,.F.);
#1692 = PLANE('',#1693);
#1693 = AXIS2_PLACEMENT_3D('',#1694,#1695,#1696);
#1694 = CARTESIAN_POINT('',(-25.,-13.75,-34.5));
#1695 = DIRECTION('',(0.,0.707106781187,-0.707106781187));
#1696 = DIRECTION('',(1.,0.,0.));
#1697 = ADVANCED_FACE('',(#1698),#1704,.F.);
#1698 = FACE_BOUND('',#1699,.F.);
#1699 = EDGE_LOOP('',(#1700,#1701,#1702,#1703));
#1700 = ORIENTED_EDGE('',*,*,#1327,.T.);
#1701 = ORIENTED_EDGE('',*,*,#1685,.T.);
#1702 = ORIENTED_EDGE('',*,*,#906,.F.);
#1703 = ORIENTED_EDGE('',*,*,#1132,.F.);
#1704 = PLANE('',#1705);
#1705 = AXIS2_PLACEMENT_3D('',#1706,#1707,#1708);
#1706 = CARTESIAN_POINT('',(-25.,-9.25,1.132798289211E-15));
#1707 = DIRECTION('',(0.,-1.,1.224646799147E-16));
#1708 = DIRECTION('',(1.,0.,0.));
#1709 = ADVANCED_FACE('',(#1710),#1721,.F.);
#1710 = FACE_BOUND('',#1711,.F.);
#1711 = EDGE_LOOP('',(#1712,#1713,#1714,#1715));
#1712 = ORIENTED_EDGE('',*,*,#1115,.F.);
#1713 = ORIENTED_EDGE('',*,*,#1596,.T.);
#1714 = ORIENTED_EDGE('',*,*,#944,.T.);
#1715 = ORIENTED_EDGE('',*,*,#1716,.F.);
#1716 = EDGE_CURVE('',#1118,#947,#1717,.T.);
#1717 = LINE('',#1718,#1719);
#1718 = CARTESIAN_POINT('',(-21.,50.,0.));
#1719 = VECTOR('',#1720,1.);
#1720 = DIRECTION('',(0.,0.,-1.));
#1721 = PLANE('',#1722);
#1722 = AXIS2_PLACEMENT_3D('',#1723,#1724,#1725);
#1723 = CARTESIAN_POINT('',(25.,50.,0.));
#1724 = DIRECTION('',(0.,1.,0.));
#1725 = DIRECTION('',(-1.,0.,0.));
#1726 = ADVANCED_FACE('',(#1727),#1733,.F.);
#1727 = FACE_BOUND('',#1728,.T.);
#1728 = EDGE_LOOP('',(#1729,#1730,#1731,#1732));
#1729 = ORIENTED_EDGE('',*,*,#1194,.F.);
#1730 = ORIENTED_EDGE('',*,*,#1010,.T.);
#1731 = ORIENTED_EDGE('',*,*,#954,.T.);
#1732 = ORIENTED_EDGE('',*,*,#1716,.F.);
#1733 = PLANE('',#1734);
#1734 = AXIS2_PLACEMENT_3D('',#1735,#1736,#1737);
#1735 = CARTESIAN_POINT('',(-23.,52.,0.));
#1736 = DIRECTION('',(0.707106781187,0.707106781187,0.));
#1737 = DIRECTION('',(0.,0.,1.));
#1738 = ADVANCED_FACE('',(#1739),#1750,.F.);
#1739 = FACE_BOUND('',#1740,.F.);
#1740 = EDGE_LOOP('',(#1741,#1742,#1748,#1749));
#1741 = ORIENTED_EDGE('',*,*,#1489,.F.);
#1742 = ORIENTED_EDGE('',*,*,#1743,.T.);
#1743 = EDGE_CURVE('',#1490,#981,#1744,.T.);
#1744 = LINE('',#1745,#1746);
#1745 = CARTESIAN_POINT('',(17.65,77.,10.));
#1746 = VECTOR('',#1747,1.);
#1747 = DIRECTION('',(-0.,-0.,-1.));
#1748 = ORIENTED_EDGE('',*,*,#980,.T.);
#1749 = ORIENTED_EDGE('',*,*,#1743,.F.);
#1750 = CYLINDRICAL_SURFACE('',#1751,2.65);
#1751 = AXIS2_PLACEMENT_3D('',#1752,#1753,#1754);
#1752 = CARTESIAN_POINT('',(15.,77.,10.));
#1753 = DIRECTION('',(0.,0.,1.));
#1754 = DIRECTION('',(1.,0.,0.));
#1755 = ADVANCED_FACE('',(#1756),#1767,.F.);
#1756 = FACE_BOUND('',#1757,.F.);
#1757 = EDGE_LOOP('',(#1758,#1759,#1765,#1766));
#1758 = ORIENTED_EDGE('',*,*,#1469,.F.);
#1759 = ORIENTED_EDGE('',*,*,#1760,.T.);
#1760 = EDGE_CURVE('',#1470,#992,#1761,.T.);
#1761 = LINE('',#1762,#1763);
#1762 = CARTESIAN_POINT('',(-12.35,77.,10.));
#1763 = VECTOR('',#1764,1.);
#1764 = DIRECTION('',(-0.,-0.,-1.));
#1765 = ORIENTED_EDGE('',*,*,#991,.T.);
#1766 = ORIENTED_EDGE('',*,*,#1760,.F.);
#1767 = CYLINDRICAL_SURFACE('',#1768,2.65);
#1768 = AXIS2_PLACEMENT_3D('',#1769,#1770,#1771);
#1769 = CARTESIAN_POINT('',(-15.,77.,10.));
#1770 = DIRECTION('',(0.,0.,1.));
#1771 = DIRECTION('',(1.,0.,0.));
#1772 = ADVANCED_FACE('',(#1773),#1791,.F.);
#1773 = FACE_BOUND('',#1774,.F.);
#1774 = EDGE_LOOP('',(#1775,#1776,#1784,#1790));
#1775 = ORIENTED_EDGE('',*,*,#1075,.T.);
#1776 = ORIENTED_EDGE('',*,*,#1777,.T.);
#1777 = EDGE_CURVE('',#1076,#1778,#1780,.T.);
#1778 = VERTEX_POINT('',#1779);
#1779 = CARTESIAN_POINT('',(-9.,-64.,-28.));
#1780 = LINE('',#1781,#1782);
#1781 = CARTESIAN_POINT('',(-9.,-70.,-28.));
#1782 = VECTOR('',#1783,1.);
#1783 = DIRECTION('',(0.,1.,0.));
#1784 = ORIENTED_EDGE('',*,*,#1785,.F.);
#1785 = EDGE_CURVE('',#1614,#1778,#1786,.T.);
#1786 = LINE('',#1787,#1788);
#1787 = CARTESIAN_POINT('',(-9.,-64.,-39.));
#1788 = VECTOR('',#1789,1.);
#1789 = DIRECTION('',(0.,0.,1.));
#1790 = ORIENTED_EDGE('',*,*,#1613,.F.);
#1791 = PLANE('',#1792);
#1792 = AXIS2_PLACEMENT_3D('',#1793,#1794,#1795);
#1793 = CARTESIAN_POINT('',(-9.,-70.,-39.));
#1794 = DIRECTION('',(-1.,0.,0.));
#1795 = DIRECTION('',(0.,1.,0.));
#1796 = ADVANCED_FACE('',(#1797),#1815,.F.);
#1797 = FACE_BOUND('',#1798,.T.);
#1798 = EDGE_LOOP('',(#1799,#1800,#1808,#1814));
#1799 = ORIENTED_EDGE('',*,*,#1777,.T.);
#1800 = ORIENTED_EDGE('',*,*,#1801,.T.);
#1801 = EDGE_CURVE('',#1778,#1802,#1804,.T.);
#1802 = VERTEX_POINT('',#1803);
#1803 = CARTESIAN_POINT('',(9.,-64.,-28.));
#1804 = LINE('',#1805,#1806);
#1805 = CARTESIAN_POINT('',(-9.,-64.,-28.));
#1806 = VECTOR('',#1807,1.);
#1807 = DIRECTION('',(1.,0.,0.));
#1808 = ORIENTED_EDGE('',*,*,#1809,.T.);
#1809 = EDGE_CURVE('',#1802,#1084,#1810,.T.);
#1810 = LINE('',#1811,#1812);
#1811 = CARTESIAN_POINT('',(9.,-64.,-28.));
#1812 = VECTOR('',#1813,1.);
#1813 = DIRECTION('',(0.,-1.,0.));
#1814 = ORIENTED_EDGE('',*,*,#1083,.T.);
#1815 = PLANE('',#1816);
#1816 = AXIS2_PLACEMENT_3D('',#1817,#1818,#1819);
#1817 = CARTESIAN_POINT('',(0.,-67.,-28.));
#1818 = DIRECTION('',(0.,0.,1.));
#1819 = DIRECTION('',(1.,0.,0.));
#1820 = ADVANCED_FACE('',(#1821),#1832,.F.);
#1821 = FACE_BOUND('',#1822,.F.);
#1822 = EDGE_LOOP('',(#1823,#1829,#1830,#1831));
#1823 = ORIENTED_EDGE('',*,*,#1824,.T.);
#1824 = EDGE_CURVE('',#1654,#1802,#1825,.T.);
#1825 = LINE('',#1826,#1827);
#1826 = CARTESIAN_POINT('',(9.,-64.,-39.));
#1827 = VECTOR('',#1828,1.);
#1828 = DIRECTION('',(0.,0.,1.));
#1829 = ORIENTED_EDGE('',*,*,#1809,.T.);
#1830 = ORIENTED_EDGE('',*,*,#1091,.F.);
#1831 = ORIENTED_EDGE('',*,*,#1661,.F.);
#1832 = PLANE('',#1833);
#1833 = AXIS2_PLACEMENT_3D('',#1834,#1835,#1836);
#1834 = CARTESIAN_POINT('',(9.,-64.,-39.));
#1835 = DIRECTION('',(1.,0.,0.));
#1836 = DIRECTION('',(0.,-1.,0.));
#1837 = ADVANCED_FACE('',(#1838),#1849,.T.);
#1838 = FACE_BOUND('',#1839,.T.);
#1839 = EDGE_LOOP('',(#1840,#1841,#1847,#1848));
#1840 = ORIENTED_EDGE('',*,*,#1178,.T.);
#1841 = ORIENTED_EDGE('',*,*,#1842,.T.);
#1842 = EDGE_CURVE('',#1171,#1237,#1843,.T.);
#1843 = LINE('',#1844,#1845);
#1844 = CARTESIAN_POINT('',(-25.,26.,0.));
#1845 = VECTOR('',#1846,1.);
#1846 = DIRECTION('',(0.,0.,-1.));
#1847 = ORIENTED_EDGE('',*,*,#1236,.F.);
#1848 = ORIENTED_EDGE('',*,*,#1218,.F.);
#1849 = PLANE('',#1850);
#1850 = AXIS2_PLACEMENT_3D('',#1851,#1852,#1853);
#1851 = CARTESIAN_POINT('',(-25.,34.,-10.));
#1852 = DIRECTION('',(1.,0.,0.));
#1853 = DIRECTION('',(0.,0.,1.));
#1854 = ADVANCED_FACE('',(#1855),#1866,.F.);
#1855 = FACE_BOUND('',#1856,.T.);
#1856 = EDGE_LOOP('',(#1857,#1858,#1864,#1865));
#1857 = ORIENTED_EDGE('',*,*,#1170,.F.);
#1858 = ORIENTED_EDGE('',*,*,#1859,.T.);
#1859 = EDGE_CURVE('',#1163,#1245,#1860,.T.);
#1860 = LINE('',#1861,#1862);
#1861 = CARTESIAN_POINT('',(-30.,21.,0.));
#1862 = VECTOR('',#1863,1.);
#1863 = DIRECTION('',(0.,0.,-1.));
#1864 = ORIENTED_EDGE('',*,*,#1244,.T.);
#1865 = ORIENTED_EDGE('',*,*,#1842,.F.);
#1866 = PLANE('',#1867);
#1867 = AXIS2_PLACEMENT_3D('',#1868,#1869,#1870);
#1868 = CARTESIAN_POINT('',(-27.5,23.5,0.));
#1869 = DIRECTION('',(-0.707106781187,0.707106781187,0.));
#1870 = DIRECTION('',(0.,0.,1.));
#1871 = ADVANCED_FACE('',(#1872,#1878),#1889,.F.);
#1872 = FACE_BOUND('',#1873,.F.);
#1873 = EDGE_LOOP('',(#1874,#1875,#1876,#1877));
#1874 = ORIENTED_EDGE('',*,*,#1162,.F.);
#1875 = ORIENTED_EDGE('',*,*,#1859,.T.);
#1876 = ORIENTED_EDGE('',*,*,#1252,.T.);
#1877 = ORIENTED_EDGE('',*,*,#1372,.F.);
#1878 = FACE_BOUND('',#1879,.F.);
#1879 = EDGE_LOOP('',(#1880));
#1880 = ORIENTED_EDGE('',*,*,#1881,.T.);
#1881 = EDGE_CURVE('',#1882,#1882,#1884,.T.);
#1882 = VERTEX_POINT('',#1883);
#1883 = CARTESIAN_POINT('',(-30.5,21.,-10.));
#1884 = CIRCLE('',#1885,4.5);
#1885 = AXIS2_PLACEMENT_3D('',#1886,#1887,#1888);
#1886 = CARTESIAN_POINT('',(-35.,21.,-10.));
#1887 = DIRECTION('',(0.,-1.,2.22044604925E-16));
#1888 = DIRECTION('',(1.,0.,0.));
#1889 = PLANE('',#1890);
#1890 = AXIS2_PLACEMENT_3D('',#1891,#1892,#1893);
#1891 = CARTESIAN_POINT('',(-25.,21.,0.));
#1892 = DIRECTION('',(0.,1.,0.));
#1893 = DIRECTION('',(-1.,0.,0.));
#1894 = ADVANCED_FACE('',(#1895,#1906),#1909,.F.);
#1895 = FACE_BOUND('',#1896,.F.);
#1896 = EDGE_LOOP('',(#1897));
#1897 = ORIENTED_EDGE('',*,*,#1898,.F.);
#1898 = EDGE_CURVE('',#1899,#1899,#1901,.T.);
#1899 = VERTEX_POINT('',#1900);
#1900 = CARTESIAN_POINT('',(-30.5,30.,-10.));
#1901 = CIRCLE('',#1902,4.5);
#1902 = AXIS2_PLACEMENT_3D('',#1903,#1904,#1905);
#1903 = CARTESIAN_POINT('',(-35.,30.,-10.));
#1904 = DIRECTION('',(0.,-1.,2.22044604925E-16));
#1905 = DIRECTION('',(1.,0.,0.));
#1906 = FACE_BOUND('',#1907,.F.);
#1907 = EDGE_LOOP('',(#1908));
#1908 = ORIENTED_EDGE('',*,*,#1274,.T.);
#1909 = PLANE('',#1910);
#1910 = AXIS2_PLACEMENT_3D('',#1911,#1912,#1913);
#1911 = CARTESIAN_POINT('',(-35.,30.,-10.));
#1912 = DIRECTION('',(2.631639762074E-16,1.,-4.558133775131E-16));
#1913 = DIRECTION('',(0.,4.558133775131E-16,1.));
#1914 = ADVANCED_FACE('',(#1915),#1926,.F.);
#1915 = FACE_BOUND('',#1916,.F.);
#1916 = EDGE_LOOP('',(#1917,#1918,#1924,#1925));
#1917 = ORIENTED_EDGE('',*,*,#1389,.F.);
#1918 = ORIENTED_EDGE('',*,*,#1919,.T.);
#1919 = EDGE_CURVE('',#1390,#1541,#1920,.T.);
#1920 = LINE('',#1921,#1922);
#1921 = CARTESIAN_POINT('',(-13.75,-58.,10.));
#1922 = VECTOR('',#1923,1.);
#1923 = DIRECTION('',(-0.,-0.,-1.));
#1924 = ORIENTED_EDGE('',*,*,#1540,.T.);
#1925 = ORIENTED_EDGE('',*,*,#1919,.F.);
#1926 = CYLINDRICAL_SURFACE('',#1927,1.75);
#1927 = AXIS2_PLACEMENT_3D('',#1928,#1929,#1930);
#1928 = CARTESIAN_POINT('',(-15.5,-58.,10.));
#1929 = DIRECTION('',(0.,0.,1.));
#1930 = DIRECTION('',(1.,0.,0.));
#1931 = ADVANCED_FACE('',(#1932),#1943,.F.);
#1932 = FACE_BOUND('',#1933,.F.);
#1933 = EDGE_LOOP('',(#1934,#1935,#1941,#1942));
#1934 = ORIENTED_EDGE('',*,*,#1409,.F.);
#1935 = ORIENTED_EDGE('',*,*,#1936,.T.);
#1936 = EDGE_CURVE('',#1410,#1563,#1937,.T.);
#1937 = LINE('',#1938,#1939);
#1938 = CARTESIAN_POINT('',(-13.75,-27.,10.));
#1939 = VECTOR('',#1940,1.);
#1940 = DIRECTION('',(-0.,-0.,-1.));
#1941 = ORIENTED_EDGE('',*,*,#1562,.T.);
#1942 = ORIENTED_EDGE('',*,*,#1936,.F.);
#1943 = CYLINDRICAL_SURFACE('',#1944,1.75);
#1944 = AXIS2_PLACEMENT_3D('',#1945,#1946,#1947);
#1945 = CARTESIAN_POINT('',(-15.5,-27.,10.));
#1946 = DIRECTION('',(0.,0.,1.));
#1947 = DIRECTION('',(1.,0.,0.));
#1948 = ADVANCED_FACE('',(#1949),#1960,.F.);
#1949 = FACE_BOUND('',#1950,.F.);
#1950 = EDGE_LOOP('',(#1951,#1952,#1958,#1959));
#1951 = ORIENTED_EDGE('',*,*,#1429,.F.);
#1952 = ORIENTED_EDGE('',*,*,#1953,.T.);
#1953 = EDGE_CURVE('',#1430,#1552,#1954,.T.);
#1954 = LINE('',#1955,#1956);
#1955 = CARTESIAN_POINT('',(17.25,-58.,10.));
#1956 = VECTOR('',#1957,1.);
#1957 = DIRECTION('',(-0.,-0.,-1.));
#1958 = ORIENTED_EDGE('',*,*,#1551,.T.);
#1959 = ORIENTED_EDGE('',*,*,#1953,.F.);
#1960 = CYLINDRICAL_SURFACE('',#1961,1.75);
#1961 = AXIS2_PLACEMENT_3D('',#1962,#1963,#1964);
#1962 = CARTESIAN_POINT('',(15.5,-58.,10.));
#1963 = DIRECTION('',(0.,0.,1.));
#1964 = DIRECTION('',(1.,0.,0.));
#1965 = ADVANCED_FACE('',(#1966),#1977,.F.);
#1966 = FACE_BOUND('',#1967,.F.);
#1967 = EDGE_LOOP('',(#1968,#1969,#1975,#1976));
#1968 = ORIENTED_EDGE('',*,*,#1449,.F.);
#1969 = ORIENTED_EDGE('',*,*,#1970,.T.);
#1970 = EDGE_CURVE('',#1450,#1577,#1971,.T.);
#1971 = LINE('',#1972,#1973);
#1972 = CARTESIAN_POINT('',(17.25,-27.,10.));
#1973 = VECTOR('',#1974,1.);
#1974 = DIRECTION('',(-0.,-0.,-1.));
#1975 = ORIENTED_EDGE('',*,*,#1576,.T.);
#1976 = ORIENTED_EDGE('',*,*,#1970,.F.);
#1977 = CYLINDRICAL_SURFACE('',#1978,1.75);
#1978 = AXIS2_PLACEMENT_3D('',#1979,#1980,#1981);
#1979 = CARTESIAN_POINT('',(15.5,-27.,10.));
#1980 = DIRECTION('',(0.,0.,1.));
#1981 = DIRECTION('',(1.,0.,0.));
#1982 = ADVANCED_FACE('',(#1983),#1999,.F.);
#1983 = FACE_BOUND('',#1984,.F.);
#1984 = EDGE_LOOP('',(#1985,#1991,#1992,#1998));
#1985 = ORIENTED_EDGE('',*,*,#1986,.T.);
#1986 = EDGE_CURVE('',#1622,#1507,#1987,.T.);
#1987 = LINE('',#1988,#1989);
#1988 = CARTESIAN_POINT('',(-21.5,-64.,-39.));
#1989 = VECTOR('',#1990,1.);
#1990 = DIRECTION('',(0.,0.,1.));
#1991 = ORIENTED_EDGE('',*,*,#1506,.T.);
#1992 = ORIENTED_EDGE('',*,*,#1993,.F.);
#1993 = EDGE_CURVE('',#1630,#1509,#1994,.T.);
#1994 = LINE('',#1995,#1996);
#1995 = CARTESIAN_POINT('',(-21.5,-21.,-39.));
#1996 = VECTOR('',#1997,1.);
#1997 = DIRECTION('',(0.,0.,1.));
#1998 = ORIENTED_EDGE('',*,*,#1629,.F.);
#1999 = PLANE('',#2000);
#2000 = AXIS2_PLACEMENT_3D('',#2001,#2002,#2003);
#2001 = CARTESIAN_POINT('',(-21.5,-64.,-39.));
#2002 = DIRECTION('',(-1.,0.,0.));
#2003 = DIRECTION('',(0.,1.,0.));
#2004 = ADVANCED_FACE('',(#2005),#2020,.F.);
#2005 = FACE_BOUND('',#2006,.F.);
#2006 = EDGE_LOOP('',(#2007,#2008,#2014,#2015,#2016,#2017,#2018,#2019));
#2007 = ORIENTED_EDGE('',*,*,#1653,.F.);
#2008 = ORIENTED_EDGE('',*,*,#2009,.T.);
#2009 = EDGE_CURVE('',#1646,#1517,#2010,.T.);
#2010 = LINE('',#2011,#2012);
#2011 = CARTESIAN_POINT('',(21.5,-64.,-39.));
#2012 = VECTOR('',#2013,1.);
#2013 = DIRECTION('',(0.,0.,1.));
#2014 = ORIENTED_EDGE('',*,*,#1516,.T.);
#2015 = ORIENTED_EDGE('',*,*,#1986,.F.);
#2016 = ORIENTED_EDGE('',*,*,#1621,.F.);
#2017 = ORIENTED_EDGE('',*,*,#1785,.T.);
#2018 = ORIENTED_EDGE('',*,*,#1801,.T.);
#2019 = ORIENTED_EDGE('',*,*,#1824,.F.);
#2020 = PLANE('',#2021);
#2021 = AXIS2_PLACEMENT_3D('',#2022,#2023,#2024);
#2022 = CARTESIAN_POINT('',(21.5,-64.,-39.));
#2023 = DIRECTION('',(0.,-1.,0.));
#2024 = DIRECTION('',(-1.,0.,0.));
#2025 = ADVANCED_FACE('',(#2026),#2037,.F.);
#2026 = FACE_BOUND('',#2027,.F.);
#2027 = EDGE_LOOP('',(#2028,#2029,#2030,#2036));
#2028 = ORIENTED_EDGE('',*,*,#1993,.T.);
#2029 = ORIENTED_EDGE('',*,*,#1532,.T.);
#2030 = ORIENTED_EDGE('',*,*,#2031,.F.);
#2031 = EDGE_CURVE('',#1638,#1525,#2032,.T.);
#2032 = LINE('',#2033,#2034);
#2033 = CARTESIAN_POINT('',(21.5,-21.,-39.));
#2034 = VECTOR('',#2035,1.);
#2035 = DIRECTION('',(0.,0.,1.));
#2036 = ORIENTED_EDGE('',*,*,#1637,.F.);
#2037 = PLANE('',#2038);
#2038 = AXIS2_PLACEMENT_3D('',#2039,#2040,#2041);
#2039 = CARTESIAN_POINT('',(-21.5,-21.,-39.));
#2040 = DIRECTION('',(0.,1.,0.));
#2041 = DIRECTION('',(1.,0.,0.));
#2042 = ADVANCED_FACE('',(#2043),#2049,.F.);
#2043 = FACE_BOUND('',#2044,.F.);
#2044 = EDGE_LOOP('',(#2045,#2046,#2047,#2048));
#2045 = ORIENTED_EDGE('',*,*,#2031,.T.);
#2046 = ORIENTED_EDGE('',*,*,#1524,.T.);
#2047 = ORIENTED_EDGE('',*,*,#2009,.F.);
#2048 = ORIENTED_EDGE('',*,*,#1645,.F.);
#2049 = PLANE('',#2050);
#2050 = AXIS2_PLACEMENT_3D('',#2051,#2052,#2053);
#2051 = CARTESIAN_POINT('',(21.5,-21.,-39.));
#2052 = DIRECTION('',(1.,0.,0.));
#2053 = DIRECTION('',(0.,-1.,0.));
#2054 = ADVANCED_FACE('',(#2055),#2065,.F.);
#2055 = FACE_BOUND('',#2056,.F.);
#2056 = EDGE_LOOP('',(#2057,#2058,#2063,#2064));
#2057 = ORIENTED_EDGE('',*,*,#1881,.F.);
#2058 = ORIENTED_EDGE('',*,*,#2059,.F.);
#2059 = EDGE_CURVE('',#1899,#1882,#2060,.T.);
#2060 = B_SPLINE_CURVE_WITH_KNOTS('',1,(#2061,#2062),.UNSPECIFIED.,.F.,
  .F.,(2,2),(-9.,0.),.PIECEWISE_BEZIER_KNOTS.);
#2061 = CARTESIAN_POINT('',(-30.5,30.,-10.));
#2062 = CARTESIAN_POINT('',(-30.5,21.,-10.));
#2063 = ORIENTED_EDGE('',*,*,#1898,.T.);
#2064 = ORIENTED_EDGE('',*,*,#2059,.T.);
#2065 = CYLINDRICAL_SURFACE('',#2066,4.5);
#2066 = AXIS2_PLACEMENT_3D('',#2067,#2068,#2069);
#2067 = CARTESIAN_POINT('',(-35.,21.,-10.));
#2068 = DIRECTION('',(0.,-1.,2.22044604925E-16));
#2069 = DIRECTION('',(1.,0.,0.));
#2070 = ( GEOMETRIC_REPRESENTATION_CONTEXT(3) 
GLOBAL_UNCERTAINTY_ASSIGNED_CONTEXT((#2074)) 
GLOBAL_UNIT_ASSIGNED_CONTEXT((#2071,#2072,#2073)) REPRESENTATION_CONTEXT
('Context #1','3D Context with UNIT and UNCERTAINTY') );
#2071 = ( LENGTH_UNIT() NAMED_UNIT(*) SI_UNIT(.MILLI.,.METRE.) );
#2072 = ( NAMED_UNIT(*) PLANE_ANGLE_UNIT() SI_UNIT($,.RADIAN.) );
#2073 = ( NAMED_UNIT(*) SI_UNIT($,.STERADIAN.) SOLID_ANGLE_UNIT() );
#2074 = UNCERTAINTY_MEASURE_WITH_UNIT(LENGTH_MEASURE(5.E-07),#2071,
  'distance_accuracy_value','confusion accuracy');
#2075 = PRODUCT_RELATED_PRODUCT_CATEGORY('part',$,(#7));
#2076 = MECHANICAL_DESIGN_GEOMETRIC_PRESENTATION_REPRESENTATION('',(
    #2077),#2070);
#2077 = STYLED_ITEM('color',(#2078),#15);
#2078 = PRESENTATION_STYLE_ASSIGNMENT((#2079,#2085));
#2079 = SURFACE_STYLE_USAGE(.BOTH.,#2080);
#2080 = SURFACE_SIDE_STYLE('',(#2081));
#2081 = SURFACE_STYLE_FILL_AREA(#2082);
#2082 = FILL_AREA_STYLE('',(#2083));
#2083 = FILL_AREA_STYLE_COLOUR('',#2084);
#2084 = COLOUR_RGB('',0.447058818107,0.474509808674,0.501960817233);
#2085 = CURVE_STYLE('',#2086,POSITIVE_LENGTH_MEASURE(0.1),#2087);
#2086 = DRAUGHTING_PRE_DEFINED_CURVE_FONT('continuous');
#2087 = COLOUR_RGB('',9.803921802644E-02,9.803921802644E-02,
  9.803921802644E-02);
ENDSEC;
END-ISO-10303-21;
